M48
; DRILL file {KiCad 8.0.7} date 2025-12-07T18:06:11-0800
; FORMAT={-:-/ absolute / metric / decimal}
; #@! TF.CreationDate,2025-12-07T18:06:11-08:00
; #@! TF.GenerationSoftware,Kicad,Pcbnew,8.0.7
; #@! TF.FileFunction,Plated,1,6,PTH
FMAT,2
METRIC
; #@! TA.AperFunction,Plated,PTH,ViaDrill
T1C0.300
; #@! TA.AperFunction,Plated,PTH,ComponentDrill
T2C0.300
; #@! TA.AperFunction,Plated,PTH,ComponentDrill
T3C0.600
; #@! TA.AperFunction,Plated,PTH,ComponentDrill
T4C0.890
; #@! TA.AperFunction,Plated,PTH,ComponentDrill
T5C1.000
; #@! TA.AperFunction,Plated,PTH,ComponentDrill
T6C1.020
; #@! TA.AperFunction,Plated,PTH,ComponentDrill
T7C1.630
; #@! TA.AperFunction,Plated,PTH,ComponentDrill
T8C1.900
; #@! TA.AperFunction,Plated,PTH,ComponentDrill
T9C2.200
%
G90
G05
T1
X150.55Y-133.5
X150.55Y-134.5
X150.55Y-135.5
X150.7Y-121.7
X151.0Y-141.45
X151.273Y-127.009
X151.55Y-141.45
X151.7Y-114.1
X152.25Y-110.1
X152.25Y-111.1
X152.25Y-112.1
X152.25Y-113.1
X152.6Y-121.1
X152.6Y-122.1
X152.7Y-129.45
X152.7Y-133.1
X152.8Y-140.7
X152.8Y-141.65
X152.9Y-131.1
X152.9Y-142.7
X152.95Y-123.1
X154.1Y-131.5
X155.1Y-131.9
X155.5Y-136.0
X155.7Y-109.1
X155.7Y-139.4
X156.3Y-133.85
X156.3Y-134.65
X156.838Y-133.25
X156.938Y-134.665
X157.188Y-134.15
X157.34Y-130.51
X157.54Y-124.78
X157.887Y-134.15
X158.137Y-134.66
X158.6Y-119.5
X158.6Y-120.2
X158.6Y-120.9
X158.6Y-121.6
X158.6Y-122.3
X158.6Y-123.0
X159.3Y-119.5
X159.3Y-120.2
X159.3Y-120.9
X159.3Y-121.6
X159.3Y-122.3
X159.3Y-123.0
X159.3Y-123.7
X159.3Y-124.4
X159.5Y-144.3
X160.0Y-119.5
X160.0Y-120.2
X160.0Y-120.9
X160.0Y-121.6
X160.0Y-122.3
X160.0Y-123.0
X160.0Y-123.7
X160.0Y-124.4
X160.2Y-143.6
X160.2Y-144.3
X160.7Y-119.5
X160.7Y-120.2
X160.7Y-120.9
X160.7Y-121.6
X160.7Y-122.3
X160.7Y-123.0
X160.7Y-123.7
X160.7Y-124.4
X160.8Y-133.5
X162.3Y-133.5
X162.9Y-129.1
X163.6Y-129.1
X163.7Y-139.6
X163.85Y-131.6
X163.85Y-133.55
X163.85Y-135.6
X164.3Y-129.1
X164.4Y-139.6
X164.9Y-108.6
X165.0Y-129.1
X165.1Y-138.9
X165.1Y-139.6
X165.125Y-115.25
X165.8Y-138.9
X165.8Y-139.6
X166.1Y-129.1
X166.3Y-119.5
X166.3Y-120.2
X166.3Y-120.9
X166.3Y-121.6
X166.3Y-122.3
X166.3Y-123.0
X166.3Y-123.7
X166.3Y-124.4
X166.5Y-138.9
X166.5Y-139.6
X166.5Y-140.3
X166.85Y-129.1
X167.0Y-119.5
X167.0Y-120.2
X167.0Y-120.9
X167.0Y-121.6
X167.0Y-122.3
X167.0Y-123.0
X167.0Y-123.7
X167.0Y-124.4
X167.1Y-143.6
X167.1Y-144.3
X167.6Y-127.6
X167.6Y-128.35
X167.6Y-129.1
X167.6Y-133.3
X167.6Y-140.3
X167.65Y-135.6
X167.65Y-137.7
X167.7Y-119.5
X167.7Y-120.2
X167.8Y-143.6
X167.8Y-144.3
X168.4Y-108.6
X168.5Y-143.6
X168.5Y-144.3
X168.6Y-123.4
X169.0Y-119.3
X169.1Y-123.85
X169.6Y-123.4
X169.6Y-143.3
X169.8Y-114.1
X170.1Y-123.85
X170.1Y-143.8
X170.3Y-119.3
X170.6Y-140.65
X171.0Y-131.325
X171.05Y-129.185
X171.1Y-143.95
X171.2Y-114.275
X171.588Y-143.177
X171.6Y-123.85
X171.6Y-124.64
X171.7Y-134.7
X171.7Y-135.4
X171.85Y-143.8
X172.0Y-129.185
X172.1Y-123.4
X172.1Y-131.7
X172.1Y-132.35
X172.3Y-107.9
X172.3Y-139.35
X172.4Y-134.7
X172.4Y-135.4
X172.5Y-119.3
X172.9Y-143.95
X172.95Y-129.185
X173.1Y-134.7
X173.1Y-135.4
X173.1Y-140.75
X173.6Y-143.3
X174.1Y-140.75
X174.35Y-136.7
X174.5Y-110.6
X174.6Y-143.3
X174.7Y-114.1
X174.9Y-136.25
X175.1Y-144.05
X175.592Y-136.758
X175.6Y-143.3
X176.1Y-143.8
X176.2Y-109.8
X176.2Y-110.9
X176.2Y-111.9
X176.2Y-113.0
X176.2Y-114.1
X176.6Y-120.5
X176.6Y-143.3
X176.825Y-131.74
X177.1Y-127.525
X177.1Y-136.5
X177.1Y-143.8
X177.13Y-129.855
X177.13Y-130.795
X177.392Y-120.042
X177.6Y-124.6
X177.6Y-143.3
X177.779Y-131.75
X177.8Y-136.5
X177.95Y-120.05
X178.08Y-127.605
X178.1Y-143.8
X178.15Y-124.6
X178.25Y-139.177
X178.55Y-120.05
X178.749Y-132.7
X178.75Y-131.6
X178.98Y-136.48
X179.4Y-133.3
X179.617Y-127.625
X179.617Y-128.585
X180.825Y-134.625
X181.3Y-123.7
X181.425Y-134.625
X181.8Y-118.75
X181.882Y-128.732
X182.0Y-123.4
X182.1Y-107.0
X182.417Y-134.633
X182.65Y-128.6
X182.8Y-118.75
X182.95Y-122.6
X183.1Y-134.625
X183.45Y-121.7
X183.6Y-128.605
X184.507Y-133.275
X184.515Y-130.075
X185.0Y-125.475
X185.2Y-117.7
X185.64Y-134.4
X186.6Y-109.393
X186.6Y-116.0
X187.9Y-114.675
X188.0Y-129.02
X188.0Y-131.85
X188.52Y-134.4
X188.925Y-117.675
X189.85Y-116.925
X189.925Y-109.575
X189.926Y-114.097
X189.95Y-108.675
X189.969Y-110.311
X189.975Y-115.85
X190.15Y-135.65
X190.75Y-124.75
X191.7Y-126.4
X191.8Y-123.05
X192.6Y-123.05
X194.05Y-117.75
X194.25Y-114.55
X195.075Y-119.175
X195.7Y-119.55
X196.35Y-126.4
X196.5Y-119.7
X196.75Y-123.3
X196.92Y-120.8
X199.2Y-108.5
X199.75Y-119.5
X200.0Y-122.474
X201.0Y-126.5
X203.0Y-119.5
X203.7Y-125.0
X203.7Y-125.7
X206.05Y-108.225
X206.05Y-111.2
X207.95Y-123.85
X208.5Y-118.0
X208.5Y-119.25
X208.5Y-120.5
X208.5Y-121.75
X208.8Y-105.1
X209.0Y-123.85
X209.1Y-112.8
X209.3Y-109.7
X211.0Y-105.3
X211.5Y-122.6
X211.5Y-123.3
T2
X180.45Y-130.675
X180.45Y-131.675
X180.45Y-132.675
X181.45Y-130.675
X181.45Y-131.675
X181.45Y-132.675
X182.45Y-130.675
X182.45Y-131.675
X182.45Y-132.675
X196.4Y-114.35
X196.4Y-115.45
X196.95Y-113.8
X196.95Y-114.9
X196.95Y-116.0
X197.5Y-114.35
X197.5Y-115.45
X198.05Y-113.8
X198.05Y-114.9
X198.05Y-116.0
X198.6Y-114.35
X198.6Y-115.45
T4
X193.25Y-130.56
X193.25Y-133.1
X193.25Y-135.64
X193.25Y-138.18
X195.79Y-131.83
X195.79Y-134.37
X195.79Y-136.91
X195.79Y-139.45
T5
X152.2Y-106.1
X152.2Y-117.1
X156.87Y-102.23
X156.87Y-104.77
X159.41Y-102.23
X159.41Y-104.77
X161.95Y-102.23
X161.95Y-104.77
X164.49Y-102.23
X164.49Y-104.77
X167.03Y-102.23
X167.03Y-104.77
X169.57Y-102.23
X169.57Y-104.77
X172.11Y-102.23
X172.11Y-104.77
X174.65Y-102.23
X174.65Y-104.77
X177.19Y-102.23
X177.19Y-104.77
X179.73Y-102.23
X179.73Y-104.77
X182.27Y-102.23
X182.27Y-104.77
X184.81Y-102.23
X184.81Y-104.77
X187.35Y-102.23
X187.35Y-104.77
X189.89Y-102.23
X189.89Y-104.77
X192.43Y-102.23
X192.43Y-104.77
X194.97Y-102.23
X194.97Y-104.77
X197.51Y-102.23
X197.51Y-104.77
X200.05Y-102.23
X200.05Y-104.77
X202.59Y-102.23
X202.59Y-104.77
X205.13Y-102.23
X205.13Y-104.77
T6
X207.04Y-128.375
X207.04Y-130.915
X207.04Y-139.085
X207.04Y-141.625
T7
X199.09Y-127.255
X199.09Y-142.745
T8
X162.2Y-109.1
X162.2Y-114.1
T9
X152.5Y-102.5
X158.35Y-141.5
X188.35Y-141.5
X209.5Y-102.5
T3
X205.625Y-115.68G85X206.725Y-115.68
G05
X205.625Y-124.32G85X206.725Y-124.32
G05
X209.975Y-115.68G85X210.775Y-115.68
G05
X209.975Y-124.32G85X210.775Y-124.32
G05
M30
