G04 #@! TF.GenerationSoftware,KiCad,Pcbnew,8.0.7*
G04 #@! TF.CreationDate,2025-12-07T18:06:09-08:00*
G04 #@! TF.ProjectId,Pivot_Base,5069766f-745f-4426-9173-652e6b696361,rev?*
G04 #@! TF.SameCoordinates,Original*
G04 #@! TF.FileFunction,Soldermask,Top*
G04 #@! TF.FilePolarity,Negative*
%FSLAX46Y46*%
G04 Gerber Fmt 4.6, Leading zero omitted, Abs format (unit mm)*
G04 Created by KiCad (PCBNEW 8.0.7) date 2025-12-07 18:06:09*
%MOMM*%
%LPD*%
G01*
G04 APERTURE LIST*
G04 Aperture macros list*
%AMRoundRect*
0 Rectangle with rounded corners*
0 $1 Rounding radius*
0 $2 $3 $4 $5 $6 $7 $8 $9 X,Y pos of 4 corners*
0 Add a 4 corners polygon primitive as box body*
4,1,4,$2,$3,$4,$5,$6,$7,$8,$9,$2,$3,0*
0 Add four circle primitives for the rounded corners*
1,1,$1+$1,$2,$3*
1,1,$1+$1,$4,$5*
1,1,$1+$1,$6,$7*
1,1,$1+$1,$8,$9*
0 Add four rect primitives between the rounded corners*
20,1,$1+$1,$2,$3,$4,$5,0*
20,1,$1+$1,$4,$5,$6,$7,0*
20,1,$1+$1,$6,$7,$8,$9,0*
20,1,$1+$1,$8,$9,$2,$3,0*%
G04 Aperture macros list end*
%ADD10RoundRect,0.150000X-0.625000X0.150000X-0.625000X-0.150000X0.625000X-0.150000X0.625000X0.150000X0*%
%ADD11RoundRect,0.250000X-0.650000X0.350000X-0.650000X-0.350000X0.650000X-0.350000X0.650000X0.350000X0*%
%ADD12RoundRect,0.200000X0.200000X0.275000X-0.200000X0.275000X-0.200000X-0.275000X0.200000X-0.275000X0*%
%ADD13C,0.400000*%
%ADD14RoundRect,0.150000X0.625000X-0.150000X0.625000X0.150000X-0.625000X0.150000X-0.625000X-0.150000X0*%
%ADD15RoundRect,0.250000X0.650000X-0.350000X0.650000X0.350000X-0.650000X0.350000X-0.650000X-0.350000X0*%
%ADD16RoundRect,0.140000X-0.140000X-0.170000X0.140000X-0.170000X0.140000X0.170000X-0.140000X0.170000X0*%
%ADD17RoundRect,0.200000X0.275000X-0.200000X0.275000X0.200000X-0.275000X0.200000X-0.275000X-0.200000X0*%
%ADD18RoundRect,0.150000X0.512500X0.150000X-0.512500X0.150000X-0.512500X-0.150000X0.512500X-0.150000X0*%
%ADD19RoundRect,0.243750X-0.243750X-0.456250X0.243750X-0.456250X0.243750X0.456250X-0.243750X0.456250X0*%
%ADD20RoundRect,0.150000X-0.150000X0.587500X-0.150000X-0.587500X0.150000X-0.587500X0.150000X0.587500X0*%
%ADD21RoundRect,0.135000X-0.185000X0.135000X-0.185000X-0.135000X0.185000X-0.135000X0.185000X0.135000X0*%
%ADD22RoundRect,0.225000X-0.225000X-0.250000X0.225000X-0.250000X0.225000X0.250000X-0.225000X0.250000X0*%
%ADD23RoundRect,0.140000X0.140000X0.170000X-0.140000X0.170000X-0.140000X-0.170000X0.140000X-0.170000X0*%
%ADD24C,3.800000*%
%ADD25C,2.649000*%
%ADD26C,1.734000*%
%ADD27C,1.602000*%
%ADD28RoundRect,0.102000X-0.699000X0.699000X-0.699000X-0.699000X0.699000X-0.699000X0.699000X0.699000X0*%
%ADD29C,3.250000*%
%ADD30O,1.800000X1.000000*%
%ADD31O,2.100000X1.000000*%
%ADD32R,1.240000X0.600000*%
%ADD33R,1.240000X0.300000*%
%ADD34C,0.650000*%
%ADD35RoundRect,0.135000X-0.135000X-0.185000X0.135000X-0.185000X0.135000X0.185000X-0.135000X0.185000X0*%
%ADD36RoundRect,0.100000X-1.650000X-0.100000X1.650000X-0.100000X1.650000X0.100000X-1.650000X0.100000X0*%
%ADD37RoundRect,0.135000X0.185000X-0.135000X0.185000X0.135000X-0.185000X0.135000X-0.185000X-0.135000X0*%
%ADD38R,1.700000X1.700000*%
%ADD39O,1.700000X1.700000*%
%ADD40RoundRect,0.135000X0.135000X0.185000X-0.135000X0.185000X-0.135000X-0.185000X0.135000X-0.185000X0*%
%ADD41C,3.500000*%
%ADD42RoundRect,0.770000X0.980000X-0.980000X0.980000X0.980000X-0.980000X0.980000X-0.980000X-0.980000X0*%
%ADD43C,1.400000*%
%ADD44R,1.400000X1.200000*%
%ADD45R,2.500000X2.500000*%
%ADD46RoundRect,0.062500X-0.375000X0.062500X-0.375000X-0.062500X0.375000X-0.062500X0.375000X0.062500X0*%
%ADD47RoundRect,0.062500X-0.062500X0.375000X-0.062500X-0.375000X0.062500X-0.375000X0.062500X0.375000X0*%
%ADD48C,0.550000*%
%ADD49R,0.300000X1.800000*%
G04 APERTURE END LIST*
D10*
X154250000Y-121300000D03*
X154250000Y-122300000D03*
D11*
X150375000Y-120000000D03*
X150375000Y-123600000D03*
D12*
X200025000Y-125000000D03*
X198375000Y-125000000D03*
D13*
X172100000Y-136700000D03*
D10*
X154250000Y-126500000D03*
X154250000Y-127500000D03*
X154250000Y-128500000D03*
X154250000Y-129500000D03*
D11*
X150375000Y-125200000D03*
X150375000Y-130800000D03*
D10*
X154245000Y-133700000D03*
X154245000Y-134700000D03*
X154245000Y-135700000D03*
X154245000Y-136700000D03*
X154245000Y-137700000D03*
X154245000Y-138700000D03*
X154245000Y-139700000D03*
X154245000Y-140700000D03*
X154245000Y-141700000D03*
X154245000Y-142700000D03*
D11*
X150370000Y-132400000D03*
X150370000Y-144000000D03*
D14*
X207750000Y-112700000D03*
X207750000Y-111700000D03*
X207750000Y-110700000D03*
X207750000Y-109700000D03*
D15*
X211625000Y-114000000D03*
X211625000Y-108400000D03*
D13*
X174000000Y-114100000D03*
D16*
X182720000Y-123400000D03*
X183680000Y-123400000D03*
D17*
X206050000Y-109875000D03*
X206050000Y-108225000D03*
D18*
X203000000Y-120450000D03*
X203000000Y-119500000D03*
X203000000Y-118550000D03*
X200725000Y-118550000D03*
X200725000Y-119500000D03*
X200725000Y-120450000D03*
D19*
X209125000Y-106600000D03*
X211000000Y-106600000D03*
D13*
X173600000Y-110100000D03*
D20*
X158487500Y-124187500D03*
X156587500Y-124187500D03*
X157537500Y-126062500D03*
D13*
X180275000Y-135125000D03*
D17*
X203200000Y-116985000D03*
X203200000Y-115335000D03*
D21*
X171050000Y-128165000D03*
X171050000Y-129185000D03*
D22*
X198425000Y-123500000D03*
X199975000Y-123500000D03*
D17*
X203200000Y-123953048D03*
X203200000Y-122303048D03*
D23*
X181650000Y-128000000D03*
X180690000Y-128000000D03*
D24*
X209500000Y-102500000D03*
D21*
X187800000Y-130880000D03*
X187800000Y-131900000D03*
D25*
X199090000Y-127255000D03*
X199090000Y-142745000D03*
D26*
X207040000Y-128375000D03*
X207040000Y-130915000D03*
X207040000Y-139085000D03*
X207040000Y-141625000D03*
D27*
X193250000Y-130560000D03*
X195790000Y-131830000D03*
X193250000Y-133100000D03*
X195790000Y-134370000D03*
X193250000Y-135640000D03*
X195790000Y-136910000D03*
X193250000Y-138180000D03*
D28*
X195790000Y-139450000D03*
D29*
X202140000Y-140715000D03*
X202140000Y-129285000D03*
D30*
X210375000Y-115680000D03*
D31*
X206175000Y-115680000D03*
D30*
X210375000Y-124320000D03*
D31*
X206175000Y-124320000D03*
D32*
X205575000Y-123200000D03*
X205575000Y-122400000D03*
D33*
X205575000Y-121750000D03*
X205575000Y-120750000D03*
X205575000Y-119250000D03*
X205575000Y-118250000D03*
D32*
X205575000Y-117600000D03*
X205575000Y-116800000D03*
X205575000Y-116800000D03*
X205575000Y-117600000D03*
D33*
X205575000Y-118750000D03*
X205575000Y-119750000D03*
X205575000Y-120250000D03*
X205575000Y-121250000D03*
D32*
X205575000Y-122400000D03*
X205575000Y-123200000D03*
D34*
X206695000Y-117110000D03*
X206695000Y-122890000D03*
D35*
X187500000Y-134400000D03*
X188520000Y-134400000D03*
D36*
X192000000Y-117800000D03*
X192000000Y-117150000D03*
X192000000Y-116500000D03*
X192000000Y-115850000D03*
X192000000Y-115200000D03*
X192000000Y-114550000D03*
X192000000Y-113900000D03*
X192000000Y-113250000D03*
X192000000Y-112600000D03*
X192000000Y-111950000D03*
X192000000Y-111300000D03*
X192000000Y-110650000D03*
X192000000Y-110000000D03*
X192000000Y-109350000D03*
X192000000Y-108700000D03*
D37*
X172950000Y-129185000D03*
X172950000Y-128165000D03*
D38*
X156870000Y-104770000D03*
D39*
X156870000Y-102230000D03*
X159410000Y-104770000D03*
X159410000Y-102230000D03*
X161950000Y-104770000D03*
X161950000Y-102230000D03*
X164490000Y-104770000D03*
X164490000Y-102230000D03*
X167030000Y-104770000D03*
X167030000Y-102230000D03*
X169570000Y-104770000D03*
X169570000Y-102230000D03*
X172110000Y-104770000D03*
X172110000Y-102230000D03*
X174650000Y-104770000D03*
X174650000Y-102230000D03*
X177190000Y-104770000D03*
X177190000Y-102230000D03*
X179730000Y-104770000D03*
X179730000Y-102230000D03*
X182270000Y-104770000D03*
X182270000Y-102230000D03*
X184810000Y-104770000D03*
X184810000Y-102230000D03*
X187350000Y-104770000D03*
X187350000Y-102230000D03*
X189890000Y-104770000D03*
X189890000Y-102230000D03*
X192430000Y-104770000D03*
X192430000Y-102230000D03*
X194970000Y-104770000D03*
X194970000Y-102230000D03*
X197510000Y-104770000D03*
X197510000Y-102230000D03*
X200050000Y-104770000D03*
X200050000Y-102230000D03*
X202590000Y-104770000D03*
X202590000Y-102230000D03*
X205130000Y-104770000D03*
X205130000Y-102230000D03*
D13*
X176500000Y-135325000D03*
D12*
X193400000Y-124800000D03*
X191750000Y-124800000D03*
D21*
X172000000Y-128165000D03*
X172000000Y-129185000D03*
D37*
X187800000Y-130040000D03*
X187800000Y-129020000D03*
D17*
X207650000Y-106825000D03*
X207650000Y-105175000D03*
D40*
X178150000Y-130795000D03*
X177130000Y-130795000D03*
D24*
X152500000Y-102500000D03*
D35*
X177130000Y-129855000D03*
X178150000Y-129855000D03*
D40*
X186660000Y-134400000D03*
X185640000Y-134400000D03*
D41*
X162200000Y-114100000D03*
D42*
X162200000Y-109100000D03*
D43*
X152200000Y-106100000D03*
X152200000Y-117100000D03*
D40*
X178390000Y-134375000D03*
X177370000Y-134375000D03*
D13*
X166450000Y-125775000D03*
D44*
X183450000Y-124800000D03*
X181250000Y-124800000D03*
X181250000Y-126500000D03*
X183450000Y-126500000D03*
D13*
X168600000Y-127900000D03*
X170950000Y-135050000D03*
D45*
X181450000Y-131675000D03*
D46*
X183387500Y-130425000D03*
X183387500Y-130925000D03*
X183387500Y-131425000D03*
X183387500Y-131925000D03*
X183387500Y-132425000D03*
X183387500Y-132925000D03*
D47*
X182700000Y-133612500D03*
X182200000Y-133612500D03*
X181700000Y-133612500D03*
X181200000Y-133612500D03*
X180700000Y-133612500D03*
X180200000Y-133612500D03*
D46*
X179512500Y-132925000D03*
X179512500Y-132425000D03*
X179512500Y-131925000D03*
X179512500Y-131425000D03*
X179512500Y-130925000D03*
X179512500Y-130425000D03*
D47*
X180200000Y-129737500D03*
X180700000Y-129737500D03*
X181200000Y-129737500D03*
X181700000Y-129737500D03*
X182200000Y-129737500D03*
X182700000Y-129737500D03*
D19*
X194862500Y-124800000D03*
X196737500Y-124800000D03*
D35*
X177365000Y-135325000D03*
X178385000Y-135325000D03*
D48*
X167650000Y-125250000D03*
X167650000Y-141250000D03*
X179050000Y-125250000D03*
X179050000Y-141250000D03*
D49*
X168600000Y-122000000D03*
X169100000Y-122000000D03*
X169600000Y-122000000D03*
X170100000Y-122000000D03*
X170600000Y-122000000D03*
X171100000Y-122000000D03*
X171600000Y-122000000D03*
X172100000Y-122000000D03*
X172600000Y-122000000D03*
X173100000Y-122000000D03*
X173600000Y-122000000D03*
X174100000Y-122000000D03*
X174600000Y-122000000D03*
X175100000Y-122000000D03*
X175600000Y-122000000D03*
X176100000Y-122000000D03*
X176600000Y-122000000D03*
X177100000Y-122000000D03*
X177600000Y-122000000D03*
X178100000Y-122000000D03*
X168600000Y-126000000D03*
X169100000Y-126000000D03*
X169600000Y-126000000D03*
X170100000Y-126000000D03*
X170600000Y-126000000D03*
X171100000Y-126000000D03*
X171600000Y-126000000D03*
X172100000Y-126000000D03*
X172600000Y-126000000D03*
X173100000Y-126000000D03*
X173600000Y-126000000D03*
X174100000Y-126000000D03*
X174600000Y-126000000D03*
X175100000Y-126000000D03*
X175600000Y-126000000D03*
X176100000Y-126000000D03*
X176600000Y-126000000D03*
X177100000Y-126000000D03*
X177600000Y-126000000D03*
X178100000Y-126000000D03*
X168600000Y-138000000D03*
X169100000Y-138000000D03*
X169600000Y-138000000D03*
X170100000Y-138000000D03*
X170600000Y-138000000D03*
X171100000Y-138000000D03*
X171600000Y-138000000D03*
X172100000Y-138000000D03*
X172600000Y-138000000D03*
X173100000Y-138000000D03*
X173600000Y-138000000D03*
X174100000Y-138000000D03*
X174600000Y-138000000D03*
X175100000Y-138000000D03*
X175600000Y-138000000D03*
X176100000Y-138000000D03*
X176600000Y-138000000D03*
X177100000Y-138000000D03*
X177600000Y-138000000D03*
X178100000Y-138000000D03*
X168600000Y-142000000D03*
X169100000Y-142000000D03*
X169600000Y-142000000D03*
X170100000Y-142000000D03*
X170600000Y-142000000D03*
X171100000Y-142000000D03*
X171600000Y-142000000D03*
X172100000Y-142000000D03*
X172600000Y-142000000D03*
X173100000Y-142000000D03*
X173600000Y-142000000D03*
X174100000Y-142000000D03*
X174600000Y-142000000D03*
X175100000Y-142000000D03*
X175600000Y-142000000D03*
X176100000Y-142000000D03*
X176600000Y-142000000D03*
X177100000Y-142000000D03*
X177600000Y-142000000D03*
X178100000Y-142000000D03*
D24*
X158350000Y-141500000D03*
X188350000Y-141500000D03*
M02*
