%TF.GenerationSoftware,KiCad,Pcbnew,8.0.7*%
%TF.CreationDate,2025-12-07T18:06:12-08:00*%
%TF.ProjectId,Pivot_Base,5069766f-745f-4426-9173-652e6b696361,rev?*%
%TF.SameCoordinates,Original*%
%TF.FileFunction,Drillmap*%
%TF.FilePolarity,Positive*%
%FSLAX45Y45*%
G04 Gerber Fmt 4.5, Leading zero omitted, Abs format (unit mm)*
G04 Created by KiCad (PCBNEW 8.0.7) date 2025-12-07 18:06:12*
%MOMM*%
%LPD*%
G01*
G04 APERTURE LIST*
%ADD10C,0.050000*%
%ADD11C,0.200000*%
%ADD12C,0.100000*%
%ADD13C,0.102000*%
%ADD14C,0.163000*%
%ADD15C,0.190000*%
%ADD16C,0.220000*%
G04 APERTURE END LIST*
D10*
X20950000Y-10000000D02*
X15250000Y-10000000D01*
X15250000Y-14500000D02*
X20950000Y-14500000D01*
X21200000Y-14250000D02*
X21200000Y-10250000D01*
X21200000Y-14250000D02*
G75*
G02*
X20950000Y-14500000I-250000J0D01*
G01*
X15000000Y-10250000D02*
X15000000Y-14250000D01*
X15250000Y-14500000D02*
G75*
G02*
X15000000Y-14250000I0J250000D01*
G01*
X15000000Y-10250000D02*
G75*
G02*
X15250000Y-10000000I250000J0D01*
G01*
X20950000Y-10000000D02*
G75*
G02*
X21200000Y-10250000I0J-250000D01*
G01*
D11*
D12*
X15040000Y-13335000D02*
X15070000Y-13365000D01*
X15070000Y-13335000D02*
X15040000Y-13365000D01*
X15040000Y-13435000D02*
X15070000Y-13465000D01*
X15070000Y-13435000D02*
X15040000Y-13465000D01*
X15040000Y-13535000D02*
X15070000Y-13565000D01*
X15070000Y-13535000D02*
X15040000Y-13565000D01*
X15055000Y-12155000D02*
X15085000Y-12185000D01*
X15085000Y-12155000D02*
X15055000Y-12185000D01*
X15085000Y-14130000D02*
X15115000Y-14160000D01*
X15115000Y-14130000D02*
X15085000Y-14160000D01*
X15112337Y-12685947D02*
X15142337Y-12715947D01*
X15142337Y-12685947D02*
X15112337Y-12715947D01*
X15140000Y-14130000D02*
X15170000Y-14160000D01*
X15170000Y-14130000D02*
X15140000Y-14160000D01*
X15155000Y-11395000D02*
X15185000Y-11425000D01*
X15185000Y-11395000D02*
X15155000Y-11425000D01*
X15210000Y-10995000D02*
X15240000Y-11025000D01*
X15240000Y-10995000D02*
X15210000Y-11025000D01*
X15210000Y-11095000D02*
X15240000Y-11125000D01*
X15240000Y-11095000D02*
X15210000Y-11125000D01*
X15210000Y-11195000D02*
X15240000Y-11225000D01*
X15240000Y-11195000D02*
X15210000Y-11225000D01*
X15210000Y-11295000D02*
X15240000Y-11325000D01*
X15240000Y-11295000D02*
X15210000Y-11325000D01*
X15245000Y-12095000D02*
X15275000Y-12125000D01*
X15275000Y-12095000D02*
X15245000Y-12125000D01*
X15245000Y-12195000D02*
X15275000Y-12225000D01*
X15275000Y-12195000D02*
X15245000Y-12225000D01*
X15255000Y-12930000D02*
X15285000Y-12960000D01*
X15285000Y-12930000D02*
X15255000Y-12960000D01*
X15255000Y-13295000D02*
X15285000Y-13325000D01*
X15285000Y-13295000D02*
X15255000Y-13325000D01*
X15265000Y-14055000D02*
X15295000Y-14085000D01*
X15295000Y-14055000D02*
X15265000Y-14085000D01*
X15265000Y-14150000D02*
X15295000Y-14180000D01*
X15295000Y-14150000D02*
X15265000Y-14180000D01*
X15275000Y-13095000D02*
X15305000Y-13125000D01*
X15305000Y-13095000D02*
X15275000Y-13125000D01*
X15275000Y-14255000D02*
X15305000Y-14285000D01*
X15305000Y-14255000D02*
X15275000Y-14285000D01*
X15280000Y-12295000D02*
X15310000Y-12325000D01*
X15310000Y-12295000D02*
X15280000Y-12325000D01*
X15395000Y-13135000D02*
X15425000Y-13165000D01*
X15425000Y-13135000D02*
X15395000Y-13165000D01*
X15495000Y-13175000D02*
X15525000Y-13205000D01*
X15525000Y-13175000D02*
X15495000Y-13205000D01*
X15535000Y-13585000D02*
X15565000Y-13615000D01*
X15565000Y-13585000D02*
X15535000Y-13615000D01*
X15555000Y-10895000D02*
X15585000Y-10925000D01*
X15585000Y-10895000D02*
X15555000Y-10925000D01*
X15555000Y-13925000D02*
X15585000Y-13955000D01*
X15585000Y-13925000D02*
X15555000Y-13955000D01*
X15615000Y-13370000D02*
X15645000Y-13400000D01*
X15645000Y-13370000D02*
X15615000Y-13400000D01*
X15615000Y-13450000D02*
X15645000Y-13480000D01*
X15645000Y-13450000D02*
X15615000Y-13480000D01*
X15668750Y-13310000D02*
X15698750Y-13340000D01*
X15698750Y-13310000D02*
X15668750Y-13340000D01*
X15678750Y-13451498D02*
X15708750Y-13481498D01*
X15708750Y-13451498D02*
X15678750Y-13481498D01*
X15703750Y-13400000D02*
X15733750Y-13430000D01*
X15733750Y-13400000D02*
X15703750Y-13430000D01*
X15719000Y-13036000D02*
X15749000Y-13066000D01*
X15749000Y-13036000D02*
X15719000Y-13066000D01*
X15739000Y-12463000D02*
X15769000Y-12493000D01*
X15769000Y-12463000D02*
X15739000Y-12493000D01*
X15773750Y-13400000D02*
X15803750Y-13430000D01*
X15803750Y-13400000D02*
X15773750Y-13430000D01*
X15798750Y-13450956D02*
X15828750Y-13480956D01*
X15828750Y-13450956D02*
X15798750Y-13480956D01*
X15845000Y-11935000D02*
X15875000Y-11965000D01*
X15875000Y-11935000D02*
X15845000Y-11965000D01*
X15845000Y-12005000D02*
X15875000Y-12035000D01*
X15875000Y-12005000D02*
X15845000Y-12035000D01*
X15845000Y-12075000D02*
X15875000Y-12105000D01*
X15875000Y-12075000D02*
X15845000Y-12105000D01*
X15845000Y-12145000D02*
X15875000Y-12175000D01*
X15875000Y-12145000D02*
X15845000Y-12175000D01*
X15845000Y-12215000D02*
X15875000Y-12245000D01*
X15875000Y-12215000D02*
X15845000Y-12245000D01*
X15845000Y-12285000D02*
X15875000Y-12315000D01*
X15875000Y-12285000D02*
X15845000Y-12315000D01*
X15915000Y-11935000D02*
X15945000Y-11965000D01*
X15945000Y-11935000D02*
X15915000Y-11965000D01*
X15915000Y-12005000D02*
X15945000Y-12035000D01*
X15945000Y-12005000D02*
X15915000Y-12035000D01*
X15915000Y-12075000D02*
X15945000Y-12105000D01*
X15945000Y-12075000D02*
X15915000Y-12105000D01*
X15915000Y-12145000D02*
X15945000Y-12175000D01*
X15945000Y-12145000D02*
X15915000Y-12175000D01*
X15915000Y-12215000D02*
X15945000Y-12245000D01*
X15945000Y-12215000D02*
X15915000Y-12245000D01*
X15915000Y-12285000D02*
X15945000Y-12315000D01*
X15945000Y-12285000D02*
X15915000Y-12315000D01*
X15915000Y-12355000D02*
X15945000Y-12385000D01*
X15945000Y-12355000D02*
X15915000Y-12385000D01*
X15915000Y-12425000D02*
X15945000Y-12455000D01*
X15945000Y-12425000D02*
X15915000Y-12455000D01*
X15935000Y-14415000D02*
X15965000Y-14445000D01*
X15965000Y-14415000D02*
X15935000Y-14445000D01*
X15985000Y-11935000D02*
X16015000Y-11965000D01*
X16015000Y-11935000D02*
X15985000Y-11965000D01*
X15985000Y-12005000D02*
X16015000Y-12035000D01*
X16015000Y-12005000D02*
X15985000Y-12035000D01*
X15985000Y-12075000D02*
X16015000Y-12105000D01*
X16015000Y-12075000D02*
X15985000Y-12105000D01*
X15985000Y-12145000D02*
X16015000Y-12175000D01*
X16015000Y-12145000D02*
X15985000Y-12175000D01*
X15985000Y-12215000D02*
X16015000Y-12245000D01*
X16015000Y-12215000D02*
X15985000Y-12245000D01*
X15985000Y-12285000D02*
X16015000Y-12315000D01*
X16015000Y-12285000D02*
X15985000Y-12315000D01*
X15985000Y-12355000D02*
X16015000Y-12385000D01*
X16015000Y-12355000D02*
X15985000Y-12385000D01*
X15985000Y-12425000D02*
X16015000Y-12455000D01*
X16015000Y-12425000D02*
X15985000Y-12455000D01*
X16005000Y-14345000D02*
X16035000Y-14375000D01*
X16035000Y-14345000D02*
X16005000Y-14375000D01*
X16005000Y-14415000D02*
X16035000Y-14445000D01*
X16035000Y-14415000D02*
X16005000Y-14445000D01*
X16055000Y-11935000D02*
X16085000Y-11965000D01*
X16085000Y-11935000D02*
X16055000Y-11965000D01*
X16055000Y-12005000D02*
X16085000Y-12035000D01*
X16085000Y-12005000D02*
X16055000Y-12035000D01*
X16055000Y-12075000D02*
X16085000Y-12105000D01*
X16085000Y-12075000D02*
X16055000Y-12105000D01*
X16055000Y-12145000D02*
X16085000Y-12175000D01*
X16085000Y-12145000D02*
X16055000Y-12175000D01*
X16055000Y-12215000D02*
X16085000Y-12245000D01*
X16085000Y-12215000D02*
X16055000Y-12245000D01*
X16055000Y-12285000D02*
X16085000Y-12315000D01*
X16085000Y-12285000D02*
X16055000Y-12315000D01*
X16055000Y-12355000D02*
X16085000Y-12385000D01*
X16085000Y-12355000D02*
X16055000Y-12385000D01*
X16055000Y-12425000D02*
X16085000Y-12455000D01*
X16085000Y-12425000D02*
X16055000Y-12455000D01*
X16065000Y-13335000D02*
X16095000Y-13365000D01*
X16095000Y-13335000D02*
X16065000Y-13365000D01*
X16215000Y-13335000D02*
X16245000Y-13365000D01*
X16245000Y-13335000D02*
X16215000Y-13365000D01*
X16275000Y-12895000D02*
X16305000Y-12925000D01*
X16305000Y-12895000D02*
X16275000Y-12925000D01*
X16345000Y-12895000D02*
X16375000Y-12925000D01*
X16375000Y-12895000D02*
X16345000Y-12925000D01*
X16355000Y-13945000D02*
X16385000Y-13975000D01*
X16385000Y-13945000D02*
X16355000Y-13975000D01*
X16370000Y-13145000D02*
X16400000Y-13175000D01*
X16400000Y-13145000D02*
X16370000Y-13175000D01*
X16370000Y-13340000D02*
X16400000Y-13370000D01*
X16400000Y-13340000D02*
X16370000Y-13370000D01*
X16370000Y-13545000D02*
X16400000Y-13575000D01*
X16400000Y-13545000D02*
X16370000Y-13575000D01*
X16415000Y-12895000D02*
X16445000Y-12925000D01*
X16445000Y-12895000D02*
X16415000Y-12925000D01*
X16425000Y-13945000D02*
X16455000Y-13975000D01*
X16455000Y-13945000D02*
X16425000Y-13975000D01*
X16475000Y-10845000D02*
X16505000Y-10875000D01*
X16505000Y-10845000D02*
X16475000Y-10875000D01*
X16485000Y-12895000D02*
X16515000Y-12925000D01*
X16515000Y-12895000D02*
X16485000Y-12925000D01*
X16495000Y-13875000D02*
X16525000Y-13905000D01*
X16525000Y-13875000D02*
X16495000Y-13905000D01*
X16495000Y-13945000D02*
X16525000Y-13975000D01*
X16525000Y-13945000D02*
X16495000Y-13975000D01*
X16497500Y-11510000D02*
X16527500Y-11540000D01*
X16527500Y-11510000D02*
X16497500Y-11540000D01*
X16565000Y-13875000D02*
X16595000Y-13905000D01*
X16595000Y-13875000D02*
X16565000Y-13905000D01*
X16565000Y-13945000D02*
X16595000Y-13975000D01*
X16595000Y-13945000D02*
X16565000Y-13975000D01*
X16595000Y-12895000D02*
X16625000Y-12925000D01*
X16625000Y-12895000D02*
X16595000Y-12925000D01*
X16615000Y-11935000D02*
X16645000Y-11965000D01*
X16645000Y-11935000D02*
X16615000Y-11965000D01*
X16615000Y-12005000D02*
X16645000Y-12035000D01*
X16645000Y-12005000D02*
X16615000Y-12035000D01*
X16615000Y-12075000D02*
X16645000Y-12105000D01*
X16645000Y-12075000D02*
X16615000Y-12105000D01*
X16615000Y-12145000D02*
X16645000Y-12175000D01*
X16645000Y-12145000D02*
X16615000Y-12175000D01*
X16615000Y-12215000D02*
X16645000Y-12245000D01*
X16645000Y-12215000D02*
X16615000Y-12245000D01*
X16615000Y-12285000D02*
X16645000Y-12315000D01*
X16645000Y-12285000D02*
X16615000Y-12315000D01*
X16615000Y-12355000D02*
X16645000Y-12385000D01*
X16645000Y-12355000D02*
X16615000Y-12385000D01*
X16615000Y-12425000D02*
X16645000Y-12455000D01*
X16645000Y-12425000D02*
X16615000Y-12455000D01*
X16635000Y-13875000D02*
X16665000Y-13905000D01*
X16665000Y-13875000D02*
X16635000Y-13905000D01*
X16635000Y-13945000D02*
X16665000Y-13975000D01*
X16665000Y-13945000D02*
X16635000Y-13975000D01*
X16635000Y-14015000D02*
X16665000Y-14045000D01*
X16665000Y-14015000D02*
X16635000Y-14045000D01*
X16670000Y-12895000D02*
X16700000Y-12925000D01*
X16700000Y-12895000D02*
X16670000Y-12925000D01*
X16685000Y-11935000D02*
X16715000Y-11965000D01*
X16715000Y-11935000D02*
X16685000Y-11965000D01*
X16685000Y-12005000D02*
X16715000Y-12035000D01*
X16715000Y-12005000D02*
X16685000Y-12035000D01*
X16685000Y-12075000D02*
X16715000Y-12105000D01*
X16715000Y-12075000D02*
X16685000Y-12105000D01*
X16685000Y-12145000D02*
X16715000Y-12175000D01*
X16715000Y-12145000D02*
X16685000Y-12175000D01*
X16685000Y-12215000D02*
X16715000Y-12245000D01*
X16715000Y-12215000D02*
X16685000Y-12245000D01*
X16685000Y-12285000D02*
X16715000Y-12315000D01*
X16715000Y-12285000D02*
X16685000Y-12315000D01*
X16685000Y-12355000D02*
X16715000Y-12385000D01*
X16715000Y-12355000D02*
X16685000Y-12385000D01*
X16685000Y-12425000D02*
X16715000Y-12455000D01*
X16715000Y-12425000D02*
X16685000Y-12455000D01*
X16695000Y-14345000D02*
X16725000Y-14375000D01*
X16725000Y-14345000D02*
X16695000Y-14375000D01*
X16695000Y-14415000D02*
X16725000Y-14445000D01*
X16725000Y-14415000D02*
X16695000Y-14445000D01*
X16745000Y-12745000D02*
X16775000Y-12775000D01*
X16775000Y-12745000D02*
X16745000Y-12775000D01*
X16745000Y-12820000D02*
X16775000Y-12850000D01*
X16775000Y-12820000D02*
X16745000Y-12850000D01*
X16745000Y-12895000D02*
X16775000Y-12925000D01*
X16775000Y-12895000D02*
X16745000Y-12925000D01*
X16745000Y-13315000D02*
X16775000Y-13345000D01*
X16775000Y-13315000D02*
X16745000Y-13345000D01*
X16745000Y-14015000D02*
X16775000Y-14045000D01*
X16775000Y-14015000D02*
X16745000Y-14045000D01*
X16750000Y-13545000D02*
X16780000Y-13575000D01*
X16780000Y-13545000D02*
X16750000Y-13575000D01*
X16750000Y-13755000D02*
X16780000Y-13785000D01*
X16780000Y-13755000D02*
X16750000Y-13785000D01*
X16755000Y-11935000D02*
X16785000Y-11965000D01*
X16785000Y-11935000D02*
X16755000Y-11965000D01*
X16755000Y-12005000D02*
X16785000Y-12035000D01*
X16785000Y-12005000D02*
X16755000Y-12035000D01*
X16765000Y-14345000D02*
X16795000Y-14375000D01*
X16795000Y-14345000D02*
X16765000Y-14375000D01*
X16765000Y-14415000D02*
X16795000Y-14445000D01*
X16795000Y-14415000D02*
X16765000Y-14445000D01*
X16825000Y-10845000D02*
X16855000Y-10875000D01*
X16855000Y-10845000D02*
X16825000Y-10875000D01*
X16835000Y-14345000D02*
X16865000Y-14375000D01*
X16865000Y-14345000D02*
X16835000Y-14375000D01*
X16835000Y-14415000D02*
X16865000Y-14445000D01*
X16865000Y-14415000D02*
X16835000Y-14445000D01*
X16845000Y-12325000D02*
X16875000Y-12355000D01*
X16875000Y-12325000D02*
X16845000Y-12355000D01*
X16885000Y-11915000D02*
X16915000Y-11945000D01*
X16915000Y-11915000D02*
X16885000Y-11945000D01*
X16895000Y-12370000D02*
X16925000Y-12400000D01*
X16925000Y-12370000D02*
X16895000Y-12400000D01*
X16945000Y-12325000D02*
X16975000Y-12355000D01*
X16975000Y-12325000D02*
X16945000Y-12355000D01*
X16945000Y-14315000D02*
X16975000Y-14345000D01*
X16975000Y-14315000D02*
X16945000Y-14345000D01*
X16965000Y-11395000D02*
X16995000Y-11425000D01*
X16995000Y-11395000D02*
X16965000Y-11425000D01*
X16995000Y-12370000D02*
X17025000Y-12400000D01*
X17025000Y-12370000D02*
X16995000Y-12400000D01*
X16995000Y-14365000D02*
X17025000Y-14395000D01*
X17025000Y-14365000D02*
X16995000Y-14395000D01*
X17015000Y-11915000D02*
X17045000Y-11945000D01*
X17045000Y-11915000D02*
X17015000Y-11945000D01*
X17045000Y-14050000D02*
X17075000Y-14080000D01*
X17075000Y-14050000D02*
X17045000Y-14080000D01*
X17085000Y-13117500D02*
X17115000Y-13147500D01*
X17115000Y-13117500D02*
X17085000Y-13147500D01*
X17090000Y-12903500D02*
X17120000Y-12933500D01*
X17120000Y-12903500D02*
X17090000Y-12933500D01*
X17095000Y-14380000D02*
X17125000Y-14410000D01*
X17125000Y-14380000D02*
X17095000Y-14410000D01*
X17105000Y-11412500D02*
X17135000Y-11442500D01*
X17135000Y-11412500D02*
X17105000Y-11442500D01*
X17143780Y-14302750D02*
X17173780Y-14332750D01*
X17173780Y-14302750D02*
X17143780Y-14332750D01*
X17145000Y-12370000D02*
X17175000Y-12400000D01*
X17175000Y-12370000D02*
X17145000Y-12400000D01*
X17145000Y-12449000D02*
X17175000Y-12479000D01*
X17175000Y-12449000D02*
X17145000Y-12479000D01*
X17155000Y-13455000D02*
X17185000Y-13485000D01*
X17185000Y-13455000D02*
X17155000Y-13485000D01*
X17155000Y-13525000D02*
X17185000Y-13555000D01*
X17185000Y-13525000D02*
X17155000Y-13555000D01*
X17170000Y-14365000D02*
X17200000Y-14395000D01*
X17200000Y-14365000D02*
X17170000Y-14395000D01*
X17185000Y-12903500D02*
X17215000Y-12933500D01*
X17215000Y-12903500D02*
X17185000Y-12933500D01*
X17195000Y-12325000D02*
X17225000Y-12355000D01*
X17225000Y-12325000D02*
X17195000Y-12355000D01*
X17195000Y-13155000D02*
X17225000Y-13185000D01*
X17225000Y-13155000D02*
X17195000Y-13185000D01*
X17195000Y-13220000D02*
X17225000Y-13250000D01*
X17225000Y-13220000D02*
X17195000Y-13250000D01*
X17215000Y-10775000D02*
X17245000Y-10805000D01*
X17245000Y-10775000D02*
X17215000Y-10805000D01*
X17215000Y-13920000D02*
X17245000Y-13950000D01*
X17245000Y-13920000D02*
X17215000Y-13950000D01*
X17225000Y-13455000D02*
X17255000Y-13485000D01*
X17255000Y-13455000D02*
X17225000Y-13485000D01*
X17225000Y-13525000D02*
X17255000Y-13555000D01*
X17255000Y-13525000D02*
X17225000Y-13555000D01*
X17235000Y-11915000D02*
X17265000Y-11945000D01*
X17265000Y-11915000D02*
X17235000Y-11945000D01*
X17275000Y-14380000D02*
X17305000Y-14410000D01*
X17305000Y-14380000D02*
X17275000Y-14410000D01*
X17280000Y-12903500D02*
X17310000Y-12933500D01*
X17310000Y-12903500D02*
X17280000Y-12933500D01*
X17295000Y-13455000D02*
X17325000Y-13485000D01*
X17325000Y-13455000D02*
X17295000Y-13485000D01*
X17295000Y-13525000D02*
X17325000Y-13555000D01*
X17325000Y-13525000D02*
X17295000Y-13555000D01*
X17295000Y-14060000D02*
X17325000Y-14090000D01*
X17325000Y-14060000D02*
X17295000Y-14090000D01*
X17345000Y-14315000D02*
X17375000Y-14345000D01*
X17375000Y-14315000D02*
X17345000Y-14345000D01*
X17395000Y-14060000D02*
X17425000Y-14090000D01*
X17425000Y-14060000D02*
X17395000Y-14090000D01*
X17420000Y-13655000D02*
X17450000Y-13685000D01*
X17450000Y-13655000D02*
X17420000Y-13685000D01*
X17435000Y-11045000D02*
X17465000Y-11075000D01*
X17465000Y-11045000D02*
X17435000Y-11075000D01*
X17445000Y-14315000D02*
X17475000Y-14345000D01*
X17475000Y-14315000D02*
X17445000Y-14345000D01*
X17455000Y-11395000D02*
X17485000Y-11425000D01*
X17485000Y-11395000D02*
X17455000Y-11425000D01*
X17475000Y-13610000D02*
X17505000Y-13640000D01*
X17505000Y-13610000D02*
X17475000Y-13640000D01*
X17495000Y-14390000D02*
X17525000Y-14420000D01*
X17525000Y-14390000D02*
X17495000Y-14420000D01*
X17544216Y-13660784D02*
X17574216Y-13690784D01*
X17574216Y-13660784D02*
X17544216Y-13690784D01*
X17545000Y-14315000D02*
X17575000Y-14345000D01*
X17575000Y-14315000D02*
X17545000Y-14345000D01*
X17595000Y-14365000D02*
X17625000Y-14395000D01*
X17625000Y-14365000D02*
X17595000Y-14395000D01*
X17605000Y-10965000D02*
X17635000Y-10995000D01*
X17635000Y-10965000D02*
X17605000Y-10995000D01*
X17605000Y-11075000D02*
X17635000Y-11105000D01*
X17635000Y-11075000D02*
X17605000Y-11105000D01*
X17605000Y-11175000D02*
X17635000Y-11205000D01*
X17635000Y-11175000D02*
X17605000Y-11205000D01*
X17605000Y-11285000D02*
X17635000Y-11315000D01*
X17635000Y-11285000D02*
X17605000Y-11315000D01*
X17605000Y-11395000D02*
X17635000Y-11425000D01*
X17635000Y-11395000D02*
X17605000Y-11425000D01*
X17645000Y-12035000D02*
X17675000Y-12065000D01*
X17675000Y-12035000D02*
X17645000Y-12065000D01*
X17645000Y-14315000D02*
X17675000Y-14345000D01*
X17675000Y-14315000D02*
X17645000Y-14345000D01*
X17667500Y-13159000D02*
X17697500Y-13189000D01*
X17697500Y-13159000D02*
X17667500Y-13189000D01*
X17695000Y-12737500D02*
X17725000Y-12767500D01*
X17725000Y-12737500D02*
X17695000Y-12767500D01*
X17695000Y-13635000D02*
X17725000Y-13665000D01*
X17725000Y-13635000D02*
X17695000Y-13665000D01*
X17695000Y-14365000D02*
X17725000Y-14395000D01*
X17725000Y-14365000D02*
X17695000Y-14395000D01*
X17698000Y-12970500D02*
X17728000Y-13000500D01*
X17728000Y-12970500D02*
X17698000Y-13000500D01*
X17698000Y-13064500D02*
X17728000Y-13094500D01*
X17728000Y-13064500D02*
X17698000Y-13094500D01*
X17724216Y-11989216D02*
X17754216Y-12019216D01*
X17754216Y-11989216D02*
X17724216Y-12019216D01*
X17745000Y-12445000D02*
X17775000Y-12475000D01*
X17775000Y-12445000D02*
X17745000Y-12475000D01*
X17745000Y-14315000D02*
X17775000Y-14345000D01*
X17775000Y-14315000D02*
X17745000Y-14345000D01*
X17762900Y-13160000D02*
X17792900Y-13190000D01*
X17792900Y-13160000D02*
X17762900Y-13190000D01*
X17765000Y-13635000D02*
X17795000Y-13665000D01*
X17795000Y-13635000D02*
X17765000Y-13665000D01*
X17780000Y-11990000D02*
X17810000Y-12020000D01*
X17810000Y-11990000D02*
X17780000Y-12020000D01*
X17793000Y-12745500D02*
X17823000Y-12775500D01*
X17823000Y-12745500D02*
X17793000Y-12775500D01*
X17795000Y-14365000D02*
X17825000Y-14395000D01*
X17825000Y-14365000D02*
X17795000Y-14395000D01*
X17800000Y-12445000D02*
X17830000Y-12475000D01*
X17830000Y-12445000D02*
X17800000Y-12475000D01*
X17810000Y-13902650D02*
X17840000Y-13932650D01*
X17840000Y-13902650D02*
X17810000Y-13932650D01*
X17840000Y-11990000D02*
X17870000Y-12020000D01*
X17870000Y-11990000D02*
X17840000Y-12020000D01*
X17859900Y-13255000D02*
X17889900Y-13285000D01*
X17889900Y-13255000D02*
X17859900Y-13285000D01*
X17860000Y-13145000D02*
X17890000Y-13175000D01*
X17890000Y-13145000D02*
X17860000Y-13175000D01*
X17883000Y-13633000D02*
X17913000Y-13663000D01*
X17913000Y-13633000D02*
X17883000Y-13663000D01*
X17925000Y-13315000D02*
X17955000Y-13345000D01*
X17955000Y-13315000D02*
X17925000Y-13345000D01*
X17946750Y-12747500D02*
X17976750Y-12777500D01*
X17976750Y-12747500D02*
X17946750Y-12777500D01*
X17946750Y-12843500D02*
X17976750Y-12873500D01*
X17976750Y-12843500D02*
X17946750Y-12873500D01*
X18067500Y-13447500D02*
X18097500Y-13477500D01*
X18097500Y-13447500D02*
X18067500Y-13477500D01*
X18115000Y-12355000D02*
X18145000Y-12385000D01*
X18145000Y-12355000D02*
X18115000Y-12385000D01*
X18127500Y-13447500D02*
X18157500Y-13477500D01*
X18157500Y-13447500D02*
X18127500Y-13477500D01*
X18165000Y-11860000D02*
X18195000Y-11890000D01*
X18195000Y-11860000D02*
X18165000Y-11890000D01*
X18173180Y-12858180D02*
X18203180Y-12888180D01*
X18203180Y-12858180D02*
X18173180Y-12888180D01*
X18185000Y-12325000D02*
X18215000Y-12355000D01*
X18215000Y-12325000D02*
X18185000Y-12355000D01*
X18195000Y-10685000D02*
X18225000Y-10715000D01*
X18225000Y-10685000D02*
X18195000Y-10715000D01*
X18226716Y-13448284D02*
X18256716Y-13478284D01*
X18256716Y-13448284D02*
X18226716Y-13478284D01*
X18250000Y-12845000D02*
X18280000Y-12875000D01*
X18280000Y-12845000D02*
X18250000Y-12875000D01*
X18265000Y-11860000D02*
X18295000Y-11890000D01*
X18295000Y-11860000D02*
X18265000Y-11890000D01*
X18280000Y-12245000D02*
X18310000Y-12275000D01*
X18310000Y-12245000D02*
X18280000Y-12275000D01*
X18295000Y-13447500D02*
X18325000Y-13477500D01*
X18325000Y-13447500D02*
X18295000Y-13477500D01*
X18330000Y-12155000D02*
X18360000Y-12185000D01*
X18360000Y-12155000D02*
X18330000Y-12185000D01*
X18345000Y-12845500D02*
X18375000Y-12875500D01*
X18375000Y-12845500D02*
X18345000Y-12875500D01*
X18435750Y-13312500D02*
X18465750Y-13342500D01*
X18465750Y-13312500D02*
X18435750Y-13342500D01*
X18436500Y-12992500D02*
X18466500Y-13022500D01*
X18466500Y-12992500D02*
X18436500Y-13022500D01*
X18485000Y-12532500D02*
X18515000Y-12562500D01*
X18515000Y-12532500D02*
X18485000Y-12562500D01*
X18505000Y-11755000D02*
X18535000Y-11785000D01*
X18535000Y-11755000D02*
X18505000Y-11785000D01*
X18549000Y-13425000D02*
X18579000Y-13455000D01*
X18579000Y-13425000D02*
X18549000Y-13455000D01*
X18645000Y-10924289D02*
X18675000Y-10954289D01*
X18675000Y-10924289D02*
X18645000Y-10954289D01*
X18645000Y-11585000D02*
X18675000Y-11615000D01*
X18675000Y-11585000D02*
X18645000Y-11615000D01*
X18775000Y-11452500D02*
X18805000Y-11482500D01*
X18805000Y-11452500D02*
X18775000Y-11482500D01*
X18785000Y-12887000D02*
X18815000Y-12917000D01*
X18815000Y-12887000D02*
X18785000Y-12917000D01*
X18785000Y-13170000D02*
X18815000Y-13200000D01*
X18815000Y-13170000D02*
X18785000Y-13200000D01*
X18837000Y-13425000D02*
X18867000Y-13455000D01*
X18867000Y-13425000D02*
X18837000Y-13455000D01*
X18877500Y-11752500D02*
X18907500Y-11782500D01*
X18907500Y-11752500D02*
X18877500Y-11782500D01*
X18970000Y-11677500D02*
X19000000Y-11707500D01*
X19000000Y-11677500D02*
X18970000Y-11707500D01*
X18977500Y-10942500D02*
X19007500Y-10972500D01*
X19007500Y-10942500D02*
X18977500Y-10972500D01*
X18977613Y-11394727D02*
X19007613Y-11424727D01*
X19007613Y-11394727D02*
X18977613Y-11424727D01*
X18980000Y-10852500D02*
X19010000Y-10882500D01*
X19010000Y-10852500D02*
X18980000Y-10882500D01*
X18981867Y-11016072D02*
X19011867Y-11046072D01*
X19011867Y-11016072D02*
X18981867Y-11046072D01*
X18982500Y-11570000D02*
X19012500Y-11600000D01*
X19012500Y-11570000D02*
X18982500Y-11600000D01*
X19000000Y-13550000D02*
X19030000Y-13580000D01*
X19030000Y-13550000D02*
X19000000Y-13580000D01*
X19060000Y-12460000D02*
X19090000Y-12490000D01*
X19090000Y-12460000D02*
X19060000Y-12490000D01*
X19155000Y-12625000D02*
X19185000Y-12655000D01*
X19185000Y-12625000D02*
X19155000Y-12655000D01*
X19165000Y-12290000D02*
X19195000Y-12320000D01*
X19195000Y-12290000D02*
X19165000Y-12320000D01*
X19245000Y-12290000D02*
X19275000Y-12320000D01*
X19275000Y-12290000D02*
X19245000Y-12320000D01*
X19390000Y-11760000D02*
X19420000Y-11790000D01*
X19420000Y-11760000D02*
X19390000Y-11790000D01*
X19410000Y-11440000D02*
X19440000Y-11470000D01*
X19440000Y-11440000D02*
X19410000Y-11470000D01*
X19492500Y-11902500D02*
X19522500Y-11932500D01*
X19522500Y-11902500D02*
X19492500Y-11932500D01*
X19555000Y-11940000D02*
X19585000Y-11970000D01*
X19585000Y-11940000D02*
X19555000Y-11970000D01*
X19620000Y-12625000D02*
X19650000Y-12655000D01*
X19650000Y-12625000D02*
X19620000Y-12655000D01*
X19635000Y-11955000D02*
X19665000Y-11985000D01*
X19665000Y-11955000D02*
X19635000Y-11985000D01*
X19660000Y-12315000D02*
X19690000Y-12345000D01*
X19690000Y-12315000D02*
X19660000Y-12345000D01*
X19676954Y-12065000D02*
X19706954Y-12095000D01*
X19706954Y-12065000D02*
X19676954Y-12095000D01*
X19905000Y-10835000D02*
X19935000Y-10865000D01*
X19935000Y-10835000D02*
X19905000Y-10865000D01*
X19960000Y-11935000D02*
X19990000Y-11965000D01*
X19990000Y-11935000D02*
X19960000Y-11965000D01*
X19985000Y-12232350D02*
X20015000Y-12262350D01*
X20015000Y-12232350D02*
X19985000Y-12262350D01*
X20085000Y-12635000D02*
X20115000Y-12665000D01*
X20115000Y-12635000D02*
X20085000Y-12665000D01*
X20285000Y-11935000D02*
X20315000Y-11965000D01*
X20315000Y-11935000D02*
X20285000Y-11965000D01*
X20355000Y-12485000D02*
X20385000Y-12515000D01*
X20385000Y-12485000D02*
X20355000Y-12515000D01*
X20355000Y-12555000D02*
X20385000Y-12585000D01*
X20385000Y-12555000D02*
X20355000Y-12585000D01*
X20590000Y-10807500D02*
X20620000Y-10837500D01*
X20620000Y-10807500D02*
X20590000Y-10837500D01*
X20590000Y-11105000D02*
X20620000Y-11135000D01*
X20620000Y-11105000D02*
X20590000Y-11135000D01*
X20780000Y-12370000D02*
X20810000Y-12400000D01*
X20810000Y-12370000D02*
X20780000Y-12400000D01*
X20835000Y-11785000D02*
X20865000Y-11815000D01*
X20865000Y-11785000D02*
X20835000Y-11815000D01*
X20835000Y-11910000D02*
X20865000Y-11940000D01*
X20865000Y-11910000D02*
X20835000Y-11940000D01*
X20835000Y-12035000D02*
X20865000Y-12065000D01*
X20865000Y-12035000D02*
X20835000Y-12065000D01*
X20835000Y-12160000D02*
X20865000Y-12190000D01*
X20865000Y-12160000D02*
X20835000Y-12190000D01*
X20865000Y-10495000D02*
X20895000Y-10525000D01*
X20895000Y-10495000D02*
X20865000Y-10525000D01*
X20885000Y-12370000D02*
X20915000Y-12400000D01*
X20915000Y-12370000D02*
X20885000Y-12400000D01*
X20895000Y-11265000D02*
X20925000Y-11295000D01*
X20925000Y-11265000D02*
X20895000Y-11295000D01*
X20915000Y-10955000D02*
X20945000Y-10985000D01*
X20945000Y-10955000D02*
X20915000Y-10985000D01*
X21085000Y-10515000D02*
X21115000Y-10545000D01*
X21115000Y-10515000D02*
X21085000Y-10545000D01*
X21135000Y-12245000D02*
X21165000Y-12275000D01*
X21165000Y-12245000D02*
X21135000Y-12275000D01*
X21135000Y-12315000D02*
X21165000Y-12345000D01*
X21165000Y-12315000D02*
X21135000Y-12345000D01*
X18060000Y-13067500D02*
G75*
G02*
X18030000Y-13067500I-15000J0D01*
G01*
X18030000Y-13067500D02*
G75*
G02*
X18060000Y-13067500I15000J0D01*
G01*
X18060000Y-13167500D02*
G75*
G02*
X18030000Y-13167500I-15000J0D01*
G01*
X18030000Y-13167500D02*
G75*
G02*
X18060000Y-13167500I15000J0D01*
G01*
X18060000Y-13267500D02*
G75*
G02*
X18030000Y-13267500I-15000J0D01*
G01*
X18030000Y-13267500D02*
G75*
G02*
X18060000Y-13267500I15000J0D01*
G01*
X18160000Y-13067500D02*
G75*
G02*
X18130000Y-13067500I-15000J0D01*
G01*
X18130000Y-13067500D02*
G75*
G02*
X18160000Y-13067500I15000J0D01*
G01*
X18160000Y-13167500D02*
G75*
G02*
X18130000Y-13167500I-15000J0D01*
G01*
X18130000Y-13167500D02*
G75*
G02*
X18160000Y-13167500I15000J0D01*
G01*
X18160000Y-13267500D02*
G75*
G02*
X18130000Y-13267500I-15000J0D01*
G01*
X18130000Y-13267500D02*
G75*
G02*
X18160000Y-13267500I15000J0D01*
G01*
X18260000Y-13067500D02*
G75*
G02*
X18230000Y-13067500I-15000J0D01*
G01*
X18230000Y-13067500D02*
G75*
G02*
X18260000Y-13067500I15000J0D01*
G01*
X18260000Y-13167500D02*
G75*
G02*
X18230000Y-13167500I-15000J0D01*
G01*
X18230000Y-13167500D02*
G75*
G02*
X18260000Y-13167500I15000J0D01*
G01*
X18260000Y-13267500D02*
G75*
G02*
X18230000Y-13267500I-15000J0D01*
G01*
X18230000Y-13267500D02*
G75*
G02*
X18260000Y-13267500I15000J0D01*
G01*
X19655000Y-11435000D02*
G75*
G02*
X19625000Y-11435000I-15000J0D01*
G01*
X19625000Y-11435000D02*
G75*
G02*
X19655000Y-11435000I15000J0D01*
G01*
X19655000Y-11545000D02*
G75*
G02*
X19625000Y-11545000I-15000J0D01*
G01*
X19625000Y-11545000D02*
G75*
G02*
X19655000Y-11545000I15000J0D01*
G01*
X19710000Y-11380000D02*
G75*
G02*
X19680000Y-11380000I-15000J0D01*
G01*
X19680000Y-11380000D02*
G75*
G02*
X19710000Y-11380000I15000J0D01*
G01*
X19710000Y-11490000D02*
G75*
G02*
X19680000Y-11490000I-15000J0D01*
G01*
X19680000Y-11490000D02*
G75*
G02*
X19710000Y-11490000I15000J0D01*
G01*
X19710000Y-11600000D02*
G75*
G02*
X19680000Y-11600000I-15000J0D01*
G01*
X19680000Y-11600000D02*
G75*
G02*
X19710000Y-11600000I15000J0D01*
G01*
X19765000Y-11435000D02*
G75*
G02*
X19735000Y-11435000I-15000J0D01*
G01*
X19735000Y-11435000D02*
G75*
G02*
X19765000Y-11435000I15000J0D01*
G01*
X19765000Y-11545000D02*
G75*
G02*
X19735000Y-11545000I-15000J0D01*
G01*
X19735000Y-11545000D02*
G75*
G02*
X19765000Y-11545000I15000J0D01*
G01*
X19820000Y-11380000D02*
G75*
G02*
X19790000Y-11380000I-15000J0D01*
G01*
X19790000Y-11380000D02*
G75*
G02*
X19820000Y-11380000I15000J0D01*
G01*
X19820000Y-11490000D02*
G75*
G02*
X19790000Y-11490000I-15000J0D01*
G01*
X19790000Y-11490000D02*
G75*
G02*
X19820000Y-11490000I15000J0D01*
G01*
X19820000Y-11600000D02*
G75*
G02*
X19790000Y-11600000I-15000J0D01*
G01*
X19790000Y-11600000D02*
G75*
G02*
X19820000Y-11600000I15000J0D01*
G01*
X19875000Y-11435000D02*
G75*
G02*
X19845000Y-11435000I-15000J0D01*
G01*
X19845000Y-11435000D02*
G75*
G02*
X19875000Y-11435000I15000J0D01*
G01*
X19875000Y-11545000D02*
G75*
G02*
X19845000Y-11545000I-15000J0D01*
G01*
X19845000Y-11545000D02*
G75*
G02*
X19875000Y-11545000I15000J0D01*
G01*
X20617500Y-11538000D02*
X20617500Y-11598000D01*
X20587500Y-11568000D02*
X20647500Y-11568000D01*
X20562500Y-11598000D02*
X20672500Y-11598000D01*
X20672500Y-11538000D02*
G75*
G02*
X20672500Y-11598000I0J-30000D01*
G01*
X20672500Y-11538000D02*
X20562500Y-11538000D01*
X20562500Y-11538000D02*
G75*
G03*
X20562500Y-11598000I0J-30000D01*
G01*
X20617500Y-12402000D02*
X20617500Y-12462000D01*
X20587500Y-12432000D02*
X20647500Y-12432000D01*
X20562500Y-12462000D02*
X20672500Y-12462000D01*
X20672500Y-12402000D02*
G75*
G02*
X20672500Y-12462000I0J-30000D01*
G01*
X20672500Y-12402000D02*
X20562500Y-12402000D01*
X20562500Y-12402000D02*
G75*
G03*
X20562500Y-12462000I0J-30000D01*
G01*
X21037500Y-11538000D02*
X21037500Y-11598000D01*
X21007500Y-11568000D02*
X21067500Y-11568000D01*
X20997500Y-11598000D02*
X21077500Y-11598000D01*
X21077500Y-11538000D02*
G75*
G02*
X21077500Y-11598000I0J-30000D01*
G01*
X21077500Y-11538000D02*
X20997500Y-11538000D01*
X20997500Y-11538000D02*
G75*
G03*
X20997500Y-11598000I0J-30000D01*
G01*
X21037500Y-12402000D02*
X21037500Y-12462000D01*
X21007500Y-12432000D02*
X21067500Y-12432000D01*
X20997500Y-12462000D02*
X21077500Y-12462000D01*
X21077500Y-12402000D02*
G75*
G02*
X21077500Y-12462000I0J-30000D01*
G01*
X21077500Y-12402000D02*
X20997500Y-12402000D01*
X20997500Y-12402000D02*
G75*
G03*
X20997500Y-12462000I0J-30000D01*
G01*
X19356467Y-13087467D02*
X19356467Y-13024533D01*
X19293533Y-13024533D01*
X19293533Y-13087467D01*
X19356467Y-13087467D01*
X19356467Y-13341467D02*
X19356467Y-13278533D01*
X19293533Y-13278533D01*
X19293533Y-13341467D01*
X19356467Y-13341467D01*
X19356467Y-13595467D02*
X19356467Y-13532533D01*
X19293533Y-13532533D01*
X19293533Y-13595467D01*
X19356467Y-13595467D01*
X19356467Y-13849467D02*
X19356467Y-13786533D01*
X19293533Y-13786533D01*
X19293533Y-13849467D01*
X19356467Y-13849467D01*
X19610467Y-13214467D02*
X19610467Y-13151533D01*
X19547533Y-13151533D01*
X19547533Y-13214467D01*
X19610467Y-13214467D01*
X19610467Y-13468467D02*
X19610467Y-13405533D01*
X19547533Y-13405533D01*
X19547533Y-13468467D01*
X19610467Y-13468467D01*
X19610467Y-13722467D02*
X19610467Y-13659533D01*
X19547533Y-13659533D01*
X19547533Y-13722467D01*
X19610467Y-13722467D01*
X19610467Y-13976467D02*
X19610467Y-13913533D01*
X19547533Y-13913533D01*
X19547533Y-13976467D01*
X19610467Y-13976467D01*
X15220000Y-10660000D02*
X15270000Y-10610000D01*
X15220000Y-10560000D01*
X15170000Y-10610000D01*
X15220000Y-10660000D01*
X15220000Y-11760000D02*
X15270000Y-11710000D01*
X15220000Y-11660000D01*
X15170000Y-11710000D01*
X15220000Y-11760000D01*
X15687000Y-10273000D02*
X15737000Y-10223000D01*
X15687000Y-10173000D01*
X15637000Y-10223000D01*
X15687000Y-10273000D01*
X15687000Y-10527000D02*
X15737000Y-10477000D01*
X15687000Y-10427000D01*
X15637000Y-10477000D01*
X15687000Y-10527000D01*
X15941000Y-10273000D02*
X15991000Y-10223000D01*
X15941000Y-10173000D01*
X15891000Y-10223000D01*
X15941000Y-10273000D01*
X15941000Y-10527000D02*
X15991000Y-10477000D01*
X15941000Y-10427000D01*
X15891000Y-10477000D01*
X15941000Y-10527000D01*
X16195000Y-10273000D02*
X16245000Y-10223000D01*
X16195000Y-10173000D01*
X16145000Y-10223000D01*
X16195000Y-10273000D01*
X16195000Y-10527000D02*
X16245000Y-10477000D01*
X16195000Y-10427000D01*
X16145000Y-10477000D01*
X16195000Y-10527000D01*
X16449000Y-10273000D02*
X16499000Y-10223000D01*
X16449000Y-10173000D01*
X16399000Y-10223000D01*
X16449000Y-10273000D01*
X16449000Y-10527000D02*
X16499000Y-10477000D01*
X16449000Y-10427000D01*
X16399000Y-10477000D01*
X16449000Y-10527000D01*
X16703000Y-10273000D02*
X16753000Y-10223000D01*
X16703000Y-10173000D01*
X16653000Y-10223000D01*
X16703000Y-10273000D01*
X16703000Y-10527000D02*
X16753000Y-10477000D01*
X16703000Y-10427000D01*
X16653000Y-10477000D01*
X16703000Y-10527000D01*
X16957000Y-10273000D02*
X17007000Y-10223000D01*
X16957000Y-10173000D01*
X16907000Y-10223000D01*
X16957000Y-10273000D01*
X16957000Y-10527000D02*
X17007000Y-10477000D01*
X16957000Y-10427000D01*
X16907000Y-10477000D01*
X16957000Y-10527000D01*
X17211000Y-10273000D02*
X17261000Y-10223000D01*
X17211000Y-10173000D01*
X17161000Y-10223000D01*
X17211000Y-10273000D01*
X17211000Y-10527000D02*
X17261000Y-10477000D01*
X17211000Y-10427000D01*
X17161000Y-10477000D01*
X17211000Y-10527000D01*
X17465000Y-10273000D02*
X17515000Y-10223000D01*
X17465000Y-10173000D01*
X17415000Y-10223000D01*
X17465000Y-10273000D01*
X17465000Y-10527000D02*
X17515000Y-10477000D01*
X17465000Y-10427000D01*
X17415000Y-10477000D01*
X17465000Y-10527000D01*
X17719000Y-10273000D02*
X17769000Y-10223000D01*
X17719000Y-10173000D01*
X17669000Y-10223000D01*
X17719000Y-10273000D01*
X17719000Y-10527000D02*
X17769000Y-10477000D01*
X17719000Y-10427000D01*
X17669000Y-10477000D01*
X17719000Y-10527000D01*
X17973000Y-10273000D02*
X18023000Y-10223000D01*
X17973000Y-10173000D01*
X17923000Y-10223000D01*
X17973000Y-10273000D01*
X17973000Y-10527000D02*
X18023000Y-10477000D01*
X17973000Y-10427000D01*
X17923000Y-10477000D01*
X17973000Y-10527000D01*
X18227000Y-10273000D02*
X18277000Y-10223000D01*
X18227000Y-10173000D01*
X18177000Y-10223000D01*
X18227000Y-10273000D01*
X18227000Y-10527000D02*
X18277000Y-10477000D01*
X18227000Y-10427000D01*
X18177000Y-10477000D01*
X18227000Y-10527000D01*
X18481000Y-10273000D02*
X18531000Y-10223000D01*
X18481000Y-10173000D01*
X18431000Y-10223000D01*
X18481000Y-10273000D01*
X18481000Y-10527000D02*
X18531000Y-10477000D01*
X18481000Y-10427000D01*
X18431000Y-10477000D01*
X18481000Y-10527000D01*
X18735000Y-10273000D02*
X18785000Y-10223000D01*
X18735000Y-10173000D01*
X18685000Y-10223000D01*
X18735000Y-10273000D01*
X18735000Y-10527000D02*
X18785000Y-10477000D01*
X18735000Y-10427000D01*
X18685000Y-10477000D01*
X18735000Y-10527000D01*
X18989000Y-10273000D02*
X19039000Y-10223000D01*
X18989000Y-10173000D01*
X18939000Y-10223000D01*
X18989000Y-10273000D01*
X18989000Y-10527000D02*
X19039000Y-10477000D01*
X18989000Y-10427000D01*
X18939000Y-10477000D01*
X18989000Y-10527000D01*
X19243000Y-10273000D02*
X19293000Y-10223000D01*
X19243000Y-10173000D01*
X19193000Y-10223000D01*
X19243000Y-10273000D01*
X19243000Y-10527000D02*
X19293000Y-10477000D01*
X19243000Y-10427000D01*
X19193000Y-10477000D01*
X19243000Y-10527000D01*
X19497000Y-10273000D02*
X19547000Y-10223000D01*
X19497000Y-10173000D01*
X19447000Y-10223000D01*
X19497000Y-10273000D01*
X19497000Y-10527000D02*
X19547000Y-10477000D01*
X19497000Y-10427000D01*
X19447000Y-10477000D01*
X19497000Y-10527000D01*
X19751000Y-10273000D02*
X19801000Y-10223000D01*
X19751000Y-10173000D01*
X19701000Y-10223000D01*
X19751000Y-10273000D01*
X19751000Y-10527000D02*
X19801000Y-10477000D01*
X19751000Y-10427000D01*
X19701000Y-10477000D01*
X19751000Y-10527000D01*
X20005000Y-10273000D02*
X20055000Y-10223000D01*
X20005000Y-10173000D01*
X19955000Y-10223000D01*
X20005000Y-10273000D01*
X20005000Y-10527000D02*
X20055000Y-10477000D01*
X20005000Y-10427000D01*
X19955000Y-10477000D01*
X20005000Y-10527000D01*
X20259000Y-10273000D02*
X20309000Y-10223000D01*
X20259000Y-10173000D01*
X20209000Y-10223000D01*
X20259000Y-10273000D01*
X20259000Y-10527000D02*
X20309000Y-10477000D01*
X20259000Y-10427000D01*
X20209000Y-10477000D01*
X20259000Y-10527000D01*
X20513000Y-10273000D02*
X20563000Y-10223000D01*
X20513000Y-10173000D01*
X20463000Y-10223000D01*
X20513000Y-10273000D01*
X20513000Y-10527000D02*
X20563000Y-10477000D01*
X20513000Y-10427000D01*
X20463000Y-10477000D01*
X20513000Y-10527000D01*
D13*
X20653000Y-12786500D02*
X20755000Y-12888500D01*
X20755000Y-12786500D02*
X20653000Y-12888500D01*
X20755000Y-12837500D02*
G75*
G02*
X20653000Y-12837500I-51000J0D01*
G01*
X20653000Y-12837500D02*
G75*
G02*
X20755000Y-12837500I51000J0D01*
G01*
X20653000Y-13040500D02*
X20755000Y-13142500D01*
X20755000Y-13040500D02*
X20653000Y-13142500D01*
X20755000Y-13091500D02*
G75*
G02*
X20653000Y-13091500I-51000J0D01*
G01*
X20653000Y-13091500D02*
G75*
G02*
X20755000Y-13091500I51000J0D01*
G01*
X20653000Y-13857500D02*
X20755000Y-13959500D01*
X20755000Y-13857500D02*
X20653000Y-13959500D01*
X20755000Y-13908500D02*
G75*
G02*
X20653000Y-13908500I-51000J0D01*
G01*
X20653000Y-13908500D02*
G75*
G02*
X20755000Y-13908500I51000J0D01*
G01*
X20653000Y-14111500D02*
X20755000Y-14213500D01*
X20755000Y-14111500D02*
X20653000Y-14213500D01*
X20755000Y-14162500D02*
G75*
G02*
X20653000Y-14162500I-51000J0D01*
G01*
X20653000Y-14162500D02*
G75*
G02*
X20755000Y-14162500I51000J0D01*
G01*
D14*
X19827500Y-12644000D02*
X19990500Y-12807000D01*
X19990500Y-12644000D02*
X19827500Y-12807000D01*
X19909000Y-12644000D02*
X19909000Y-12807000D01*
X19827500Y-12725500D02*
X19990500Y-12725500D01*
X19827500Y-14193000D02*
X19990500Y-14356000D01*
X19990500Y-14193000D02*
X19827500Y-14356000D01*
X19909000Y-14193000D02*
X19909000Y-14356000D01*
X19827500Y-14274500D02*
X19990500Y-14274500D01*
D15*
X16125000Y-10815000D02*
X16315000Y-11005000D01*
X16315000Y-10815000D02*
X16125000Y-11005000D01*
X16287176Y-10977176D02*
X16287176Y-10842824D01*
X16152824Y-10842824D01*
X16152824Y-10977176D01*
X16287176Y-10977176D01*
X16125000Y-11315000D02*
X16315000Y-11505000D01*
X16315000Y-11315000D02*
X16125000Y-11505000D01*
X16287176Y-11477176D02*
X16287176Y-11342824D01*
X16152824Y-11342824D01*
X16152824Y-11477176D01*
X16287176Y-11477176D01*
D16*
X15140000Y-10140000D02*
X15360000Y-10360000D01*
X15360000Y-10140000D02*
X15140000Y-10360000D01*
X15250000Y-10360000D02*
X15360000Y-10250000D01*
X15250000Y-10140000D01*
X15140000Y-10250000D01*
X15250000Y-10360000D01*
X15725000Y-14040000D02*
X15945000Y-14260000D01*
X15945000Y-14040000D02*
X15725000Y-14260000D01*
X15835000Y-14260000D02*
X15945000Y-14150000D01*
X15835000Y-14040000D01*
X15725000Y-14150000D01*
X15835000Y-14260000D01*
X18725000Y-14040000D02*
X18945000Y-14260000D01*
X18945000Y-14040000D02*
X18725000Y-14260000D01*
X18835000Y-14260000D02*
X18945000Y-14150000D01*
X18835000Y-14040000D01*
X18725000Y-14150000D01*
X18835000Y-14260000D01*
X20840000Y-10140000D02*
X21060000Y-10360000D01*
X21060000Y-10140000D02*
X20840000Y-10360000D01*
X20950000Y-10360000D02*
X21060000Y-10250000D01*
X20950000Y-10140000D01*
X20840000Y-10250000D01*
X20950000Y-10360000D01*
D11*
X15258277Y-14813984D02*
X15258277Y-14613984D01*
X15258277Y-14613984D02*
X15305896Y-14613984D01*
X15305896Y-14613984D02*
X15334467Y-14623508D01*
X15334467Y-14623508D02*
X15353515Y-14642555D01*
X15353515Y-14642555D02*
X15363039Y-14661603D01*
X15363039Y-14661603D02*
X15372562Y-14699698D01*
X15372562Y-14699698D02*
X15372562Y-14728269D01*
X15372562Y-14728269D02*
X15363039Y-14766365D01*
X15363039Y-14766365D02*
X15353515Y-14785412D01*
X15353515Y-14785412D02*
X15334467Y-14804460D01*
X15334467Y-14804460D02*
X15305896Y-14813984D01*
X15305896Y-14813984D02*
X15258277Y-14813984D01*
X15458277Y-14813984D02*
X15458277Y-14680650D01*
X15458277Y-14718746D02*
X15467801Y-14699698D01*
X15467801Y-14699698D02*
X15477324Y-14690174D01*
X15477324Y-14690174D02*
X15496372Y-14680650D01*
X15496372Y-14680650D02*
X15515420Y-14680650D01*
X15582086Y-14813984D02*
X15582086Y-14680650D01*
X15582086Y-14613984D02*
X15572562Y-14623508D01*
X15572562Y-14623508D02*
X15582086Y-14633031D01*
X15582086Y-14633031D02*
X15591610Y-14623508D01*
X15591610Y-14623508D02*
X15582086Y-14613984D01*
X15582086Y-14613984D02*
X15582086Y-14633031D01*
X15705896Y-14813984D02*
X15686848Y-14804460D01*
X15686848Y-14804460D02*
X15677324Y-14785412D01*
X15677324Y-14785412D02*
X15677324Y-14613984D01*
X15810658Y-14813984D02*
X15791610Y-14804460D01*
X15791610Y-14804460D02*
X15782086Y-14785412D01*
X15782086Y-14785412D02*
X15782086Y-14613984D01*
X16039229Y-14813984D02*
X16039229Y-14613984D01*
X16039229Y-14613984D02*
X16105896Y-14756841D01*
X16105896Y-14756841D02*
X16172562Y-14613984D01*
X16172562Y-14613984D02*
X16172562Y-14813984D01*
X16353515Y-14813984D02*
X16353515Y-14709222D01*
X16353515Y-14709222D02*
X16343991Y-14690174D01*
X16343991Y-14690174D02*
X16324943Y-14680650D01*
X16324943Y-14680650D02*
X16286848Y-14680650D01*
X16286848Y-14680650D02*
X16267801Y-14690174D01*
X16353515Y-14804460D02*
X16334467Y-14813984D01*
X16334467Y-14813984D02*
X16286848Y-14813984D01*
X16286848Y-14813984D02*
X16267801Y-14804460D01*
X16267801Y-14804460D02*
X16258277Y-14785412D01*
X16258277Y-14785412D02*
X16258277Y-14766365D01*
X16258277Y-14766365D02*
X16267801Y-14747317D01*
X16267801Y-14747317D02*
X16286848Y-14737793D01*
X16286848Y-14737793D02*
X16334467Y-14737793D01*
X16334467Y-14737793D02*
X16353515Y-14728269D01*
X16448753Y-14680650D02*
X16448753Y-14880650D01*
X16448753Y-14690174D02*
X16467801Y-14680650D01*
X16467801Y-14680650D02*
X16505896Y-14680650D01*
X16505896Y-14680650D02*
X16524943Y-14690174D01*
X16524943Y-14690174D02*
X16534467Y-14699698D01*
X16534467Y-14699698D02*
X16543991Y-14718746D01*
X16543991Y-14718746D02*
X16543991Y-14775888D01*
X16543991Y-14775888D02*
X16534467Y-14794936D01*
X16534467Y-14794936D02*
X16524943Y-14804460D01*
X16524943Y-14804460D02*
X16505896Y-14813984D01*
X16505896Y-14813984D02*
X16467801Y-14813984D01*
X16467801Y-14813984D02*
X16448753Y-14804460D01*
X16629705Y-14794936D02*
X16639229Y-14804460D01*
X16639229Y-14804460D02*
X16629705Y-14813984D01*
X16629705Y-14813984D02*
X16620182Y-14804460D01*
X16620182Y-14804460D02*
X16629705Y-14794936D01*
X16629705Y-14794936D02*
X16629705Y-14813984D01*
X16629705Y-14690174D02*
X16639229Y-14699698D01*
X16639229Y-14699698D02*
X16629705Y-14709222D01*
X16629705Y-14709222D02*
X16620182Y-14699698D01*
X16620182Y-14699698D02*
X16629705Y-14690174D01*
X16629705Y-14690174D02*
X16629705Y-14709222D01*
D12*
X14967500Y-15127500D02*
X14997500Y-15157500D01*
X14997500Y-15127500D02*
X14967500Y-15157500D01*
D11*
X15296372Y-15033984D02*
X15315420Y-15033984D01*
X15315420Y-15033984D02*
X15334467Y-15043508D01*
X15334467Y-15043508D02*
X15343991Y-15053031D01*
X15343991Y-15053031D02*
X15353515Y-15072079D01*
X15353515Y-15072079D02*
X15363039Y-15110174D01*
X15363039Y-15110174D02*
X15363039Y-15157793D01*
X15363039Y-15157793D02*
X15353515Y-15195888D01*
X15353515Y-15195888D02*
X15343991Y-15214936D01*
X15343991Y-15214936D02*
X15334467Y-15224460D01*
X15334467Y-15224460D02*
X15315420Y-15233984D01*
X15315420Y-15233984D02*
X15296372Y-15233984D01*
X15296372Y-15233984D02*
X15277324Y-15224460D01*
X15277324Y-15224460D02*
X15267801Y-15214936D01*
X15267801Y-15214936D02*
X15258277Y-15195888D01*
X15258277Y-15195888D02*
X15248753Y-15157793D01*
X15248753Y-15157793D02*
X15248753Y-15110174D01*
X15248753Y-15110174D02*
X15258277Y-15072079D01*
X15258277Y-15072079D02*
X15267801Y-15053031D01*
X15267801Y-15053031D02*
X15277324Y-15043508D01*
X15277324Y-15043508D02*
X15296372Y-15033984D01*
X15448753Y-15214936D02*
X15458277Y-15224460D01*
X15458277Y-15224460D02*
X15448753Y-15233984D01*
X15448753Y-15233984D02*
X15439229Y-15224460D01*
X15439229Y-15224460D02*
X15448753Y-15214936D01*
X15448753Y-15214936D02*
X15448753Y-15233984D01*
X15524943Y-15033984D02*
X15648753Y-15033984D01*
X15648753Y-15033984D02*
X15582086Y-15110174D01*
X15582086Y-15110174D02*
X15610658Y-15110174D01*
X15610658Y-15110174D02*
X15629705Y-15119698D01*
X15629705Y-15119698D02*
X15639229Y-15129222D01*
X15639229Y-15129222D02*
X15648753Y-15148269D01*
X15648753Y-15148269D02*
X15648753Y-15195888D01*
X15648753Y-15195888D02*
X15639229Y-15214936D01*
X15639229Y-15214936D02*
X15629705Y-15224460D01*
X15629705Y-15224460D02*
X15610658Y-15233984D01*
X15610658Y-15233984D02*
X15553515Y-15233984D01*
X15553515Y-15233984D02*
X15534467Y-15224460D01*
X15534467Y-15224460D02*
X15524943Y-15214936D01*
X15772562Y-15033984D02*
X15791610Y-15033984D01*
X15791610Y-15033984D02*
X15810658Y-15043508D01*
X15810658Y-15043508D02*
X15820182Y-15053031D01*
X15820182Y-15053031D02*
X15829705Y-15072079D01*
X15829705Y-15072079D02*
X15839229Y-15110174D01*
X15839229Y-15110174D02*
X15839229Y-15157793D01*
X15839229Y-15157793D02*
X15829705Y-15195888D01*
X15829705Y-15195888D02*
X15820182Y-15214936D01*
X15820182Y-15214936D02*
X15810658Y-15224460D01*
X15810658Y-15224460D02*
X15791610Y-15233984D01*
X15791610Y-15233984D02*
X15772562Y-15233984D01*
X15772562Y-15233984D02*
X15753515Y-15224460D01*
X15753515Y-15224460D02*
X15743991Y-15214936D01*
X15743991Y-15214936D02*
X15734467Y-15195888D01*
X15734467Y-15195888D02*
X15724943Y-15157793D01*
X15724943Y-15157793D02*
X15724943Y-15110174D01*
X15724943Y-15110174D02*
X15734467Y-15072079D01*
X15734467Y-15072079D02*
X15743991Y-15053031D01*
X15743991Y-15053031D02*
X15753515Y-15043508D01*
X15753515Y-15043508D02*
X15772562Y-15033984D01*
X15963039Y-15033984D02*
X15982086Y-15033984D01*
X15982086Y-15033984D02*
X16001134Y-15043508D01*
X16001134Y-15043508D02*
X16010658Y-15053031D01*
X16010658Y-15053031D02*
X16020182Y-15072079D01*
X16020182Y-15072079D02*
X16029705Y-15110174D01*
X16029705Y-15110174D02*
X16029705Y-15157793D01*
X16029705Y-15157793D02*
X16020182Y-15195888D01*
X16020182Y-15195888D02*
X16010658Y-15214936D01*
X16010658Y-15214936D02*
X16001134Y-15224460D01*
X16001134Y-15224460D02*
X15982086Y-15233984D01*
X15982086Y-15233984D02*
X15963039Y-15233984D01*
X15963039Y-15233984D02*
X15943991Y-15224460D01*
X15943991Y-15224460D02*
X15934467Y-15214936D01*
X15934467Y-15214936D02*
X15924943Y-15195888D01*
X15924943Y-15195888D02*
X15915420Y-15157793D01*
X15915420Y-15157793D02*
X15915420Y-15110174D01*
X15915420Y-15110174D02*
X15924943Y-15072079D01*
X15924943Y-15072079D02*
X15934467Y-15053031D01*
X15934467Y-15053031D02*
X15943991Y-15043508D01*
X15943991Y-15043508D02*
X15963039Y-15033984D01*
X16115420Y-15233984D02*
X16115420Y-15100650D01*
X16115420Y-15119698D02*
X16124943Y-15110174D01*
X16124943Y-15110174D02*
X16143991Y-15100650D01*
X16143991Y-15100650D02*
X16172563Y-15100650D01*
X16172563Y-15100650D02*
X16191610Y-15110174D01*
X16191610Y-15110174D02*
X16201134Y-15129222D01*
X16201134Y-15129222D02*
X16201134Y-15233984D01*
X16201134Y-15129222D02*
X16210658Y-15110174D01*
X16210658Y-15110174D02*
X16229705Y-15100650D01*
X16229705Y-15100650D02*
X16258277Y-15100650D01*
X16258277Y-15100650D02*
X16277324Y-15110174D01*
X16277324Y-15110174D02*
X16286848Y-15129222D01*
X16286848Y-15129222D02*
X16286848Y-15233984D01*
X16382086Y-15233984D02*
X16382086Y-15100650D01*
X16382086Y-15119698D02*
X16391610Y-15110174D01*
X16391610Y-15110174D02*
X16410658Y-15100650D01*
X16410658Y-15100650D02*
X16439229Y-15100650D01*
X16439229Y-15100650D02*
X16458277Y-15110174D01*
X16458277Y-15110174D02*
X16467801Y-15129222D01*
X16467801Y-15129222D02*
X16467801Y-15233984D01*
X16467801Y-15129222D02*
X16477324Y-15110174D01*
X16477324Y-15110174D02*
X16496372Y-15100650D01*
X16496372Y-15100650D02*
X16524943Y-15100650D01*
X16524943Y-15100650D02*
X16543991Y-15110174D01*
X16543991Y-15110174D02*
X16553515Y-15129222D01*
X16553515Y-15129222D02*
X16553515Y-15233984D01*
X16943991Y-15024460D02*
X16772563Y-15281603D01*
X17201134Y-15033984D02*
X17220182Y-15033984D01*
X17220182Y-15033984D02*
X17239229Y-15043508D01*
X17239229Y-15043508D02*
X17248753Y-15053031D01*
X17248753Y-15053031D02*
X17258277Y-15072079D01*
X17258277Y-15072079D02*
X17267801Y-15110174D01*
X17267801Y-15110174D02*
X17267801Y-15157793D01*
X17267801Y-15157793D02*
X17258277Y-15195888D01*
X17258277Y-15195888D02*
X17248753Y-15214936D01*
X17248753Y-15214936D02*
X17239229Y-15224460D01*
X17239229Y-15224460D02*
X17220182Y-15233984D01*
X17220182Y-15233984D02*
X17201134Y-15233984D01*
X17201134Y-15233984D02*
X17182087Y-15224460D01*
X17182087Y-15224460D02*
X17172563Y-15214936D01*
X17172563Y-15214936D02*
X17163039Y-15195888D01*
X17163039Y-15195888D02*
X17153515Y-15157793D01*
X17153515Y-15157793D02*
X17153515Y-15110174D01*
X17153515Y-15110174D02*
X17163039Y-15072079D01*
X17163039Y-15072079D02*
X17172563Y-15053031D01*
X17172563Y-15053031D02*
X17182087Y-15043508D01*
X17182087Y-15043508D02*
X17201134Y-15033984D01*
X17353515Y-15214936D02*
X17363039Y-15224460D01*
X17363039Y-15224460D02*
X17353515Y-15233984D01*
X17353515Y-15233984D02*
X17343991Y-15224460D01*
X17343991Y-15224460D02*
X17353515Y-15214936D01*
X17353515Y-15214936D02*
X17353515Y-15233984D01*
X17486848Y-15033984D02*
X17505896Y-15033984D01*
X17505896Y-15033984D02*
X17524944Y-15043508D01*
X17524944Y-15043508D02*
X17534468Y-15053031D01*
X17534468Y-15053031D02*
X17543991Y-15072079D01*
X17543991Y-15072079D02*
X17553515Y-15110174D01*
X17553515Y-15110174D02*
X17553515Y-15157793D01*
X17553515Y-15157793D02*
X17543991Y-15195888D01*
X17543991Y-15195888D02*
X17534468Y-15214936D01*
X17534468Y-15214936D02*
X17524944Y-15224460D01*
X17524944Y-15224460D02*
X17505896Y-15233984D01*
X17505896Y-15233984D02*
X17486848Y-15233984D01*
X17486848Y-15233984D02*
X17467801Y-15224460D01*
X17467801Y-15224460D02*
X17458277Y-15214936D01*
X17458277Y-15214936D02*
X17448753Y-15195888D01*
X17448753Y-15195888D02*
X17439229Y-15157793D01*
X17439229Y-15157793D02*
X17439229Y-15110174D01*
X17439229Y-15110174D02*
X17448753Y-15072079D01*
X17448753Y-15072079D02*
X17458277Y-15053031D01*
X17458277Y-15053031D02*
X17467801Y-15043508D01*
X17467801Y-15043508D02*
X17486848Y-15033984D01*
X17743991Y-15233984D02*
X17629706Y-15233984D01*
X17686848Y-15233984D02*
X17686848Y-15033984D01*
X17686848Y-15033984D02*
X17667801Y-15062555D01*
X17667801Y-15062555D02*
X17648753Y-15081603D01*
X17648753Y-15081603D02*
X17629706Y-15091127D01*
X17934468Y-15233984D02*
X17820182Y-15233984D01*
X17877325Y-15233984D02*
X17877325Y-15033984D01*
X17877325Y-15033984D02*
X17858277Y-15062555D01*
X17858277Y-15062555D02*
X17839229Y-15081603D01*
X17839229Y-15081603D02*
X17820182Y-15091127D01*
X18048753Y-15119698D02*
X18029706Y-15110174D01*
X18029706Y-15110174D02*
X18020182Y-15100650D01*
X18020182Y-15100650D02*
X18010658Y-15081603D01*
X18010658Y-15081603D02*
X18010658Y-15072079D01*
X18010658Y-15072079D02*
X18020182Y-15053031D01*
X18020182Y-15053031D02*
X18029706Y-15043508D01*
X18029706Y-15043508D02*
X18048753Y-15033984D01*
X18048753Y-15033984D02*
X18086849Y-15033984D01*
X18086849Y-15033984D02*
X18105896Y-15043508D01*
X18105896Y-15043508D02*
X18115420Y-15053031D01*
X18115420Y-15053031D02*
X18124944Y-15072079D01*
X18124944Y-15072079D02*
X18124944Y-15081603D01*
X18124944Y-15081603D02*
X18115420Y-15100650D01*
X18115420Y-15100650D02*
X18105896Y-15110174D01*
X18105896Y-15110174D02*
X18086849Y-15119698D01*
X18086849Y-15119698D02*
X18048753Y-15119698D01*
X18048753Y-15119698D02*
X18029706Y-15129222D01*
X18029706Y-15129222D02*
X18020182Y-15138746D01*
X18020182Y-15138746D02*
X18010658Y-15157793D01*
X18010658Y-15157793D02*
X18010658Y-15195888D01*
X18010658Y-15195888D02*
X18020182Y-15214936D01*
X18020182Y-15214936D02*
X18029706Y-15224460D01*
X18029706Y-15224460D02*
X18048753Y-15233984D01*
X18048753Y-15233984D02*
X18086849Y-15233984D01*
X18086849Y-15233984D02*
X18105896Y-15224460D01*
X18105896Y-15224460D02*
X18115420Y-15214936D01*
X18115420Y-15214936D02*
X18124944Y-15195888D01*
X18124944Y-15195888D02*
X18124944Y-15157793D01*
X18124944Y-15157793D02*
X18115420Y-15138746D01*
X18115420Y-15138746D02*
X18105896Y-15129222D01*
X18105896Y-15129222D02*
X18086849Y-15119698D01*
X18201134Y-15033984D02*
X18201134Y-15072079D01*
X18277325Y-15033984D02*
X18277325Y-15072079D01*
X18572563Y-15310174D02*
X18563039Y-15300650D01*
X18563039Y-15300650D02*
X18543991Y-15272079D01*
X18543991Y-15272079D02*
X18534468Y-15253031D01*
X18534468Y-15253031D02*
X18524944Y-15224460D01*
X18524944Y-15224460D02*
X18515420Y-15176841D01*
X18515420Y-15176841D02*
X18515420Y-15138746D01*
X18515420Y-15138746D02*
X18524944Y-15091127D01*
X18524944Y-15091127D02*
X18534468Y-15062555D01*
X18534468Y-15062555D02*
X18543991Y-15043508D01*
X18543991Y-15043508D02*
X18563039Y-15014936D01*
X18563039Y-15014936D02*
X18572563Y-15005412D01*
X18639230Y-15053031D02*
X18648753Y-15043508D01*
X18648753Y-15043508D02*
X18667801Y-15033984D01*
X18667801Y-15033984D02*
X18715420Y-15033984D01*
X18715420Y-15033984D02*
X18734468Y-15043508D01*
X18734468Y-15043508D02*
X18743991Y-15053031D01*
X18743991Y-15053031D02*
X18753515Y-15072079D01*
X18753515Y-15072079D02*
X18753515Y-15091127D01*
X18753515Y-15091127D02*
X18743991Y-15119698D01*
X18743991Y-15119698D02*
X18629706Y-15233984D01*
X18629706Y-15233984D02*
X18753515Y-15233984D01*
X18924944Y-15033984D02*
X18886849Y-15033984D01*
X18886849Y-15033984D02*
X18867801Y-15043508D01*
X18867801Y-15043508D02*
X18858277Y-15053031D01*
X18858277Y-15053031D02*
X18839230Y-15081603D01*
X18839230Y-15081603D02*
X18829706Y-15119698D01*
X18829706Y-15119698D02*
X18829706Y-15195888D01*
X18829706Y-15195888D02*
X18839230Y-15214936D01*
X18839230Y-15214936D02*
X18848753Y-15224460D01*
X18848753Y-15224460D02*
X18867801Y-15233984D01*
X18867801Y-15233984D02*
X18905896Y-15233984D01*
X18905896Y-15233984D02*
X18924944Y-15224460D01*
X18924944Y-15224460D02*
X18934468Y-15214936D01*
X18934468Y-15214936D02*
X18943991Y-15195888D01*
X18943991Y-15195888D02*
X18943991Y-15148269D01*
X18943991Y-15148269D02*
X18934468Y-15129222D01*
X18934468Y-15129222D02*
X18924944Y-15119698D01*
X18924944Y-15119698D02*
X18905896Y-15110174D01*
X18905896Y-15110174D02*
X18867801Y-15110174D01*
X18867801Y-15110174D02*
X18848753Y-15119698D01*
X18848753Y-15119698D02*
X18839230Y-15129222D01*
X18839230Y-15129222D02*
X18829706Y-15148269D01*
X19010658Y-15033984D02*
X19134468Y-15033984D01*
X19134468Y-15033984D02*
X19067801Y-15110174D01*
X19067801Y-15110174D02*
X19096372Y-15110174D01*
X19096372Y-15110174D02*
X19115420Y-15119698D01*
X19115420Y-15119698D02*
X19124944Y-15129222D01*
X19124944Y-15129222D02*
X19134468Y-15148269D01*
X19134468Y-15148269D02*
X19134468Y-15195888D01*
X19134468Y-15195888D02*
X19124944Y-15214936D01*
X19124944Y-15214936D02*
X19115420Y-15224460D01*
X19115420Y-15224460D02*
X19096372Y-15233984D01*
X19096372Y-15233984D02*
X19039230Y-15233984D01*
X19039230Y-15233984D02*
X19020182Y-15224460D01*
X19020182Y-15224460D02*
X19010658Y-15214936D01*
X19372563Y-15233984D02*
X19372563Y-15033984D01*
X19458277Y-15233984D02*
X19458277Y-15129222D01*
X19458277Y-15129222D02*
X19448753Y-15110174D01*
X19448753Y-15110174D02*
X19429706Y-15100650D01*
X19429706Y-15100650D02*
X19401134Y-15100650D01*
X19401134Y-15100650D02*
X19382087Y-15110174D01*
X19382087Y-15110174D02*
X19372563Y-15119698D01*
X19582087Y-15233984D02*
X19563039Y-15224460D01*
X19563039Y-15224460D02*
X19553515Y-15214936D01*
X19553515Y-15214936D02*
X19543992Y-15195888D01*
X19543992Y-15195888D02*
X19543992Y-15138746D01*
X19543992Y-15138746D02*
X19553515Y-15119698D01*
X19553515Y-15119698D02*
X19563039Y-15110174D01*
X19563039Y-15110174D02*
X19582087Y-15100650D01*
X19582087Y-15100650D02*
X19610658Y-15100650D01*
X19610658Y-15100650D02*
X19629706Y-15110174D01*
X19629706Y-15110174D02*
X19639230Y-15119698D01*
X19639230Y-15119698D02*
X19648753Y-15138746D01*
X19648753Y-15138746D02*
X19648753Y-15195888D01*
X19648753Y-15195888D02*
X19639230Y-15214936D01*
X19639230Y-15214936D02*
X19629706Y-15224460D01*
X19629706Y-15224460D02*
X19610658Y-15233984D01*
X19610658Y-15233984D02*
X19582087Y-15233984D01*
X19763039Y-15233984D02*
X19743992Y-15224460D01*
X19743992Y-15224460D02*
X19734468Y-15205412D01*
X19734468Y-15205412D02*
X19734468Y-15033984D01*
X19915420Y-15224460D02*
X19896373Y-15233984D01*
X19896373Y-15233984D02*
X19858277Y-15233984D01*
X19858277Y-15233984D02*
X19839230Y-15224460D01*
X19839230Y-15224460D02*
X19829706Y-15205412D01*
X19829706Y-15205412D02*
X19829706Y-15129222D01*
X19829706Y-15129222D02*
X19839230Y-15110174D01*
X19839230Y-15110174D02*
X19858277Y-15100650D01*
X19858277Y-15100650D02*
X19896373Y-15100650D01*
X19896373Y-15100650D02*
X19915420Y-15110174D01*
X19915420Y-15110174D02*
X19924944Y-15129222D01*
X19924944Y-15129222D02*
X19924944Y-15148269D01*
X19924944Y-15148269D02*
X19829706Y-15167317D01*
X20001134Y-15224460D02*
X20020182Y-15233984D01*
X20020182Y-15233984D02*
X20058277Y-15233984D01*
X20058277Y-15233984D02*
X20077325Y-15224460D01*
X20077325Y-15224460D02*
X20086849Y-15205412D01*
X20086849Y-15205412D02*
X20086849Y-15195888D01*
X20086849Y-15195888D02*
X20077325Y-15176841D01*
X20077325Y-15176841D02*
X20058277Y-15167317D01*
X20058277Y-15167317D02*
X20029706Y-15167317D01*
X20029706Y-15167317D02*
X20010658Y-15157793D01*
X20010658Y-15157793D02*
X20001134Y-15138746D01*
X20001134Y-15138746D02*
X20001134Y-15129222D01*
X20001134Y-15129222D02*
X20010658Y-15110174D01*
X20010658Y-15110174D02*
X20029706Y-15100650D01*
X20029706Y-15100650D02*
X20058277Y-15100650D01*
X20058277Y-15100650D02*
X20077325Y-15110174D01*
X20153515Y-15310174D02*
X20163039Y-15300650D01*
X20163039Y-15300650D02*
X20182087Y-15272079D01*
X20182087Y-15272079D02*
X20191611Y-15253031D01*
X20191611Y-15253031D02*
X20201134Y-15224460D01*
X20201134Y-15224460D02*
X20210658Y-15176841D01*
X20210658Y-15176841D02*
X20210658Y-15138746D01*
X20210658Y-15138746D02*
X20201134Y-15091127D01*
X20201134Y-15091127D02*
X20191611Y-15062555D01*
X20191611Y-15062555D02*
X20182087Y-15043508D01*
X20182087Y-15043508D02*
X20163039Y-15014936D01*
X20163039Y-15014936D02*
X20153515Y-15005412D01*
D12*
X14997500Y-15406500D02*
G75*
G02*
X14967500Y-15406500I-15000J0D01*
G01*
X14967500Y-15406500D02*
G75*
G02*
X14997500Y-15406500I15000J0D01*
G01*
D11*
X15296372Y-15297984D02*
X15315420Y-15297984D01*
X15315420Y-15297984D02*
X15334467Y-15307508D01*
X15334467Y-15307508D02*
X15343991Y-15317031D01*
X15343991Y-15317031D02*
X15353515Y-15336079D01*
X15353515Y-15336079D02*
X15363039Y-15374174D01*
X15363039Y-15374174D02*
X15363039Y-15421793D01*
X15363039Y-15421793D02*
X15353515Y-15459888D01*
X15353515Y-15459888D02*
X15343991Y-15478936D01*
X15343991Y-15478936D02*
X15334467Y-15488460D01*
X15334467Y-15488460D02*
X15315420Y-15497984D01*
X15315420Y-15497984D02*
X15296372Y-15497984D01*
X15296372Y-15497984D02*
X15277324Y-15488460D01*
X15277324Y-15488460D02*
X15267801Y-15478936D01*
X15267801Y-15478936D02*
X15258277Y-15459888D01*
X15258277Y-15459888D02*
X15248753Y-15421793D01*
X15248753Y-15421793D02*
X15248753Y-15374174D01*
X15248753Y-15374174D02*
X15258277Y-15336079D01*
X15258277Y-15336079D02*
X15267801Y-15317031D01*
X15267801Y-15317031D02*
X15277324Y-15307508D01*
X15277324Y-15307508D02*
X15296372Y-15297984D01*
X15448753Y-15478936D02*
X15458277Y-15488460D01*
X15458277Y-15488460D02*
X15448753Y-15497984D01*
X15448753Y-15497984D02*
X15439229Y-15488460D01*
X15439229Y-15488460D02*
X15448753Y-15478936D01*
X15448753Y-15478936D02*
X15448753Y-15497984D01*
X15524943Y-15297984D02*
X15648753Y-15297984D01*
X15648753Y-15297984D02*
X15582086Y-15374174D01*
X15582086Y-15374174D02*
X15610658Y-15374174D01*
X15610658Y-15374174D02*
X15629705Y-15383698D01*
X15629705Y-15383698D02*
X15639229Y-15393222D01*
X15639229Y-15393222D02*
X15648753Y-15412269D01*
X15648753Y-15412269D02*
X15648753Y-15459888D01*
X15648753Y-15459888D02*
X15639229Y-15478936D01*
X15639229Y-15478936D02*
X15629705Y-15488460D01*
X15629705Y-15488460D02*
X15610658Y-15497984D01*
X15610658Y-15497984D02*
X15553515Y-15497984D01*
X15553515Y-15497984D02*
X15534467Y-15488460D01*
X15534467Y-15488460D02*
X15524943Y-15478936D01*
X15772562Y-15297984D02*
X15791610Y-15297984D01*
X15791610Y-15297984D02*
X15810658Y-15307508D01*
X15810658Y-15307508D02*
X15820182Y-15317031D01*
X15820182Y-15317031D02*
X15829705Y-15336079D01*
X15829705Y-15336079D02*
X15839229Y-15374174D01*
X15839229Y-15374174D02*
X15839229Y-15421793D01*
X15839229Y-15421793D02*
X15829705Y-15459888D01*
X15829705Y-15459888D02*
X15820182Y-15478936D01*
X15820182Y-15478936D02*
X15810658Y-15488460D01*
X15810658Y-15488460D02*
X15791610Y-15497984D01*
X15791610Y-15497984D02*
X15772562Y-15497984D01*
X15772562Y-15497984D02*
X15753515Y-15488460D01*
X15753515Y-15488460D02*
X15743991Y-15478936D01*
X15743991Y-15478936D02*
X15734467Y-15459888D01*
X15734467Y-15459888D02*
X15724943Y-15421793D01*
X15724943Y-15421793D02*
X15724943Y-15374174D01*
X15724943Y-15374174D02*
X15734467Y-15336079D01*
X15734467Y-15336079D02*
X15743991Y-15317031D01*
X15743991Y-15317031D02*
X15753515Y-15307508D01*
X15753515Y-15307508D02*
X15772562Y-15297984D01*
X15963039Y-15297984D02*
X15982086Y-15297984D01*
X15982086Y-15297984D02*
X16001134Y-15307508D01*
X16001134Y-15307508D02*
X16010658Y-15317031D01*
X16010658Y-15317031D02*
X16020182Y-15336079D01*
X16020182Y-15336079D02*
X16029705Y-15374174D01*
X16029705Y-15374174D02*
X16029705Y-15421793D01*
X16029705Y-15421793D02*
X16020182Y-15459888D01*
X16020182Y-15459888D02*
X16010658Y-15478936D01*
X16010658Y-15478936D02*
X16001134Y-15488460D01*
X16001134Y-15488460D02*
X15982086Y-15497984D01*
X15982086Y-15497984D02*
X15963039Y-15497984D01*
X15963039Y-15497984D02*
X15943991Y-15488460D01*
X15943991Y-15488460D02*
X15934467Y-15478936D01*
X15934467Y-15478936D02*
X15924943Y-15459888D01*
X15924943Y-15459888D02*
X15915420Y-15421793D01*
X15915420Y-15421793D02*
X15915420Y-15374174D01*
X15915420Y-15374174D02*
X15924943Y-15336079D01*
X15924943Y-15336079D02*
X15934467Y-15317031D01*
X15934467Y-15317031D02*
X15943991Y-15307508D01*
X15943991Y-15307508D02*
X15963039Y-15297984D01*
X16115420Y-15497984D02*
X16115420Y-15364650D01*
X16115420Y-15383698D02*
X16124943Y-15374174D01*
X16124943Y-15374174D02*
X16143991Y-15364650D01*
X16143991Y-15364650D02*
X16172563Y-15364650D01*
X16172563Y-15364650D02*
X16191610Y-15374174D01*
X16191610Y-15374174D02*
X16201134Y-15393222D01*
X16201134Y-15393222D02*
X16201134Y-15497984D01*
X16201134Y-15393222D02*
X16210658Y-15374174D01*
X16210658Y-15374174D02*
X16229705Y-15364650D01*
X16229705Y-15364650D02*
X16258277Y-15364650D01*
X16258277Y-15364650D02*
X16277324Y-15374174D01*
X16277324Y-15374174D02*
X16286848Y-15393222D01*
X16286848Y-15393222D02*
X16286848Y-15497984D01*
X16382086Y-15497984D02*
X16382086Y-15364650D01*
X16382086Y-15383698D02*
X16391610Y-15374174D01*
X16391610Y-15374174D02*
X16410658Y-15364650D01*
X16410658Y-15364650D02*
X16439229Y-15364650D01*
X16439229Y-15364650D02*
X16458277Y-15374174D01*
X16458277Y-15374174D02*
X16467801Y-15393222D01*
X16467801Y-15393222D02*
X16467801Y-15497984D01*
X16467801Y-15393222D02*
X16477324Y-15374174D01*
X16477324Y-15374174D02*
X16496372Y-15364650D01*
X16496372Y-15364650D02*
X16524943Y-15364650D01*
X16524943Y-15364650D02*
X16543991Y-15374174D01*
X16543991Y-15374174D02*
X16553515Y-15393222D01*
X16553515Y-15393222D02*
X16553515Y-15497984D01*
X16943991Y-15288460D02*
X16772563Y-15545603D01*
X17201134Y-15297984D02*
X17220182Y-15297984D01*
X17220182Y-15297984D02*
X17239229Y-15307508D01*
X17239229Y-15307508D02*
X17248753Y-15317031D01*
X17248753Y-15317031D02*
X17258277Y-15336079D01*
X17258277Y-15336079D02*
X17267801Y-15374174D01*
X17267801Y-15374174D02*
X17267801Y-15421793D01*
X17267801Y-15421793D02*
X17258277Y-15459888D01*
X17258277Y-15459888D02*
X17248753Y-15478936D01*
X17248753Y-15478936D02*
X17239229Y-15488460D01*
X17239229Y-15488460D02*
X17220182Y-15497984D01*
X17220182Y-15497984D02*
X17201134Y-15497984D01*
X17201134Y-15497984D02*
X17182087Y-15488460D01*
X17182087Y-15488460D02*
X17172563Y-15478936D01*
X17172563Y-15478936D02*
X17163039Y-15459888D01*
X17163039Y-15459888D02*
X17153515Y-15421793D01*
X17153515Y-15421793D02*
X17153515Y-15374174D01*
X17153515Y-15374174D02*
X17163039Y-15336079D01*
X17163039Y-15336079D02*
X17172563Y-15317031D01*
X17172563Y-15317031D02*
X17182087Y-15307508D01*
X17182087Y-15307508D02*
X17201134Y-15297984D01*
X17353515Y-15478936D02*
X17363039Y-15488460D01*
X17363039Y-15488460D02*
X17353515Y-15497984D01*
X17353515Y-15497984D02*
X17343991Y-15488460D01*
X17343991Y-15488460D02*
X17353515Y-15478936D01*
X17353515Y-15478936D02*
X17353515Y-15497984D01*
X17486848Y-15297984D02*
X17505896Y-15297984D01*
X17505896Y-15297984D02*
X17524944Y-15307508D01*
X17524944Y-15307508D02*
X17534468Y-15317031D01*
X17534468Y-15317031D02*
X17543991Y-15336079D01*
X17543991Y-15336079D02*
X17553515Y-15374174D01*
X17553515Y-15374174D02*
X17553515Y-15421793D01*
X17553515Y-15421793D02*
X17543991Y-15459888D01*
X17543991Y-15459888D02*
X17534468Y-15478936D01*
X17534468Y-15478936D02*
X17524944Y-15488460D01*
X17524944Y-15488460D02*
X17505896Y-15497984D01*
X17505896Y-15497984D02*
X17486848Y-15497984D01*
X17486848Y-15497984D02*
X17467801Y-15488460D01*
X17467801Y-15488460D02*
X17458277Y-15478936D01*
X17458277Y-15478936D02*
X17448753Y-15459888D01*
X17448753Y-15459888D02*
X17439229Y-15421793D01*
X17439229Y-15421793D02*
X17439229Y-15374174D01*
X17439229Y-15374174D02*
X17448753Y-15336079D01*
X17448753Y-15336079D02*
X17458277Y-15317031D01*
X17458277Y-15317031D02*
X17467801Y-15307508D01*
X17467801Y-15307508D02*
X17486848Y-15297984D01*
X17743991Y-15497984D02*
X17629706Y-15497984D01*
X17686848Y-15497984D02*
X17686848Y-15297984D01*
X17686848Y-15297984D02*
X17667801Y-15326555D01*
X17667801Y-15326555D02*
X17648753Y-15345603D01*
X17648753Y-15345603D02*
X17629706Y-15355127D01*
X17934468Y-15497984D02*
X17820182Y-15497984D01*
X17877325Y-15497984D02*
X17877325Y-15297984D01*
X17877325Y-15297984D02*
X17858277Y-15326555D01*
X17858277Y-15326555D02*
X17839229Y-15345603D01*
X17839229Y-15345603D02*
X17820182Y-15355127D01*
X18048753Y-15383698D02*
X18029706Y-15374174D01*
X18029706Y-15374174D02*
X18020182Y-15364650D01*
X18020182Y-15364650D02*
X18010658Y-15345603D01*
X18010658Y-15345603D02*
X18010658Y-15336079D01*
X18010658Y-15336079D02*
X18020182Y-15317031D01*
X18020182Y-15317031D02*
X18029706Y-15307508D01*
X18029706Y-15307508D02*
X18048753Y-15297984D01*
X18048753Y-15297984D02*
X18086849Y-15297984D01*
X18086849Y-15297984D02*
X18105896Y-15307508D01*
X18105896Y-15307508D02*
X18115420Y-15317031D01*
X18115420Y-15317031D02*
X18124944Y-15336079D01*
X18124944Y-15336079D02*
X18124944Y-15345603D01*
X18124944Y-15345603D02*
X18115420Y-15364650D01*
X18115420Y-15364650D02*
X18105896Y-15374174D01*
X18105896Y-15374174D02*
X18086849Y-15383698D01*
X18086849Y-15383698D02*
X18048753Y-15383698D01*
X18048753Y-15383698D02*
X18029706Y-15393222D01*
X18029706Y-15393222D02*
X18020182Y-15402746D01*
X18020182Y-15402746D02*
X18010658Y-15421793D01*
X18010658Y-15421793D02*
X18010658Y-15459888D01*
X18010658Y-15459888D02*
X18020182Y-15478936D01*
X18020182Y-15478936D02*
X18029706Y-15488460D01*
X18029706Y-15488460D02*
X18048753Y-15497984D01*
X18048753Y-15497984D02*
X18086849Y-15497984D01*
X18086849Y-15497984D02*
X18105896Y-15488460D01*
X18105896Y-15488460D02*
X18115420Y-15478936D01*
X18115420Y-15478936D02*
X18124944Y-15459888D01*
X18124944Y-15459888D02*
X18124944Y-15421793D01*
X18124944Y-15421793D02*
X18115420Y-15402746D01*
X18115420Y-15402746D02*
X18105896Y-15393222D01*
X18105896Y-15393222D02*
X18086849Y-15383698D01*
X18201134Y-15297984D02*
X18201134Y-15336079D01*
X18277325Y-15297984D02*
X18277325Y-15336079D01*
X18572563Y-15574174D02*
X18563039Y-15564650D01*
X18563039Y-15564650D02*
X18543991Y-15536079D01*
X18543991Y-15536079D02*
X18534468Y-15517031D01*
X18534468Y-15517031D02*
X18524944Y-15488460D01*
X18524944Y-15488460D02*
X18515420Y-15440841D01*
X18515420Y-15440841D02*
X18515420Y-15402746D01*
X18515420Y-15402746D02*
X18524944Y-15355127D01*
X18524944Y-15355127D02*
X18534468Y-15326555D01*
X18534468Y-15326555D02*
X18543991Y-15307508D01*
X18543991Y-15307508D02*
X18563039Y-15278936D01*
X18563039Y-15278936D02*
X18572563Y-15269412D01*
X18639230Y-15317031D02*
X18648753Y-15307508D01*
X18648753Y-15307508D02*
X18667801Y-15297984D01*
X18667801Y-15297984D02*
X18715420Y-15297984D01*
X18715420Y-15297984D02*
X18734468Y-15307508D01*
X18734468Y-15307508D02*
X18743991Y-15317031D01*
X18743991Y-15317031D02*
X18753515Y-15336079D01*
X18753515Y-15336079D02*
X18753515Y-15355127D01*
X18753515Y-15355127D02*
X18743991Y-15383698D01*
X18743991Y-15383698D02*
X18629706Y-15497984D01*
X18629706Y-15497984D02*
X18753515Y-15497984D01*
X18943991Y-15497984D02*
X18829706Y-15497984D01*
X18886849Y-15497984D02*
X18886849Y-15297984D01*
X18886849Y-15297984D02*
X18867801Y-15326555D01*
X18867801Y-15326555D02*
X18848753Y-15345603D01*
X18848753Y-15345603D02*
X18829706Y-15355127D01*
X19182087Y-15497984D02*
X19182087Y-15297984D01*
X19267801Y-15497984D02*
X19267801Y-15393222D01*
X19267801Y-15393222D02*
X19258277Y-15374174D01*
X19258277Y-15374174D02*
X19239230Y-15364650D01*
X19239230Y-15364650D02*
X19210658Y-15364650D01*
X19210658Y-15364650D02*
X19191611Y-15374174D01*
X19191611Y-15374174D02*
X19182087Y-15383698D01*
X19391611Y-15497984D02*
X19372563Y-15488460D01*
X19372563Y-15488460D02*
X19363039Y-15478936D01*
X19363039Y-15478936D02*
X19353515Y-15459888D01*
X19353515Y-15459888D02*
X19353515Y-15402746D01*
X19353515Y-15402746D02*
X19363039Y-15383698D01*
X19363039Y-15383698D02*
X19372563Y-15374174D01*
X19372563Y-15374174D02*
X19391611Y-15364650D01*
X19391611Y-15364650D02*
X19420182Y-15364650D01*
X19420182Y-15364650D02*
X19439230Y-15374174D01*
X19439230Y-15374174D02*
X19448753Y-15383698D01*
X19448753Y-15383698D02*
X19458277Y-15402746D01*
X19458277Y-15402746D02*
X19458277Y-15459888D01*
X19458277Y-15459888D02*
X19448753Y-15478936D01*
X19448753Y-15478936D02*
X19439230Y-15488460D01*
X19439230Y-15488460D02*
X19420182Y-15497984D01*
X19420182Y-15497984D02*
X19391611Y-15497984D01*
X19572563Y-15497984D02*
X19553515Y-15488460D01*
X19553515Y-15488460D02*
X19543992Y-15469412D01*
X19543992Y-15469412D02*
X19543992Y-15297984D01*
X19724944Y-15488460D02*
X19705896Y-15497984D01*
X19705896Y-15497984D02*
X19667801Y-15497984D01*
X19667801Y-15497984D02*
X19648753Y-15488460D01*
X19648753Y-15488460D02*
X19639230Y-15469412D01*
X19639230Y-15469412D02*
X19639230Y-15393222D01*
X19639230Y-15393222D02*
X19648753Y-15374174D01*
X19648753Y-15374174D02*
X19667801Y-15364650D01*
X19667801Y-15364650D02*
X19705896Y-15364650D01*
X19705896Y-15364650D02*
X19724944Y-15374174D01*
X19724944Y-15374174D02*
X19734468Y-15393222D01*
X19734468Y-15393222D02*
X19734468Y-15412269D01*
X19734468Y-15412269D02*
X19639230Y-15431317D01*
X19810658Y-15488460D02*
X19829706Y-15497984D01*
X19829706Y-15497984D02*
X19867801Y-15497984D01*
X19867801Y-15497984D02*
X19886849Y-15488460D01*
X19886849Y-15488460D02*
X19896373Y-15469412D01*
X19896373Y-15469412D02*
X19896373Y-15459888D01*
X19896373Y-15459888D02*
X19886849Y-15440841D01*
X19886849Y-15440841D02*
X19867801Y-15431317D01*
X19867801Y-15431317D02*
X19839230Y-15431317D01*
X19839230Y-15431317D02*
X19820182Y-15421793D01*
X19820182Y-15421793D02*
X19810658Y-15402746D01*
X19810658Y-15402746D02*
X19810658Y-15393222D01*
X19810658Y-15393222D02*
X19820182Y-15374174D01*
X19820182Y-15374174D02*
X19839230Y-15364650D01*
X19839230Y-15364650D02*
X19867801Y-15364650D01*
X19867801Y-15364650D02*
X19886849Y-15374174D01*
X19963039Y-15574174D02*
X19972563Y-15564650D01*
X19972563Y-15564650D02*
X19991611Y-15536079D01*
X19991611Y-15536079D02*
X20001134Y-15517031D01*
X20001134Y-15517031D02*
X20010658Y-15488460D01*
X20010658Y-15488460D02*
X20020182Y-15440841D01*
X20020182Y-15440841D02*
X20020182Y-15402746D01*
X20020182Y-15402746D02*
X20010658Y-15355127D01*
X20010658Y-15355127D02*
X20001134Y-15326555D01*
X20001134Y-15326555D02*
X19991611Y-15307508D01*
X19991611Y-15307508D02*
X19972563Y-15278936D01*
X19972563Y-15278936D02*
X19963039Y-15269412D01*
D12*
X14967500Y-15640500D02*
X14967500Y-15700500D01*
X14937500Y-15670500D02*
X14997500Y-15670500D01*
D11*
X15296372Y-15561984D02*
X15315420Y-15561984D01*
X15315420Y-15561984D02*
X15334467Y-15571508D01*
X15334467Y-15571508D02*
X15343991Y-15581031D01*
X15343991Y-15581031D02*
X15353515Y-15600079D01*
X15353515Y-15600079D02*
X15363039Y-15638174D01*
X15363039Y-15638174D02*
X15363039Y-15685793D01*
X15363039Y-15685793D02*
X15353515Y-15723888D01*
X15353515Y-15723888D02*
X15343991Y-15742936D01*
X15343991Y-15742936D02*
X15334467Y-15752460D01*
X15334467Y-15752460D02*
X15315420Y-15761984D01*
X15315420Y-15761984D02*
X15296372Y-15761984D01*
X15296372Y-15761984D02*
X15277324Y-15752460D01*
X15277324Y-15752460D02*
X15267801Y-15742936D01*
X15267801Y-15742936D02*
X15258277Y-15723888D01*
X15258277Y-15723888D02*
X15248753Y-15685793D01*
X15248753Y-15685793D02*
X15248753Y-15638174D01*
X15248753Y-15638174D02*
X15258277Y-15600079D01*
X15258277Y-15600079D02*
X15267801Y-15581031D01*
X15267801Y-15581031D02*
X15277324Y-15571508D01*
X15277324Y-15571508D02*
X15296372Y-15561984D01*
X15448753Y-15742936D02*
X15458277Y-15752460D01*
X15458277Y-15752460D02*
X15448753Y-15761984D01*
X15448753Y-15761984D02*
X15439229Y-15752460D01*
X15439229Y-15752460D02*
X15448753Y-15742936D01*
X15448753Y-15742936D02*
X15448753Y-15761984D01*
X15629705Y-15561984D02*
X15591610Y-15561984D01*
X15591610Y-15561984D02*
X15572562Y-15571508D01*
X15572562Y-15571508D02*
X15563039Y-15581031D01*
X15563039Y-15581031D02*
X15543991Y-15609603D01*
X15543991Y-15609603D02*
X15534467Y-15647698D01*
X15534467Y-15647698D02*
X15534467Y-15723888D01*
X15534467Y-15723888D02*
X15543991Y-15742936D01*
X15543991Y-15742936D02*
X15553515Y-15752460D01*
X15553515Y-15752460D02*
X15572562Y-15761984D01*
X15572562Y-15761984D02*
X15610658Y-15761984D01*
X15610658Y-15761984D02*
X15629705Y-15752460D01*
X15629705Y-15752460D02*
X15639229Y-15742936D01*
X15639229Y-15742936D02*
X15648753Y-15723888D01*
X15648753Y-15723888D02*
X15648753Y-15676269D01*
X15648753Y-15676269D02*
X15639229Y-15657222D01*
X15639229Y-15657222D02*
X15629705Y-15647698D01*
X15629705Y-15647698D02*
X15610658Y-15638174D01*
X15610658Y-15638174D02*
X15572562Y-15638174D01*
X15572562Y-15638174D02*
X15553515Y-15647698D01*
X15553515Y-15647698D02*
X15543991Y-15657222D01*
X15543991Y-15657222D02*
X15534467Y-15676269D01*
X15772562Y-15561984D02*
X15791610Y-15561984D01*
X15791610Y-15561984D02*
X15810658Y-15571508D01*
X15810658Y-15571508D02*
X15820182Y-15581031D01*
X15820182Y-15581031D02*
X15829705Y-15600079D01*
X15829705Y-15600079D02*
X15839229Y-15638174D01*
X15839229Y-15638174D02*
X15839229Y-15685793D01*
X15839229Y-15685793D02*
X15829705Y-15723888D01*
X15829705Y-15723888D02*
X15820182Y-15742936D01*
X15820182Y-15742936D02*
X15810658Y-15752460D01*
X15810658Y-15752460D02*
X15791610Y-15761984D01*
X15791610Y-15761984D02*
X15772562Y-15761984D01*
X15772562Y-15761984D02*
X15753515Y-15752460D01*
X15753515Y-15752460D02*
X15743991Y-15742936D01*
X15743991Y-15742936D02*
X15734467Y-15723888D01*
X15734467Y-15723888D02*
X15724943Y-15685793D01*
X15724943Y-15685793D02*
X15724943Y-15638174D01*
X15724943Y-15638174D02*
X15734467Y-15600079D01*
X15734467Y-15600079D02*
X15743991Y-15581031D01*
X15743991Y-15581031D02*
X15753515Y-15571508D01*
X15753515Y-15571508D02*
X15772562Y-15561984D01*
X15963039Y-15561984D02*
X15982086Y-15561984D01*
X15982086Y-15561984D02*
X16001134Y-15571508D01*
X16001134Y-15571508D02*
X16010658Y-15581031D01*
X16010658Y-15581031D02*
X16020182Y-15600079D01*
X16020182Y-15600079D02*
X16029705Y-15638174D01*
X16029705Y-15638174D02*
X16029705Y-15685793D01*
X16029705Y-15685793D02*
X16020182Y-15723888D01*
X16020182Y-15723888D02*
X16010658Y-15742936D01*
X16010658Y-15742936D02*
X16001134Y-15752460D01*
X16001134Y-15752460D02*
X15982086Y-15761984D01*
X15982086Y-15761984D02*
X15963039Y-15761984D01*
X15963039Y-15761984D02*
X15943991Y-15752460D01*
X15943991Y-15752460D02*
X15934467Y-15742936D01*
X15934467Y-15742936D02*
X15924943Y-15723888D01*
X15924943Y-15723888D02*
X15915420Y-15685793D01*
X15915420Y-15685793D02*
X15915420Y-15638174D01*
X15915420Y-15638174D02*
X15924943Y-15600079D01*
X15924943Y-15600079D02*
X15934467Y-15581031D01*
X15934467Y-15581031D02*
X15943991Y-15571508D01*
X15943991Y-15571508D02*
X15963039Y-15561984D01*
X16115420Y-15761984D02*
X16115420Y-15628650D01*
X16115420Y-15647698D02*
X16124943Y-15638174D01*
X16124943Y-15638174D02*
X16143991Y-15628650D01*
X16143991Y-15628650D02*
X16172563Y-15628650D01*
X16172563Y-15628650D02*
X16191610Y-15638174D01*
X16191610Y-15638174D02*
X16201134Y-15657222D01*
X16201134Y-15657222D02*
X16201134Y-15761984D01*
X16201134Y-15657222D02*
X16210658Y-15638174D01*
X16210658Y-15638174D02*
X16229705Y-15628650D01*
X16229705Y-15628650D02*
X16258277Y-15628650D01*
X16258277Y-15628650D02*
X16277324Y-15638174D01*
X16277324Y-15638174D02*
X16286848Y-15657222D01*
X16286848Y-15657222D02*
X16286848Y-15761984D01*
X16382086Y-15761984D02*
X16382086Y-15628650D01*
X16382086Y-15647698D02*
X16391610Y-15638174D01*
X16391610Y-15638174D02*
X16410658Y-15628650D01*
X16410658Y-15628650D02*
X16439229Y-15628650D01*
X16439229Y-15628650D02*
X16458277Y-15638174D01*
X16458277Y-15638174D02*
X16467801Y-15657222D01*
X16467801Y-15657222D02*
X16467801Y-15761984D01*
X16467801Y-15657222D02*
X16477324Y-15638174D01*
X16477324Y-15638174D02*
X16496372Y-15628650D01*
X16496372Y-15628650D02*
X16524943Y-15628650D01*
X16524943Y-15628650D02*
X16543991Y-15638174D01*
X16543991Y-15638174D02*
X16553515Y-15657222D01*
X16553515Y-15657222D02*
X16553515Y-15761984D01*
X16943991Y-15552460D02*
X16772563Y-15809603D01*
X17201134Y-15561984D02*
X17220182Y-15561984D01*
X17220182Y-15561984D02*
X17239229Y-15571508D01*
X17239229Y-15571508D02*
X17248753Y-15581031D01*
X17248753Y-15581031D02*
X17258277Y-15600079D01*
X17258277Y-15600079D02*
X17267801Y-15638174D01*
X17267801Y-15638174D02*
X17267801Y-15685793D01*
X17267801Y-15685793D02*
X17258277Y-15723888D01*
X17258277Y-15723888D02*
X17248753Y-15742936D01*
X17248753Y-15742936D02*
X17239229Y-15752460D01*
X17239229Y-15752460D02*
X17220182Y-15761984D01*
X17220182Y-15761984D02*
X17201134Y-15761984D01*
X17201134Y-15761984D02*
X17182087Y-15752460D01*
X17182087Y-15752460D02*
X17172563Y-15742936D01*
X17172563Y-15742936D02*
X17163039Y-15723888D01*
X17163039Y-15723888D02*
X17153515Y-15685793D01*
X17153515Y-15685793D02*
X17153515Y-15638174D01*
X17153515Y-15638174D02*
X17163039Y-15600079D01*
X17163039Y-15600079D02*
X17172563Y-15581031D01*
X17172563Y-15581031D02*
X17182087Y-15571508D01*
X17182087Y-15571508D02*
X17201134Y-15561984D01*
X17353515Y-15742936D02*
X17363039Y-15752460D01*
X17363039Y-15752460D02*
X17353515Y-15761984D01*
X17353515Y-15761984D02*
X17343991Y-15752460D01*
X17343991Y-15752460D02*
X17353515Y-15742936D01*
X17353515Y-15742936D02*
X17353515Y-15761984D01*
X17486848Y-15561984D02*
X17505896Y-15561984D01*
X17505896Y-15561984D02*
X17524944Y-15571508D01*
X17524944Y-15571508D02*
X17534468Y-15581031D01*
X17534468Y-15581031D02*
X17543991Y-15600079D01*
X17543991Y-15600079D02*
X17553515Y-15638174D01*
X17553515Y-15638174D02*
X17553515Y-15685793D01*
X17553515Y-15685793D02*
X17543991Y-15723888D01*
X17543991Y-15723888D02*
X17534468Y-15742936D01*
X17534468Y-15742936D02*
X17524944Y-15752460D01*
X17524944Y-15752460D02*
X17505896Y-15761984D01*
X17505896Y-15761984D02*
X17486848Y-15761984D01*
X17486848Y-15761984D02*
X17467801Y-15752460D01*
X17467801Y-15752460D02*
X17458277Y-15742936D01*
X17458277Y-15742936D02*
X17448753Y-15723888D01*
X17448753Y-15723888D02*
X17439229Y-15685793D01*
X17439229Y-15685793D02*
X17439229Y-15638174D01*
X17439229Y-15638174D02*
X17448753Y-15600079D01*
X17448753Y-15600079D02*
X17458277Y-15581031D01*
X17458277Y-15581031D02*
X17467801Y-15571508D01*
X17467801Y-15571508D02*
X17486848Y-15561984D01*
X17629706Y-15581031D02*
X17639229Y-15571508D01*
X17639229Y-15571508D02*
X17658277Y-15561984D01*
X17658277Y-15561984D02*
X17705896Y-15561984D01*
X17705896Y-15561984D02*
X17724944Y-15571508D01*
X17724944Y-15571508D02*
X17734468Y-15581031D01*
X17734468Y-15581031D02*
X17743991Y-15600079D01*
X17743991Y-15600079D02*
X17743991Y-15619127D01*
X17743991Y-15619127D02*
X17734468Y-15647698D01*
X17734468Y-15647698D02*
X17620182Y-15761984D01*
X17620182Y-15761984D02*
X17743991Y-15761984D01*
X17810658Y-15561984D02*
X17934468Y-15561984D01*
X17934468Y-15561984D02*
X17867801Y-15638174D01*
X17867801Y-15638174D02*
X17896372Y-15638174D01*
X17896372Y-15638174D02*
X17915420Y-15647698D01*
X17915420Y-15647698D02*
X17924944Y-15657222D01*
X17924944Y-15657222D02*
X17934468Y-15676269D01*
X17934468Y-15676269D02*
X17934468Y-15723888D01*
X17934468Y-15723888D02*
X17924944Y-15742936D01*
X17924944Y-15742936D02*
X17915420Y-15752460D01*
X17915420Y-15752460D02*
X17896372Y-15761984D01*
X17896372Y-15761984D02*
X17839229Y-15761984D01*
X17839229Y-15761984D02*
X17820182Y-15752460D01*
X17820182Y-15752460D02*
X17810658Y-15742936D01*
X18105896Y-15561984D02*
X18067801Y-15561984D01*
X18067801Y-15561984D02*
X18048753Y-15571508D01*
X18048753Y-15571508D02*
X18039229Y-15581031D01*
X18039229Y-15581031D02*
X18020182Y-15609603D01*
X18020182Y-15609603D02*
X18010658Y-15647698D01*
X18010658Y-15647698D02*
X18010658Y-15723888D01*
X18010658Y-15723888D02*
X18020182Y-15742936D01*
X18020182Y-15742936D02*
X18029706Y-15752460D01*
X18029706Y-15752460D02*
X18048753Y-15761984D01*
X18048753Y-15761984D02*
X18086849Y-15761984D01*
X18086849Y-15761984D02*
X18105896Y-15752460D01*
X18105896Y-15752460D02*
X18115420Y-15742936D01*
X18115420Y-15742936D02*
X18124944Y-15723888D01*
X18124944Y-15723888D02*
X18124944Y-15676269D01*
X18124944Y-15676269D02*
X18115420Y-15657222D01*
X18115420Y-15657222D02*
X18105896Y-15647698D01*
X18105896Y-15647698D02*
X18086849Y-15638174D01*
X18086849Y-15638174D02*
X18048753Y-15638174D01*
X18048753Y-15638174D02*
X18029706Y-15647698D01*
X18029706Y-15647698D02*
X18020182Y-15657222D01*
X18020182Y-15657222D02*
X18010658Y-15676269D01*
X18201134Y-15561984D02*
X18201134Y-15600079D01*
X18277325Y-15561984D02*
X18277325Y-15600079D01*
X18572563Y-15838174D02*
X18563039Y-15828650D01*
X18563039Y-15828650D02*
X18543991Y-15800079D01*
X18543991Y-15800079D02*
X18534468Y-15781031D01*
X18534468Y-15781031D02*
X18524944Y-15752460D01*
X18524944Y-15752460D02*
X18515420Y-15704841D01*
X18515420Y-15704841D02*
X18515420Y-15666746D01*
X18515420Y-15666746D02*
X18524944Y-15619127D01*
X18524944Y-15619127D02*
X18534468Y-15590555D01*
X18534468Y-15590555D02*
X18543991Y-15571508D01*
X18543991Y-15571508D02*
X18563039Y-15542936D01*
X18563039Y-15542936D02*
X18572563Y-15533412D01*
X18686849Y-15561984D02*
X18705896Y-15561984D01*
X18705896Y-15561984D02*
X18724944Y-15571508D01*
X18724944Y-15571508D02*
X18734468Y-15581031D01*
X18734468Y-15581031D02*
X18743991Y-15600079D01*
X18743991Y-15600079D02*
X18753515Y-15638174D01*
X18753515Y-15638174D02*
X18753515Y-15685793D01*
X18753515Y-15685793D02*
X18743991Y-15723888D01*
X18743991Y-15723888D02*
X18734468Y-15742936D01*
X18734468Y-15742936D02*
X18724944Y-15752460D01*
X18724944Y-15752460D02*
X18705896Y-15761984D01*
X18705896Y-15761984D02*
X18686849Y-15761984D01*
X18686849Y-15761984D02*
X18667801Y-15752460D01*
X18667801Y-15752460D02*
X18658277Y-15742936D01*
X18658277Y-15742936D02*
X18648753Y-15723888D01*
X18648753Y-15723888D02*
X18639230Y-15685793D01*
X18639230Y-15685793D02*
X18639230Y-15638174D01*
X18639230Y-15638174D02*
X18648753Y-15600079D01*
X18648753Y-15600079D02*
X18658277Y-15581031D01*
X18658277Y-15581031D02*
X18667801Y-15571508D01*
X18667801Y-15571508D02*
X18686849Y-15561984D01*
X18991611Y-15761984D02*
X18991611Y-15561984D01*
X19077325Y-15761984D02*
X19077325Y-15657222D01*
X19077325Y-15657222D02*
X19067801Y-15638174D01*
X19067801Y-15638174D02*
X19048753Y-15628650D01*
X19048753Y-15628650D02*
X19020182Y-15628650D01*
X19020182Y-15628650D02*
X19001134Y-15638174D01*
X19001134Y-15638174D02*
X18991611Y-15647698D01*
X19201134Y-15761984D02*
X19182087Y-15752460D01*
X19182087Y-15752460D02*
X19172563Y-15742936D01*
X19172563Y-15742936D02*
X19163039Y-15723888D01*
X19163039Y-15723888D02*
X19163039Y-15666746D01*
X19163039Y-15666746D02*
X19172563Y-15647698D01*
X19172563Y-15647698D02*
X19182087Y-15638174D01*
X19182087Y-15638174D02*
X19201134Y-15628650D01*
X19201134Y-15628650D02*
X19229706Y-15628650D01*
X19229706Y-15628650D02*
X19248753Y-15638174D01*
X19248753Y-15638174D02*
X19258277Y-15647698D01*
X19258277Y-15647698D02*
X19267801Y-15666746D01*
X19267801Y-15666746D02*
X19267801Y-15723888D01*
X19267801Y-15723888D02*
X19258277Y-15742936D01*
X19258277Y-15742936D02*
X19248753Y-15752460D01*
X19248753Y-15752460D02*
X19229706Y-15761984D01*
X19229706Y-15761984D02*
X19201134Y-15761984D01*
X19382087Y-15761984D02*
X19363039Y-15752460D01*
X19363039Y-15752460D02*
X19353515Y-15733412D01*
X19353515Y-15733412D02*
X19353515Y-15561984D01*
X19534468Y-15752460D02*
X19515420Y-15761984D01*
X19515420Y-15761984D02*
X19477325Y-15761984D01*
X19477325Y-15761984D02*
X19458277Y-15752460D01*
X19458277Y-15752460D02*
X19448753Y-15733412D01*
X19448753Y-15733412D02*
X19448753Y-15657222D01*
X19448753Y-15657222D02*
X19458277Y-15638174D01*
X19458277Y-15638174D02*
X19477325Y-15628650D01*
X19477325Y-15628650D02*
X19515420Y-15628650D01*
X19515420Y-15628650D02*
X19534468Y-15638174D01*
X19534468Y-15638174D02*
X19543992Y-15657222D01*
X19543992Y-15657222D02*
X19543992Y-15676269D01*
X19543992Y-15676269D02*
X19448753Y-15695317D01*
X19620182Y-15752460D02*
X19639230Y-15761984D01*
X19639230Y-15761984D02*
X19677325Y-15761984D01*
X19677325Y-15761984D02*
X19696373Y-15752460D01*
X19696373Y-15752460D02*
X19705896Y-15733412D01*
X19705896Y-15733412D02*
X19705896Y-15723888D01*
X19705896Y-15723888D02*
X19696373Y-15704841D01*
X19696373Y-15704841D02*
X19677325Y-15695317D01*
X19677325Y-15695317D02*
X19648753Y-15695317D01*
X19648753Y-15695317D02*
X19629706Y-15685793D01*
X19629706Y-15685793D02*
X19620182Y-15666746D01*
X19620182Y-15666746D02*
X19620182Y-15657222D01*
X19620182Y-15657222D02*
X19629706Y-15638174D01*
X19629706Y-15638174D02*
X19648753Y-15628650D01*
X19648753Y-15628650D02*
X19677325Y-15628650D01*
X19677325Y-15628650D02*
X19696373Y-15638174D01*
X19943992Y-15685793D02*
X20096373Y-15685793D01*
X20020182Y-15761984D02*
X20020182Y-15609603D01*
X20429706Y-15628650D02*
X20429706Y-15761984D01*
X20382087Y-15552460D02*
X20334468Y-15695317D01*
X20334468Y-15695317D02*
X20458277Y-15695317D01*
X20677325Y-15752460D02*
X20696373Y-15761984D01*
X20696373Y-15761984D02*
X20734468Y-15761984D01*
X20734468Y-15761984D02*
X20753516Y-15752460D01*
X20753516Y-15752460D02*
X20763039Y-15733412D01*
X20763039Y-15733412D02*
X20763039Y-15723888D01*
X20763039Y-15723888D02*
X20753516Y-15704841D01*
X20753516Y-15704841D02*
X20734468Y-15695317D01*
X20734468Y-15695317D02*
X20705896Y-15695317D01*
X20705896Y-15695317D02*
X20686849Y-15685793D01*
X20686849Y-15685793D02*
X20677325Y-15666746D01*
X20677325Y-15666746D02*
X20677325Y-15657222D01*
X20677325Y-15657222D02*
X20686849Y-15638174D01*
X20686849Y-15638174D02*
X20705896Y-15628650D01*
X20705896Y-15628650D02*
X20734468Y-15628650D01*
X20734468Y-15628650D02*
X20753516Y-15638174D01*
X20877325Y-15761984D02*
X20858277Y-15752460D01*
X20858277Y-15752460D02*
X20848754Y-15733412D01*
X20848754Y-15733412D02*
X20848754Y-15561984D01*
X20982087Y-15761984D02*
X20963039Y-15752460D01*
X20963039Y-15752460D02*
X20953516Y-15742936D01*
X20953516Y-15742936D02*
X20943992Y-15723888D01*
X20943992Y-15723888D02*
X20943992Y-15666746D01*
X20943992Y-15666746D02*
X20953516Y-15647698D01*
X20953516Y-15647698D02*
X20963039Y-15638174D01*
X20963039Y-15638174D02*
X20982087Y-15628650D01*
X20982087Y-15628650D02*
X21010658Y-15628650D01*
X21010658Y-15628650D02*
X21029706Y-15638174D01*
X21029706Y-15638174D02*
X21039230Y-15647698D01*
X21039230Y-15647698D02*
X21048754Y-15666746D01*
X21048754Y-15666746D02*
X21048754Y-15723888D01*
X21048754Y-15723888D02*
X21039230Y-15742936D01*
X21039230Y-15742936D02*
X21029706Y-15752460D01*
X21029706Y-15752460D02*
X21010658Y-15761984D01*
X21010658Y-15761984D02*
X20982087Y-15761984D01*
X21105897Y-15628650D02*
X21182087Y-15628650D01*
X21134468Y-15561984D02*
X21134468Y-15733412D01*
X21134468Y-15733412D02*
X21143992Y-15752460D01*
X21143992Y-15752460D02*
X21163039Y-15761984D01*
X21163039Y-15761984D02*
X21182087Y-15761984D01*
X21239230Y-15752460D02*
X21258277Y-15761984D01*
X21258277Y-15761984D02*
X21296373Y-15761984D01*
X21296373Y-15761984D02*
X21315420Y-15752460D01*
X21315420Y-15752460D02*
X21324944Y-15733412D01*
X21324944Y-15733412D02*
X21324944Y-15723888D01*
X21324944Y-15723888D02*
X21315420Y-15704841D01*
X21315420Y-15704841D02*
X21296373Y-15695317D01*
X21296373Y-15695317D02*
X21267801Y-15695317D01*
X21267801Y-15695317D02*
X21248754Y-15685793D01*
X21248754Y-15685793D02*
X21239230Y-15666746D01*
X21239230Y-15666746D02*
X21239230Y-15657222D01*
X21239230Y-15657222D02*
X21248754Y-15638174D01*
X21248754Y-15638174D02*
X21267801Y-15628650D01*
X21267801Y-15628650D02*
X21296373Y-15628650D01*
X21296373Y-15628650D02*
X21315420Y-15638174D01*
X21391611Y-15838174D02*
X21401135Y-15828650D01*
X21401135Y-15828650D02*
X21420182Y-15800079D01*
X21420182Y-15800079D02*
X21429706Y-15781031D01*
X21429706Y-15781031D02*
X21439230Y-15752460D01*
X21439230Y-15752460D02*
X21448754Y-15704841D01*
X21448754Y-15704841D02*
X21448754Y-15666746D01*
X21448754Y-15666746D02*
X21439230Y-15619127D01*
X21439230Y-15619127D02*
X21429706Y-15590555D01*
X21429706Y-15590555D02*
X21420182Y-15571508D01*
X21420182Y-15571508D02*
X21401135Y-15542936D01*
X21401135Y-15542936D02*
X21391611Y-15533412D01*
D12*
X14984467Y-15965967D02*
X14984467Y-15903033D01*
X14921533Y-15903033D01*
X14921533Y-15965967D01*
X14984467Y-15965967D01*
D11*
X15296372Y-15825984D02*
X15315420Y-15825984D01*
X15315420Y-15825984D02*
X15334467Y-15835508D01*
X15334467Y-15835508D02*
X15343991Y-15845031D01*
X15343991Y-15845031D02*
X15353515Y-15864079D01*
X15353515Y-15864079D02*
X15363039Y-15902174D01*
X15363039Y-15902174D02*
X15363039Y-15949793D01*
X15363039Y-15949793D02*
X15353515Y-15987888D01*
X15353515Y-15987888D02*
X15343991Y-16006936D01*
X15343991Y-16006936D02*
X15334467Y-16016460D01*
X15334467Y-16016460D02*
X15315420Y-16025984D01*
X15315420Y-16025984D02*
X15296372Y-16025984D01*
X15296372Y-16025984D02*
X15277324Y-16016460D01*
X15277324Y-16016460D02*
X15267801Y-16006936D01*
X15267801Y-16006936D02*
X15258277Y-15987888D01*
X15258277Y-15987888D02*
X15248753Y-15949793D01*
X15248753Y-15949793D02*
X15248753Y-15902174D01*
X15248753Y-15902174D02*
X15258277Y-15864079D01*
X15258277Y-15864079D02*
X15267801Y-15845031D01*
X15267801Y-15845031D02*
X15277324Y-15835508D01*
X15277324Y-15835508D02*
X15296372Y-15825984D01*
X15448753Y-16006936D02*
X15458277Y-16016460D01*
X15458277Y-16016460D02*
X15448753Y-16025984D01*
X15448753Y-16025984D02*
X15439229Y-16016460D01*
X15439229Y-16016460D02*
X15448753Y-16006936D01*
X15448753Y-16006936D02*
X15448753Y-16025984D01*
X15572562Y-15911698D02*
X15553515Y-15902174D01*
X15553515Y-15902174D02*
X15543991Y-15892650D01*
X15543991Y-15892650D02*
X15534467Y-15873603D01*
X15534467Y-15873603D02*
X15534467Y-15864079D01*
X15534467Y-15864079D02*
X15543991Y-15845031D01*
X15543991Y-15845031D02*
X15553515Y-15835508D01*
X15553515Y-15835508D02*
X15572562Y-15825984D01*
X15572562Y-15825984D02*
X15610658Y-15825984D01*
X15610658Y-15825984D02*
X15629705Y-15835508D01*
X15629705Y-15835508D02*
X15639229Y-15845031D01*
X15639229Y-15845031D02*
X15648753Y-15864079D01*
X15648753Y-15864079D02*
X15648753Y-15873603D01*
X15648753Y-15873603D02*
X15639229Y-15892650D01*
X15639229Y-15892650D02*
X15629705Y-15902174D01*
X15629705Y-15902174D02*
X15610658Y-15911698D01*
X15610658Y-15911698D02*
X15572562Y-15911698D01*
X15572562Y-15911698D02*
X15553515Y-15921222D01*
X15553515Y-15921222D02*
X15543991Y-15930746D01*
X15543991Y-15930746D02*
X15534467Y-15949793D01*
X15534467Y-15949793D02*
X15534467Y-15987888D01*
X15534467Y-15987888D02*
X15543991Y-16006936D01*
X15543991Y-16006936D02*
X15553515Y-16016460D01*
X15553515Y-16016460D02*
X15572562Y-16025984D01*
X15572562Y-16025984D02*
X15610658Y-16025984D01*
X15610658Y-16025984D02*
X15629705Y-16016460D01*
X15629705Y-16016460D02*
X15639229Y-16006936D01*
X15639229Y-16006936D02*
X15648753Y-15987888D01*
X15648753Y-15987888D02*
X15648753Y-15949793D01*
X15648753Y-15949793D02*
X15639229Y-15930746D01*
X15639229Y-15930746D02*
X15629705Y-15921222D01*
X15629705Y-15921222D02*
X15610658Y-15911698D01*
X15743991Y-16025984D02*
X15782086Y-16025984D01*
X15782086Y-16025984D02*
X15801134Y-16016460D01*
X15801134Y-16016460D02*
X15810658Y-16006936D01*
X15810658Y-16006936D02*
X15829705Y-15978365D01*
X15829705Y-15978365D02*
X15839229Y-15940269D01*
X15839229Y-15940269D02*
X15839229Y-15864079D01*
X15839229Y-15864079D02*
X15829705Y-15845031D01*
X15829705Y-15845031D02*
X15820182Y-15835508D01*
X15820182Y-15835508D02*
X15801134Y-15825984D01*
X15801134Y-15825984D02*
X15763039Y-15825984D01*
X15763039Y-15825984D02*
X15743991Y-15835508D01*
X15743991Y-15835508D02*
X15734467Y-15845031D01*
X15734467Y-15845031D02*
X15724943Y-15864079D01*
X15724943Y-15864079D02*
X15724943Y-15911698D01*
X15724943Y-15911698D02*
X15734467Y-15930746D01*
X15734467Y-15930746D02*
X15743991Y-15940269D01*
X15743991Y-15940269D02*
X15763039Y-15949793D01*
X15763039Y-15949793D02*
X15801134Y-15949793D01*
X15801134Y-15949793D02*
X15820182Y-15940269D01*
X15820182Y-15940269D02*
X15829705Y-15930746D01*
X15829705Y-15930746D02*
X15839229Y-15911698D01*
X15963039Y-15825984D02*
X15982086Y-15825984D01*
X15982086Y-15825984D02*
X16001134Y-15835508D01*
X16001134Y-15835508D02*
X16010658Y-15845031D01*
X16010658Y-15845031D02*
X16020182Y-15864079D01*
X16020182Y-15864079D02*
X16029705Y-15902174D01*
X16029705Y-15902174D02*
X16029705Y-15949793D01*
X16029705Y-15949793D02*
X16020182Y-15987888D01*
X16020182Y-15987888D02*
X16010658Y-16006936D01*
X16010658Y-16006936D02*
X16001134Y-16016460D01*
X16001134Y-16016460D02*
X15982086Y-16025984D01*
X15982086Y-16025984D02*
X15963039Y-16025984D01*
X15963039Y-16025984D02*
X15943991Y-16016460D01*
X15943991Y-16016460D02*
X15934467Y-16006936D01*
X15934467Y-16006936D02*
X15924943Y-15987888D01*
X15924943Y-15987888D02*
X15915420Y-15949793D01*
X15915420Y-15949793D02*
X15915420Y-15902174D01*
X15915420Y-15902174D02*
X15924943Y-15864079D01*
X15924943Y-15864079D02*
X15934467Y-15845031D01*
X15934467Y-15845031D02*
X15943991Y-15835508D01*
X15943991Y-15835508D02*
X15963039Y-15825984D01*
X16115420Y-16025984D02*
X16115420Y-15892650D01*
X16115420Y-15911698D02*
X16124943Y-15902174D01*
X16124943Y-15902174D02*
X16143991Y-15892650D01*
X16143991Y-15892650D02*
X16172563Y-15892650D01*
X16172563Y-15892650D02*
X16191610Y-15902174D01*
X16191610Y-15902174D02*
X16201134Y-15921222D01*
X16201134Y-15921222D02*
X16201134Y-16025984D01*
X16201134Y-15921222D02*
X16210658Y-15902174D01*
X16210658Y-15902174D02*
X16229705Y-15892650D01*
X16229705Y-15892650D02*
X16258277Y-15892650D01*
X16258277Y-15892650D02*
X16277324Y-15902174D01*
X16277324Y-15902174D02*
X16286848Y-15921222D01*
X16286848Y-15921222D02*
X16286848Y-16025984D01*
X16382086Y-16025984D02*
X16382086Y-15892650D01*
X16382086Y-15911698D02*
X16391610Y-15902174D01*
X16391610Y-15902174D02*
X16410658Y-15892650D01*
X16410658Y-15892650D02*
X16439229Y-15892650D01*
X16439229Y-15892650D02*
X16458277Y-15902174D01*
X16458277Y-15902174D02*
X16467801Y-15921222D01*
X16467801Y-15921222D02*
X16467801Y-16025984D01*
X16467801Y-15921222D02*
X16477324Y-15902174D01*
X16477324Y-15902174D02*
X16496372Y-15892650D01*
X16496372Y-15892650D02*
X16524943Y-15892650D01*
X16524943Y-15892650D02*
X16543991Y-15902174D01*
X16543991Y-15902174D02*
X16553515Y-15921222D01*
X16553515Y-15921222D02*
X16553515Y-16025984D01*
X16943991Y-15816460D02*
X16772563Y-16073603D01*
X17201134Y-15825984D02*
X17220182Y-15825984D01*
X17220182Y-15825984D02*
X17239229Y-15835508D01*
X17239229Y-15835508D02*
X17248753Y-15845031D01*
X17248753Y-15845031D02*
X17258277Y-15864079D01*
X17258277Y-15864079D02*
X17267801Y-15902174D01*
X17267801Y-15902174D02*
X17267801Y-15949793D01*
X17267801Y-15949793D02*
X17258277Y-15987888D01*
X17258277Y-15987888D02*
X17248753Y-16006936D01*
X17248753Y-16006936D02*
X17239229Y-16016460D01*
X17239229Y-16016460D02*
X17220182Y-16025984D01*
X17220182Y-16025984D02*
X17201134Y-16025984D01*
X17201134Y-16025984D02*
X17182087Y-16016460D01*
X17182087Y-16016460D02*
X17172563Y-16006936D01*
X17172563Y-16006936D02*
X17163039Y-15987888D01*
X17163039Y-15987888D02*
X17153515Y-15949793D01*
X17153515Y-15949793D02*
X17153515Y-15902174D01*
X17153515Y-15902174D02*
X17163039Y-15864079D01*
X17163039Y-15864079D02*
X17172563Y-15845031D01*
X17172563Y-15845031D02*
X17182087Y-15835508D01*
X17182087Y-15835508D02*
X17201134Y-15825984D01*
X17353515Y-16006936D02*
X17363039Y-16016460D01*
X17363039Y-16016460D02*
X17353515Y-16025984D01*
X17353515Y-16025984D02*
X17343991Y-16016460D01*
X17343991Y-16016460D02*
X17353515Y-16006936D01*
X17353515Y-16006936D02*
X17353515Y-16025984D01*
X17486848Y-15825984D02*
X17505896Y-15825984D01*
X17505896Y-15825984D02*
X17524944Y-15835508D01*
X17524944Y-15835508D02*
X17534468Y-15845031D01*
X17534468Y-15845031D02*
X17543991Y-15864079D01*
X17543991Y-15864079D02*
X17553515Y-15902174D01*
X17553515Y-15902174D02*
X17553515Y-15949793D01*
X17553515Y-15949793D02*
X17543991Y-15987888D01*
X17543991Y-15987888D02*
X17534468Y-16006936D01*
X17534468Y-16006936D02*
X17524944Y-16016460D01*
X17524944Y-16016460D02*
X17505896Y-16025984D01*
X17505896Y-16025984D02*
X17486848Y-16025984D01*
X17486848Y-16025984D02*
X17467801Y-16016460D01*
X17467801Y-16016460D02*
X17458277Y-16006936D01*
X17458277Y-16006936D02*
X17448753Y-15987888D01*
X17448753Y-15987888D02*
X17439229Y-15949793D01*
X17439229Y-15949793D02*
X17439229Y-15902174D01*
X17439229Y-15902174D02*
X17448753Y-15864079D01*
X17448753Y-15864079D02*
X17458277Y-15845031D01*
X17458277Y-15845031D02*
X17467801Y-15835508D01*
X17467801Y-15835508D02*
X17486848Y-15825984D01*
X17620182Y-15825984D02*
X17743991Y-15825984D01*
X17743991Y-15825984D02*
X17677325Y-15902174D01*
X17677325Y-15902174D02*
X17705896Y-15902174D01*
X17705896Y-15902174D02*
X17724944Y-15911698D01*
X17724944Y-15911698D02*
X17734468Y-15921222D01*
X17734468Y-15921222D02*
X17743991Y-15940269D01*
X17743991Y-15940269D02*
X17743991Y-15987888D01*
X17743991Y-15987888D02*
X17734468Y-16006936D01*
X17734468Y-16006936D02*
X17724944Y-16016460D01*
X17724944Y-16016460D02*
X17705896Y-16025984D01*
X17705896Y-16025984D02*
X17648753Y-16025984D01*
X17648753Y-16025984D02*
X17629706Y-16016460D01*
X17629706Y-16016460D02*
X17620182Y-16006936D01*
X17924944Y-15825984D02*
X17829706Y-15825984D01*
X17829706Y-15825984D02*
X17820182Y-15921222D01*
X17820182Y-15921222D02*
X17829706Y-15911698D01*
X17829706Y-15911698D02*
X17848753Y-15902174D01*
X17848753Y-15902174D02*
X17896372Y-15902174D01*
X17896372Y-15902174D02*
X17915420Y-15911698D01*
X17915420Y-15911698D02*
X17924944Y-15921222D01*
X17924944Y-15921222D02*
X17934468Y-15940269D01*
X17934468Y-15940269D02*
X17934468Y-15987888D01*
X17934468Y-15987888D02*
X17924944Y-16006936D01*
X17924944Y-16006936D02*
X17915420Y-16016460D01*
X17915420Y-16016460D02*
X17896372Y-16025984D01*
X17896372Y-16025984D02*
X17848753Y-16025984D01*
X17848753Y-16025984D02*
X17829706Y-16016460D01*
X17829706Y-16016460D02*
X17820182Y-16006936D01*
X18058277Y-15825984D02*
X18077325Y-15825984D01*
X18077325Y-15825984D02*
X18096372Y-15835508D01*
X18096372Y-15835508D02*
X18105896Y-15845031D01*
X18105896Y-15845031D02*
X18115420Y-15864079D01*
X18115420Y-15864079D02*
X18124944Y-15902174D01*
X18124944Y-15902174D02*
X18124944Y-15949793D01*
X18124944Y-15949793D02*
X18115420Y-15987888D01*
X18115420Y-15987888D02*
X18105896Y-16006936D01*
X18105896Y-16006936D02*
X18096372Y-16016460D01*
X18096372Y-16016460D02*
X18077325Y-16025984D01*
X18077325Y-16025984D02*
X18058277Y-16025984D01*
X18058277Y-16025984D02*
X18039229Y-16016460D01*
X18039229Y-16016460D02*
X18029706Y-16006936D01*
X18029706Y-16006936D02*
X18020182Y-15987888D01*
X18020182Y-15987888D02*
X18010658Y-15949793D01*
X18010658Y-15949793D02*
X18010658Y-15902174D01*
X18010658Y-15902174D02*
X18020182Y-15864079D01*
X18020182Y-15864079D02*
X18029706Y-15845031D01*
X18029706Y-15845031D02*
X18039229Y-15835508D01*
X18039229Y-15835508D02*
X18058277Y-15825984D01*
X18201134Y-15825984D02*
X18201134Y-15864079D01*
X18277325Y-15825984D02*
X18277325Y-15864079D01*
X18572563Y-16102174D02*
X18563039Y-16092650D01*
X18563039Y-16092650D02*
X18543991Y-16064079D01*
X18543991Y-16064079D02*
X18534468Y-16045031D01*
X18534468Y-16045031D02*
X18524944Y-16016460D01*
X18524944Y-16016460D02*
X18515420Y-15968841D01*
X18515420Y-15968841D02*
X18515420Y-15930746D01*
X18515420Y-15930746D02*
X18524944Y-15883127D01*
X18524944Y-15883127D02*
X18534468Y-15854555D01*
X18534468Y-15854555D02*
X18543991Y-15835508D01*
X18543991Y-15835508D02*
X18563039Y-15806936D01*
X18563039Y-15806936D02*
X18572563Y-15797412D01*
X18677325Y-15911698D02*
X18658277Y-15902174D01*
X18658277Y-15902174D02*
X18648753Y-15892650D01*
X18648753Y-15892650D02*
X18639230Y-15873603D01*
X18639230Y-15873603D02*
X18639230Y-15864079D01*
X18639230Y-15864079D02*
X18648753Y-15845031D01*
X18648753Y-15845031D02*
X18658277Y-15835508D01*
X18658277Y-15835508D02*
X18677325Y-15825984D01*
X18677325Y-15825984D02*
X18715420Y-15825984D01*
X18715420Y-15825984D02*
X18734468Y-15835508D01*
X18734468Y-15835508D02*
X18743991Y-15845031D01*
X18743991Y-15845031D02*
X18753515Y-15864079D01*
X18753515Y-15864079D02*
X18753515Y-15873603D01*
X18753515Y-15873603D02*
X18743991Y-15892650D01*
X18743991Y-15892650D02*
X18734468Y-15902174D01*
X18734468Y-15902174D02*
X18715420Y-15911698D01*
X18715420Y-15911698D02*
X18677325Y-15911698D01*
X18677325Y-15911698D02*
X18658277Y-15921222D01*
X18658277Y-15921222D02*
X18648753Y-15930746D01*
X18648753Y-15930746D02*
X18639230Y-15949793D01*
X18639230Y-15949793D02*
X18639230Y-15987888D01*
X18639230Y-15987888D02*
X18648753Y-16006936D01*
X18648753Y-16006936D02*
X18658277Y-16016460D01*
X18658277Y-16016460D02*
X18677325Y-16025984D01*
X18677325Y-16025984D02*
X18715420Y-16025984D01*
X18715420Y-16025984D02*
X18734468Y-16016460D01*
X18734468Y-16016460D02*
X18743991Y-16006936D01*
X18743991Y-16006936D02*
X18753515Y-15987888D01*
X18753515Y-15987888D02*
X18753515Y-15949793D01*
X18753515Y-15949793D02*
X18743991Y-15930746D01*
X18743991Y-15930746D02*
X18734468Y-15921222D01*
X18734468Y-15921222D02*
X18715420Y-15911698D01*
X18991611Y-16025984D02*
X18991611Y-15825984D01*
X19077325Y-16025984D02*
X19077325Y-15921222D01*
X19077325Y-15921222D02*
X19067801Y-15902174D01*
X19067801Y-15902174D02*
X19048753Y-15892650D01*
X19048753Y-15892650D02*
X19020182Y-15892650D01*
X19020182Y-15892650D02*
X19001134Y-15902174D01*
X19001134Y-15902174D02*
X18991611Y-15911698D01*
X19201134Y-16025984D02*
X19182087Y-16016460D01*
X19182087Y-16016460D02*
X19172563Y-16006936D01*
X19172563Y-16006936D02*
X19163039Y-15987888D01*
X19163039Y-15987888D02*
X19163039Y-15930746D01*
X19163039Y-15930746D02*
X19172563Y-15911698D01*
X19172563Y-15911698D02*
X19182087Y-15902174D01*
X19182087Y-15902174D02*
X19201134Y-15892650D01*
X19201134Y-15892650D02*
X19229706Y-15892650D01*
X19229706Y-15892650D02*
X19248753Y-15902174D01*
X19248753Y-15902174D02*
X19258277Y-15911698D01*
X19258277Y-15911698D02*
X19267801Y-15930746D01*
X19267801Y-15930746D02*
X19267801Y-15987888D01*
X19267801Y-15987888D02*
X19258277Y-16006936D01*
X19258277Y-16006936D02*
X19248753Y-16016460D01*
X19248753Y-16016460D02*
X19229706Y-16025984D01*
X19229706Y-16025984D02*
X19201134Y-16025984D01*
X19382087Y-16025984D02*
X19363039Y-16016460D01*
X19363039Y-16016460D02*
X19353515Y-15997412D01*
X19353515Y-15997412D02*
X19353515Y-15825984D01*
X19534468Y-16016460D02*
X19515420Y-16025984D01*
X19515420Y-16025984D02*
X19477325Y-16025984D01*
X19477325Y-16025984D02*
X19458277Y-16016460D01*
X19458277Y-16016460D02*
X19448753Y-15997412D01*
X19448753Y-15997412D02*
X19448753Y-15921222D01*
X19448753Y-15921222D02*
X19458277Y-15902174D01*
X19458277Y-15902174D02*
X19477325Y-15892650D01*
X19477325Y-15892650D02*
X19515420Y-15892650D01*
X19515420Y-15892650D02*
X19534468Y-15902174D01*
X19534468Y-15902174D02*
X19543992Y-15921222D01*
X19543992Y-15921222D02*
X19543992Y-15940269D01*
X19543992Y-15940269D02*
X19448753Y-15959317D01*
X19620182Y-16016460D02*
X19639230Y-16025984D01*
X19639230Y-16025984D02*
X19677325Y-16025984D01*
X19677325Y-16025984D02*
X19696373Y-16016460D01*
X19696373Y-16016460D02*
X19705896Y-15997412D01*
X19705896Y-15997412D02*
X19705896Y-15987888D01*
X19705896Y-15987888D02*
X19696373Y-15968841D01*
X19696373Y-15968841D02*
X19677325Y-15959317D01*
X19677325Y-15959317D02*
X19648753Y-15959317D01*
X19648753Y-15959317D02*
X19629706Y-15949793D01*
X19629706Y-15949793D02*
X19620182Y-15930746D01*
X19620182Y-15930746D02*
X19620182Y-15921222D01*
X19620182Y-15921222D02*
X19629706Y-15902174D01*
X19629706Y-15902174D02*
X19648753Y-15892650D01*
X19648753Y-15892650D02*
X19677325Y-15892650D01*
X19677325Y-15892650D02*
X19696373Y-15902174D01*
X19772563Y-16102174D02*
X19782087Y-16092650D01*
X19782087Y-16092650D02*
X19801134Y-16064079D01*
X19801134Y-16064079D02*
X19810658Y-16045031D01*
X19810658Y-16045031D02*
X19820182Y-16016460D01*
X19820182Y-16016460D02*
X19829706Y-15968841D01*
X19829706Y-15968841D02*
X19829706Y-15930746D01*
X19829706Y-15930746D02*
X19820182Y-15883127D01*
X19820182Y-15883127D02*
X19810658Y-15854555D01*
X19810658Y-15854555D02*
X19801134Y-15835508D01*
X19801134Y-15835508D02*
X19782087Y-15806936D01*
X19782087Y-15806936D02*
X19772563Y-15797412D01*
D12*
X14947500Y-16248500D02*
X14997500Y-16198500D01*
X14947500Y-16148500D01*
X14897500Y-16198500D01*
X14947500Y-16248500D01*
D11*
X15363039Y-16289984D02*
X15248753Y-16289984D01*
X15305896Y-16289984D02*
X15305896Y-16089984D01*
X15305896Y-16089984D02*
X15286848Y-16118555D01*
X15286848Y-16118555D02*
X15267801Y-16137603D01*
X15267801Y-16137603D02*
X15248753Y-16147127D01*
X15448753Y-16270936D02*
X15458277Y-16280460D01*
X15458277Y-16280460D02*
X15448753Y-16289984D01*
X15448753Y-16289984D02*
X15439229Y-16280460D01*
X15439229Y-16280460D02*
X15448753Y-16270936D01*
X15448753Y-16270936D02*
X15448753Y-16289984D01*
X15582086Y-16089984D02*
X15601134Y-16089984D01*
X15601134Y-16089984D02*
X15620182Y-16099508D01*
X15620182Y-16099508D02*
X15629705Y-16109031D01*
X15629705Y-16109031D02*
X15639229Y-16128079D01*
X15639229Y-16128079D02*
X15648753Y-16166174D01*
X15648753Y-16166174D02*
X15648753Y-16213793D01*
X15648753Y-16213793D02*
X15639229Y-16251888D01*
X15639229Y-16251888D02*
X15629705Y-16270936D01*
X15629705Y-16270936D02*
X15620182Y-16280460D01*
X15620182Y-16280460D02*
X15601134Y-16289984D01*
X15601134Y-16289984D02*
X15582086Y-16289984D01*
X15582086Y-16289984D02*
X15563039Y-16280460D01*
X15563039Y-16280460D02*
X15553515Y-16270936D01*
X15553515Y-16270936D02*
X15543991Y-16251888D01*
X15543991Y-16251888D02*
X15534467Y-16213793D01*
X15534467Y-16213793D02*
X15534467Y-16166174D01*
X15534467Y-16166174D02*
X15543991Y-16128079D01*
X15543991Y-16128079D02*
X15553515Y-16109031D01*
X15553515Y-16109031D02*
X15563039Y-16099508D01*
X15563039Y-16099508D02*
X15582086Y-16089984D01*
X15772562Y-16089984D02*
X15791610Y-16089984D01*
X15791610Y-16089984D02*
X15810658Y-16099508D01*
X15810658Y-16099508D02*
X15820182Y-16109031D01*
X15820182Y-16109031D02*
X15829705Y-16128079D01*
X15829705Y-16128079D02*
X15839229Y-16166174D01*
X15839229Y-16166174D02*
X15839229Y-16213793D01*
X15839229Y-16213793D02*
X15829705Y-16251888D01*
X15829705Y-16251888D02*
X15820182Y-16270936D01*
X15820182Y-16270936D02*
X15810658Y-16280460D01*
X15810658Y-16280460D02*
X15791610Y-16289984D01*
X15791610Y-16289984D02*
X15772562Y-16289984D01*
X15772562Y-16289984D02*
X15753515Y-16280460D01*
X15753515Y-16280460D02*
X15743991Y-16270936D01*
X15743991Y-16270936D02*
X15734467Y-16251888D01*
X15734467Y-16251888D02*
X15724943Y-16213793D01*
X15724943Y-16213793D02*
X15724943Y-16166174D01*
X15724943Y-16166174D02*
X15734467Y-16128079D01*
X15734467Y-16128079D02*
X15743991Y-16109031D01*
X15743991Y-16109031D02*
X15753515Y-16099508D01*
X15753515Y-16099508D02*
X15772562Y-16089984D01*
X15963039Y-16089984D02*
X15982086Y-16089984D01*
X15982086Y-16089984D02*
X16001134Y-16099508D01*
X16001134Y-16099508D02*
X16010658Y-16109031D01*
X16010658Y-16109031D02*
X16020182Y-16128079D01*
X16020182Y-16128079D02*
X16029705Y-16166174D01*
X16029705Y-16166174D02*
X16029705Y-16213793D01*
X16029705Y-16213793D02*
X16020182Y-16251888D01*
X16020182Y-16251888D02*
X16010658Y-16270936D01*
X16010658Y-16270936D02*
X16001134Y-16280460D01*
X16001134Y-16280460D02*
X15982086Y-16289984D01*
X15982086Y-16289984D02*
X15963039Y-16289984D01*
X15963039Y-16289984D02*
X15943991Y-16280460D01*
X15943991Y-16280460D02*
X15934467Y-16270936D01*
X15934467Y-16270936D02*
X15924943Y-16251888D01*
X15924943Y-16251888D02*
X15915420Y-16213793D01*
X15915420Y-16213793D02*
X15915420Y-16166174D01*
X15915420Y-16166174D02*
X15924943Y-16128079D01*
X15924943Y-16128079D02*
X15934467Y-16109031D01*
X15934467Y-16109031D02*
X15943991Y-16099508D01*
X15943991Y-16099508D02*
X15963039Y-16089984D01*
X16115420Y-16289984D02*
X16115420Y-16156650D01*
X16115420Y-16175698D02*
X16124943Y-16166174D01*
X16124943Y-16166174D02*
X16143991Y-16156650D01*
X16143991Y-16156650D02*
X16172563Y-16156650D01*
X16172563Y-16156650D02*
X16191610Y-16166174D01*
X16191610Y-16166174D02*
X16201134Y-16185222D01*
X16201134Y-16185222D02*
X16201134Y-16289984D01*
X16201134Y-16185222D02*
X16210658Y-16166174D01*
X16210658Y-16166174D02*
X16229705Y-16156650D01*
X16229705Y-16156650D02*
X16258277Y-16156650D01*
X16258277Y-16156650D02*
X16277324Y-16166174D01*
X16277324Y-16166174D02*
X16286848Y-16185222D01*
X16286848Y-16185222D02*
X16286848Y-16289984D01*
X16382086Y-16289984D02*
X16382086Y-16156650D01*
X16382086Y-16175698D02*
X16391610Y-16166174D01*
X16391610Y-16166174D02*
X16410658Y-16156650D01*
X16410658Y-16156650D02*
X16439229Y-16156650D01*
X16439229Y-16156650D02*
X16458277Y-16166174D01*
X16458277Y-16166174D02*
X16467801Y-16185222D01*
X16467801Y-16185222D02*
X16467801Y-16289984D01*
X16467801Y-16185222D02*
X16477324Y-16166174D01*
X16477324Y-16166174D02*
X16496372Y-16156650D01*
X16496372Y-16156650D02*
X16524943Y-16156650D01*
X16524943Y-16156650D02*
X16543991Y-16166174D01*
X16543991Y-16166174D02*
X16553515Y-16185222D01*
X16553515Y-16185222D02*
X16553515Y-16289984D01*
X16943991Y-16080460D02*
X16772563Y-16337603D01*
X17201134Y-16089984D02*
X17220182Y-16089984D01*
X17220182Y-16089984D02*
X17239229Y-16099508D01*
X17239229Y-16099508D02*
X17248753Y-16109031D01*
X17248753Y-16109031D02*
X17258277Y-16128079D01*
X17258277Y-16128079D02*
X17267801Y-16166174D01*
X17267801Y-16166174D02*
X17267801Y-16213793D01*
X17267801Y-16213793D02*
X17258277Y-16251888D01*
X17258277Y-16251888D02*
X17248753Y-16270936D01*
X17248753Y-16270936D02*
X17239229Y-16280460D01*
X17239229Y-16280460D02*
X17220182Y-16289984D01*
X17220182Y-16289984D02*
X17201134Y-16289984D01*
X17201134Y-16289984D02*
X17182087Y-16280460D01*
X17182087Y-16280460D02*
X17172563Y-16270936D01*
X17172563Y-16270936D02*
X17163039Y-16251888D01*
X17163039Y-16251888D02*
X17153515Y-16213793D01*
X17153515Y-16213793D02*
X17153515Y-16166174D01*
X17153515Y-16166174D02*
X17163039Y-16128079D01*
X17163039Y-16128079D02*
X17172563Y-16109031D01*
X17172563Y-16109031D02*
X17182087Y-16099508D01*
X17182087Y-16099508D02*
X17201134Y-16089984D01*
X17353515Y-16270936D02*
X17363039Y-16280460D01*
X17363039Y-16280460D02*
X17353515Y-16289984D01*
X17353515Y-16289984D02*
X17343991Y-16280460D01*
X17343991Y-16280460D02*
X17353515Y-16270936D01*
X17353515Y-16270936D02*
X17353515Y-16289984D01*
X17486848Y-16089984D02*
X17505896Y-16089984D01*
X17505896Y-16089984D02*
X17524944Y-16099508D01*
X17524944Y-16099508D02*
X17534468Y-16109031D01*
X17534468Y-16109031D02*
X17543991Y-16128079D01*
X17543991Y-16128079D02*
X17553515Y-16166174D01*
X17553515Y-16166174D02*
X17553515Y-16213793D01*
X17553515Y-16213793D02*
X17543991Y-16251888D01*
X17543991Y-16251888D02*
X17534468Y-16270936D01*
X17534468Y-16270936D02*
X17524944Y-16280460D01*
X17524944Y-16280460D02*
X17505896Y-16289984D01*
X17505896Y-16289984D02*
X17486848Y-16289984D01*
X17486848Y-16289984D02*
X17467801Y-16280460D01*
X17467801Y-16280460D02*
X17458277Y-16270936D01*
X17458277Y-16270936D02*
X17448753Y-16251888D01*
X17448753Y-16251888D02*
X17439229Y-16213793D01*
X17439229Y-16213793D02*
X17439229Y-16166174D01*
X17439229Y-16166174D02*
X17448753Y-16128079D01*
X17448753Y-16128079D02*
X17458277Y-16109031D01*
X17458277Y-16109031D02*
X17467801Y-16099508D01*
X17467801Y-16099508D02*
X17486848Y-16089984D01*
X17620182Y-16089984D02*
X17743991Y-16089984D01*
X17743991Y-16089984D02*
X17677325Y-16166174D01*
X17677325Y-16166174D02*
X17705896Y-16166174D01*
X17705896Y-16166174D02*
X17724944Y-16175698D01*
X17724944Y-16175698D02*
X17734468Y-16185222D01*
X17734468Y-16185222D02*
X17743991Y-16204269D01*
X17743991Y-16204269D02*
X17743991Y-16251888D01*
X17743991Y-16251888D02*
X17734468Y-16270936D01*
X17734468Y-16270936D02*
X17724944Y-16280460D01*
X17724944Y-16280460D02*
X17705896Y-16289984D01*
X17705896Y-16289984D02*
X17648753Y-16289984D01*
X17648753Y-16289984D02*
X17629706Y-16280460D01*
X17629706Y-16280460D02*
X17620182Y-16270936D01*
X17839229Y-16289984D02*
X17877325Y-16289984D01*
X17877325Y-16289984D02*
X17896372Y-16280460D01*
X17896372Y-16280460D02*
X17905896Y-16270936D01*
X17905896Y-16270936D02*
X17924944Y-16242365D01*
X17924944Y-16242365D02*
X17934468Y-16204269D01*
X17934468Y-16204269D02*
X17934468Y-16128079D01*
X17934468Y-16128079D02*
X17924944Y-16109031D01*
X17924944Y-16109031D02*
X17915420Y-16099508D01*
X17915420Y-16099508D02*
X17896372Y-16089984D01*
X17896372Y-16089984D02*
X17858277Y-16089984D01*
X17858277Y-16089984D02*
X17839229Y-16099508D01*
X17839229Y-16099508D02*
X17829706Y-16109031D01*
X17829706Y-16109031D02*
X17820182Y-16128079D01*
X17820182Y-16128079D02*
X17820182Y-16175698D01*
X17820182Y-16175698D02*
X17829706Y-16194746D01*
X17829706Y-16194746D02*
X17839229Y-16204269D01*
X17839229Y-16204269D02*
X17858277Y-16213793D01*
X17858277Y-16213793D02*
X17896372Y-16213793D01*
X17896372Y-16213793D02*
X17915420Y-16204269D01*
X17915420Y-16204269D02*
X17924944Y-16194746D01*
X17924944Y-16194746D02*
X17934468Y-16175698D01*
X18105896Y-16156650D02*
X18105896Y-16289984D01*
X18058277Y-16080460D02*
X18010658Y-16223317D01*
X18010658Y-16223317D02*
X18134468Y-16223317D01*
X18201134Y-16089984D02*
X18201134Y-16128079D01*
X18277325Y-16089984D02*
X18277325Y-16128079D01*
X18572563Y-16366174D02*
X18563039Y-16356650D01*
X18563039Y-16356650D02*
X18543991Y-16328079D01*
X18543991Y-16328079D02*
X18534468Y-16309031D01*
X18534468Y-16309031D02*
X18524944Y-16280460D01*
X18524944Y-16280460D02*
X18515420Y-16232841D01*
X18515420Y-16232841D02*
X18515420Y-16194746D01*
X18515420Y-16194746D02*
X18524944Y-16147127D01*
X18524944Y-16147127D02*
X18534468Y-16118555D01*
X18534468Y-16118555D02*
X18543991Y-16099508D01*
X18543991Y-16099508D02*
X18563039Y-16070936D01*
X18563039Y-16070936D02*
X18572563Y-16061412D01*
X18734468Y-16156650D02*
X18734468Y-16289984D01*
X18686849Y-16080460D02*
X18639230Y-16223317D01*
X18639230Y-16223317D02*
X18763039Y-16223317D01*
X18829706Y-16109031D02*
X18839230Y-16099508D01*
X18839230Y-16099508D02*
X18858277Y-16089984D01*
X18858277Y-16089984D02*
X18905896Y-16089984D01*
X18905896Y-16089984D02*
X18924944Y-16099508D01*
X18924944Y-16099508D02*
X18934468Y-16109031D01*
X18934468Y-16109031D02*
X18943991Y-16128079D01*
X18943991Y-16128079D02*
X18943991Y-16147127D01*
X18943991Y-16147127D02*
X18934468Y-16175698D01*
X18934468Y-16175698D02*
X18820182Y-16289984D01*
X18820182Y-16289984D02*
X18943991Y-16289984D01*
X19182087Y-16289984D02*
X19182087Y-16089984D01*
X19267801Y-16289984D02*
X19267801Y-16185222D01*
X19267801Y-16185222D02*
X19258277Y-16166174D01*
X19258277Y-16166174D02*
X19239230Y-16156650D01*
X19239230Y-16156650D02*
X19210658Y-16156650D01*
X19210658Y-16156650D02*
X19191611Y-16166174D01*
X19191611Y-16166174D02*
X19182087Y-16175698D01*
X19391611Y-16289984D02*
X19372563Y-16280460D01*
X19372563Y-16280460D02*
X19363039Y-16270936D01*
X19363039Y-16270936D02*
X19353515Y-16251888D01*
X19353515Y-16251888D02*
X19353515Y-16194746D01*
X19353515Y-16194746D02*
X19363039Y-16175698D01*
X19363039Y-16175698D02*
X19372563Y-16166174D01*
X19372563Y-16166174D02*
X19391611Y-16156650D01*
X19391611Y-16156650D02*
X19420182Y-16156650D01*
X19420182Y-16156650D02*
X19439230Y-16166174D01*
X19439230Y-16166174D02*
X19448753Y-16175698D01*
X19448753Y-16175698D02*
X19458277Y-16194746D01*
X19458277Y-16194746D02*
X19458277Y-16251888D01*
X19458277Y-16251888D02*
X19448753Y-16270936D01*
X19448753Y-16270936D02*
X19439230Y-16280460D01*
X19439230Y-16280460D02*
X19420182Y-16289984D01*
X19420182Y-16289984D02*
X19391611Y-16289984D01*
X19572563Y-16289984D02*
X19553515Y-16280460D01*
X19553515Y-16280460D02*
X19543992Y-16261412D01*
X19543992Y-16261412D02*
X19543992Y-16089984D01*
X19724944Y-16280460D02*
X19705896Y-16289984D01*
X19705896Y-16289984D02*
X19667801Y-16289984D01*
X19667801Y-16289984D02*
X19648753Y-16280460D01*
X19648753Y-16280460D02*
X19639230Y-16261412D01*
X19639230Y-16261412D02*
X19639230Y-16185222D01*
X19639230Y-16185222D02*
X19648753Y-16166174D01*
X19648753Y-16166174D02*
X19667801Y-16156650D01*
X19667801Y-16156650D02*
X19705896Y-16156650D01*
X19705896Y-16156650D02*
X19724944Y-16166174D01*
X19724944Y-16166174D02*
X19734468Y-16185222D01*
X19734468Y-16185222D02*
X19734468Y-16204269D01*
X19734468Y-16204269D02*
X19639230Y-16223317D01*
X19810658Y-16280460D02*
X19829706Y-16289984D01*
X19829706Y-16289984D02*
X19867801Y-16289984D01*
X19867801Y-16289984D02*
X19886849Y-16280460D01*
X19886849Y-16280460D02*
X19896373Y-16261412D01*
X19896373Y-16261412D02*
X19896373Y-16251888D01*
X19896373Y-16251888D02*
X19886849Y-16232841D01*
X19886849Y-16232841D02*
X19867801Y-16223317D01*
X19867801Y-16223317D02*
X19839230Y-16223317D01*
X19839230Y-16223317D02*
X19820182Y-16213793D01*
X19820182Y-16213793D02*
X19810658Y-16194746D01*
X19810658Y-16194746D02*
X19810658Y-16185222D01*
X19810658Y-16185222D02*
X19820182Y-16166174D01*
X19820182Y-16166174D02*
X19839230Y-16156650D01*
X19839230Y-16156650D02*
X19867801Y-16156650D01*
X19867801Y-16156650D02*
X19886849Y-16166174D01*
X19963039Y-16366174D02*
X19972563Y-16356650D01*
X19972563Y-16356650D02*
X19991611Y-16328079D01*
X19991611Y-16328079D02*
X20001134Y-16309031D01*
X20001134Y-16309031D02*
X20010658Y-16280460D01*
X20010658Y-16280460D02*
X20020182Y-16232841D01*
X20020182Y-16232841D02*
X20020182Y-16194746D01*
X20020182Y-16194746D02*
X20010658Y-16147127D01*
X20010658Y-16147127D02*
X20001134Y-16118555D01*
X20001134Y-16118555D02*
X19991611Y-16099508D01*
X19991611Y-16099508D02*
X19972563Y-16070936D01*
X19972563Y-16070936D02*
X19963039Y-16061412D01*
D13*
X14895500Y-16411500D02*
X14997500Y-16513500D01*
X14997500Y-16411500D02*
X14895500Y-16513500D01*
X14997500Y-16462500D02*
G75*
G02*
X14895500Y-16462500I-51000J0D01*
G01*
X14895500Y-16462500D02*
G75*
G02*
X14997500Y-16462500I51000J0D01*
G01*
D11*
X15363039Y-16553984D02*
X15248753Y-16553984D01*
X15305896Y-16553984D02*
X15305896Y-16353984D01*
X15305896Y-16353984D02*
X15286848Y-16382555D01*
X15286848Y-16382555D02*
X15267801Y-16401603D01*
X15267801Y-16401603D02*
X15248753Y-16411127D01*
X15448753Y-16534936D02*
X15458277Y-16544460D01*
X15458277Y-16544460D02*
X15448753Y-16553984D01*
X15448753Y-16553984D02*
X15439229Y-16544460D01*
X15439229Y-16544460D02*
X15448753Y-16534936D01*
X15448753Y-16534936D02*
X15448753Y-16553984D01*
X15582086Y-16353984D02*
X15601134Y-16353984D01*
X15601134Y-16353984D02*
X15620182Y-16363508D01*
X15620182Y-16363508D02*
X15629705Y-16373031D01*
X15629705Y-16373031D02*
X15639229Y-16392079D01*
X15639229Y-16392079D02*
X15648753Y-16430174D01*
X15648753Y-16430174D02*
X15648753Y-16477793D01*
X15648753Y-16477793D02*
X15639229Y-16515888D01*
X15639229Y-16515888D02*
X15629705Y-16534936D01*
X15629705Y-16534936D02*
X15620182Y-16544460D01*
X15620182Y-16544460D02*
X15601134Y-16553984D01*
X15601134Y-16553984D02*
X15582086Y-16553984D01*
X15582086Y-16553984D02*
X15563039Y-16544460D01*
X15563039Y-16544460D02*
X15553515Y-16534936D01*
X15553515Y-16534936D02*
X15543991Y-16515888D01*
X15543991Y-16515888D02*
X15534467Y-16477793D01*
X15534467Y-16477793D02*
X15534467Y-16430174D01*
X15534467Y-16430174D02*
X15543991Y-16392079D01*
X15543991Y-16392079D02*
X15553515Y-16373031D01*
X15553515Y-16373031D02*
X15563039Y-16363508D01*
X15563039Y-16363508D02*
X15582086Y-16353984D01*
X15724943Y-16373031D02*
X15734467Y-16363508D01*
X15734467Y-16363508D02*
X15753515Y-16353984D01*
X15753515Y-16353984D02*
X15801134Y-16353984D01*
X15801134Y-16353984D02*
X15820182Y-16363508D01*
X15820182Y-16363508D02*
X15829705Y-16373031D01*
X15829705Y-16373031D02*
X15839229Y-16392079D01*
X15839229Y-16392079D02*
X15839229Y-16411127D01*
X15839229Y-16411127D02*
X15829705Y-16439698D01*
X15829705Y-16439698D02*
X15715420Y-16553984D01*
X15715420Y-16553984D02*
X15839229Y-16553984D01*
X15963039Y-16353984D02*
X15982086Y-16353984D01*
X15982086Y-16353984D02*
X16001134Y-16363508D01*
X16001134Y-16363508D02*
X16010658Y-16373031D01*
X16010658Y-16373031D02*
X16020182Y-16392079D01*
X16020182Y-16392079D02*
X16029705Y-16430174D01*
X16029705Y-16430174D02*
X16029705Y-16477793D01*
X16029705Y-16477793D02*
X16020182Y-16515888D01*
X16020182Y-16515888D02*
X16010658Y-16534936D01*
X16010658Y-16534936D02*
X16001134Y-16544460D01*
X16001134Y-16544460D02*
X15982086Y-16553984D01*
X15982086Y-16553984D02*
X15963039Y-16553984D01*
X15963039Y-16553984D02*
X15943991Y-16544460D01*
X15943991Y-16544460D02*
X15934467Y-16534936D01*
X15934467Y-16534936D02*
X15924943Y-16515888D01*
X15924943Y-16515888D02*
X15915420Y-16477793D01*
X15915420Y-16477793D02*
X15915420Y-16430174D01*
X15915420Y-16430174D02*
X15924943Y-16392079D01*
X15924943Y-16392079D02*
X15934467Y-16373031D01*
X15934467Y-16373031D02*
X15943991Y-16363508D01*
X15943991Y-16363508D02*
X15963039Y-16353984D01*
X16115420Y-16553984D02*
X16115420Y-16420650D01*
X16115420Y-16439698D02*
X16124943Y-16430174D01*
X16124943Y-16430174D02*
X16143991Y-16420650D01*
X16143991Y-16420650D02*
X16172563Y-16420650D01*
X16172563Y-16420650D02*
X16191610Y-16430174D01*
X16191610Y-16430174D02*
X16201134Y-16449222D01*
X16201134Y-16449222D02*
X16201134Y-16553984D01*
X16201134Y-16449222D02*
X16210658Y-16430174D01*
X16210658Y-16430174D02*
X16229705Y-16420650D01*
X16229705Y-16420650D02*
X16258277Y-16420650D01*
X16258277Y-16420650D02*
X16277324Y-16430174D01*
X16277324Y-16430174D02*
X16286848Y-16449222D01*
X16286848Y-16449222D02*
X16286848Y-16553984D01*
X16382086Y-16553984D02*
X16382086Y-16420650D01*
X16382086Y-16439698D02*
X16391610Y-16430174D01*
X16391610Y-16430174D02*
X16410658Y-16420650D01*
X16410658Y-16420650D02*
X16439229Y-16420650D01*
X16439229Y-16420650D02*
X16458277Y-16430174D01*
X16458277Y-16430174D02*
X16467801Y-16449222D01*
X16467801Y-16449222D02*
X16467801Y-16553984D01*
X16467801Y-16449222D02*
X16477324Y-16430174D01*
X16477324Y-16430174D02*
X16496372Y-16420650D01*
X16496372Y-16420650D02*
X16524943Y-16420650D01*
X16524943Y-16420650D02*
X16543991Y-16430174D01*
X16543991Y-16430174D02*
X16553515Y-16449222D01*
X16553515Y-16449222D02*
X16553515Y-16553984D01*
X16943991Y-16344460D02*
X16772563Y-16601603D01*
X17201134Y-16353984D02*
X17220182Y-16353984D01*
X17220182Y-16353984D02*
X17239229Y-16363508D01*
X17239229Y-16363508D02*
X17248753Y-16373031D01*
X17248753Y-16373031D02*
X17258277Y-16392079D01*
X17258277Y-16392079D02*
X17267801Y-16430174D01*
X17267801Y-16430174D02*
X17267801Y-16477793D01*
X17267801Y-16477793D02*
X17258277Y-16515888D01*
X17258277Y-16515888D02*
X17248753Y-16534936D01*
X17248753Y-16534936D02*
X17239229Y-16544460D01*
X17239229Y-16544460D02*
X17220182Y-16553984D01*
X17220182Y-16553984D02*
X17201134Y-16553984D01*
X17201134Y-16553984D02*
X17182087Y-16544460D01*
X17182087Y-16544460D02*
X17172563Y-16534936D01*
X17172563Y-16534936D02*
X17163039Y-16515888D01*
X17163039Y-16515888D02*
X17153515Y-16477793D01*
X17153515Y-16477793D02*
X17153515Y-16430174D01*
X17153515Y-16430174D02*
X17163039Y-16392079D01*
X17163039Y-16392079D02*
X17172563Y-16373031D01*
X17172563Y-16373031D02*
X17182087Y-16363508D01*
X17182087Y-16363508D02*
X17201134Y-16353984D01*
X17353515Y-16534936D02*
X17363039Y-16544460D01*
X17363039Y-16544460D02*
X17353515Y-16553984D01*
X17353515Y-16553984D02*
X17343991Y-16544460D01*
X17343991Y-16544460D02*
X17353515Y-16534936D01*
X17353515Y-16534936D02*
X17353515Y-16553984D01*
X17486848Y-16353984D02*
X17505896Y-16353984D01*
X17505896Y-16353984D02*
X17524944Y-16363508D01*
X17524944Y-16363508D02*
X17534468Y-16373031D01*
X17534468Y-16373031D02*
X17543991Y-16392079D01*
X17543991Y-16392079D02*
X17553515Y-16430174D01*
X17553515Y-16430174D02*
X17553515Y-16477793D01*
X17553515Y-16477793D02*
X17543991Y-16515888D01*
X17543991Y-16515888D02*
X17534468Y-16534936D01*
X17534468Y-16534936D02*
X17524944Y-16544460D01*
X17524944Y-16544460D02*
X17505896Y-16553984D01*
X17505896Y-16553984D02*
X17486848Y-16553984D01*
X17486848Y-16553984D02*
X17467801Y-16544460D01*
X17467801Y-16544460D02*
X17458277Y-16534936D01*
X17458277Y-16534936D02*
X17448753Y-16515888D01*
X17448753Y-16515888D02*
X17439229Y-16477793D01*
X17439229Y-16477793D02*
X17439229Y-16430174D01*
X17439229Y-16430174D02*
X17448753Y-16392079D01*
X17448753Y-16392079D02*
X17458277Y-16373031D01*
X17458277Y-16373031D02*
X17467801Y-16363508D01*
X17467801Y-16363508D02*
X17486848Y-16353984D01*
X17724944Y-16420650D02*
X17724944Y-16553984D01*
X17677325Y-16344460D02*
X17629706Y-16487317D01*
X17629706Y-16487317D02*
X17753515Y-16487317D01*
X17867801Y-16353984D02*
X17886849Y-16353984D01*
X17886849Y-16353984D02*
X17905896Y-16363508D01*
X17905896Y-16363508D02*
X17915420Y-16373031D01*
X17915420Y-16373031D02*
X17924944Y-16392079D01*
X17924944Y-16392079D02*
X17934468Y-16430174D01*
X17934468Y-16430174D02*
X17934468Y-16477793D01*
X17934468Y-16477793D02*
X17924944Y-16515888D01*
X17924944Y-16515888D02*
X17915420Y-16534936D01*
X17915420Y-16534936D02*
X17905896Y-16544460D01*
X17905896Y-16544460D02*
X17886849Y-16553984D01*
X17886849Y-16553984D02*
X17867801Y-16553984D01*
X17867801Y-16553984D02*
X17848753Y-16544460D01*
X17848753Y-16544460D02*
X17839229Y-16534936D01*
X17839229Y-16534936D02*
X17829706Y-16515888D01*
X17829706Y-16515888D02*
X17820182Y-16477793D01*
X17820182Y-16477793D02*
X17820182Y-16430174D01*
X17820182Y-16430174D02*
X17829706Y-16392079D01*
X17829706Y-16392079D02*
X17839229Y-16373031D01*
X17839229Y-16373031D02*
X17848753Y-16363508D01*
X17848753Y-16363508D02*
X17867801Y-16353984D01*
X18010658Y-16373031D02*
X18020182Y-16363508D01*
X18020182Y-16363508D02*
X18039229Y-16353984D01*
X18039229Y-16353984D02*
X18086849Y-16353984D01*
X18086849Y-16353984D02*
X18105896Y-16363508D01*
X18105896Y-16363508D02*
X18115420Y-16373031D01*
X18115420Y-16373031D02*
X18124944Y-16392079D01*
X18124944Y-16392079D02*
X18124944Y-16411127D01*
X18124944Y-16411127D02*
X18115420Y-16439698D01*
X18115420Y-16439698D02*
X18001134Y-16553984D01*
X18001134Y-16553984D02*
X18124944Y-16553984D01*
X18201134Y-16353984D02*
X18201134Y-16392079D01*
X18277325Y-16353984D02*
X18277325Y-16392079D01*
X18572563Y-16630174D02*
X18563039Y-16620650D01*
X18563039Y-16620650D02*
X18543991Y-16592079D01*
X18543991Y-16592079D02*
X18534468Y-16573031D01*
X18534468Y-16573031D02*
X18524944Y-16544460D01*
X18524944Y-16544460D02*
X18515420Y-16496841D01*
X18515420Y-16496841D02*
X18515420Y-16458746D01*
X18515420Y-16458746D02*
X18524944Y-16411127D01*
X18524944Y-16411127D02*
X18534468Y-16382555D01*
X18534468Y-16382555D02*
X18543991Y-16363508D01*
X18543991Y-16363508D02*
X18563039Y-16334936D01*
X18563039Y-16334936D02*
X18572563Y-16325412D01*
X18734468Y-16420650D02*
X18734468Y-16553984D01*
X18686849Y-16344460D02*
X18639230Y-16487317D01*
X18639230Y-16487317D02*
X18763039Y-16487317D01*
X18991611Y-16553984D02*
X18991611Y-16353984D01*
X19077325Y-16553984D02*
X19077325Y-16449222D01*
X19077325Y-16449222D02*
X19067801Y-16430174D01*
X19067801Y-16430174D02*
X19048753Y-16420650D01*
X19048753Y-16420650D02*
X19020182Y-16420650D01*
X19020182Y-16420650D02*
X19001134Y-16430174D01*
X19001134Y-16430174D02*
X18991611Y-16439698D01*
X19201134Y-16553984D02*
X19182087Y-16544460D01*
X19182087Y-16544460D02*
X19172563Y-16534936D01*
X19172563Y-16534936D02*
X19163039Y-16515888D01*
X19163039Y-16515888D02*
X19163039Y-16458746D01*
X19163039Y-16458746D02*
X19172563Y-16439698D01*
X19172563Y-16439698D02*
X19182087Y-16430174D01*
X19182087Y-16430174D02*
X19201134Y-16420650D01*
X19201134Y-16420650D02*
X19229706Y-16420650D01*
X19229706Y-16420650D02*
X19248753Y-16430174D01*
X19248753Y-16430174D02*
X19258277Y-16439698D01*
X19258277Y-16439698D02*
X19267801Y-16458746D01*
X19267801Y-16458746D02*
X19267801Y-16515888D01*
X19267801Y-16515888D02*
X19258277Y-16534936D01*
X19258277Y-16534936D02*
X19248753Y-16544460D01*
X19248753Y-16544460D02*
X19229706Y-16553984D01*
X19229706Y-16553984D02*
X19201134Y-16553984D01*
X19382087Y-16553984D02*
X19363039Y-16544460D01*
X19363039Y-16544460D02*
X19353515Y-16525412D01*
X19353515Y-16525412D02*
X19353515Y-16353984D01*
X19534468Y-16544460D02*
X19515420Y-16553984D01*
X19515420Y-16553984D02*
X19477325Y-16553984D01*
X19477325Y-16553984D02*
X19458277Y-16544460D01*
X19458277Y-16544460D02*
X19448753Y-16525412D01*
X19448753Y-16525412D02*
X19448753Y-16449222D01*
X19448753Y-16449222D02*
X19458277Y-16430174D01*
X19458277Y-16430174D02*
X19477325Y-16420650D01*
X19477325Y-16420650D02*
X19515420Y-16420650D01*
X19515420Y-16420650D02*
X19534468Y-16430174D01*
X19534468Y-16430174D02*
X19543992Y-16449222D01*
X19543992Y-16449222D02*
X19543992Y-16468269D01*
X19543992Y-16468269D02*
X19448753Y-16487317D01*
X19620182Y-16544460D02*
X19639230Y-16553984D01*
X19639230Y-16553984D02*
X19677325Y-16553984D01*
X19677325Y-16553984D02*
X19696373Y-16544460D01*
X19696373Y-16544460D02*
X19705896Y-16525412D01*
X19705896Y-16525412D02*
X19705896Y-16515888D01*
X19705896Y-16515888D02*
X19696373Y-16496841D01*
X19696373Y-16496841D02*
X19677325Y-16487317D01*
X19677325Y-16487317D02*
X19648753Y-16487317D01*
X19648753Y-16487317D02*
X19629706Y-16477793D01*
X19629706Y-16477793D02*
X19620182Y-16458746D01*
X19620182Y-16458746D02*
X19620182Y-16449222D01*
X19620182Y-16449222D02*
X19629706Y-16430174D01*
X19629706Y-16430174D02*
X19648753Y-16420650D01*
X19648753Y-16420650D02*
X19677325Y-16420650D01*
X19677325Y-16420650D02*
X19696373Y-16430174D01*
X19772563Y-16630174D02*
X19782087Y-16620650D01*
X19782087Y-16620650D02*
X19801134Y-16592079D01*
X19801134Y-16592079D02*
X19810658Y-16573031D01*
X19810658Y-16573031D02*
X19820182Y-16544460D01*
X19820182Y-16544460D02*
X19829706Y-16496841D01*
X19829706Y-16496841D02*
X19829706Y-16458746D01*
X19829706Y-16458746D02*
X19820182Y-16411127D01*
X19820182Y-16411127D02*
X19810658Y-16382555D01*
X19810658Y-16382555D02*
X19801134Y-16363508D01*
X19801134Y-16363508D02*
X19782087Y-16334936D01*
X19782087Y-16334936D02*
X19772563Y-16325412D01*
D14*
X14834500Y-16645000D02*
X14997500Y-16808000D01*
X14997500Y-16645000D02*
X14834500Y-16808000D01*
X14916000Y-16645000D02*
X14916000Y-16808000D01*
X14834500Y-16726500D02*
X14997500Y-16726500D01*
D11*
X15363039Y-16817984D02*
X15248753Y-16817984D01*
X15305896Y-16817984D02*
X15305896Y-16617984D01*
X15305896Y-16617984D02*
X15286848Y-16646555D01*
X15286848Y-16646555D02*
X15267801Y-16665603D01*
X15267801Y-16665603D02*
X15248753Y-16675127D01*
X15448753Y-16798936D02*
X15458277Y-16808460D01*
X15458277Y-16808460D02*
X15448753Y-16817984D01*
X15448753Y-16817984D02*
X15439229Y-16808460D01*
X15439229Y-16808460D02*
X15448753Y-16798936D01*
X15448753Y-16798936D02*
X15448753Y-16817984D01*
X15629705Y-16617984D02*
X15591610Y-16617984D01*
X15591610Y-16617984D02*
X15572562Y-16627508D01*
X15572562Y-16627508D02*
X15563039Y-16637031D01*
X15563039Y-16637031D02*
X15543991Y-16665603D01*
X15543991Y-16665603D02*
X15534467Y-16703698D01*
X15534467Y-16703698D02*
X15534467Y-16779889D01*
X15534467Y-16779889D02*
X15543991Y-16798936D01*
X15543991Y-16798936D02*
X15553515Y-16808460D01*
X15553515Y-16808460D02*
X15572562Y-16817984D01*
X15572562Y-16817984D02*
X15610658Y-16817984D01*
X15610658Y-16817984D02*
X15629705Y-16808460D01*
X15629705Y-16808460D02*
X15639229Y-16798936D01*
X15639229Y-16798936D02*
X15648753Y-16779889D01*
X15648753Y-16779889D02*
X15648753Y-16732269D01*
X15648753Y-16732269D02*
X15639229Y-16713222D01*
X15639229Y-16713222D02*
X15629705Y-16703698D01*
X15629705Y-16703698D02*
X15610658Y-16694174D01*
X15610658Y-16694174D02*
X15572562Y-16694174D01*
X15572562Y-16694174D02*
X15553515Y-16703698D01*
X15553515Y-16703698D02*
X15543991Y-16713222D01*
X15543991Y-16713222D02*
X15534467Y-16732269D01*
X15715420Y-16617984D02*
X15839229Y-16617984D01*
X15839229Y-16617984D02*
X15772562Y-16694174D01*
X15772562Y-16694174D02*
X15801134Y-16694174D01*
X15801134Y-16694174D02*
X15820182Y-16703698D01*
X15820182Y-16703698D02*
X15829705Y-16713222D01*
X15829705Y-16713222D02*
X15839229Y-16732269D01*
X15839229Y-16732269D02*
X15839229Y-16779889D01*
X15839229Y-16779889D02*
X15829705Y-16798936D01*
X15829705Y-16798936D02*
X15820182Y-16808460D01*
X15820182Y-16808460D02*
X15801134Y-16817984D01*
X15801134Y-16817984D02*
X15743991Y-16817984D01*
X15743991Y-16817984D02*
X15724943Y-16808460D01*
X15724943Y-16808460D02*
X15715420Y-16798936D01*
X15963039Y-16617984D02*
X15982086Y-16617984D01*
X15982086Y-16617984D02*
X16001134Y-16627508D01*
X16001134Y-16627508D02*
X16010658Y-16637031D01*
X16010658Y-16637031D02*
X16020182Y-16656079D01*
X16020182Y-16656079D02*
X16029705Y-16694174D01*
X16029705Y-16694174D02*
X16029705Y-16741793D01*
X16029705Y-16741793D02*
X16020182Y-16779889D01*
X16020182Y-16779889D02*
X16010658Y-16798936D01*
X16010658Y-16798936D02*
X16001134Y-16808460D01*
X16001134Y-16808460D02*
X15982086Y-16817984D01*
X15982086Y-16817984D02*
X15963039Y-16817984D01*
X15963039Y-16817984D02*
X15943991Y-16808460D01*
X15943991Y-16808460D02*
X15934467Y-16798936D01*
X15934467Y-16798936D02*
X15924943Y-16779889D01*
X15924943Y-16779889D02*
X15915420Y-16741793D01*
X15915420Y-16741793D02*
X15915420Y-16694174D01*
X15915420Y-16694174D02*
X15924943Y-16656079D01*
X15924943Y-16656079D02*
X15934467Y-16637031D01*
X15934467Y-16637031D02*
X15943991Y-16627508D01*
X15943991Y-16627508D02*
X15963039Y-16617984D01*
X16115420Y-16817984D02*
X16115420Y-16684650D01*
X16115420Y-16703698D02*
X16124943Y-16694174D01*
X16124943Y-16694174D02*
X16143991Y-16684650D01*
X16143991Y-16684650D02*
X16172563Y-16684650D01*
X16172563Y-16684650D02*
X16191610Y-16694174D01*
X16191610Y-16694174D02*
X16201134Y-16713222D01*
X16201134Y-16713222D02*
X16201134Y-16817984D01*
X16201134Y-16713222D02*
X16210658Y-16694174D01*
X16210658Y-16694174D02*
X16229705Y-16684650D01*
X16229705Y-16684650D02*
X16258277Y-16684650D01*
X16258277Y-16684650D02*
X16277324Y-16694174D01*
X16277324Y-16694174D02*
X16286848Y-16713222D01*
X16286848Y-16713222D02*
X16286848Y-16817984D01*
X16382086Y-16817984D02*
X16382086Y-16684650D01*
X16382086Y-16703698D02*
X16391610Y-16694174D01*
X16391610Y-16694174D02*
X16410658Y-16684650D01*
X16410658Y-16684650D02*
X16439229Y-16684650D01*
X16439229Y-16684650D02*
X16458277Y-16694174D01*
X16458277Y-16694174D02*
X16467801Y-16713222D01*
X16467801Y-16713222D02*
X16467801Y-16817984D01*
X16467801Y-16713222D02*
X16477324Y-16694174D01*
X16477324Y-16694174D02*
X16496372Y-16684650D01*
X16496372Y-16684650D02*
X16524943Y-16684650D01*
X16524943Y-16684650D02*
X16543991Y-16694174D01*
X16543991Y-16694174D02*
X16553515Y-16713222D01*
X16553515Y-16713222D02*
X16553515Y-16817984D01*
X16943991Y-16608460D02*
X16772563Y-16865603D01*
X17201134Y-16617984D02*
X17220182Y-16617984D01*
X17220182Y-16617984D02*
X17239229Y-16627508D01*
X17239229Y-16627508D02*
X17248753Y-16637031D01*
X17248753Y-16637031D02*
X17258277Y-16656079D01*
X17258277Y-16656079D02*
X17267801Y-16694174D01*
X17267801Y-16694174D02*
X17267801Y-16741793D01*
X17267801Y-16741793D02*
X17258277Y-16779889D01*
X17258277Y-16779889D02*
X17248753Y-16798936D01*
X17248753Y-16798936D02*
X17239229Y-16808460D01*
X17239229Y-16808460D02*
X17220182Y-16817984D01*
X17220182Y-16817984D02*
X17201134Y-16817984D01*
X17201134Y-16817984D02*
X17182087Y-16808460D01*
X17182087Y-16808460D02*
X17172563Y-16798936D01*
X17172563Y-16798936D02*
X17163039Y-16779889D01*
X17163039Y-16779889D02*
X17153515Y-16741793D01*
X17153515Y-16741793D02*
X17153515Y-16694174D01*
X17153515Y-16694174D02*
X17163039Y-16656079D01*
X17163039Y-16656079D02*
X17172563Y-16637031D01*
X17172563Y-16637031D02*
X17182087Y-16627508D01*
X17182087Y-16627508D02*
X17201134Y-16617984D01*
X17353515Y-16798936D02*
X17363039Y-16808460D01*
X17363039Y-16808460D02*
X17353515Y-16817984D01*
X17353515Y-16817984D02*
X17343991Y-16808460D01*
X17343991Y-16808460D02*
X17353515Y-16798936D01*
X17353515Y-16798936D02*
X17353515Y-16817984D01*
X17486848Y-16617984D02*
X17505896Y-16617984D01*
X17505896Y-16617984D02*
X17524944Y-16627508D01*
X17524944Y-16627508D02*
X17534468Y-16637031D01*
X17534468Y-16637031D02*
X17543991Y-16656079D01*
X17543991Y-16656079D02*
X17553515Y-16694174D01*
X17553515Y-16694174D02*
X17553515Y-16741793D01*
X17553515Y-16741793D02*
X17543991Y-16779889D01*
X17543991Y-16779889D02*
X17534468Y-16798936D01*
X17534468Y-16798936D02*
X17524944Y-16808460D01*
X17524944Y-16808460D02*
X17505896Y-16817984D01*
X17505896Y-16817984D02*
X17486848Y-16817984D01*
X17486848Y-16817984D02*
X17467801Y-16808460D01*
X17467801Y-16808460D02*
X17458277Y-16798936D01*
X17458277Y-16798936D02*
X17448753Y-16779889D01*
X17448753Y-16779889D02*
X17439229Y-16741793D01*
X17439229Y-16741793D02*
X17439229Y-16694174D01*
X17439229Y-16694174D02*
X17448753Y-16656079D01*
X17448753Y-16656079D02*
X17458277Y-16637031D01*
X17458277Y-16637031D02*
X17467801Y-16627508D01*
X17467801Y-16627508D02*
X17486848Y-16617984D01*
X17724944Y-16617984D02*
X17686848Y-16617984D01*
X17686848Y-16617984D02*
X17667801Y-16627508D01*
X17667801Y-16627508D02*
X17658277Y-16637031D01*
X17658277Y-16637031D02*
X17639229Y-16665603D01*
X17639229Y-16665603D02*
X17629706Y-16703698D01*
X17629706Y-16703698D02*
X17629706Y-16779889D01*
X17629706Y-16779889D02*
X17639229Y-16798936D01*
X17639229Y-16798936D02*
X17648753Y-16808460D01*
X17648753Y-16808460D02*
X17667801Y-16817984D01*
X17667801Y-16817984D02*
X17705896Y-16817984D01*
X17705896Y-16817984D02*
X17724944Y-16808460D01*
X17724944Y-16808460D02*
X17734468Y-16798936D01*
X17734468Y-16798936D02*
X17743991Y-16779889D01*
X17743991Y-16779889D02*
X17743991Y-16732269D01*
X17743991Y-16732269D02*
X17734468Y-16713222D01*
X17734468Y-16713222D02*
X17724944Y-16703698D01*
X17724944Y-16703698D02*
X17705896Y-16694174D01*
X17705896Y-16694174D02*
X17667801Y-16694174D01*
X17667801Y-16694174D02*
X17648753Y-16703698D01*
X17648753Y-16703698D02*
X17639229Y-16713222D01*
X17639229Y-16713222D02*
X17629706Y-16732269D01*
X17915420Y-16684650D02*
X17915420Y-16817984D01*
X17867801Y-16608460D02*
X17820182Y-16751317D01*
X17820182Y-16751317D02*
X17943991Y-16751317D01*
X18010658Y-16637031D02*
X18020182Y-16627508D01*
X18020182Y-16627508D02*
X18039229Y-16617984D01*
X18039229Y-16617984D02*
X18086849Y-16617984D01*
X18086849Y-16617984D02*
X18105896Y-16627508D01*
X18105896Y-16627508D02*
X18115420Y-16637031D01*
X18115420Y-16637031D02*
X18124944Y-16656079D01*
X18124944Y-16656079D02*
X18124944Y-16675127D01*
X18124944Y-16675127D02*
X18115420Y-16703698D01*
X18115420Y-16703698D02*
X18001134Y-16817984D01*
X18001134Y-16817984D02*
X18124944Y-16817984D01*
X18201134Y-16617984D02*
X18201134Y-16656079D01*
X18277325Y-16617984D02*
X18277325Y-16656079D01*
X18572563Y-16894174D02*
X18563039Y-16884650D01*
X18563039Y-16884650D02*
X18543991Y-16856079D01*
X18543991Y-16856079D02*
X18534468Y-16837031D01*
X18534468Y-16837031D02*
X18524944Y-16808460D01*
X18524944Y-16808460D02*
X18515420Y-16760841D01*
X18515420Y-16760841D02*
X18515420Y-16722746D01*
X18515420Y-16722746D02*
X18524944Y-16675127D01*
X18524944Y-16675127D02*
X18534468Y-16646555D01*
X18534468Y-16646555D02*
X18543991Y-16627508D01*
X18543991Y-16627508D02*
X18563039Y-16598936D01*
X18563039Y-16598936D02*
X18572563Y-16589412D01*
X18639230Y-16637031D02*
X18648753Y-16627508D01*
X18648753Y-16627508D02*
X18667801Y-16617984D01*
X18667801Y-16617984D02*
X18715420Y-16617984D01*
X18715420Y-16617984D02*
X18734468Y-16627508D01*
X18734468Y-16627508D02*
X18743991Y-16637031D01*
X18743991Y-16637031D02*
X18753515Y-16656079D01*
X18753515Y-16656079D02*
X18753515Y-16675127D01*
X18753515Y-16675127D02*
X18743991Y-16703698D01*
X18743991Y-16703698D02*
X18629706Y-16817984D01*
X18629706Y-16817984D02*
X18753515Y-16817984D01*
X18991611Y-16817984D02*
X18991611Y-16617984D01*
X19077325Y-16817984D02*
X19077325Y-16713222D01*
X19077325Y-16713222D02*
X19067801Y-16694174D01*
X19067801Y-16694174D02*
X19048753Y-16684650D01*
X19048753Y-16684650D02*
X19020182Y-16684650D01*
X19020182Y-16684650D02*
X19001134Y-16694174D01*
X19001134Y-16694174D02*
X18991611Y-16703698D01*
X19201134Y-16817984D02*
X19182087Y-16808460D01*
X19182087Y-16808460D02*
X19172563Y-16798936D01*
X19172563Y-16798936D02*
X19163039Y-16779889D01*
X19163039Y-16779889D02*
X19163039Y-16722746D01*
X19163039Y-16722746D02*
X19172563Y-16703698D01*
X19172563Y-16703698D02*
X19182087Y-16694174D01*
X19182087Y-16694174D02*
X19201134Y-16684650D01*
X19201134Y-16684650D02*
X19229706Y-16684650D01*
X19229706Y-16684650D02*
X19248753Y-16694174D01*
X19248753Y-16694174D02*
X19258277Y-16703698D01*
X19258277Y-16703698D02*
X19267801Y-16722746D01*
X19267801Y-16722746D02*
X19267801Y-16779889D01*
X19267801Y-16779889D02*
X19258277Y-16798936D01*
X19258277Y-16798936D02*
X19248753Y-16808460D01*
X19248753Y-16808460D02*
X19229706Y-16817984D01*
X19229706Y-16817984D02*
X19201134Y-16817984D01*
X19382087Y-16817984D02*
X19363039Y-16808460D01*
X19363039Y-16808460D02*
X19353515Y-16789412D01*
X19353515Y-16789412D02*
X19353515Y-16617984D01*
X19534468Y-16808460D02*
X19515420Y-16817984D01*
X19515420Y-16817984D02*
X19477325Y-16817984D01*
X19477325Y-16817984D02*
X19458277Y-16808460D01*
X19458277Y-16808460D02*
X19448753Y-16789412D01*
X19448753Y-16789412D02*
X19448753Y-16713222D01*
X19448753Y-16713222D02*
X19458277Y-16694174D01*
X19458277Y-16694174D02*
X19477325Y-16684650D01*
X19477325Y-16684650D02*
X19515420Y-16684650D01*
X19515420Y-16684650D02*
X19534468Y-16694174D01*
X19534468Y-16694174D02*
X19543992Y-16713222D01*
X19543992Y-16713222D02*
X19543992Y-16732269D01*
X19543992Y-16732269D02*
X19448753Y-16751317D01*
X19620182Y-16808460D02*
X19639230Y-16817984D01*
X19639230Y-16817984D02*
X19677325Y-16817984D01*
X19677325Y-16817984D02*
X19696373Y-16808460D01*
X19696373Y-16808460D02*
X19705896Y-16789412D01*
X19705896Y-16789412D02*
X19705896Y-16779889D01*
X19705896Y-16779889D02*
X19696373Y-16760841D01*
X19696373Y-16760841D02*
X19677325Y-16751317D01*
X19677325Y-16751317D02*
X19648753Y-16751317D01*
X19648753Y-16751317D02*
X19629706Y-16741793D01*
X19629706Y-16741793D02*
X19620182Y-16722746D01*
X19620182Y-16722746D02*
X19620182Y-16713222D01*
X19620182Y-16713222D02*
X19629706Y-16694174D01*
X19629706Y-16694174D02*
X19648753Y-16684650D01*
X19648753Y-16684650D02*
X19677325Y-16684650D01*
X19677325Y-16684650D02*
X19696373Y-16694174D01*
X19772563Y-16894174D02*
X19782087Y-16884650D01*
X19782087Y-16884650D02*
X19801134Y-16856079D01*
X19801134Y-16856079D02*
X19810658Y-16837031D01*
X19810658Y-16837031D02*
X19820182Y-16808460D01*
X19820182Y-16808460D02*
X19829706Y-16760841D01*
X19829706Y-16760841D02*
X19829706Y-16722746D01*
X19829706Y-16722746D02*
X19820182Y-16675127D01*
X19820182Y-16675127D02*
X19810658Y-16646555D01*
X19810658Y-16646555D02*
X19801134Y-16627508D01*
X19801134Y-16627508D02*
X19782087Y-16598936D01*
X19782087Y-16598936D02*
X19772563Y-16589412D01*
D15*
X14807500Y-16914500D02*
X14997500Y-17104500D01*
X14997500Y-16914500D02*
X14807500Y-17104500D01*
X14969676Y-17076676D02*
X14969676Y-16942324D01*
X14835324Y-16942324D01*
X14835324Y-17076676D01*
X14969676Y-17076676D01*
D11*
X15363039Y-17100984D02*
X15248753Y-17100984D01*
X15305896Y-17100984D02*
X15305896Y-16900984D01*
X15305896Y-16900984D02*
X15286848Y-16929555D01*
X15286848Y-16929555D02*
X15267801Y-16948603D01*
X15267801Y-16948603D02*
X15248753Y-16958127D01*
X15448753Y-17081936D02*
X15458277Y-17091460D01*
X15458277Y-17091460D02*
X15448753Y-17100984D01*
X15448753Y-17100984D02*
X15439229Y-17091460D01*
X15439229Y-17091460D02*
X15448753Y-17081936D01*
X15448753Y-17081936D02*
X15448753Y-17100984D01*
X15553515Y-17100984D02*
X15591610Y-17100984D01*
X15591610Y-17100984D02*
X15610658Y-17091460D01*
X15610658Y-17091460D02*
X15620182Y-17081936D01*
X15620182Y-17081936D02*
X15639229Y-17053365D01*
X15639229Y-17053365D02*
X15648753Y-17015270D01*
X15648753Y-17015270D02*
X15648753Y-16939079D01*
X15648753Y-16939079D02*
X15639229Y-16920031D01*
X15639229Y-16920031D02*
X15629705Y-16910508D01*
X15629705Y-16910508D02*
X15610658Y-16900984D01*
X15610658Y-16900984D02*
X15572562Y-16900984D01*
X15572562Y-16900984D02*
X15553515Y-16910508D01*
X15553515Y-16910508D02*
X15543991Y-16920031D01*
X15543991Y-16920031D02*
X15534467Y-16939079D01*
X15534467Y-16939079D02*
X15534467Y-16986698D01*
X15534467Y-16986698D02*
X15543991Y-17005746D01*
X15543991Y-17005746D02*
X15553515Y-17015270D01*
X15553515Y-17015270D02*
X15572562Y-17024793D01*
X15572562Y-17024793D02*
X15610658Y-17024793D01*
X15610658Y-17024793D02*
X15629705Y-17015270D01*
X15629705Y-17015270D02*
X15639229Y-17005746D01*
X15639229Y-17005746D02*
X15648753Y-16986698D01*
X15772562Y-16900984D02*
X15791610Y-16900984D01*
X15791610Y-16900984D02*
X15810658Y-16910508D01*
X15810658Y-16910508D02*
X15820182Y-16920031D01*
X15820182Y-16920031D02*
X15829705Y-16939079D01*
X15829705Y-16939079D02*
X15839229Y-16977174D01*
X15839229Y-16977174D02*
X15839229Y-17024793D01*
X15839229Y-17024793D02*
X15829705Y-17062889D01*
X15829705Y-17062889D02*
X15820182Y-17081936D01*
X15820182Y-17081936D02*
X15810658Y-17091460D01*
X15810658Y-17091460D02*
X15791610Y-17100984D01*
X15791610Y-17100984D02*
X15772562Y-17100984D01*
X15772562Y-17100984D02*
X15753515Y-17091460D01*
X15753515Y-17091460D02*
X15743991Y-17081936D01*
X15743991Y-17081936D02*
X15734467Y-17062889D01*
X15734467Y-17062889D02*
X15724943Y-17024793D01*
X15724943Y-17024793D02*
X15724943Y-16977174D01*
X15724943Y-16977174D02*
X15734467Y-16939079D01*
X15734467Y-16939079D02*
X15743991Y-16920031D01*
X15743991Y-16920031D02*
X15753515Y-16910508D01*
X15753515Y-16910508D02*
X15772562Y-16900984D01*
X15963039Y-16900984D02*
X15982086Y-16900984D01*
X15982086Y-16900984D02*
X16001134Y-16910508D01*
X16001134Y-16910508D02*
X16010658Y-16920031D01*
X16010658Y-16920031D02*
X16020182Y-16939079D01*
X16020182Y-16939079D02*
X16029705Y-16977174D01*
X16029705Y-16977174D02*
X16029705Y-17024793D01*
X16029705Y-17024793D02*
X16020182Y-17062889D01*
X16020182Y-17062889D02*
X16010658Y-17081936D01*
X16010658Y-17081936D02*
X16001134Y-17091460D01*
X16001134Y-17091460D02*
X15982086Y-17100984D01*
X15982086Y-17100984D02*
X15963039Y-17100984D01*
X15963039Y-17100984D02*
X15943991Y-17091460D01*
X15943991Y-17091460D02*
X15934467Y-17081936D01*
X15934467Y-17081936D02*
X15924943Y-17062889D01*
X15924943Y-17062889D02*
X15915420Y-17024793D01*
X15915420Y-17024793D02*
X15915420Y-16977174D01*
X15915420Y-16977174D02*
X15924943Y-16939079D01*
X15924943Y-16939079D02*
X15934467Y-16920031D01*
X15934467Y-16920031D02*
X15943991Y-16910508D01*
X15943991Y-16910508D02*
X15963039Y-16900984D01*
X16115420Y-17100984D02*
X16115420Y-16967650D01*
X16115420Y-16986698D02*
X16124943Y-16977174D01*
X16124943Y-16977174D02*
X16143991Y-16967650D01*
X16143991Y-16967650D02*
X16172563Y-16967650D01*
X16172563Y-16967650D02*
X16191610Y-16977174D01*
X16191610Y-16977174D02*
X16201134Y-16996222D01*
X16201134Y-16996222D02*
X16201134Y-17100984D01*
X16201134Y-16996222D02*
X16210658Y-16977174D01*
X16210658Y-16977174D02*
X16229705Y-16967650D01*
X16229705Y-16967650D02*
X16258277Y-16967650D01*
X16258277Y-16967650D02*
X16277324Y-16977174D01*
X16277324Y-16977174D02*
X16286848Y-16996222D01*
X16286848Y-16996222D02*
X16286848Y-17100984D01*
X16382086Y-17100984D02*
X16382086Y-16967650D01*
X16382086Y-16986698D02*
X16391610Y-16977174D01*
X16391610Y-16977174D02*
X16410658Y-16967650D01*
X16410658Y-16967650D02*
X16439229Y-16967650D01*
X16439229Y-16967650D02*
X16458277Y-16977174D01*
X16458277Y-16977174D02*
X16467801Y-16996222D01*
X16467801Y-16996222D02*
X16467801Y-17100984D01*
X16467801Y-16996222D02*
X16477324Y-16977174D01*
X16477324Y-16977174D02*
X16496372Y-16967650D01*
X16496372Y-16967650D02*
X16524943Y-16967650D01*
X16524943Y-16967650D02*
X16543991Y-16977174D01*
X16543991Y-16977174D02*
X16553515Y-16996222D01*
X16553515Y-16996222D02*
X16553515Y-17100984D01*
X16943991Y-16891460D02*
X16772563Y-17148603D01*
X17201134Y-16900984D02*
X17220182Y-16900984D01*
X17220182Y-16900984D02*
X17239229Y-16910508D01*
X17239229Y-16910508D02*
X17248753Y-16920031D01*
X17248753Y-16920031D02*
X17258277Y-16939079D01*
X17258277Y-16939079D02*
X17267801Y-16977174D01*
X17267801Y-16977174D02*
X17267801Y-17024793D01*
X17267801Y-17024793D02*
X17258277Y-17062889D01*
X17258277Y-17062889D02*
X17248753Y-17081936D01*
X17248753Y-17081936D02*
X17239229Y-17091460D01*
X17239229Y-17091460D02*
X17220182Y-17100984D01*
X17220182Y-17100984D02*
X17201134Y-17100984D01*
X17201134Y-17100984D02*
X17182087Y-17091460D01*
X17182087Y-17091460D02*
X17172563Y-17081936D01*
X17172563Y-17081936D02*
X17163039Y-17062889D01*
X17163039Y-17062889D02*
X17153515Y-17024793D01*
X17153515Y-17024793D02*
X17153515Y-16977174D01*
X17153515Y-16977174D02*
X17163039Y-16939079D01*
X17163039Y-16939079D02*
X17172563Y-16920031D01*
X17172563Y-16920031D02*
X17182087Y-16910508D01*
X17182087Y-16910508D02*
X17201134Y-16900984D01*
X17353515Y-17081936D02*
X17363039Y-17091460D01*
X17363039Y-17091460D02*
X17353515Y-17100984D01*
X17353515Y-17100984D02*
X17343991Y-17091460D01*
X17343991Y-17091460D02*
X17353515Y-17081936D01*
X17353515Y-17081936D02*
X17353515Y-17100984D01*
X17486848Y-16900984D02*
X17505896Y-16900984D01*
X17505896Y-16900984D02*
X17524944Y-16910508D01*
X17524944Y-16910508D02*
X17534468Y-16920031D01*
X17534468Y-16920031D02*
X17543991Y-16939079D01*
X17543991Y-16939079D02*
X17553515Y-16977174D01*
X17553515Y-16977174D02*
X17553515Y-17024793D01*
X17553515Y-17024793D02*
X17543991Y-17062889D01*
X17543991Y-17062889D02*
X17534468Y-17081936D01*
X17534468Y-17081936D02*
X17524944Y-17091460D01*
X17524944Y-17091460D02*
X17505896Y-17100984D01*
X17505896Y-17100984D02*
X17486848Y-17100984D01*
X17486848Y-17100984D02*
X17467801Y-17091460D01*
X17467801Y-17091460D02*
X17458277Y-17081936D01*
X17458277Y-17081936D02*
X17448753Y-17062889D01*
X17448753Y-17062889D02*
X17439229Y-17024793D01*
X17439229Y-17024793D02*
X17439229Y-16977174D01*
X17439229Y-16977174D02*
X17448753Y-16939079D01*
X17448753Y-16939079D02*
X17458277Y-16920031D01*
X17458277Y-16920031D02*
X17467801Y-16910508D01*
X17467801Y-16910508D02*
X17486848Y-16900984D01*
X17620182Y-16900984D02*
X17753515Y-16900984D01*
X17753515Y-16900984D02*
X17667801Y-17100984D01*
X17915420Y-16967650D02*
X17915420Y-17100984D01*
X17867801Y-16891460D02*
X17820182Y-17034317D01*
X17820182Y-17034317D02*
X17943991Y-17034317D01*
X18048753Y-16986698D02*
X18029706Y-16977174D01*
X18029706Y-16977174D02*
X18020182Y-16967650D01*
X18020182Y-16967650D02*
X18010658Y-16948603D01*
X18010658Y-16948603D02*
X18010658Y-16939079D01*
X18010658Y-16939079D02*
X18020182Y-16920031D01*
X18020182Y-16920031D02*
X18029706Y-16910508D01*
X18029706Y-16910508D02*
X18048753Y-16900984D01*
X18048753Y-16900984D02*
X18086849Y-16900984D01*
X18086849Y-16900984D02*
X18105896Y-16910508D01*
X18105896Y-16910508D02*
X18115420Y-16920031D01*
X18115420Y-16920031D02*
X18124944Y-16939079D01*
X18124944Y-16939079D02*
X18124944Y-16948603D01*
X18124944Y-16948603D02*
X18115420Y-16967650D01*
X18115420Y-16967650D02*
X18105896Y-16977174D01*
X18105896Y-16977174D02*
X18086849Y-16986698D01*
X18086849Y-16986698D02*
X18048753Y-16986698D01*
X18048753Y-16986698D02*
X18029706Y-16996222D01*
X18029706Y-16996222D02*
X18020182Y-17005746D01*
X18020182Y-17005746D02*
X18010658Y-17024793D01*
X18010658Y-17024793D02*
X18010658Y-17062889D01*
X18010658Y-17062889D02*
X18020182Y-17081936D01*
X18020182Y-17081936D02*
X18029706Y-17091460D01*
X18029706Y-17091460D02*
X18048753Y-17100984D01*
X18048753Y-17100984D02*
X18086849Y-17100984D01*
X18086849Y-17100984D02*
X18105896Y-17091460D01*
X18105896Y-17091460D02*
X18115420Y-17081936D01*
X18115420Y-17081936D02*
X18124944Y-17062889D01*
X18124944Y-17062889D02*
X18124944Y-17024793D01*
X18124944Y-17024793D02*
X18115420Y-17005746D01*
X18115420Y-17005746D02*
X18105896Y-16996222D01*
X18105896Y-16996222D02*
X18086849Y-16986698D01*
X18201134Y-16900984D02*
X18201134Y-16939079D01*
X18277325Y-16900984D02*
X18277325Y-16939079D01*
X18572563Y-17177174D02*
X18563039Y-17167650D01*
X18563039Y-17167650D02*
X18543991Y-17139079D01*
X18543991Y-17139079D02*
X18534468Y-17120031D01*
X18534468Y-17120031D02*
X18524944Y-17091460D01*
X18524944Y-17091460D02*
X18515420Y-17043841D01*
X18515420Y-17043841D02*
X18515420Y-17005746D01*
X18515420Y-17005746D02*
X18524944Y-16958127D01*
X18524944Y-16958127D02*
X18534468Y-16929555D01*
X18534468Y-16929555D02*
X18543991Y-16910508D01*
X18543991Y-16910508D02*
X18563039Y-16881936D01*
X18563039Y-16881936D02*
X18572563Y-16872412D01*
X18639230Y-16920031D02*
X18648753Y-16910508D01*
X18648753Y-16910508D02*
X18667801Y-16900984D01*
X18667801Y-16900984D02*
X18715420Y-16900984D01*
X18715420Y-16900984D02*
X18734468Y-16910508D01*
X18734468Y-16910508D02*
X18743991Y-16920031D01*
X18743991Y-16920031D02*
X18753515Y-16939079D01*
X18753515Y-16939079D02*
X18753515Y-16958127D01*
X18753515Y-16958127D02*
X18743991Y-16986698D01*
X18743991Y-16986698D02*
X18629706Y-17100984D01*
X18629706Y-17100984D02*
X18753515Y-17100984D01*
X18991611Y-17100984D02*
X18991611Y-16900984D01*
X19077325Y-17100984D02*
X19077325Y-16996222D01*
X19077325Y-16996222D02*
X19067801Y-16977174D01*
X19067801Y-16977174D02*
X19048753Y-16967650D01*
X19048753Y-16967650D02*
X19020182Y-16967650D01*
X19020182Y-16967650D02*
X19001134Y-16977174D01*
X19001134Y-16977174D02*
X18991611Y-16986698D01*
X19201134Y-17100984D02*
X19182087Y-17091460D01*
X19182087Y-17091460D02*
X19172563Y-17081936D01*
X19172563Y-17081936D02*
X19163039Y-17062889D01*
X19163039Y-17062889D02*
X19163039Y-17005746D01*
X19163039Y-17005746D02*
X19172563Y-16986698D01*
X19172563Y-16986698D02*
X19182087Y-16977174D01*
X19182087Y-16977174D02*
X19201134Y-16967650D01*
X19201134Y-16967650D02*
X19229706Y-16967650D01*
X19229706Y-16967650D02*
X19248753Y-16977174D01*
X19248753Y-16977174D02*
X19258277Y-16986698D01*
X19258277Y-16986698D02*
X19267801Y-17005746D01*
X19267801Y-17005746D02*
X19267801Y-17062889D01*
X19267801Y-17062889D02*
X19258277Y-17081936D01*
X19258277Y-17081936D02*
X19248753Y-17091460D01*
X19248753Y-17091460D02*
X19229706Y-17100984D01*
X19229706Y-17100984D02*
X19201134Y-17100984D01*
X19382087Y-17100984D02*
X19363039Y-17091460D01*
X19363039Y-17091460D02*
X19353515Y-17072412D01*
X19353515Y-17072412D02*
X19353515Y-16900984D01*
X19534468Y-17091460D02*
X19515420Y-17100984D01*
X19515420Y-17100984D02*
X19477325Y-17100984D01*
X19477325Y-17100984D02*
X19458277Y-17091460D01*
X19458277Y-17091460D02*
X19448753Y-17072412D01*
X19448753Y-17072412D02*
X19448753Y-16996222D01*
X19448753Y-16996222D02*
X19458277Y-16977174D01*
X19458277Y-16977174D02*
X19477325Y-16967650D01*
X19477325Y-16967650D02*
X19515420Y-16967650D01*
X19515420Y-16967650D02*
X19534468Y-16977174D01*
X19534468Y-16977174D02*
X19543992Y-16996222D01*
X19543992Y-16996222D02*
X19543992Y-17015270D01*
X19543992Y-17015270D02*
X19448753Y-17034317D01*
X19620182Y-17091460D02*
X19639230Y-17100984D01*
X19639230Y-17100984D02*
X19677325Y-17100984D01*
X19677325Y-17100984D02*
X19696373Y-17091460D01*
X19696373Y-17091460D02*
X19705896Y-17072412D01*
X19705896Y-17072412D02*
X19705896Y-17062889D01*
X19705896Y-17062889D02*
X19696373Y-17043841D01*
X19696373Y-17043841D02*
X19677325Y-17034317D01*
X19677325Y-17034317D02*
X19648753Y-17034317D01*
X19648753Y-17034317D02*
X19629706Y-17024793D01*
X19629706Y-17024793D02*
X19620182Y-17005746D01*
X19620182Y-17005746D02*
X19620182Y-16996222D01*
X19620182Y-16996222D02*
X19629706Y-16977174D01*
X19629706Y-16977174D02*
X19648753Y-16967650D01*
X19648753Y-16967650D02*
X19677325Y-16967650D01*
X19677325Y-16967650D02*
X19696373Y-16977174D01*
X19772563Y-17177174D02*
X19782087Y-17167650D01*
X19782087Y-17167650D02*
X19801134Y-17139079D01*
X19801134Y-17139079D02*
X19810658Y-17120031D01*
X19810658Y-17120031D02*
X19820182Y-17091460D01*
X19820182Y-17091460D02*
X19829706Y-17043841D01*
X19829706Y-17043841D02*
X19829706Y-17005746D01*
X19829706Y-17005746D02*
X19820182Y-16958127D01*
X19820182Y-16958127D02*
X19810658Y-16929555D01*
X19810658Y-16929555D02*
X19801134Y-16910508D01*
X19801134Y-16910508D02*
X19782087Y-16881936D01*
X19782087Y-16881936D02*
X19772563Y-16872412D01*
X14797500Y-17219500D02*
X14997500Y-17419500D01*
X14997500Y-17219500D02*
X14797500Y-17419500D01*
X14897500Y-17419500D02*
X14997500Y-17319500D01*
X14897500Y-17219500D01*
X14797500Y-17319500D01*
X14897500Y-17419500D01*
X15248753Y-17230031D02*
X15258277Y-17220508D01*
X15258277Y-17220508D02*
X15277324Y-17210984D01*
X15277324Y-17210984D02*
X15324943Y-17210984D01*
X15324943Y-17210984D02*
X15343991Y-17220508D01*
X15343991Y-17220508D02*
X15353515Y-17230031D01*
X15353515Y-17230031D02*
X15363039Y-17249079D01*
X15363039Y-17249079D02*
X15363039Y-17268127D01*
X15363039Y-17268127D02*
X15353515Y-17296698D01*
X15353515Y-17296698D02*
X15239229Y-17410984D01*
X15239229Y-17410984D02*
X15363039Y-17410984D01*
X15448753Y-17391936D02*
X15458277Y-17401460D01*
X15458277Y-17401460D02*
X15448753Y-17410984D01*
X15448753Y-17410984D02*
X15439229Y-17401460D01*
X15439229Y-17401460D02*
X15448753Y-17391936D01*
X15448753Y-17391936D02*
X15448753Y-17410984D01*
X15534467Y-17230031D02*
X15543991Y-17220508D01*
X15543991Y-17220508D02*
X15563039Y-17210984D01*
X15563039Y-17210984D02*
X15610658Y-17210984D01*
X15610658Y-17210984D02*
X15629705Y-17220508D01*
X15629705Y-17220508D02*
X15639229Y-17230031D01*
X15639229Y-17230031D02*
X15648753Y-17249079D01*
X15648753Y-17249079D02*
X15648753Y-17268127D01*
X15648753Y-17268127D02*
X15639229Y-17296698D01*
X15639229Y-17296698D02*
X15524943Y-17410984D01*
X15524943Y-17410984D02*
X15648753Y-17410984D01*
X15772562Y-17210984D02*
X15791610Y-17210984D01*
X15791610Y-17210984D02*
X15810658Y-17220508D01*
X15810658Y-17220508D02*
X15820182Y-17230031D01*
X15820182Y-17230031D02*
X15829705Y-17249079D01*
X15829705Y-17249079D02*
X15839229Y-17287174D01*
X15839229Y-17287174D02*
X15839229Y-17334793D01*
X15839229Y-17334793D02*
X15829705Y-17372889D01*
X15829705Y-17372889D02*
X15820182Y-17391936D01*
X15820182Y-17391936D02*
X15810658Y-17401460D01*
X15810658Y-17401460D02*
X15791610Y-17410984D01*
X15791610Y-17410984D02*
X15772562Y-17410984D01*
X15772562Y-17410984D02*
X15753515Y-17401460D01*
X15753515Y-17401460D02*
X15743991Y-17391936D01*
X15743991Y-17391936D02*
X15734467Y-17372889D01*
X15734467Y-17372889D02*
X15724943Y-17334793D01*
X15724943Y-17334793D02*
X15724943Y-17287174D01*
X15724943Y-17287174D02*
X15734467Y-17249079D01*
X15734467Y-17249079D02*
X15743991Y-17230031D01*
X15743991Y-17230031D02*
X15753515Y-17220508D01*
X15753515Y-17220508D02*
X15772562Y-17210984D01*
X15963039Y-17210984D02*
X15982086Y-17210984D01*
X15982086Y-17210984D02*
X16001134Y-17220508D01*
X16001134Y-17220508D02*
X16010658Y-17230031D01*
X16010658Y-17230031D02*
X16020182Y-17249079D01*
X16020182Y-17249079D02*
X16029705Y-17287174D01*
X16029705Y-17287174D02*
X16029705Y-17334793D01*
X16029705Y-17334793D02*
X16020182Y-17372889D01*
X16020182Y-17372889D02*
X16010658Y-17391936D01*
X16010658Y-17391936D02*
X16001134Y-17401460D01*
X16001134Y-17401460D02*
X15982086Y-17410984D01*
X15982086Y-17410984D02*
X15963039Y-17410984D01*
X15963039Y-17410984D02*
X15943991Y-17401460D01*
X15943991Y-17401460D02*
X15934467Y-17391936D01*
X15934467Y-17391936D02*
X15924943Y-17372889D01*
X15924943Y-17372889D02*
X15915420Y-17334793D01*
X15915420Y-17334793D02*
X15915420Y-17287174D01*
X15915420Y-17287174D02*
X15924943Y-17249079D01*
X15924943Y-17249079D02*
X15934467Y-17230031D01*
X15934467Y-17230031D02*
X15943991Y-17220508D01*
X15943991Y-17220508D02*
X15963039Y-17210984D01*
X16115420Y-17410984D02*
X16115420Y-17277650D01*
X16115420Y-17296698D02*
X16124943Y-17287174D01*
X16124943Y-17287174D02*
X16143991Y-17277650D01*
X16143991Y-17277650D02*
X16172563Y-17277650D01*
X16172563Y-17277650D02*
X16191610Y-17287174D01*
X16191610Y-17287174D02*
X16201134Y-17306222D01*
X16201134Y-17306222D02*
X16201134Y-17410984D01*
X16201134Y-17306222D02*
X16210658Y-17287174D01*
X16210658Y-17287174D02*
X16229705Y-17277650D01*
X16229705Y-17277650D02*
X16258277Y-17277650D01*
X16258277Y-17277650D02*
X16277324Y-17287174D01*
X16277324Y-17287174D02*
X16286848Y-17306222D01*
X16286848Y-17306222D02*
X16286848Y-17410984D01*
X16382086Y-17410984D02*
X16382086Y-17277650D01*
X16382086Y-17296698D02*
X16391610Y-17287174D01*
X16391610Y-17287174D02*
X16410658Y-17277650D01*
X16410658Y-17277650D02*
X16439229Y-17277650D01*
X16439229Y-17277650D02*
X16458277Y-17287174D01*
X16458277Y-17287174D02*
X16467801Y-17306222D01*
X16467801Y-17306222D02*
X16467801Y-17410984D01*
X16467801Y-17306222D02*
X16477324Y-17287174D01*
X16477324Y-17287174D02*
X16496372Y-17277650D01*
X16496372Y-17277650D02*
X16524943Y-17277650D01*
X16524943Y-17277650D02*
X16543991Y-17287174D01*
X16543991Y-17287174D02*
X16553515Y-17306222D01*
X16553515Y-17306222D02*
X16553515Y-17410984D01*
X16943991Y-17201460D02*
X16772563Y-17458603D01*
X17201134Y-17210984D02*
X17220182Y-17210984D01*
X17220182Y-17210984D02*
X17239229Y-17220508D01*
X17239229Y-17220508D02*
X17248753Y-17230031D01*
X17248753Y-17230031D02*
X17258277Y-17249079D01*
X17258277Y-17249079D02*
X17267801Y-17287174D01*
X17267801Y-17287174D02*
X17267801Y-17334793D01*
X17267801Y-17334793D02*
X17258277Y-17372889D01*
X17258277Y-17372889D02*
X17248753Y-17391936D01*
X17248753Y-17391936D02*
X17239229Y-17401460D01*
X17239229Y-17401460D02*
X17220182Y-17410984D01*
X17220182Y-17410984D02*
X17201134Y-17410984D01*
X17201134Y-17410984D02*
X17182087Y-17401460D01*
X17182087Y-17401460D02*
X17172563Y-17391936D01*
X17172563Y-17391936D02*
X17163039Y-17372889D01*
X17163039Y-17372889D02*
X17153515Y-17334793D01*
X17153515Y-17334793D02*
X17153515Y-17287174D01*
X17153515Y-17287174D02*
X17163039Y-17249079D01*
X17163039Y-17249079D02*
X17172563Y-17230031D01*
X17172563Y-17230031D02*
X17182087Y-17220508D01*
X17182087Y-17220508D02*
X17201134Y-17210984D01*
X17353515Y-17391936D02*
X17363039Y-17401460D01*
X17363039Y-17401460D02*
X17353515Y-17410984D01*
X17353515Y-17410984D02*
X17343991Y-17401460D01*
X17343991Y-17401460D02*
X17353515Y-17391936D01*
X17353515Y-17391936D02*
X17353515Y-17410984D01*
X17486848Y-17210984D02*
X17505896Y-17210984D01*
X17505896Y-17210984D02*
X17524944Y-17220508D01*
X17524944Y-17220508D02*
X17534468Y-17230031D01*
X17534468Y-17230031D02*
X17543991Y-17249079D01*
X17543991Y-17249079D02*
X17553515Y-17287174D01*
X17553515Y-17287174D02*
X17553515Y-17334793D01*
X17553515Y-17334793D02*
X17543991Y-17372889D01*
X17543991Y-17372889D02*
X17534468Y-17391936D01*
X17534468Y-17391936D02*
X17524944Y-17401460D01*
X17524944Y-17401460D02*
X17505896Y-17410984D01*
X17505896Y-17410984D02*
X17486848Y-17410984D01*
X17486848Y-17410984D02*
X17467801Y-17401460D01*
X17467801Y-17401460D02*
X17458277Y-17391936D01*
X17458277Y-17391936D02*
X17448753Y-17372889D01*
X17448753Y-17372889D02*
X17439229Y-17334793D01*
X17439229Y-17334793D02*
X17439229Y-17287174D01*
X17439229Y-17287174D02*
X17448753Y-17249079D01*
X17448753Y-17249079D02*
X17458277Y-17230031D01*
X17458277Y-17230031D02*
X17467801Y-17220508D01*
X17467801Y-17220508D02*
X17486848Y-17210984D01*
X17667801Y-17296698D02*
X17648753Y-17287174D01*
X17648753Y-17287174D02*
X17639229Y-17277650D01*
X17639229Y-17277650D02*
X17629706Y-17258603D01*
X17629706Y-17258603D02*
X17629706Y-17249079D01*
X17629706Y-17249079D02*
X17639229Y-17230031D01*
X17639229Y-17230031D02*
X17648753Y-17220508D01*
X17648753Y-17220508D02*
X17667801Y-17210984D01*
X17667801Y-17210984D02*
X17705896Y-17210984D01*
X17705896Y-17210984D02*
X17724944Y-17220508D01*
X17724944Y-17220508D02*
X17734468Y-17230031D01*
X17734468Y-17230031D02*
X17743991Y-17249079D01*
X17743991Y-17249079D02*
X17743991Y-17258603D01*
X17743991Y-17258603D02*
X17734468Y-17277650D01*
X17734468Y-17277650D02*
X17724944Y-17287174D01*
X17724944Y-17287174D02*
X17705896Y-17296698D01*
X17705896Y-17296698D02*
X17667801Y-17296698D01*
X17667801Y-17296698D02*
X17648753Y-17306222D01*
X17648753Y-17306222D02*
X17639229Y-17315746D01*
X17639229Y-17315746D02*
X17629706Y-17334793D01*
X17629706Y-17334793D02*
X17629706Y-17372889D01*
X17629706Y-17372889D02*
X17639229Y-17391936D01*
X17639229Y-17391936D02*
X17648753Y-17401460D01*
X17648753Y-17401460D02*
X17667801Y-17410984D01*
X17667801Y-17410984D02*
X17705896Y-17410984D01*
X17705896Y-17410984D02*
X17724944Y-17401460D01*
X17724944Y-17401460D02*
X17734468Y-17391936D01*
X17734468Y-17391936D02*
X17743991Y-17372889D01*
X17743991Y-17372889D02*
X17743991Y-17334793D01*
X17743991Y-17334793D02*
X17734468Y-17315746D01*
X17734468Y-17315746D02*
X17724944Y-17306222D01*
X17724944Y-17306222D02*
X17705896Y-17296698D01*
X17915420Y-17210984D02*
X17877325Y-17210984D01*
X17877325Y-17210984D02*
X17858277Y-17220508D01*
X17858277Y-17220508D02*
X17848753Y-17230031D01*
X17848753Y-17230031D02*
X17829706Y-17258603D01*
X17829706Y-17258603D02*
X17820182Y-17296698D01*
X17820182Y-17296698D02*
X17820182Y-17372889D01*
X17820182Y-17372889D02*
X17829706Y-17391936D01*
X17829706Y-17391936D02*
X17839229Y-17401460D01*
X17839229Y-17401460D02*
X17858277Y-17410984D01*
X17858277Y-17410984D02*
X17896372Y-17410984D01*
X17896372Y-17410984D02*
X17915420Y-17401460D01*
X17915420Y-17401460D02*
X17924944Y-17391936D01*
X17924944Y-17391936D02*
X17934468Y-17372889D01*
X17934468Y-17372889D02*
X17934468Y-17325270D01*
X17934468Y-17325270D02*
X17924944Y-17306222D01*
X17924944Y-17306222D02*
X17915420Y-17296698D01*
X17915420Y-17296698D02*
X17896372Y-17287174D01*
X17896372Y-17287174D02*
X17858277Y-17287174D01*
X17858277Y-17287174D02*
X17839229Y-17296698D01*
X17839229Y-17296698D02*
X17829706Y-17306222D01*
X17829706Y-17306222D02*
X17820182Y-17325270D01*
X18105896Y-17210984D02*
X18067801Y-17210984D01*
X18067801Y-17210984D02*
X18048753Y-17220508D01*
X18048753Y-17220508D02*
X18039229Y-17230031D01*
X18039229Y-17230031D02*
X18020182Y-17258603D01*
X18020182Y-17258603D02*
X18010658Y-17296698D01*
X18010658Y-17296698D02*
X18010658Y-17372889D01*
X18010658Y-17372889D02*
X18020182Y-17391936D01*
X18020182Y-17391936D02*
X18029706Y-17401460D01*
X18029706Y-17401460D02*
X18048753Y-17410984D01*
X18048753Y-17410984D02*
X18086849Y-17410984D01*
X18086849Y-17410984D02*
X18105896Y-17401460D01*
X18105896Y-17401460D02*
X18115420Y-17391936D01*
X18115420Y-17391936D02*
X18124944Y-17372889D01*
X18124944Y-17372889D02*
X18124944Y-17325270D01*
X18124944Y-17325270D02*
X18115420Y-17306222D01*
X18115420Y-17306222D02*
X18105896Y-17296698D01*
X18105896Y-17296698D02*
X18086849Y-17287174D01*
X18086849Y-17287174D02*
X18048753Y-17287174D01*
X18048753Y-17287174D02*
X18029706Y-17296698D01*
X18029706Y-17296698D02*
X18020182Y-17306222D01*
X18020182Y-17306222D02*
X18010658Y-17325270D01*
X18201134Y-17210984D02*
X18201134Y-17249079D01*
X18277325Y-17210984D02*
X18277325Y-17249079D01*
X18572563Y-17487174D02*
X18563039Y-17477650D01*
X18563039Y-17477650D02*
X18543991Y-17449079D01*
X18543991Y-17449079D02*
X18534468Y-17430031D01*
X18534468Y-17430031D02*
X18524944Y-17401460D01*
X18524944Y-17401460D02*
X18515420Y-17353841D01*
X18515420Y-17353841D02*
X18515420Y-17315746D01*
X18515420Y-17315746D02*
X18524944Y-17268127D01*
X18524944Y-17268127D02*
X18534468Y-17239555D01*
X18534468Y-17239555D02*
X18543991Y-17220508D01*
X18543991Y-17220508D02*
X18563039Y-17191936D01*
X18563039Y-17191936D02*
X18572563Y-17182412D01*
X18734468Y-17277650D02*
X18734468Y-17410984D01*
X18686849Y-17201460D02*
X18639230Y-17344317D01*
X18639230Y-17344317D02*
X18763039Y-17344317D01*
X18991611Y-17410984D02*
X18991611Y-17210984D01*
X19077325Y-17410984D02*
X19077325Y-17306222D01*
X19077325Y-17306222D02*
X19067801Y-17287174D01*
X19067801Y-17287174D02*
X19048753Y-17277650D01*
X19048753Y-17277650D02*
X19020182Y-17277650D01*
X19020182Y-17277650D02*
X19001134Y-17287174D01*
X19001134Y-17287174D02*
X18991611Y-17296698D01*
X19201134Y-17410984D02*
X19182087Y-17401460D01*
X19182087Y-17401460D02*
X19172563Y-17391936D01*
X19172563Y-17391936D02*
X19163039Y-17372889D01*
X19163039Y-17372889D02*
X19163039Y-17315746D01*
X19163039Y-17315746D02*
X19172563Y-17296698D01*
X19172563Y-17296698D02*
X19182087Y-17287174D01*
X19182087Y-17287174D02*
X19201134Y-17277650D01*
X19201134Y-17277650D02*
X19229706Y-17277650D01*
X19229706Y-17277650D02*
X19248753Y-17287174D01*
X19248753Y-17287174D02*
X19258277Y-17296698D01*
X19258277Y-17296698D02*
X19267801Y-17315746D01*
X19267801Y-17315746D02*
X19267801Y-17372889D01*
X19267801Y-17372889D02*
X19258277Y-17391936D01*
X19258277Y-17391936D02*
X19248753Y-17401460D01*
X19248753Y-17401460D02*
X19229706Y-17410984D01*
X19229706Y-17410984D02*
X19201134Y-17410984D01*
X19382087Y-17410984D02*
X19363039Y-17401460D01*
X19363039Y-17401460D02*
X19353515Y-17382412D01*
X19353515Y-17382412D02*
X19353515Y-17210984D01*
X19534468Y-17401460D02*
X19515420Y-17410984D01*
X19515420Y-17410984D02*
X19477325Y-17410984D01*
X19477325Y-17410984D02*
X19458277Y-17401460D01*
X19458277Y-17401460D02*
X19448753Y-17382412D01*
X19448753Y-17382412D02*
X19448753Y-17306222D01*
X19448753Y-17306222D02*
X19458277Y-17287174D01*
X19458277Y-17287174D02*
X19477325Y-17277650D01*
X19477325Y-17277650D02*
X19515420Y-17277650D01*
X19515420Y-17277650D02*
X19534468Y-17287174D01*
X19534468Y-17287174D02*
X19543992Y-17306222D01*
X19543992Y-17306222D02*
X19543992Y-17325270D01*
X19543992Y-17325270D02*
X19448753Y-17344317D01*
X19620182Y-17401460D02*
X19639230Y-17410984D01*
X19639230Y-17410984D02*
X19677325Y-17410984D01*
X19677325Y-17410984D02*
X19696373Y-17401460D01*
X19696373Y-17401460D02*
X19705896Y-17382412D01*
X19705896Y-17382412D02*
X19705896Y-17372889D01*
X19705896Y-17372889D02*
X19696373Y-17353841D01*
X19696373Y-17353841D02*
X19677325Y-17344317D01*
X19677325Y-17344317D02*
X19648753Y-17344317D01*
X19648753Y-17344317D02*
X19629706Y-17334793D01*
X19629706Y-17334793D02*
X19620182Y-17315746D01*
X19620182Y-17315746D02*
X19620182Y-17306222D01*
X19620182Y-17306222D02*
X19629706Y-17287174D01*
X19629706Y-17287174D02*
X19648753Y-17277650D01*
X19648753Y-17277650D02*
X19677325Y-17277650D01*
X19677325Y-17277650D02*
X19696373Y-17287174D01*
X19772563Y-17487174D02*
X19782087Y-17477650D01*
X19782087Y-17477650D02*
X19801134Y-17449079D01*
X19801134Y-17449079D02*
X19810658Y-17430031D01*
X19810658Y-17430031D02*
X19820182Y-17401460D01*
X19820182Y-17401460D02*
X19829706Y-17353841D01*
X19829706Y-17353841D02*
X19829706Y-17315746D01*
X19829706Y-17315746D02*
X19820182Y-17268127D01*
X19820182Y-17268127D02*
X19810658Y-17239555D01*
X19810658Y-17239555D02*
X19801134Y-17220508D01*
X19801134Y-17220508D02*
X19782087Y-17191936D01*
X19782087Y-17191936D02*
X19772563Y-17182412D01*
M02*
