%TF.GenerationSoftware,KiCad,Pcbnew,8.0.7*%
%TF.CreationDate,2025-08-30T11:06:04-07:00*%
%TF.ProjectId,Pivot_Core,5069766f-745f-4436-9f72-652e6b696361,rev?*%
%TF.SameCoordinates,Original*%
%TF.FileFunction,Copper,L4,Inr*%
%TF.FilePolarity,Positive*%
%FSLAX46Y46*%
G04 Gerber Fmt 4.6, Leading zero omitted, Abs format (unit mm)*
G04 Created by KiCad (PCBNEW 8.0.7) date 2025-08-30 11:06:04*
%MOMM*%
%LPD*%
G01*
G04 APERTURE LIST*
%TA.AperFunction,ComponentPad*%
%ADD10C,3.800000*%
%TD*%
%TA.AperFunction,ComponentPad*%
%ADD11C,0.500000*%
%TD*%
%TA.AperFunction,ViaPad*%
%ADD12C,0.500000*%
%TD*%
%TA.AperFunction,ViaPad*%
%ADD13C,0.400000*%
%TD*%
%TA.AperFunction,Conductor*%
%ADD14C,0.100000*%
%TD*%
G04 APERTURE END LIST*
D10*
%TO.N,GND*%
%TO.C,H1*%
X132500000Y-80500000D03*
%TD*%
%TO.N,GND*%
%TO.C,H2*%
X132500000Y-99500000D03*
%TD*%
%TO.N,GND*%
%TO.C,H4*%
X162500000Y-99500000D03*
%TD*%
D11*
%TO.N,GND*%
%TO.C,U7*%
X135420000Y-92730000D03*
X134870000Y-93680000D03*
X134870000Y-91780000D03*
X134320000Y-92730000D03*
%TD*%
%TO.N,GND*%
%TO.C,U5*%
X135420000Y-87260089D03*
X134870000Y-88210089D03*
X134870000Y-86310089D03*
X134320000Y-87260089D03*
%TD*%
D10*
%TO.N,GND*%
%TO.C,H3*%
X162500000Y-80500000D03*
%TD*%
D12*
%TO.N,GND*%
X158505735Y-82338750D03*
X138900000Y-101200000D03*
D13*
X150746675Y-78747977D03*
D12*
X161480000Y-88770000D03*
X163990000Y-93040000D03*
X135520000Y-85750000D03*
X137700000Y-89200000D03*
X144900000Y-98600000D03*
X130500000Y-97000000D03*
D13*
X154320000Y-91340000D03*
D12*
X160660000Y-84320000D03*
X162235000Y-88770000D03*
X154910000Y-98480000D03*
X160725000Y-88770000D03*
X130500000Y-85000000D03*
X130500000Y-89000000D03*
X152030000Y-97410000D03*
X164275000Y-95590000D03*
X156340000Y-82560000D03*
X143300000Y-98600000D03*
D13*
X148450000Y-96992893D03*
D12*
X145635760Y-85364240D03*
X144414304Y-85364240D03*
D13*
X157779999Y-92940919D03*
D12*
X136700000Y-90600000D03*
D13*
X144740000Y-101610000D03*
D12*
X145270000Y-94560000D03*
D13*
X155120000Y-91340000D03*
D12*
X148900000Y-92000000D03*
X158240000Y-89730000D03*
X158330000Y-84120000D03*
X135700000Y-90600000D03*
X146080000Y-86520000D03*
D13*
X153520000Y-91340000D03*
D12*
X140836446Y-93363554D03*
X136700000Y-89200000D03*
X144100000Y-98600000D03*
X134260000Y-84150000D03*
X131900000Y-90800000D03*
X131900000Y-90000000D03*
D13*
X150530000Y-82700000D03*
D12*
X161390000Y-85050000D03*
X137700000Y-90600000D03*
X130500000Y-83000000D03*
X134900000Y-101200000D03*
X135700000Y-89200000D03*
X136900000Y-101200000D03*
X136550000Y-81250000D03*
X162900000Y-95800000D03*
X137880000Y-92990000D03*
X161710000Y-96020000D03*
X130500000Y-91000000D03*
X130500000Y-95000000D03*
X134190000Y-95700000D03*
X159220000Y-93300000D03*
X159950000Y-86900000D03*
X138072384Y-87300913D03*
X131900000Y-89200000D03*
X162900000Y-96800000D03*
X140900000Y-101200000D03*
X143010000Y-101210000D03*
X140813554Y-91806446D03*
D13*
X135150000Y-90470000D03*
D12*
X140760000Y-99190000D03*
X142300000Y-91600000D03*
D13*
%TO.N,DVCC_Core*%
X156720000Y-92140000D03*
D12*
X158280000Y-95190000D03*
D13*
X150370000Y-85990000D03*
X154320000Y-89740000D03*
X155120000Y-89740000D03*
D12*
X164000000Y-90580000D03*
X158600000Y-97860000D03*
X164630000Y-93540000D03*
X160620000Y-85990000D03*
D13*
X152720000Y-89740000D03*
D12*
X146220000Y-98010000D03*
X159140000Y-85990000D03*
D13*
X153520000Y-89740000D03*
D12*
X159890000Y-86000000D03*
%TO.N,5V_VIN*%
X143600000Y-85240000D03*
X138080000Y-86460000D03*
X136540000Y-79570000D03*
X157750000Y-80410000D03*
X142900000Y-85230000D03*
X137270000Y-78810000D03*
X141100000Y-79980000D03*
X157740000Y-78780000D03*
D13*
X143750000Y-84000000D03*
D12*
X141100000Y-79250000D03*
X141090000Y-78520000D03*
X158490000Y-78780000D03*
X135780000Y-78810000D03*
D13*
X142750000Y-84000000D03*
D12*
X137280000Y-80350000D03*
X159230000Y-80410000D03*
X158500000Y-79540000D03*
X157750000Y-79540000D03*
X136530000Y-78810000D03*
X135790000Y-79570000D03*
X159240000Y-79540000D03*
X137280000Y-79570000D03*
X135800000Y-80350000D03*
X138293093Y-93615985D03*
D13*
X143250000Y-84000000D03*
D12*
X159230000Y-78780000D03*
D13*
%TO.N,TEMP_Sense*%
X156248151Y-83741347D03*
X158150000Y-88720000D03*
%TO.N,Buzzer_PWM*%
X139720000Y-94680000D03*
X151119999Y-92143037D03*
D12*
%TO.N,AVCC*%
X156290000Y-84390001D03*
X157950000Y-87860000D03*
D13*
%TO.N,QSPI_IO0*%
X140580000Y-86400000D03*
X154320000Y-88140000D03*
%TO.N,QSPI_IO3*%
X140580000Y-88940000D03*
X153497490Y-88940001D03*
%TO.N,QSPI_CLK*%
X140580000Y-87670000D03*
X154320000Y-88940000D03*
%TO.N,QSPI_IO2*%
X153920000Y-86060000D03*
X147690000Y-87670000D03*
%TO.N,QSPI_IO1*%
X154320000Y-87340000D03*
X147755685Y-88940001D03*
%TO.N,QSPI_CS*%
X151920000Y-93762505D03*
X148050000Y-90380000D03*
D12*
%TO.N,DVCC_Periph*%
X146200000Y-94490000D03*
X132780000Y-90520000D03*
X142940000Y-94470000D03*
X132780000Y-85070000D03*
X141240000Y-85040000D03*
X139760000Y-85040000D03*
X140510000Y-85050000D03*
X140025000Y-92707892D03*
D13*
%TO.N,FDCAN1_RX*%
X138869948Y-93915553D03*
X155120000Y-93740000D03*
%TO.N,FDCAN1_TX*%
X154730000Y-94830000D03*
X136890000Y-93780000D03*
%TO.N,NRST*%
X158030000Y-90830000D03*
X153871336Y-95461217D03*
%TO.N,BOOT0*%
X154802406Y-97170000D03*
X154320000Y-92140000D03*
%TO.N,CAN1+*%
X145447488Y-97947488D03*
X131185000Y-93080000D03*
%TO.N,CAN1-*%
X131185000Y-92380000D03*
X144952512Y-97452512D03*
%TO.N,FDCAN2_TX*%
X154320000Y-93740000D03*
X139070000Y-86660000D03*
%TO.N,FDCAN2_RX*%
X154320000Y-92940000D03*
X139060000Y-85990000D03*
D12*
%TO.N,Net-(BT1-+)*%
X158500000Y-99600000D03*
X139050000Y-100110000D03*
X158510000Y-98880000D03*
X138400000Y-99777500D03*
D13*
%TO.N,Net-(C22-Pad2)*%
X151120000Y-89740000D03*
%TO.N,USB_D-*%
X149320000Y-92615000D03*
%TO.N,IMU_INT1*%
X150342509Y-88140000D03*
X142950000Y-93148185D03*
%TO.N,USB_D+*%
X149320000Y-93265000D03*
%TO.N,IMU_INT2*%
X146790000Y-93382500D03*
X151920000Y-92151105D03*
%TO.N,Net-(U1-VBAT)*%
X156720000Y-93740000D03*
%TO.N,I2C4_SDA*%
X144746675Y-78747977D03*
%TO.N,I2C3_SCL*%
X150579988Y-97794257D03*
X150303827Y-92133928D03*
%TO.N,I2C4_SCL*%
X145248047Y-78521861D03*
%TO.N,I2C3_SDA*%
X150930000Y-97370000D03*
X150297493Y-91340002D03*
%TO.N,ETH_TX_EN*%
X152320000Y-86250000D03*
%TO.N,ETH_MDIO*%
X157120000Y-86120000D03*
%TO.N,UART1_TX*%
X144250527Y-78510617D03*
%TO.N,ETH_RXD0*%
X155120000Y-88940000D03*
%TO.N,ETH_RXD1*%
X155120000Y-88140000D03*
%TO.N,SPI2_MOSI*%
X146258047Y-101241861D03*
X155920000Y-90540000D03*
%TO.N,ETH_TXD0*%
X151520000Y-86250000D03*
%TO.N,SPI1_MISO*%
X155732175Y-85613818D03*
X149750308Y-78739272D03*
%TO.N,SPI2_MISO*%
X156719999Y-91339999D03*
X145758059Y-101471022D03*
%TO.N,ETH_TXD1*%
X151120000Y-87340000D03*
%TO.N,UART6_RX*%
X142750000Y-78740000D03*
%TO.N,SPI1_MOSI*%
X150250527Y-78510617D03*
X152720000Y-92140000D03*
%TO.N,SPI2_CS*%
X157620000Y-91290003D03*
X146740000Y-101520000D03*
%TO.N,UART1_RX*%
X143750308Y-78739272D03*
%TO.N,SPI1_CS*%
X152720000Y-91362509D03*
X148750000Y-78740000D03*
%TO.N,UART3_TX*%
X146259988Y-78510839D03*
%TO.N,UART4_RX*%
X151942507Y-91340000D03*
%TO.N,ETH_REF_CLK*%
X156720000Y-88140000D03*
%TO.N,UART8_TX*%
X143760000Y-101460000D03*
X155120000Y-92940000D03*
%TO.N,UART3_RX*%
X145760000Y-78740000D03*
%TO.N,ETH_CRS_DV*%
X155520000Y-86450000D03*
%TO.N,UART8_RX*%
X144300000Y-101150000D03*
X155120000Y-92140000D03*
%TO.N,UART4_TX*%
X151097495Y-91340000D03*
%TO.N,UART6_TX*%
X143249988Y-78510839D03*
%TO.N,LED_GREEN*%
X141600000Y-81560000D03*
X152725000Y-92925000D03*
%TO.N,PC8_TIM3_CH3*%
X150320000Y-89740000D03*
%TO.N,PB7_TIM4_CH2*%
X153930000Y-94800000D03*
X148748059Y-101471022D03*
%TO.N,PB0_ADC2_INP9*%
X151747008Y-78753250D03*
%TO.N,PC13_GPIO*%
X150757520Y-101471244D03*
X156720001Y-94539999D03*
%TO.N,PB1_ADC1_INP5*%
X151248047Y-78521861D03*
%TO.N,PE5_TIM15_CH1*%
X151257739Y-101242589D03*
X155920000Y-92140000D03*
%TO.N,PD14_TIM4_CH3*%
X151120000Y-88140000D03*
%TO.N,PA3_ADC1_INP15*%
X152300000Y-82790000D03*
X156320000Y-86199999D03*
%TO.N,SWDIO*%
X148550000Y-97664667D03*
X149300000Y-94650000D03*
%TO.N,PE4_GPIO*%
X149248047Y-101241861D03*
X155920000Y-92940000D03*
%TO.N,PD15_TIM4_CH4*%
X151120000Y-88940000D03*
%TO.N,PE6_TIM15_CH2*%
X155920000Y-91340000D03*
%TO.N,PA15_TIM2_CH1*%
X147251372Y-101233884D03*
X151119859Y-93717645D03*
%TO.N,PA4_ADC2_INP18*%
X155920000Y-88940000D03*
X151710985Y-82780000D03*
%TO.N,SWCLK*%
X151034315Y-94649999D03*
X148549998Y-98214669D03*
%TO.N,PE2_GPIO*%
X155920000Y-94540000D03*
X149760000Y-101460000D03*
%TO.N,PE3_GPIO*%
X155920000Y-93740000D03*
X150261372Y-101233884D03*
%TO.N,PB3_TIM2_CH2*%
X152320000Y-94680000D03*
X147747520Y-101471244D03*
%TO.N,PC15_GPIO*%
X151758059Y-101471022D03*
X157960001Y-93739999D03*
%TO.N,PA0_ADC1_INP16*%
X152250151Y-78531103D03*
X157750000Y-89160000D03*
%TO.N,PA10_TIM1_CH3*%
X148980000Y-91310000D03*
%TO.N,CAN2+*%
X131185000Y-87610089D03*
X144625000Y-82707999D03*
%TO.N,CAN2-*%
X131185000Y-86910089D03*
X145375000Y-82707999D03*
%TO.N,ETH_MDC*%
X156720000Y-89740000D03*
%TO.N,SPI4_MOSI*%
X147260527Y-78510617D03*
%TO.N,SPI4_CS*%
X146760308Y-78739272D03*
%TO.N,SPI4_MISO*%
X147756675Y-78747977D03*
%TO.N,SPI4_CLK*%
X148270000Y-78470000D03*
%TO.N,PE11_GPIO*%
X153497493Y-88140000D03*
X151150000Y-82680000D03*
%TO.N,PE15_GPIO*%
X151920000Y-88140000D03*
X148247739Y-101242589D03*
%TO.N,PD11_GPIO*%
X150342509Y-88940000D03*
%TO.N,SPI1_CLK*%
X155920000Y-88140000D03*
X149249988Y-78510839D03*
%TO.N,SPI2_CLK*%
X145257739Y-101242589D03*
X151920000Y-92940000D03*
%TO.N,Net-(C23-Pad2)*%
X151931090Y-90574617D03*
%TD*%
D14*
%TO.N,QSPI_IO0*%
X151520000Y-88774314D02*
X151285686Y-88540000D01*
X154320000Y-88259240D02*
X153920000Y-88659240D01*
X151520000Y-89105686D02*
X151520000Y-88774314D01*
X149685686Y-89340000D02*
X143520000Y-89340000D01*
X150154314Y-88540000D02*
X149920000Y-88774314D01*
X153920000Y-88659240D02*
X153920000Y-89083177D01*
X149920000Y-88774314D02*
X149920000Y-89105686D01*
X151754314Y-89340000D02*
X151520000Y-89105686D01*
X149920000Y-89105686D02*
X149685686Y-89340000D01*
X151285686Y-88540000D02*
X150154314Y-88540000D01*
X153920000Y-89083177D02*
X153663177Y-89340000D01*
X154320000Y-88140000D02*
X154320000Y-88259240D01*
X153663177Y-89340000D02*
X151754314Y-89340000D01*
X143520000Y-89340000D02*
X140580000Y-86400000D01*
%TO.N,QSPI_IO3*%
X153670000Y-88533179D02*
X153897493Y-88305686D01*
X152576823Y-90962509D02*
X152331090Y-90716776D01*
X152085687Y-90140001D02*
X149950001Y-90140001D01*
X154154314Y-87740000D02*
X154485686Y-87740000D01*
X152331090Y-90716776D02*
X152331090Y-90385404D01*
X154485686Y-87740000D02*
X154720000Y-87974314D01*
X141500000Y-89860000D02*
X140580000Y-88940000D01*
X149670000Y-89860000D02*
X141500000Y-89860000D01*
X149950001Y-90140001D02*
X149670000Y-89860000D01*
X154720000Y-89910000D02*
X154240000Y-90390000D01*
X152923177Y-90962509D02*
X152576823Y-90962509D01*
X152331090Y-90385404D02*
X152085687Y-90140001D01*
X153670000Y-88767491D02*
X153670000Y-88533179D01*
X154720000Y-87974314D02*
X154720000Y-89910000D01*
X154240000Y-90390000D02*
X153495686Y-90390000D01*
X153495686Y-90390000D02*
X152923177Y-90962509D01*
X153897493Y-88305686D02*
X153897493Y-87996821D01*
X153497490Y-88940001D02*
X153670000Y-88767491D01*
X153897493Y-87996821D02*
X154154314Y-87740000D01*
%TO.N,QSPI_CLK*%
X149769240Y-89610000D02*
X142520000Y-89610000D01*
X153920000Y-89905686D02*
X153685686Y-90140000D01*
X151290000Y-89340000D02*
X150039240Y-89340000D01*
X151840000Y-89890000D02*
X151290000Y-89340000D01*
X154320000Y-89174314D02*
X153920000Y-89574314D01*
X150039240Y-89340000D02*
X149769240Y-89610000D01*
X154320000Y-88940000D02*
X154320000Y-89174314D01*
X153685686Y-90140000D02*
X152439240Y-90140000D01*
X153920000Y-89574314D02*
X153920000Y-89905686D01*
X142520000Y-89610000D02*
X140580000Y-87670000D01*
X152439240Y-90140000D02*
X152189240Y-89890000D01*
X152189240Y-89890000D02*
X151840000Y-89890000D01*
%TO.N,QSPI_IO2*%
X149782000Y-84440000D02*
X149720000Y-84440000D01*
X151766000Y-83844000D02*
X151766000Y-84440000D01*
X152076000Y-84440000D02*
X152076000Y-83844000D01*
X151766000Y-84440000D02*
X151766000Y-84525000D01*
X150092000Y-83720000D02*
X150030000Y-83720000D01*
X150712000Y-83720000D02*
X150650000Y-83720000D01*
X150216000Y-84586000D02*
X150216000Y-84440000D01*
X152301000Y-84610000D02*
X152161000Y-84610000D01*
X151456000Y-84440000D02*
X151456000Y-83844000D01*
X149906000Y-83844000D02*
X149906000Y-84316000D01*
X151146000Y-83844000D02*
X151146000Y-84440000D01*
X153070000Y-84440000D02*
X152820000Y-84440000D01*
X152696000Y-84316000D02*
X152696000Y-83844000D01*
X153920000Y-86060000D02*
X153920000Y-85290000D01*
X153920000Y-85290000D02*
X153070000Y-84440000D01*
X150836000Y-84550000D02*
X150836000Y-84440000D01*
X150526000Y-84440000D02*
X150526000Y-84586000D01*
X150216000Y-84316000D02*
X150216000Y-83844000D01*
X149360000Y-84440000D02*
X149510000Y-84440000D01*
X152076000Y-84525000D02*
X152076000Y-84440000D01*
X150216000Y-84440000D02*
X150216000Y-84316000D01*
X151681000Y-84610000D02*
X151541000Y-84610000D01*
X151952000Y-83720000D02*
X151890000Y-83720000D01*
X152572000Y-83720000D02*
X152510000Y-83720000D01*
X150526000Y-83844000D02*
X150526000Y-84440000D01*
X147690000Y-87670000D02*
X147690000Y-86110000D01*
X151456000Y-84525000D02*
X151456000Y-84440000D01*
X147690000Y-86110000D02*
X149360000Y-84440000D01*
X152386000Y-83844000D02*
X152386000Y-84316000D01*
X150402000Y-84710000D02*
X150340000Y-84710000D01*
X151332000Y-83720000D02*
X151270000Y-83720000D01*
X150836000Y-84440000D02*
X150836000Y-83844000D01*
X152386000Y-84440000D02*
X152386000Y-84525000D01*
X151146000Y-84440000D02*
X151146000Y-84550000D01*
X151036000Y-84660000D02*
X150946000Y-84660000D01*
X152386000Y-84316000D02*
X152386000Y-84440000D01*
X149720000Y-84440000D02*
X149510000Y-84440000D01*
X151270000Y-83720000D02*
G75*
G03*
X151146000Y-83844000I0J-124000D01*
G01*
X150030000Y-83720000D02*
G75*
G03*
X149906000Y-83844000I0J-124000D01*
G01*
X150340000Y-84710000D02*
G75*
G02*
X150216000Y-84586000I0J124000D01*
G01*
X152696000Y-83844000D02*
G75*
G03*
X152572000Y-83720000I-124000J0D01*
G01*
X150526000Y-84586000D02*
G75*
G02*
X150402000Y-84710000I-124000J0D01*
G01*
X150216000Y-83844000D02*
G75*
G03*
X150092000Y-83720000I-124000J0D01*
G01*
X150946000Y-84660000D02*
G75*
G02*
X150836000Y-84550000I0J110000D01*
G01*
X150650000Y-83720000D02*
G75*
G03*
X150526000Y-83844000I0J-124000D01*
G01*
X152820000Y-84440000D02*
G75*
G02*
X152696000Y-84316000I0J124000D01*
G01*
X152076000Y-83844000D02*
G75*
G03*
X151952000Y-83720000I-124000J0D01*
G01*
X152161000Y-84610000D02*
G75*
G02*
X152076000Y-84525000I0J85000D01*
G01*
X149906000Y-84316000D02*
G75*
G02*
X149782000Y-84440000I-124000J0D01*
G01*
X150836000Y-83844000D02*
G75*
G03*
X150712000Y-83720000I-124000J0D01*
G01*
X151890000Y-83720000D02*
G75*
G03*
X151766000Y-83844000I0J-124000D01*
G01*
X151456000Y-83844000D02*
G75*
G03*
X151332000Y-83720000I-124000J0D01*
G01*
X151766000Y-84525000D02*
G75*
G02*
X151681000Y-84610000I-85000J0D01*
G01*
X151146000Y-84550000D02*
G75*
G02*
X151036000Y-84660000I-110000J0D01*
G01*
X152510000Y-83720000D02*
G75*
G03*
X152386000Y-83844000I0J-124000D01*
G01*
X152386000Y-84525000D02*
G75*
G02*
X152301000Y-84610000I-85000J0D01*
G01*
X151541000Y-84610000D02*
G75*
G02*
X151456000Y-84525000I0J85000D01*
G01*
%TO.N,QSPI_IO1*%
X153520000Y-86540000D02*
X153520000Y-85640000D01*
X150794000Y-85046000D02*
X150794000Y-85234000D01*
X147755685Y-88940001D02*
X148290000Y-88405686D01*
X151954000Y-85350000D02*
X151954000Y-85704000D01*
X152534000Y-84996000D02*
X152534000Y-85350000D01*
X151258000Y-85820000D02*
X151200000Y-85820000D01*
X153249584Y-85369584D02*
X153230000Y-85350000D01*
X154320000Y-87340000D02*
X153520000Y-86540000D01*
X151084000Y-85234000D02*
X151084000Y-85046000D01*
X151374000Y-85350000D02*
X151374000Y-85704000D01*
X152708000Y-84880000D02*
X152650000Y-84880000D01*
X151664000Y-85704000D02*
X151664000Y-85350000D01*
X153114000Y-85466000D02*
X153114000Y-85704000D01*
X152418000Y-85820000D02*
X152360000Y-85820000D01*
X151084000Y-85350000D02*
X151084000Y-85234000D01*
X152244000Y-85704000D02*
X152244000Y-85350000D01*
X152128000Y-84880000D02*
X152070000Y-84880000D01*
X152824000Y-85350000D02*
X152824000Y-84996000D01*
X151374000Y-84996000D02*
X151374000Y-85350000D01*
X152998000Y-85820000D02*
X152940000Y-85820000D01*
X150678000Y-85350000D02*
X150620000Y-85350000D01*
X148290000Y-86740000D02*
X149680000Y-85350000D01*
X152824000Y-85704000D02*
X152824000Y-85466000D01*
X152824000Y-85466000D02*
X152824000Y-85350000D01*
X151838000Y-85820000D02*
X151780000Y-85820000D01*
X150620000Y-85350000D02*
X150460000Y-85350000D01*
X151954000Y-84996000D02*
X151954000Y-85350000D01*
X152534000Y-85350000D02*
X152534000Y-85704000D01*
X153520000Y-85640000D02*
X153490000Y-85610000D01*
X151548000Y-84880000D02*
X151490000Y-84880000D01*
X148290000Y-88405686D02*
X148290000Y-86740000D01*
X150968000Y-84930000D02*
X150910000Y-84930000D01*
X153490000Y-85610000D02*
X153249584Y-85369584D01*
X149680000Y-85350000D02*
X150460000Y-85350000D01*
X151084000Y-85704000D02*
X151084000Y-85350000D01*
X151664000Y-85350000D02*
X151664000Y-84996000D01*
X152244000Y-85350000D02*
X152244000Y-84996000D01*
X152070000Y-84880000D02*
G75*
G03*
X151954000Y-84996000I0J-116000D01*
G01*
X151490000Y-84880000D02*
G75*
G03*
X151374000Y-84996000I0J-116000D01*
G01*
X151954000Y-85704000D02*
G75*
G02*
X151838000Y-85820000I-116000J0D01*
G01*
X152244000Y-84996000D02*
G75*
G03*
X152128000Y-84880000I-116000J0D01*
G01*
X150910000Y-84930000D02*
G75*
G03*
X150794000Y-85046000I0J-116000D01*
G01*
X151084000Y-85046000D02*
G75*
G03*
X150968000Y-84930000I-116000J0D01*
G01*
X153230000Y-85350000D02*
G75*
G03*
X153114000Y-85466000I0J-116000D01*
G01*
X152940000Y-85820000D02*
G75*
G02*
X152824000Y-85704000I0J116000D01*
G01*
X152360000Y-85820000D02*
G75*
G02*
X152244000Y-85704000I0J116000D01*
G01*
X151664000Y-84996000D02*
G75*
G03*
X151548000Y-84880000I-116000J0D01*
G01*
X153114000Y-85704000D02*
G75*
G02*
X152998000Y-85820000I-116000J0D01*
G01*
X151200000Y-85820000D02*
G75*
G02*
X151084000Y-85704000I0J116000D01*
G01*
X152824000Y-84996000D02*
G75*
G03*
X152708000Y-84880000I-116000J0D01*
G01*
X151374000Y-85704000D02*
G75*
G02*
X151258000Y-85820000I-116000J0D01*
G01*
X150794000Y-85234000D02*
G75*
G02*
X150678000Y-85350000I-116000J0D01*
G01*
X152534000Y-85704000D02*
G75*
G02*
X152418000Y-85820000I-116000J0D01*
G01*
X152650000Y-84880000D02*
G75*
G03*
X152534000Y-84996000I0J-116000D01*
G01*
X151780000Y-85820000D02*
G75*
G02*
X151664000Y-85704000I0J116000D01*
G01*
%TO.N,QSPI_CS*%
X149505000Y-90925000D02*
X148960000Y-90380000D01*
X149505000Y-92035000D02*
X149505000Y-90925000D01*
X151920000Y-93762505D02*
X151267495Y-93110000D01*
X148960000Y-90380000D02*
X148050000Y-90380000D01*
X151267495Y-93110000D02*
X150580000Y-93110000D01*
X150580000Y-93110000D02*
X149505000Y-92035000D01*
%TO.N,FDCAN1_RX*%
X154050000Y-95910000D02*
X154330000Y-95630000D01*
X139880000Y-95910000D02*
X154050000Y-95910000D01*
X154330000Y-95630000D02*
X154330000Y-94530000D01*
X154330000Y-94530000D02*
X155120000Y-93740000D01*
X138869948Y-94899948D02*
X139880000Y-95910000D01*
X138869948Y-93915553D02*
X138869948Y-94899948D01*
%TO.N,FDCAN1_TX*%
X154730000Y-95780000D02*
X154260000Y-96250000D01*
X154730000Y-94900000D02*
X154730000Y-95780000D01*
X154260000Y-96250000D02*
X139360000Y-96250000D01*
X139360000Y-96250000D02*
X136890000Y-93780000D01*
%TO.N,CAN1+*%
X139304644Y-97947488D02*
X136347156Y-94990000D01*
X132017156Y-92930000D02*
X131335000Y-92930000D01*
X136347156Y-94990000D02*
X134077156Y-94990000D01*
X134077156Y-94990000D02*
X132017156Y-92930000D01*
X131335000Y-92930000D02*
X131185000Y-93080000D01*
X145447488Y-97947488D02*
X139304644Y-97947488D01*
%TO.N,CAN1-*%
X132182844Y-92530000D02*
X131335000Y-92530000D01*
X144952512Y-97452512D02*
X144857536Y-97547488D01*
X136512844Y-94590000D02*
X134242844Y-94590000D01*
X139470332Y-97547488D02*
X136512844Y-94590000D01*
X131335000Y-92530000D02*
X131185000Y-92380000D01*
X134242844Y-94590000D02*
X132182844Y-92530000D01*
X144857536Y-97547488D02*
X139470332Y-97547488D01*
%TO.N,FDCAN2_TX*%
X152530000Y-95530000D02*
X142140000Y-95530000D01*
X142140000Y-95530000D02*
X139070000Y-92460000D01*
X154320000Y-93740000D02*
X152530000Y-95530000D01*
X139070000Y-92460000D02*
X139070000Y-86660000D01*
%TO.N,FDCAN2_RX*%
X145600000Y-93900000D02*
X146741814Y-93900000D01*
X153010000Y-94250000D02*
X154320000Y-92940000D01*
X147091814Y-94250000D02*
X153010000Y-94250000D01*
X140180000Y-87110000D02*
X140180000Y-91900000D01*
X142160000Y-93880000D02*
X145580000Y-93880000D01*
X140180000Y-91900000D02*
X142160000Y-93880000D01*
X139060000Y-85990000D02*
X140180000Y-87110000D01*
X145580000Y-93880000D02*
X145600000Y-93900000D01*
X146741814Y-93900000D02*
X147091814Y-94250000D01*
%TO.N,SPI2_MOSI*%
X157540000Y-97900000D02*
X154990000Y-100450000D01*
X146730000Y-100450000D02*
X146258047Y-100921953D01*
X146258047Y-100921953D02*
X146258047Y-101241861D01*
X158390000Y-94370000D02*
X157540000Y-95220000D01*
X157540000Y-95220000D02*
X157540000Y-97900000D01*
X158390000Y-92630000D02*
X158390000Y-94370000D01*
X154990000Y-100450000D02*
X146730000Y-100450000D01*
X157120000Y-90900000D02*
X157120000Y-91360000D01*
X156790000Y-90570000D02*
X157120000Y-90900000D01*
X155920000Y-90570000D02*
X156790000Y-90570000D01*
X157120000Y-91360000D02*
X158390000Y-92630000D01*
%TO.N,SPI1_MISO*%
X151140000Y-81560000D02*
X149750308Y-80170308D01*
X154310000Y-84191643D02*
X154310000Y-83160000D01*
X149750308Y-80170308D02*
X149750308Y-78739272D01*
X155732175Y-85613818D02*
X154310000Y-84191643D01*
X154310000Y-83160000D02*
X152710000Y-81560000D01*
X152710000Y-81560000D02*
X151140000Y-81560000D01*
%TO.N,SPI2_MISO*%
X156820000Y-95020000D02*
X156820000Y-98080000D01*
X154760000Y-100140000D02*
X146470000Y-100140000D01*
X157370000Y-91990000D02*
X157370000Y-94470000D01*
X156719999Y-91339999D02*
X157370000Y-91990000D01*
X145758059Y-100851941D02*
X145758059Y-101471022D01*
X157370000Y-94470000D02*
X156820000Y-95020000D01*
X156820000Y-98080000D02*
X154760000Y-100140000D01*
X146470000Y-100140000D02*
X145758059Y-100851941D01*
%TO.N,SPI1_MOSI*%
X154780000Y-83080000D02*
X152840000Y-81140000D01*
X156320000Y-87600000D02*
X156720000Y-87200000D01*
X152720000Y-92140000D02*
X153285686Y-92140000D01*
X156720000Y-87200000D02*
X156720000Y-86034314D01*
X156320000Y-89550000D02*
X156320000Y-87600000D01*
X152840000Y-81140000D02*
X151410000Y-81140000D01*
X153920000Y-91505686D02*
X153920000Y-91170000D01*
X154980000Y-90890000D02*
X156320000Y-89550000D01*
X154780000Y-84094314D02*
X154780000Y-83080000D01*
X150250527Y-79980527D02*
X150250527Y-78510617D01*
X153920000Y-91170000D02*
X154200000Y-90890000D01*
X154200000Y-90890000D02*
X154980000Y-90890000D01*
X151410000Y-81140000D02*
X150250527Y-79980527D01*
X153285686Y-92140000D02*
X153920000Y-91505686D01*
X156720000Y-86034314D02*
X154780000Y-84094314D01*
%TO.N,SPI2_CS*%
X158680000Y-94080000D02*
X158680000Y-92350003D01*
X146740000Y-101040000D02*
X147040000Y-100740000D01*
X147040000Y-100740000D02*
X155290000Y-100740000D01*
X146740000Y-101520000D02*
X146740000Y-101040000D01*
X157990000Y-98040000D02*
X157990000Y-97130000D01*
X158680000Y-92350003D02*
X157620000Y-91290003D01*
X155290000Y-100740000D02*
X157990000Y-98040000D01*
X157990000Y-97130000D02*
X159230000Y-95890000D01*
X159230000Y-95890000D02*
X159230000Y-94630000D01*
X159230000Y-94630000D02*
X158680000Y-94080000D01*
%TO.N,SPI1_CS*%
X155520000Y-89905686D02*
X155520000Y-87974314D01*
X148750000Y-80600000D02*
X148750000Y-78740000D01*
X152931805Y-91362509D02*
X153654314Y-90640000D01*
X154320000Y-86774314D02*
X154320000Y-85260000D01*
X150430000Y-82280000D02*
X148750000Y-80600000D01*
X155520000Y-87974314D02*
X154320000Y-86774314D01*
X152375686Y-82280000D02*
X150430000Y-82280000D01*
X153654314Y-90640000D02*
X154785686Y-90640000D01*
X153280000Y-84220000D02*
X153280000Y-83184314D01*
X154320000Y-85260000D02*
X153280000Y-84220000D01*
X152720000Y-91362509D02*
X152931805Y-91362509D01*
X153280000Y-83184314D02*
X152375686Y-82280000D01*
X154785686Y-90640000D02*
X155520000Y-89905686D01*
%TO.N,UART8_TX*%
X151560000Y-98970000D02*
X145350000Y-98970000D01*
X145350000Y-98970000D02*
X143760000Y-100560000D01*
X155120000Y-92940000D02*
X155520000Y-93340000D01*
X143760000Y-100560000D02*
X143760000Y-101460000D01*
X152810000Y-97720000D02*
X151560000Y-98970000D01*
X155170000Y-96200000D02*
X153650000Y-97720000D01*
X155520000Y-93340000D02*
X155520000Y-93910000D01*
X155170000Y-94260000D02*
X155170000Y-96200000D01*
X153650000Y-97720000D02*
X152810000Y-97720000D01*
X155520000Y-93910000D02*
X155170000Y-94260000D01*
%TO.N,UART8_RX*%
X155490000Y-97048092D02*
X155490000Y-94404314D01*
X152921908Y-98298092D02*
X154240000Y-98298092D01*
X156085686Y-92540000D02*
X155520000Y-92540000D01*
X151860000Y-99360000D02*
X152921908Y-98298092D01*
X156320000Y-92774314D02*
X156085686Y-92540000D01*
X144300000Y-101150000D02*
X144300000Y-100630000D01*
X155754314Y-94140000D02*
X156085686Y-94140000D01*
X144300000Y-100630000D02*
X145570000Y-99360000D01*
X155490000Y-94404314D02*
X155754314Y-94140000D01*
X145570000Y-99360000D02*
X151860000Y-99360000D01*
X155520000Y-92540000D02*
X155120000Y-92140000D01*
X154240000Y-98298092D02*
X155490000Y-97048092D01*
X156085686Y-94140000D02*
X156320000Y-93905686D01*
X156320000Y-93905686D02*
X156320000Y-92774314D01*
%TO.N,PA0_ADC1_INP16*%
X155300000Y-84107108D02*
X155300000Y-81670000D01*
X157750000Y-89160000D02*
X157120000Y-88530000D01*
X155300000Y-81670000D02*
X153690000Y-80060000D01*
X152250151Y-79470151D02*
X152250151Y-78531103D01*
X157660000Y-86460000D02*
X157660000Y-86054314D01*
X157165686Y-85560000D02*
X156752892Y-85560000D01*
X153690000Y-80060000D02*
X152840000Y-80060000D01*
X157120000Y-87000000D02*
X157660000Y-86460000D01*
X157120000Y-88530000D02*
X157120000Y-87000000D01*
X152840000Y-80060000D02*
X152250151Y-79470151D01*
X157660000Y-86054314D02*
X157165686Y-85560000D01*
X156752892Y-85560000D02*
X155300000Y-84107108D01*
%TO.N,CAN2+*%
X132532755Y-87460089D02*
X137284845Y-82707999D01*
X137284845Y-82707999D02*
X144625000Y-82707999D01*
X131185000Y-87610089D02*
X131335000Y-87460089D01*
X131335000Y-87460089D02*
X132532755Y-87460089D01*
%TO.N,CAN2-*%
X132367067Y-87060089D02*
X137119157Y-82307999D01*
X131335000Y-87060089D02*
X132367067Y-87060089D01*
X144428248Y-82232999D02*
X144900000Y-82232999D01*
X144353248Y-82307999D02*
X144428248Y-82232999D01*
X144900000Y-82232999D02*
X145375000Y-82707999D01*
X131185000Y-86910089D02*
X131335000Y-87060089D01*
X137119157Y-82307999D02*
X144353248Y-82307999D01*
%TO.N,SPI1_CLK*%
X155120000Y-85534311D02*
X153800000Y-84214311D01*
X153800000Y-84214311D02*
X153800000Y-83190000D01*
X155920000Y-88140000D02*
X155920000Y-87430000D01*
X149249988Y-80399988D02*
X149249988Y-78510839D01*
X153800000Y-83190000D02*
X152500000Y-81890000D01*
X150740000Y-81890000D02*
X149249988Y-80399988D01*
X155920000Y-87430000D02*
X155120000Y-86630000D01*
X152500000Y-81890000D02*
X150740000Y-81890000D01*
X155120000Y-86630000D02*
X155120000Y-85534311D01*
%TO.N,SPI2_CLK*%
X157120000Y-93574314D02*
X157120000Y-93905686D01*
X156085686Y-91740000D02*
X156320000Y-91974314D01*
X156320000Y-91974314D02*
X156320000Y-92420760D01*
X156570000Y-92670760D02*
X156570000Y-93220000D01*
X153450000Y-92444314D02*
X154154314Y-91740000D01*
X156885686Y-94140000D02*
X156554314Y-94140000D01*
X156320000Y-92420760D02*
X156570000Y-92670760D01*
X146120000Y-99830000D02*
X145240000Y-100710000D01*
X151930000Y-92940000D02*
X152500000Y-93510000D01*
X157120000Y-93905686D02*
X156885686Y-94140000D01*
X153020000Y-93510000D02*
X153450000Y-93080000D01*
X156570000Y-93220000D02*
X156690000Y-93340000D01*
X156320000Y-94374314D02*
X156320000Y-98000000D01*
X153450000Y-93080000D02*
X153450000Y-92444314D01*
X156320000Y-98000000D02*
X154490000Y-99830000D01*
X156885686Y-93340000D02*
X157120000Y-93574314D01*
X156554314Y-94140000D02*
X156320000Y-94374314D01*
X145240000Y-100710000D02*
X145240000Y-101224850D01*
X154154314Y-91740000D02*
X156085686Y-91740000D01*
X154490000Y-99830000D02*
X146120000Y-99830000D01*
X156690000Y-93340000D02*
X156885686Y-93340000D01*
X156085686Y-91740000D02*
X156287843Y-91942157D01*
X151920000Y-92940000D02*
X151930000Y-92940000D01*
X145240000Y-101224850D02*
X145257739Y-101242589D01*
X152500000Y-93510000D02*
X153020000Y-93510000D01*
%TD*%
%TA.AperFunction,Conductor*%
%TO.N,GND*%
G36*
X140740001Y-78019685D02*
G01*
X140785756Y-78072489D01*
X140795700Y-78141647D01*
X140766676Y-78205202D01*
X140707118Y-78273937D01*
X140707117Y-78273938D01*
X140653302Y-78391774D01*
X140634867Y-78520000D01*
X140653302Y-78648225D01*
X140704442Y-78760203D01*
X140707118Y-78766063D01*
X140734813Y-78798025D01*
X140744815Y-78809568D01*
X140773839Y-78873124D01*
X140763895Y-78942282D01*
X140744815Y-78971971D01*
X140717120Y-79003932D01*
X140717117Y-79003938D01*
X140663302Y-79121774D01*
X140644867Y-79250000D01*
X140663302Y-79378225D01*
X140717117Y-79496061D01*
X140717118Y-79496063D01*
X140737841Y-79519979D01*
X140749815Y-79533798D01*
X140778839Y-79597354D01*
X140768895Y-79666513D01*
X140749815Y-79696202D01*
X140717118Y-79733937D01*
X140717117Y-79733938D01*
X140663302Y-79851774D01*
X140644867Y-79980000D01*
X140663302Y-80108225D01*
X140715159Y-80221774D01*
X140717118Y-80226063D01*
X140801951Y-80323967D01*
X140910931Y-80394004D01*
X140944427Y-80403839D01*
X141035225Y-80430499D01*
X141035227Y-80430500D01*
X141035228Y-80430500D01*
X141164772Y-80430500D01*
X141198189Y-80420688D01*
X141268057Y-80420688D01*
X141326835Y-80458461D01*
X141355861Y-80522017D01*
X141352898Y-80571757D01*
X141322000Y-80687070D01*
X141322000Y-80812930D01*
X141342517Y-80889500D01*
X141354575Y-80934502D01*
X141354576Y-80934503D01*
X141421569Y-81050538D01*
X141419455Y-81051758D01*
X141440197Y-81105395D01*
X141426166Y-81173841D01*
X141377357Y-81223836D01*
X141372927Y-81226208D01*
X141361658Y-81231950D01*
X141361652Y-81231954D01*
X141271954Y-81321652D01*
X141271951Y-81321657D01*
X141271950Y-81321658D01*
X141252904Y-81359038D01*
X141214352Y-81434698D01*
X141214352Y-81434699D01*
X141194508Y-81559996D01*
X141194508Y-81560003D01*
X141214352Y-81685300D01*
X141214352Y-81685301D01*
X141214354Y-81685304D01*
X141271950Y-81798342D01*
X141271952Y-81798344D01*
X141271954Y-81798347D01*
X141319425Y-81845818D01*
X141352910Y-81907141D01*
X141347926Y-81976833D01*
X141306054Y-82032766D01*
X141240590Y-82057183D01*
X141231744Y-82057499D01*
X137069327Y-82057499D01*
X136977259Y-82095635D01*
X136977258Y-82095636D01*
X132299625Y-86773270D01*
X132238302Y-86806755D01*
X132211944Y-86809589D01*
X131667111Y-86809589D01*
X131600072Y-86789904D01*
X131558216Y-86742922D01*
X131557393Y-86743357D01*
X131555026Y-86738871D01*
X131555024Y-86738868D01*
X131555022Y-86738865D01*
X131555019Y-86738859D01*
X131540932Y-86715939D01*
X131527065Y-86696375D01*
X131517748Y-86680968D01*
X131513050Y-86671747D01*
X131511494Y-86670191D01*
X131506497Y-86665194D01*
X131496069Y-86653344D01*
X131491683Y-86647668D01*
X131491270Y-86647177D01*
X131490445Y-86646195D01*
X131486879Y-86642068D01*
X131486870Y-86642060D01*
X131482897Y-86639220D01*
X131467333Y-86626029D01*
X131423347Y-86582043D01*
X131423344Y-86582041D01*
X131423342Y-86582039D01*
X131310304Y-86524443D01*
X131310303Y-86524442D01*
X131310300Y-86524441D01*
X131185003Y-86504597D01*
X131184997Y-86504597D01*
X131059699Y-86524441D01*
X131059698Y-86524441D01*
X130984337Y-86562840D01*
X130946658Y-86582039D01*
X130946657Y-86582040D01*
X130946652Y-86582043D01*
X130856954Y-86671741D01*
X130856951Y-86671746D01*
X130856950Y-86671747D01*
X130848494Y-86688343D01*
X130799352Y-86784787D01*
X130799352Y-86784788D01*
X130779508Y-86910085D01*
X130779508Y-86910092D01*
X130799352Y-87035389D01*
X130799352Y-87035390D01*
X130817805Y-87071606D01*
X130856950Y-87148431D01*
X130856952Y-87148433D01*
X130856954Y-87148436D01*
X130880926Y-87172408D01*
X130914411Y-87233731D01*
X130909427Y-87303423D01*
X130880926Y-87347770D01*
X130856954Y-87371741D01*
X130856951Y-87371746D01*
X130856950Y-87371747D01*
X130837751Y-87409426D01*
X130799352Y-87484787D01*
X130799352Y-87484788D01*
X130779508Y-87610085D01*
X130779508Y-87610092D01*
X130799352Y-87735389D01*
X130799352Y-87735390D01*
X130815297Y-87766682D01*
X130856950Y-87848431D01*
X130856952Y-87848433D01*
X130856954Y-87848436D01*
X130946652Y-87938134D01*
X130946654Y-87938135D01*
X130946658Y-87938139D01*
X131059696Y-87995735D01*
X131059697Y-87995735D01*
X131059699Y-87995736D01*
X131184997Y-88015581D01*
X131185000Y-88015581D01*
X131185003Y-88015581D01*
X131310300Y-87995736D01*
X131310301Y-87995736D01*
X131310302Y-87995735D01*
X131310304Y-87995735D01*
X131423342Y-87938139D01*
X131513050Y-87848431D01*
X131517754Y-87839198D01*
X131527071Y-87823790D01*
X131540935Y-87804231D01*
X131555049Y-87781260D01*
X131556475Y-87778556D01*
X131556476Y-87778553D01*
X131557418Y-87776768D01*
X131558079Y-87777116D01*
X131603789Y-87727976D01*
X131667111Y-87710589D01*
X132582581Y-87710589D01*
X132582583Y-87710589D01*
X132674652Y-87672453D01*
X135307105Y-85040000D01*
X139304867Y-85040000D01*
X139323302Y-85168225D01*
X139356081Y-85240000D01*
X139377118Y-85286063D01*
X139461951Y-85383967D01*
X139570931Y-85454004D01*
X139680117Y-85486063D01*
X139695225Y-85490499D01*
X139695227Y-85490500D01*
X139695228Y-85490500D01*
X139824773Y-85490500D01*
X139824773Y-85490499D01*
X139949069Y-85454004D01*
X140058049Y-85383967D01*
X140058049Y-85383966D01*
X140061698Y-85381622D01*
X140128738Y-85361938D01*
X140195777Y-85381623D01*
X140209935Y-85392221D01*
X140211947Y-85393964D01*
X140211950Y-85393966D01*
X140211951Y-85393967D01*
X140320931Y-85464004D01*
X140445225Y-85500499D01*
X140445227Y-85500500D01*
X140445228Y-85500500D01*
X140574773Y-85500500D01*
X140574773Y-85500499D01*
X140699069Y-85464004D01*
X140808049Y-85393967D01*
X140808049Y-85393966D01*
X140815510Y-85389172D01*
X140817555Y-85392354D01*
X140864683Y-85370640D01*
X140933874Y-85380349D01*
X140949784Y-85389001D01*
X141050931Y-85454004D01*
X141160117Y-85486063D01*
X141175225Y-85490499D01*
X141175227Y-85490500D01*
X141175228Y-85490500D01*
X141304773Y-85490500D01*
X141304773Y-85490499D01*
X141429069Y-85454004D01*
X141538049Y-85383967D01*
X141622882Y-85286063D01*
X141648485Y-85230000D01*
X142444867Y-85230000D01*
X142463302Y-85358225D01*
X142481301Y-85397636D01*
X142517118Y-85476063D01*
X142572086Y-85539500D01*
X142599721Y-85571394D01*
X142601951Y-85573967D01*
X142710931Y-85644004D01*
X142826925Y-85678062D01*
X142835225Y-85680499D01*
X142835227Y-85680500D01*
X142835228Y-85680500D01*
X142964773Y-85680500D01*
X142964773Y-85680499D01*
X143089069Y-85644004D01*
X143175180Y-85588664D01*
X143242219Y-85568979D01*
X143309258Y-85588663D01*
X143410931Y-85654004D01*
X143531594Y-85689433D01*
X143535225Y-85690499D01*
X143535227Y-85690500D01*
X143535228Y-85690500D01*
X143664773Y-85690500D01*
X143664773Y-85690499D01*
X143789069Y-85654004D01*
X143898049Y-85583967D01*
X143982882Y-85486063D01*
X144036697Y-85368226D01*
X144055133Y-85240000D01*
X144036697Y-85111774D01*
X143982882Y-84993937D01*
X143898049Y-84896033D01*
X143789069Y-84825996D01*
X143789065Y-84825994D01*
X143789064Y-84825994D01*
X143664774Y-84789500D01*
X143664772Y-84789500D01*
X143535228Y-84789500D01*
X143535226Y-84789500D01*
X143410933Y-84825994D01*
X143410932Y-84825994D01*
X143324818Y-84881336D01*
X143257778Y-84901020D01*
X143190742Y-84881336D01*
X143089066Y-84815994D01*
X142964774Y-84779500D01*
X142964772Y-84779500D01*
X142835228Y-84779500D01*
X142835226Y-84779500D01*
X142710935Y-84815994D01*
X142710932Y-84815995D01*
X142710931Y-84815996D01*
X142684415Y-84833037D01*
X142601950Y-84886033D01*
X142517118Y-84983937D01*
X142517117Y-84983938D01*
X142463302Y-85101774D01*
X142444867Y-85230000D01*
X141648485Y-85230000D01*
X141676697Y-85168226D01*
X141695133Y-85040000D01*
X141676697Y-84911774D01*
X141622882Y-84793937D01*
X141538049Y-84696033D01*
X141429069Y-84625996D01*
X141429065Y-84625994D01*
X141429064Y-84625994D01*
X141304774Y-84589500D01*
X141304772Y-84589500D01*
X141175228Y-84589500D01*
X141175226Y-84589500D01*
X141050935Y-84625994D01*
X141050932Y-84625995D01*
X141050931Y-84625996D01*
X140958974Y-84685093D01*
X140934490Y-84700828D01*
X140932495Y-84697723D01*
X140884651Y-84719456D01*
X140815513Y-84709371D01*
X140800216Y-84700998D01*
X140699066Y-84635994D01*
X140574774Y-84599500D01*
X140574772Y-84599500D01*
X140445228Y-84599500D01*
X140445226Y-84599500D01*
X140320933Y-84635994D01*
X140320932Y-84635994D01*
X140208300Y-84708378D01*
X140141261Y-84728062D01*
X140074221Y-84708377D01*
X140060058Y-84697774D01*
X140058049Y-84696033D01*
X140041026Y-84685093D01*
X139949069Y-84625996D01*
X139949065Y-84625994D01*
X139949064Y-84625994D01*
X139824774Y-84589500D01*
X139824772Y-84589500D01*
X139695228Y-84589500D01*
X139695226Y-84589500D01*
X139570935Y-84625994D01*
X139570932Y-84625995D01*
X139570931Y-84625996D01*
X139524253Y-84655994D01*
X139461950Y-84696033D01*
X139377118Y-84793937D01*
X139377117Y-84793938D01*
X139323302Y-84911774D01*
X139304867Y-85040000D01*
X135307105Y-85040000D01*
X136347109Y-83999996D01*
X142344508Y-83999996D01*
X142344508Y-84000003D01*
X142364352Y-84125300D01*
X142364352Y-84125301D01*
X142373849Y-84143939D01*
X142421950Y-84238342D01*
X142421952Y-84238344D01*
X142421954Y-84238347D01*
X142511652Y-84328045D01*
X142511654Y-84328046D01*
X142511658Y-84328050D01*
X142624696Y-84385646D01*
X142624697Y-84385646D01*
X142624699Y-84385647D01*
X142749997Y-84405492D01*
X142750000Y-84405492D01*
X142750003Y-84405492D01*
X142875300Y-84385647D01*
X142875302Y-84385646D01*
X142875304Y-84385646D01*
X142943704Y-84350793D01*
X143012374Y-84337897D01*
X143056294Y-84350793D01*
X143124696Y-84385646D01*
X143124699Y-84385647D01*
X143249997Y-84405492D01*
X143250000Y-84405492D01*
X143250003Y-84405492D01*
X143375300Y-84385647D01*
X143375302Y-84385646D01*
X143375304Y-84385646D01*
X143443704Y-84350793D01*
X143512374Y-84337897D01*
X143556294Y-84350793D01*
X143624696Y-84385646D01*
X143624699Y-84385647D01*
X143749997Y-84405492D01*
X143750000Y-84405492D01*
X143750003Y-84405492D01*
X143875300Y-84385647D01*
X143875301Y-84385647D01*
X143875302Y-84385646D01*
X143875304Y-84385646D01*
X143988342Y-84328050D01*
X144078050Y-84238342D01*
X144135646Y-84125304D01*
X144135646Y-84125302D01*
X144135647Y-84125301D01*
X144135647Y-84125300D01*
X144155492Y-84000003D01*
X144155492Y-83999996D01*
X144135647Y-83874699D01*
X144135647Y-83874698D01*
X144131545Y-83866647D01*
X144078050Y-83761658D01*
X144078046Y-83761654D01*
X144078045Y-83761652D01*
X143988347Y-83671954D01*
X143988344Y-83671952D01*
X143988342Y-83671950D01*
X143875304Y-83614354D01*
X143875303Y-83614353D01*
X143875300Y-83614352D01*
X143750003Y-83594508D01*
X143749997Y-83594508D01*
X143624699Y-83614352D01*
X143624695Y-83614353D01*
X143556294Y-83649206D01*
X143487625Y-83662102D01*
X143443706Y-83649206D01*
X143375304Y-83614353D01*
X143375300Y-83614352D01*
X143250003Y-83594508D01*
X143249997Y-83594508D01*
X143124699Y-83614352D01*
X143124695Y-83614353D01*
X143056294Y-83649206D01*
X142987625Y-83662102D01*
X142943706Y-83649206D01*
X142875304Y-83614353D01*
X142875300Y-83614352D01*
X142750003Y-83594508D01*
X142749997Y-83594508D01*
X142624699Y-83614352D01*
X142624698Y-83614352D01*
X142556295Y-83649206D01*
X142511658Y-83671950D01*
X142511657Y-83671951D01*
X142511652Y-83671954D01*
X142421954Y-83761652D01*
X142421951Y-83761657D01*
X142421950Y-83761658D01*
X142407142Y-83790721D01*
X142364352Y-83874698D01*
X142364352Y-83874699D01*
X142344508Y-83999996D01*
X136347109Y-83999996D01*
X137352287Y-82994818D01*
X137413610Y-82961333D01*
X137439968Y-82958499D01*
X144182156Y-82958499D01*
X144211471Y-82962703D01*
X144211508Y-82962509D01*
X144215890Y-82963336D01*
X144217006Y-82963496D01*
X144217495Y-82963640D01*
X144241245Y-82965748D01*
X144297167Y-82984847D01*
X144301023Y-82987317D01*
X144303401Y-82988879D01*
X144353988Y-83022987D01*
X144365083Y-83029964D01*
X144365092Y-83029969D01*
X144365098Y-83029973D01*
X144366341Y-83030701D01*
X144366361Y-83030712D01*
X144366363Y-83030713D01*
X144377740Y-83036897D01*
X144444854Y-83070686D01*
X144451099Y-83073699D01*
X144451833Y-83074038D01*
X144453095Y-83074318D01*
X144482497Y-83084882D01*
X144499695Y-83093645D01*
X144499699Y-83093646D01*
X144624997Y-83113491D01*
X144625000Y-83113491D01*
X144625003Y-83113491D01*
X144750300Y-83093646D01*
X144750301Y-83093646D01*
X144750302Y-83093645D01*
X144750304Y-83093645D01*
X144863342Y-83036049D01*
X144912320Y-82987070D01*
X144973639Y-82953587D01*
X145043330Y-82958570D01*
X145087680Y-82987072D01*
X145136652Y-83036044D01*
X145136654Y-83036045D01*
X145136658Y-83036049D01*
X145249696Y-83093645D01*
X145249697Y-83093645D01*
X145249699Y-83093646D01*
X145374997Y-83113491D01*
X145375000Y-83113491D01*
X145375003Y-83113491D01*
X145500300Y-83093646D01*
X145500301Y-83093646D01*
X145500302Y-83093645D01*
X145500304Y-83093645D01*
X145613342Y-83036049D01*
X145703050Y-82946341D01*
X145760646Y-82833303D01*
X145760646Y-82833301D01*
X145760647Y-82833300D01*
X145760647Y-82833299D01*
X145780492Y-82708002D01*
X145780492Y-82707995D01*
X145760647Y-82582698D01*
X145760647Y-82582697D01*
X145760646Y-82582695D01*
X145703050Y-82469657D01*
X145703046Y-82469653D01*
X145703045Y-82469651D01*
X145613347Y-82379953D01*
X145613344Y-82379951D01*
X145613342Y-82379949D01*
X145508557Y-82326558D01*
X145503752Y-82323974D01*
X145503626Y-82323903D01*
X145500513Y-82322420D01*
X145493471Y-82320132D01*
X145487506Y-82318684D01*
X145432717Y-82300590D01*
X145420277Y-82296913D01*
X145419779Y-82296783D01*
X145418834Y-82296536D01*
X145406105Y-82293637D01*
X145406104Y-82293636D01*
X145406083Y-82293632D01*
X145346291Y-82281996D01*
X145343436Y-82281406D01*
X145338941Y-82280421D01*
X145285899Y-82254386D01*
X145267616Y-82239084D01*
X145267613Y-82239082D01*
X145267610Y-82239080D01*
X145264659Y-82237380D01*
X145238879Y-82217617D01*
X145041897Y-82020635D01*
X144949829Y-81982499D01*
X144949828Y-81982499D01*
X144478076Y-81982499D01*
X144378420Y-81982499D01*
X144378418Y-81982499D01*
X144286350Y-82020635D01*
X144286349Y-82020636D01*
X144285806Y-82021180D01*
X144284328Y-82021987D01*
X144276197Y-82027420D01*
X144275710Y-82026692D01*
X144224483Y-82054665D01*
X144198125Y-82057499D01*
X141968256Y-82057499D01*
X141901217Y-82037814D01*
X141855462Y-81985010D01*
X141845518Y-81915852D01*
X141874543Y-81852296D01*
X141880575Y-81845818D01*
X141928045Y-81798347D01*
X141928050Y-81798342D01*
X141985646Y-81685304D01*
X141985646Y-81685302D01*
X141985647Y-81685301D01*
X141985647Y-81685300D01*
X142005492Y-81560003D01*
X142005492Y-81559996D01*
X141985647Y-81434699D01*
X141985647Y-81434698D01*
X141947096Y-81359038D01*
X141944603Y-81354146D01*
X141931708Y-81285479D01*
X141957984Y-81220739D01*
X141993090Y-81190466D01*
X142093499Y-81132495D01*
X142182495Y-81043499D01*
X142245425Y-80934501D01*
X142278000Y-80812930D01*
X142278000Y-80687070D01*
X142245425Y-80565499D01*
X142182495Y-80456501D01*
X142093499Y-80367505D01*
X141997717Y-80312205D01*
X141984503Y-80304576D01*
X141984502Y-80304575D01*
X141943930Y-80293704D01*
X141862930Y-80272000D01*
X141737070Y-80272000D01*
X141677756Y-80287893D01*
X141607906Y-80286230D01*
X141550044Y-80247067D01*
X141522540Y-80182838D01*
X141532870Y-80116605D01*
X141536697Y-80108226D01*
X141555133Y-79980000D01*
X141536697Y-79851774D01*
X141482882Y-79733937D01*
X141450184Y-79696201D01*
X141421160Y-79632647D01*
X141431104Y-79563489D01*
X141450182Y-79533800D01*
X141482882Y-79496063D01*
X141536697Y-79378226D01*
X141555133Y-79250000D01*
X141536697Y-79121774D01*
X141482882Y-79003937D01*
X141482880Y-79003935D01*
X141482879Y-79003932D01*
X141445185Y-78960431D01*
X141416160Y-78896875D01*
X141426104Y-78827717D01*
X141445182Y-78798030D01*
X141472882Y-78766063D01*
X141526697Y-78648226D01*
X141545133Y-78520000D01*
X141526697Y-78391774D01*
X141472882Y-78273937D01*
X141413324Y-78205202D01*
X141384300Y-78141646D01*
X141394244Y-78072487D01*
X141440000Y-78019684D01*
X141507038Y-78000000D01*
X142895072Y-78000000D01*
X142962111Y-78019685D01*
X143007866Y-78072489D01*
X143017810Y-78141647D01*
X142988785Y-78205203D01*
X142982753Y-78211681D01*
X142921938Y-78272496D01*
X142921936Y-78272497D01*
X142920759Y-78274809D01*
X142918586Y-78277109D01*
X142916202Y-78280391D01*
X142915777Y-78280082D01*
X142872782Y-78325603D01*
X142804960Y-78342395D01*
X142790880Y-78340982D01*
X142750003Y-78334508D01*
X142749997Y-78334508D01*
X142624699Y-78354352D01*
X142624698Y-78354352D01*
X142551255Y-78391774D01*
X142511658Y-78411950D01*
X142511657Y-78411951D01*
X142511652Y-78411954D01*
X142421954Y-78501652D01*
X142421951Y-78501657D01*
X142421950Y-78501658D01*
X142402751Y-78539337D01*
X142364352Y-78614698D01*
X142364352Y-78614699D01*
X142344508Y-78739996D01*
X142344508Y-78740003D01*
X142364352Y-78865300D01*
X142364352Y-78865301D01*
X142376027Y-78888213D01*
X142421950Y-78978342D01*
X142421952Y-78978344D01*
X142421954Y-78978347D01*
X142511652Y-79068045D01*
X142511654Y-79068046D01*
X142511658Y-79068050D01*
X142624696Y-79125646D01*
X142624697Y-79125646D01*
X142624699Y-79125647D01*
X142749997Y-79145492D01*
X142750000Y-79145492D01*
X142750003Y-79145492D01*
X142875300Y-79125647D01*
X142875301Y-79125647D01*
X142875302Y-79125646D01*
X142875304Y-79125646D01*
X142988342Y-79068050D01*
X143078050Y-78978342D01*
X143079220Y-78976044D01*
X143081387Y-78973749D01*
X143083790Y-78970443D01*
X143084216Y-78970753D01*
X143127189Y-78925244D01*
X143195009Y-78908442D01*
X143209100Y-78909855D01*
X143249988Y-78916331D01*
X143291517Y-78909753D01*
X143360809Y-78918707D01*
X143414261Y-78963702D01*
X143421397Y-78975926D01*
X143422256Y-78977613D01*
X143511960Y-79067317D01*
X143511962Y-79067318D01*
X143511966Y-79067322D01*
X143625004Y-79124918D01*
X143625005Y-79124918D01*
X143625007Y-79124919D01*
X143750305Y-79144764D01*
X143750308Y-79144764D01*
X143750311Y-79144764D01*
X143875608Y-79124919D01*
X143875609Y-79124919D01*
X143875610Y-79124918D01*
X143875612Y-79124918D01*
X143988650Y-79067322D01*
X144078358Y-78977614D01*
X144079309Y-78975746D01*
X144081070Y-78973881D01*
X144084098Y-78969715D01*
X144084636Y-78970105D01*
X144127281Y-78924948D01*
X144195101Y-78908150D01*
X144209195Y-78909563D01*
X144250525Y-78916109D01*
X144250526Y-78916109D01*
X144250526Y-78916108D01*
X144250527Y-78916109D01*
X144283987Y-78910809D01*
X144353279Y-78919763D01*
X144406731Y-78964758D01*
X144413869Y-78976986D01*
X144418625Y-78986320D01*
X144508327Y-79076022D01*
X144508329Y-79076023D01*
X144508333Y-79076027D01*
X144621371Y-79133623D01*
X144621372Y-79133623D01*
X144621374Y-79133624D01*
X144746672Y-79153469D01*
X144746675Y-79153469D01*
X144746678Y-79153469D01*
X144871975Y-79133624D01*
X144871976Y-79133624D01*
X144871977Y-79133623D01*
X144871979Y-79133623D01*
X144985017Y-79076027D01*
X145074725Y-78986319D01*
X145074728Y-78986312D01*
X145080458Y-78978427D01*
X145081558Y-78979226D01*
X145122532Y-78935836D01*
X145190352Y-78919034D01*
X145204450Y-78920448D01*
X145248045Y-78927353D01*
X145248046Y-78927353D01*
X145248046Y-78927352D01*
X145248047Y-78927353D01*
X145305196Y-78918301D01*
X145374486Y-78927255D01*
X145425990Y-78970610D01*
X145426214Y-78970448D01*
X145426870Y-78971351D01*
X145427938Y-78972250D01*
X145429634Y-78975156D01*
X145431950Y-78978343D01*
X145521652Y-79068045D01*
X145521654Y-79068046D01*
X145521658Y-79068050D01*
X145634696Y-79125646D01*
X145634697Y-79125646D01*
X145634699Y-79125647D01*
X145759997Y-79145492D01*
X145760000Y-79145492D01*
X145760003Y-79145492D01*
X145885300Y-79125647D01*
X145885301Y-79125647D01*
X145885302Y-79125646D01*
X145885304Y-79125646D01*
X145998342Y-79068050D01*
X146088050Y-78978342D01*
X146089220Y-78976044D01*
X146091387Y-78973749D01*
X146093790Y-78970443D01*
X146094216Y-78970753D01*
X146137189Y-78925244D01*
X146205009Y-78908442D01*
X146219100Y-78909855D01*
X146259988Y-78916331D01*
X146301517Y-78909753D01*
X146370809Y-78918707D01*
X146424261Y-78963702D01*
X146431397Y-78975926D01*
X146432256Y-78977613D01*
X146521960Y-79067317D01*
X146521962Y-79067318D01*
X146521966Y-79067322D01*
X146635004Y-79124918D01*
X146635005Y-79124918D01*
X146635007Y-79124919D01*
X146760305Y-79144764D01*
X146760308Y-79144764D01*
X146760311Y-79144764D01*
X146885608Y-79124919D01*
X146885609Y-79124919D01*
X146885610Y-79124918D01*
X146885612Y-79124918D01*
X146998650Y-79067322D01*
X147088358Y-78977614D01*
X147089309Y-78975746D01*
X147091070Y-78973881D01*
X147094098Y-78969715D01*
X147094636Y-78970105D01*
X147137281Y-78924948D01*
X147205101Y-78908150D01*
X147219195Y-78909563D01*
X147260525Y-78916109D01*
X147260526Y-78916109D01*
X147260526Y-78916108D01*
X147260527Y-78916109D01*
X147293987Y-78910809D01*
X147363279Y-78919763D01*
X147416731Y-78964758D01*
X147423869Y-78976986D01*
X147428625Y-78986320D01*
X147518327Y-79076022D01*
X147518329Y-79076023D01*
X147518333Y-79076027D01*
X147631371Y-79133623D01*
X147631372Y-79133623D01*
X147631374Y-79133624D01*
X147756672Y-79153469D01*
X147756675Y-79153469D01*
X147756678Y-79153469D01*
X147881975Y-79133624D01*
X147881976Y-79133624D01*
X147881977Y-79133623D01*
X147881979Y-79133623D01*
X147995017Y-79076027D01*
X148084725Y-78986319D01*
X148109913Y-78936884D01*
X148157885Y-78886091D01*
X148225705Y-78869295D01*
X148239794Y-78870708D01*
X148247224Y-78871884D01*
X148270000Y-78875492D01*
X148273123Y-78874997D01*
X148276954Y-78875492D01*
X148279759Y-78875492D01*
X148279759Y-78875854D01*
X148342416Y-78883948D01*
X148395871Y-78928941D01*
X148403011Y-78941173D01*
X148421949Y-78978340D01*
X148421953Y-78978346D01*
X148463180Y-79019572D01*
X148496666Y-79080895D01*
X148499500Y-79107254D01*
X148499500Y-80649829D01*
X148537636Y-80741897D01*
X150210565Y-82414825D01*
X150210568Y-82414829D01*
X150217636Y-82421897D01*
X150288103Y-82492364D01*
X150313551Y-82502905D01*
X150380172Y-82530501D01*
X150380173Y-82530501D01*
X150494262Y-82530501D01*
X150494270Y-82530500D01*
X150623001Y-82530500D01*
X150690040Y-82550185D01*
X150735795Y-82602989D01*
X150745739Y-82672147D01*
X150745475Y-82673897D01*
X150744508Y-82680002D01*
X150744508Y-82680003D01*
X150764352Y-82805300D01*
X150764352Y-82805301D01*
X150771136Y-82818615D01*
X150821950Y-82918342D01*
X150821952Y-82918344D01*
X150821954Y-82918347D01*
X150911652Y-83008045D01*
X150911654Y-83008046D01*
X150911658Y-83008050D01*
X151024696Y-83065646D01*
X151024697Y-83065646D01*
X151024699Y-83065647D01*
X151149997Y-83085492D01*
X151150000Y-83085492D01*
X151150003Y-83085492D01*
X151275300Y-83065647D01*
X151275301Y-83065646D01*
X151275304Y-83065646D01*
X151297668Y-83054250D01*
X151366335Y-83041353D01*
X151431076Y-83067627D01*
X151441645Y-83077053D01*
X151472637Y-83108045D01*
X151472639Y-83108046D01*
X151472643Y-83108050D01*
X151585681Y-83165646D01*
X151585682Y-83165646D01*
X151585684Y-83165647D01*
X151710982Y-83185492D01*
X151710985Y-83185492D01*
X151710988Y-83185492D01*
X151836285Y-83165647D01*
X151836286Y-83165647D01*
X151836287Y-83165646D01*
X151836289Y-83165646D01*
X151939559Y-83113026D01*
X152008227Y-83100131D01*
X152051444Y-83116599D01*
X152052963Y-83113619D01*
X152061656Y-83118048D01*
X152061658Y-83118050D01*
X152174696Y-83175646D01*
X152174697Y-83175646D01*
X152174699Y-83175647D01*
X152299997Y-83195492D01*
X152300000Y-83195492D01*
X152300003Y-83195492D01*
X152425300Y-83175647D01*
X152425301Y-83175647D01*
X152425302Y-83175646D01*
X152425304Y-83175646D01*
X152538342Y-83118050D01*
X152571510Y-83084882D01*
X152611228Y-83045165D01*
X152672551Y-83011680D01*
X152742243Y-83016664D01*
X152786590Y-83045165D01*
X152993181Y-83251756D01*
X153026666Y-83313079D01*
X153029500Y-83339437D01*
X153029500Y-83472514D01*
X153009815Y-83539553D01*
X152957011Y-83585308D01*
X152887853Y-83595252D01*
X152824297Y-83566227D01*
X152817819Y-83560195D01*
X152801951Y-83544327D01*
X152801949Y-83544325D01*
X152716554Y-83495022D01*
X152716553Y-83495021D01*
X152630625Y-83471997D01*
X152625299Y-83470189D01*
X152621829Y-83469500D01*
X152621828Y-83469500D01*
X152460172Y-83469500D01*
X152456721Y-83470185D01*
X152451396Y-83471991D01*
X152365448Y-83495021D01*
X152365446Y-83495021D01*
X152365446Y-83495022D01*
X152292999Y-83536849D01*
X152225099Y-83553321D01*
X152169001Y-83536849D01*
X152096552Y-83495021D01*
X152096553Y-83495021D01*
X152010625Y-83471997D01*
X152005299Y-83470189D01*
X152001829Y-83469500D01*
X152001828Y-83469500D01*
X151840172Y-83469500D01*
X151836721Y-83470185D01*
X151831396Y-83471991D01*
X151745448Y-83495021D01*
X151745446Y-83495021D01*
X151745446Y-83495022D01*
X151672999Y-83536849D01*
X151605099Y-83553321D01*
X151549001Y-83536849D01*
X151476552Y-83495021D01*
X151476553Y-83495021D01*
X151390625Y-83471997D01*
X151385299Y-83470189D01*
X151381829Y-83469500D01*
X151381828Y-83469500D01*
X151220172Y-83469500D01*
X151216721Y-83470185D01*
X151211396Y-83471991D01*
X151125448Y-83495021D01*
X151125446Y-83495021D01*
X151125446Y-83495022D01*
X151052999Y-83536849D01*
X150985099Y-83553321D01*
X150929001Y-83536849D01*
X150856552Y-83495021D01*
X150856553Y-83495021D01*
X150770625Y-83471997D01*
X150765299Y-83470189D01*
X150761829Y-83469500D01*
X150761828Y-83469500D01*
X150600172Y-83469500D01*
X150596721Y-83470185D01*
X150591396Y-83471991D01*
X150505448Y-83495021D01*
X150505446Y-83495021D01*
X150505446Y-83495022D01*
X150432999Y-83536849D01*
X150365099Y-83553321D01*
X150309001Y-83536849D01*
X150236552Y-83495021D01*
X150236553Y-83495021D01*
X150150625Y-83471997D01*
X150145299Y-83470189D01*
X150141829Y-83469500D01*
X150141828Y-83469500D01*
X149980172Y-83469500D01*
X149976721Y-83470185D01*
X149971396Y-83471991D01*
X149885448Y-83495021D01*
X149885447Y-83495021D01*
X149885445Y-83495022D01*
X149800054Y-83544323D01*
X149800048Y-83544327D01*
X149730327Y-83614048D01*
X149730323Y-83614054D01*
X149681022Y-83699445D01*
X149681021Y-83699447D01*
X149681021Y-83699448D01*
X149664352Y-83761657D01*
X149657991Y-83785397D01*
X149656185Y-83790721D01*
X149655500Y-83794172D01*
X149655500Y-84065500D01*
X149635815Y-84132539D01*
X149583011Y-84178294D01*
X149531500Y-84189500D01*
X149424270Y-84189500D01*
X149424262Y-84189499D01*
X149409828Y-84189499D01*
X149310173Y-84189499D01*
X149310172Y-84189499D01*
X149283206Y-84200669D01*
X149256240Y-84211839D01*
X149218103Y-84227636D01*
X149218101Y-84227637D01*
X149147636Y-84298103D01*
X149147635Y-84298104D01*
X148343965Y-85101774D01*
X147530662Y-85915076D01*
X147530661Y-85915076D01*
X147530662Y-85915077D01*
X147477636Y-85968103D01*
X147439500Y-86060170D01*
X147439500Y-87227150D01*
X147435294Y-87256464D01*
X147435490Y-87256501D01*
X147434657Y-87260907D01*
X147434500Y-87262006D01*
X147434359Y-87262486D01*
X147434358Y-87262491D01*
X147432248Y-87286252D01*
X147413159Y-87342151D01*
X147410693Y-87346002D01*
X147409082Y-87348453D01*
X147375010Y-87398988D01*
X147368026Y-87410093D01*
X147367286Y-87411358D01*
X147361104Y-87422732D01*
X147327324Y-87489827D01*
X147324293Y-87496111D01*
X147323961Y-87496831D01*
X147323959Y-87496834D01*
X147323676Y-87498112D01*
X147313117Y-87527495D01*
X147305946Y-87541572D01*
X147304354Y-87544696D01*
X147304352Y-87544700D01*
X147284508Y-87669997D01*
X147284508Y-87670003D01*
X147304352Y-87795300D01*
X147304352Y-87795301D01*
X147318866Y-87823785D01*
X147361950Y-87908342D01*
X147361952Y-87908344D01*
X147361954Y-87908347D01*
X147451652Y-87998045D01*
X147451654Y-87998046D01*
X147451658Y-87998050D01*
X147564696Y-88055646D01*
X147564697Y-88055646D01*
X147564699Y-88055647D01*
X147689997Y-88075492D01*
X147690000Y-88075492D01*
X147690003Y-88075492D01*
X147815300Y-88055647D01*
X147815301Y-88055646D01*
X147815304Y-88055646D01*
X147859206Y-88033276D01*
X147927873Y-88020380D01*
X147992613Y-88046655D01*
X148032871Y-88103761D01*
X148039500Y-88143761D01*
X148039500Y-88250561D01*
X148019815Y-88317600D01*
X148003181Y-88338243D01*
X147891691Y-88449732D01*
X147867990Y-88467489D01*
X147868101Y-88467652D01*
X147864434Y-88470153D01*
X147863530Y-88470831D01*
X147863081Y-88471076D01*
X147863069Y-88471084D01*
X147844777Y-88486393D01*
X147791730Y-88512427D01*
X147787270Y-88513404D01*
X147784421Y-88513993D01*
X147724564Y-88525640D01*
X147711845Y-88528538D01*
X147711837Y-88528540D01*
X147711833Y-88528541D01*
X147710422Y-88528910D01*
X147710403Y-88528915D01*
X147697957Y-88532594D01*
X147643161Y-88550691D01*
X147637208Y-88552136D01*
X147626870Y-88555496D01*
X147620716Y-88558129D01*
X147620739Y-88558191D01*
X147618983Y-88558840D01*
X147613697Y-88562211D01*
X147603339Y-88568132D01*
X147556608Y-88591944D01*
X147517340Y-88611952D01*
X147427639Y-88701653D01*
X147427636Y-88701658D01*
X147427635Y-88701659D01*
X147416005Y-88724484D01*
X147370037Y-88814699D01*
X147370037Y-88814700D01*
X147350193Y-88939997D01*
X147350193Y-88940002D01*
X147351159Y-88946102D01*
X147342205Y-89015395D01*
X147297208Y-89068847D01*
X147230457Y-89089487D01*
X147228686Y-89089500D01*
X143675122Y-89089500D01*
X143608083Y-89069815D01*
X143587441Y-89053181D01*
X141070268Y-86536008D01*
X141052510Y-86512302D01*
X141052346Y-86512415D01*
X141049819Y-86508711D01*
X141049158Y-86507828D01*
X141048918Y-86507389D01*
X141048913Y-86507383D01*
X141047459Y-86505646D01*
X141033605Y-86489091D01*
X141007568Y-86436034D01*
X141006582Y-86431534D01*
X141006003Y-86428730D01*
X141003138Y-86414005D01*
X140994361Y-86368899D01*
X140991459Y-86356161D01*
X140991084Y-86354727D01*
X140987404Y-86342276D01*
X140986322Y-86339001D01*
X140969317Y-86287509D01*
X140967867Y-86281533D01*
X140965646Y-86274698D01*
X140965646Y-86274696D01*
X140965643Y-86274691D01*
X140964465Y-86271064D01*
X140961971Y-86265217D01*
X140961878Y-86265252D01*
X140961226Y-86263485D01*
X140961226Y-86263484D01*
X140957953Y-86258346D01*
X140952067Y-86248047D01*
X140908050Y-86161658D01*
X140908046Y-86161654D01*
X140908045Y-86161652D01*
X140818347Y-86071954D01*
X140818344Y-86071952D01*
X140818342Y-86071950D01*
X140705304Y-86014354D01*
X140705303Y-86014353D01*
X140705300Y-86014352D01*
X140580003Y-85994508D01*
X140579997Y-85994508D01*
X140454699Y-86014352D01*
X140454698Y-86014352D01*
X140392599Y-86045994D01*
X140341658Y-86071950D01*
X140341657Y-86071951D01*
X140341652Y-86071954D01*
X140251954Y-86161652D01*
X140251951Y-86161657D01*
X140251950Y-86161658D01*
X140243908Y-86177441D01*
X140194352Y-86274698D01*
X140194352Y-86274699D01*
X140174508Y-86399996D01*
X140174508Y-86399997D01*
X140174508Y-86400000D01*
X140179284Y-86430152D01*
X140180721Y-86439227D01*
X140171765Y-86508521D01*
X140126768Y-86561972D01*
X140060017Y-86582611D01*
X139992703Y-86563885D01*
X139970566Y-86546305D01*
X139550267Y-86126006D01*
X139532512Y-86102305D01*
X139532348Y-86102418D01*
X139529811Y-86098699D01*
X139529157Y-86097826D01*
X139528920Y-86097393D01*
X139528919Y-86097392D01*
X139528916Y-86097386D01*
X139513602Y-86079088D01*
X139487568Y-86026034D01*
X139486582Y-86021534D01*
X139486003Y-86018730D01*
X139474361Y-85958899D01*
X139471459Y-85946161D01*
X139471084Y-85944727D01*
X139467404Y-85932276D01*
X139466334Y-85929037D01*
X139449317Y-85877509D01*
X139447867Y-85871533D01*
X139445646Y-85864698D01*
X139445646Y-85864696D01*
X139445643Y-85864691D01*
X139444465Y-85861064D01*
X139441971Y-85855217D01*
X139441878Y-85855252D01*
X139441226Y-85853485D01*
X139441226Y-85853484D01*
X139437953Y-85848346D01*
X139432067Y-85838047D01*
X139388050Y-85751658D01*
X139388046Y-85751654D01*
X139388045Y-85751652D01*
X139298347Y-85661954D01*
X139298344Y-85661952D01*
X139298342Y-85661950D01*
X139185304Y-85604354D01*
X139185303Y-85604353D01*
X139185300Y-85604352D01*
X139060003Y-85584508D01*
X139059997Y-85584508D01*
X138934699Y-85604352D01*
X138934698Y-85604352D01*
X138859337Y-85642751D01*
X138821658Y-85661950D01*
X138821657Y-85661951D01*
X138821652Y-85661954D01*
X138731954Y-85751652D01*
X138731951Y-85751657D01*
X138731950Y-85751658D01*
X138729373Y-85756716D01*
X138674352Y-85864698D01*
X138674352Y-85864699D01*
X138654508Y-85989996D01*
X138654508Y-85990003D01*
X138672917Y-86106238D01*
X138663962Y-86175531D01*
X138618966Y-86228983D01*
X138552214Y-86249622D01*
X138484900Y-86230897D01*
X138456730Y-86206837D01*
X138378049Y-86116033D01*
X138373999Y-86113430D01*
X138269069Y-86045996D01*
X138269065Y-86045994D01*
X138269064Y-86045994D01*
X138144774Y-86009500D01*
X138144772Y-86009500D01*
X138015228Y-86009500D01*
X138015226Y-86009500D01*
X137890935Y-86045994D01*
X137890932Y-86045995D01*
X137890931Y-86045996D01*
X137846274Y-86074695D01*
X137781950Y-86116033D01*
X137697118Y-86213937D01*
X137697117Y-86213938D01*
X137643302Y-86331774D01*
X137624867Y-86460000D01*
X137643302Y-86588225D01*
X137689025Y-86688342D01*
X137697118Y-86706063D01*
X137781951Y-86803967D01*
X137890931Y-86874004D01*
X138015225Y-86910499D01*
X138015227Y-86910500D01*
X138015228Y-86910500D01*
X138144773Y-86910500D01*
X138144773Y-86910499D01*
X138269069Y-86874004D01*
X138378049Y-86803967D01*
X138387614Y-86792929D01*
X138430944Y-86742922D01*
X138462882Y-86706063D01*
X138462882Y-86706061D01*
X138465014Y-86703602D01*
X138523791Y-86665826D01*
X138593661Y-86665825D01*
X138652440Y-86703599D01*
X138681201Y-86765403D01*
X138684353Y-86785301D01*
X138684354Y-86785304D01*
X138695700Y-86807573D01*
X138704718Y-86830778D01*
X138707312Y-86840145D01*
X138709132Y-86843760D01*
X138741110Y-86907278D01*
X138746133Y-86916517D01*
X138747275Y-86918618D01*
X138748015Y-86919883D01*
X138748024Y-86919897D01*
X138748025Y-86919899D01*
X138755011Y-86931012D01*
X138789072Y-86981531D01*
X138790670Y-86983961D01*
X138793146Y-86987826D01*
X138812248Y-87043748D01*
X138818901Y-87118676D01*
X138817810Y-87118772D01*
X138819500Y-87129737D01*
X138819500Y-92509829D01*
X138835530Y-92548529D01*
X138857636Y-92601897D01*
X140386239Y-94130500D01*
X141703559Y-95447819D01*
X141737044Y-95509142D01*
X141732060Y-95578834D01*
X141690188Y-95634767D01*
X141624724Y-95659184D01*
X141615878Y-95659500D01*
X140035123Y-95659500D01*
X139968084Y-95639815D01*
X139947442Y-95623181D01*
X139621222Y-95296961D01*
X139587737Y-95235638D01*
X139592721Y-95165946D01*
X139634593Y-95110013D01*
X139700057Y-95085596D01*
X139710241Y-95086032D01*
X139710241Y-95085492D01*
X139720003Y-95085492D01*
X139845300Y-95065647D01*
X139845301Y-95065647D01*
X139845302Y-95065646D01*
X139845304Y-95065646D01*
X139958342Y-95008050D01*
X140048050Y-94918342D01*
X140105646Y-94805304D01*
X140105646Y-94805302D01*
X140105647Y-94805301D01*
X140105647Y-94805300D01*
X140125492Y-94680003D01*
X140125492Y-94679996D01*
X140105647Y-94554699D01*
X140105647Y-94554698D01*
X140090360Y-94524696D01*
X140048050Y-94441658D01*
X140048046Y-94441654D01*
X140048045Y-94441652D01*
X139958347Y-94351954D01*
X139958344Y-94351952D01*
X139958342Y-94351950D01*
X139845304Y-94294354D01*
X139845303Y-94294353D01*
X139845300Y-94294352D01*
X139720003Y-94274508D01*
X139719997Y-94274508D01*
X139594699Y-94294352D01*
X139594698Y-94294352D01*
X139526535Y-94329084D01*
X139481658Y-94351950D01*
X139481657Y-94351951D01*
X139481652Y-94351954D01*
X139391954Y-94441652D01*
X139391949Y-94441659D01*
X139354932Y-94514309D01*
X139306958Y-94565104D01*
X139239137Y-94581899D01*
X139173002Y-94559361D01*
X139129551Y-94504646D01*
X139120448Y-94458013D01*
X139120448Y-94358396D01*
X139124652Y-94329084D01*
X139124458Y-94329048D01*
X139125290Y-94324639D01*
X139125448Y-94323541D01*
X139125588Y-94323061D01*
X139125588Y-94323059D01*
X139125590Y-94323054D01*
X139127698Y-94299301D01*
X139146790Y-94243390D01*
X139146797Y-94243379D01*
X139149278Y-94239506D01*
X139150833Y-94237139D01*
X139184936Y-94186562D01*
X139191913Y-94175467D01*
X139192662Y-94174187D01*
X139198845Y-94162812D01*
X139232634Y-94095700D01*
X139235648Y-94089453D01*
X139235987Y-94088719D01*
X139236266Y-94087458D01*
X139246832Y-94058051D01*
X139255594Y-94040857D01*
X139255595Y-94040853D01*
X139275440Y-93915556D01*
X139275440Y-93915549D01*
X139255595Y-93790252D01*
X139255595Y-93790251D01*
X139245361Y-93770166D01*
X139197998Y-93677211D01*
X139197994Y-93677207D01*
X139197993Y-93677205D01*
X139108295Y-93587507D01*
X139108292Y-93587505D01*
X139108290Y-93587503D01*
X138995252Y-93529907D01*
X138995251Y-93529906D01*
X138995248Y-93529905D01*
X138869951Y-93510061D01*
X138869949Y-93510061D01*
X138869948Y-93510061D01*
X138853316Y-93512695D01*
X138841794Y-93514520D01*
X138772501Y-93505564D01*
X138719050Y-93460567D01*
X138709604Y-93443558D01*
X138684959Y-93389595D01*
X138675975Y-93369922D01*
X138591142Y-93272018D01*
X138482162Y-93201981D01*
X138482158Y-93201979D01*
X138482157Y-93201979D01*
X138357867Y-93165485D01*
X138357865Y-93165485D01*
X138228321Y-93165485D01*
X138228319Y-93165485D01*
X138104028Y-93201979D01*
X138104025Y-93201980D01*
X138104024Y-93201981D01*
X138073034Y-93221897D01*
X137995043Y-93272018D01*
X137910211Y-93369922D01*
X137910210Y-93369923D01*
X137856395Y-93487759D01*
X137837960Y-93615985D01*
X137856395Y-93744210D01*
X137905891Y-93852589D01*
X137910211Y-93862048D01*
X137995044Y-93959952D01*
X138104024Y-94029989D01*
X138228318Y-94066484D01*
X138228320Y-94066485D01*
X138228321Y-94066485D01*
X138357865Y-94066485D01*
X138376008Y-94061158D01*
X138445876Y-94061158D01*
X138504654Y-94098931D01*
X138521696Y-94124372D01*
X138527310Y-94135523D01*
X138541058Y-94162831D01*
X138545056Y-94170185D01*
X138547223Y-94174171D01*
X138547963Y-94175436D01*
X138547972Y-94175450D01*
X138547973Y-94175452D01*
X138554959Y-94186565D01*
X138589020Y-94237084D01*
X138590618Y-94239514D01*
X138593094Y-94243379D01*
X138612196Y-94299301D01*
X138618849Y-94374229D01*
X138617758Y-94374325D01*
X138619448Y-94385290D01*
X138619448Y-94855825D01*
X138599763Y-94922864D01*
X138546959Y-94968619D01*
X138477801Y-94978563D01*
X138414245Y-94949538D01*
X138407767Y-94943506D01*
X137380267Y-93916006D01*
X137362512Y-93892305D01*
X137362348Y-93892418D01*
X137359811Y-93888699D01*
X137359157Y-93887826D01*
X137358920Y-93887393D01*
X137358919Y-93887392D01*
X137358916Y-93887386D01*
X137343602Y-93869088D01*
X137317568Y-93816034D01*
X137316582Y-93811534D01*
X137316003Y-93808730D01*
X137304361Y-93748899D01*
X137301459Y-93736161D01*
X137301084Y-93734727D01*
X137297404Y-93722276D01*
X137295873Y-93717641D01*
X137284673Y-93683726D01*
X137279315Y-93667503D01*
X137277867Y-93661533D01*
X137275646Y-93654698D01*
X137275646Y-93654696D01*
X137275643Y-93654691D01*
X137274465Y-93651064D01*
X137271971Y-93645217D01*
X137271878Y-93645252D01*
X137271226Y-93643485D01*
X137271226Y-93643484D01*
X137267953Y-93638346D01*
X137262067Y-93628047D01*
X137218050Y-93541658D01*
X137218046Y-93541654D01*
X137218045Y-93541652D01*
X137128347Y-93451954D01*
X137128344Y-93451952D01*
X137128342Y-93451950D01*
X137015304Y-93394354D01*
X137015303Y-93394353D01*
X137015300Y-93394352D01*
X136890003Y-93374508D01*
X136889997Y-93374508D01*
X136764699Y-93394352D01*
X136764698Y-93394352D01*
X136689337Y-93432751D01*
X136651658Y-93451950D01*
X136651657Y-93451951D01*
X136651652Y-93451954D01*
X136561954Y-93541652D01*
X136561951Y-93541657D01*
X136561950Y-93541658D01*
X136544760Y-93575396D01*
X136504352Y-93654698D01*
X136504352Y-93654699D01*
X136484508Y-93779996D01*
X136484508Y-93780003D01*
X136504352Y-93905300D01*
X136504352Y-93905301D01*
X136509807Y-93916006D01*
X136561950Y-94018342D01*
X136561952Y-94018344D01*
X136561954Y-94018347D01*
X136651652Y-94108045D01*
X136651658Y-94108050D01*
X136655001Y-94109753D01*
X136658328Y-94112895D01*
X136659550Y-94113783D01*
X136659435Y-94113940D01*
X136705797Y-94157726D01*
X136709321Y-94171959D01*
X136731130Y-94163825D01*
X136778860Y-94169763D01*
X136792154Y-94174154D01*
X136832277Y-94187405D01*
X136839423Y-94189516D01*
X136844727Y-94191084D01*
X136846161Y-94191459D01*
X136858899Y-94194361D01*
X136918754Y-94206008D01*
X136921534Y-94206582D01*
X136926034Y-94207568D01*
X136979089Y-94233603D01*
X136997386Y-94248916D01*
X137000331Y-94250612D01*
X137026118Y-94270379D01*
X139218103Y-96462364D01*
X139310172Y-96500500D01*
X139310174Y-96500500D01*
X154215877Y-96500500D01*
X154282916Y-96520185D01*
X154328671Y-96572989D01*
X154338615Y-96642147D01*
X154309590Y-96705703D01*
X154303558Y-96712181D01*
X153582558Y-97433181D01*
X153521235Y-97466666D01*
X153494877Y-97469500D01*
X152760170Y-97469500D01*
X152668102Y-97507636D01*
X152668101Y-97507637D01*
X151492558Y-98683181D01*
X151431235Y-98716666D01*
X151404877Y-98719500D01*
X148910922Y-98719500D01*
X148843883Y-98699815D01*
X148798128Y-98647011D01*
X148788184Y-98577853D01*
X148817209Y-98514297D01*
X148823241Y-98507819D01*
X148878043Y-98453016D01*
X148878048Y-98453011D01*
X148935644Y-98339973D01*
X148935644Y-98339971D01*
X148935645Y-98339970D01*
X148935645Y-98339969D01*
X148955490Y-98214672D01*
X148955490Y-98214665D01*
X148935645Y-98089368D01*
X148935645Y-98089367D01*
X148932051Y-98082313D01*
X148888052Y-97995961D01*
X148875157Y-97927295D01*
X148888052Y-97883378D01*
X148933464Y-97794253D01*
X150174496Y-97794253D01*
X150174496Y-97794260D01*
X150194340Y-97919557D01*
X150194340Y-97919558D01*
X150210891Y-97952040D01*
X150251938Y-98032599D01*
X150251940Y-98032601D01*
X150251942Y-98032604D01*
X150341640Y-98122302D01*
X150341642Y-98122303D01*
X150341646Y-98122307D01*
X150454684Y-98179903D01*
X150454685Y-98179903D01*
X150454687Y-98179904D01*
X150579985Y-98199749D01*
X150579988Y-98199749D01*
X150579991Y-98199749D01*
X150705288Y-98179904D01*
X150705289Y-98179904D01*
X150705290Y-98179903D01*
X150705292Y-98179903D01*
X150818330Y-98122307D01*
X150908038Y-98032599D01*
X150965634Y-97919561D01*
X150976252Y-97852519D01*
X151006180Y-97789386D01*
X151047726Y-97762269D01*
X151046609Y-97760076D01*
X151055302Y-97755646D01*
X151055304Y-97755646D01*
X151168342Y-97698050D01*
X151258050Y-97608342D01*
X151315646Y-97495304D01*
X151315646Y-97495302D01*
X151315647Y-97495301D01*
X151315647Y-97495300D01*
X151335492Y-97370003D01*
X151335492Y-97369996D01*
X151315647Y-97244699D01*
X151315647Y-97244698D01*
X151302085Y-97218082D01*
X151258050Y-97131658D01*
X151258046Y-97131654D01*
X151258045Y-97131652D01*
X151168347Y-97041954D01*
X151168344Y-97041952D01*
X151168342Y-97041950D01*
X151055304Y-96984354D01*
X151055303Y-96984353D01*
X151055300Y-96984352D01*
X150930003Y-96964508D01*
X150929997Y-96964508D01*
X150804699Y-96984352D01*
X150804698Y-96984352D01*
X150729337Y-97022751D01*
X150691658Y-97041950D01*
X150691657Y-97041951D01*
X150691652Y-97041954D01*
X150601954Y-97131652D01*
X150601951Y-97131657D01*
X150544352Y-97244698D01*
X150544352Y-97244699D01*
X150533735Y-97311736D01*
X150503806Y-97374871D01*
X150462263Y-97401992D01*
X150463379Y-97404181D01*
X150454685Y-97408610D01*
X150454684Y-97408611D01*
X150341646Y-97466207D01*
X150341645Y-97466208D01*
X150341640Y-97466211D01*
X150251942Y-97555909D01*
X150251939Y-97555914D01*
X150251938Y-97555915D01*
X150248919Y-97561840D01*
X150194340Y-97668955D01*
X150194340Y-97668956D01*
X150174496Y-97794253D01*
X148933464Y-97794253D01*
X148935646Y-97789971D01*
X148935646Y-97789969D01*
X148935647Y-97789967D01*
X148955492Y-97664670D01*
X148955492Y-97664663D01*
X148935647Y-97539366D01*
X148935647Y-97539365D01*
X148935529Y-97539134D01*
X148878050Y-97426325D01*
X148878046Y-97426321D01*
X148878045Y-97426319D01*
X148788347Y-97336621D01*
X148788344Y-97336619D01*
X148788342Y-97336617D01*
X148675304Y-97279021D01*
X148675303Y-97279020D01*
X148675300Y-97279019D01*
X148550003Y-97259175D01*
X148549997Y-97259175D01*
X148424699Y-97279019D01*
X148424698Y-97279019D01*
X148360489Y-97311736D01*
X148311658Y-97336617D01*
X148311657Y-97336618D01*
X148311652Y-97336621D01*
X148221954Y-97426319D01*
X148221951Y-97426324D01*
X148221950Y-97426325D01*
X148207537Y-97454612D01*
X148164352Y-97539365D01*
X148164352Y-97539366D01*
X148144508Y-97664663D01*
X148144508Y-97664670D01*
X148164352Y-97789967D01*
X148164352Y-97789968D01*
X148211944Y-97883371D01*
X148224840Y-97952040D01*
X148211944Y-97995961D01*
X148164350Y-98089367D01*
X148164350Y-98089368D01*
X148144506Y-98214665D01*
X148144506Y-98214672D01*
X148164350Y-98339969D01*
X148164350Y-98339970D01*
X148182803Y-98376186D01*
X148221948Y-98453011D01*
X148221950Y-98453013D01*
X148221952Y-98453016D01*
X148276755Y-98507819D01*
X148310240Y-98569142D01*
X148305256Y-98638834D01*
X148263384Y-98694767D01*
X148197920Y-98719184D01*
X148189074Y-98719500D01*
X145414270Y-98719500D01*
X145414262Y-98719499D01*
X145399828Y-98719499D01*
X145300173Y-98719499D01*
X145300172Y-98719499D01*
X145273206Y-98730669D01*
X145246240Y-98741839D01*
X145212048Y-98756002D01*
X145208101Y-98757637D01*
X145137635Y-98828104D01*
X143600662Y-100365076D01*
X143600661Y-100365076D01*
X143600662Y-100365077D01*
X143547636Y-100418103D01*
X143509500Y-100510170D01*
X143509500Y-101092745D01*
X143489815Y-101159784D01*
X143473181Y-101180426D01*
X143431954Y-101221652D01*
X143431951Y-101221657D01*
X143431950Y-101221658D01*
X143426334Y-101232680D01*
X143374352Y-101334698D01*
X143374352Y-101334699D01*
X143354508Y-101459996D01*
X143354508Y-101460003D01*
X143374352Y-101585300D01*
X143374352Y-101585301D01*
X143374354Y-101585304D01*
X143431950Y-101698342D01*
X143431952Y-101698344D01*
X143431954Y-101698347D01*
X143521926Y-101788319D01*
X143555411Y-101849642D01*
X143550427Y-101919334D01*
X143508555Y-101975267D01*
X143443091Y-101999684D01*
X143434245Y-102000000D01*
X132500987Y-102000000D01*
X132498960Y-101999983D01*
X132343428Y-101997440D01*
X132329270Y-101996396D01*
X132019812Y-101955655D01*
X132003903Y-101952491D01*
X131703387Y-101871967D01*
X131688028Y-101866753D01*
X131400599Y-101747696D01*
X131386052Y-101740522D01*
X131116622Y-101584967D01*
X131103136Y-101575956D01*
X130856313Y-101386562D01*
X130844118Y-101375867D01*
X130624132Y-101155881D01*
X130613437Y-101143686D01*
X130424043Y-100896863D01*
X130415032Y-100883377D01*
X130259477Y-100613947D01*
X130252303Y-100599400D01*
X130133246Y-100311971D01*
X130128032Y-100296612D01*
X130062086Y-100050500D01*
X130047506Y-99996087D01*
X130044345Y-99980196D01*
X130017660Y-99777500D01*
X137944867Y-99777500D01*
X137963302Y-99905725D01*
X137998033Y-99981774D01*
X138017118Y-100023563D01*
X138101951Y-100121467D01*
X138210931Y-100191504D01*
X138335225Y-100227999D01*
X138335227Y-100228000D01*
X138335228Y-100228000D01*
X138464770Y-100228000D01*
X138464772Y-100228000D01*
X138488530Y-100221023D01*
X138558397Y-100221023D01*
X138617176Y-100258797D01*
X138636258Y-100288490D01*
X138667115Y-100356059D01*
X138667117Y-100356061D01*
X138667118Y-100356063D01*
X138751951Y-100453967D01*
X138860931Y-100524004D01*
X138969950Y-100556014D01*
X138985225Y-100560499D01*
X138985227Y-100560500D01*
X138985228Y-100560500D01*
X139114773Y-100560500D01*
X139114773Y-100560499D01*
X139239069Y-100524004D01*
X139348049Y-100453967D01*
X139432882Y-100356063D01*
X139486697Y-100238226D01*
X139505133Y-100110000D01*
X139486697Y-99981774D01*
X139432882Y-99863937D01*
X139348049Y-99766033D01*
X139239069Y-99695996D01*
X139239065Y-99695994D01*
X139239064Y-99695994D01*
X139114774Y-99659500D01*
X139114772Y-99659500D01*
X138985228Y-99659500D01*
X138961469Y-99666476D01*
X138891600Y-99666475D01*
X138832822Y-99628700D01*
X138813742Y-99599010D01*
X138795842Y-99559815D01*
X138782882Y-99531437D01*
X138698049Y-99433533D01*
X138589069Y-99363496D01*
X138589065Y-99363494D01*
X138589064Y-99363494D01*
X138464774Y-99327000D01*
X138464772Y-99327000D01*
X138335228Y-99327000D01*
X138335226Y-99327000D01*
X138210935Y-99363494D01*
X138210932Y-99363495D01*
X138210931Y-99363496D01*
X138159677Y-99396434D01*
X138101950Y-99433533D01*
X138017118Y-99531437D01*
X138017117Y-99531438D01*
X137963302Y-99649274D01*
X137944867Y-99777500D01*
X130017660Y-99777500D01*
X130003602Y-99670718D01*
X130002559Y-99656582D01*
X130000017Y-99501038D01*
X130000000Y-99499012D01*
X130000000Y-99187070D01*
X141322000Y-99187070D01*
X141322000Y-99312930D01*
X141346431Y-99404108D01*
X141354575Y-99434502D01*
X141354576Y-99434503D01*
X141417505Y-99543499D01*
X141506501Y-99632495D01*
X141615499Y-99695425D01*
X141737070Y-99728000D01*
X141737073Y-99728000D01*
X141862927Y-99728000D01*
X141862930Y-99728000D01*
X141984501Y-99695425D01*
X142093499Y-99632495D01*
X142182495Y-99543499D01*
X142245425Y-99434501D01*
X142278000Y-99312930D01*
X142278000Y-99187070D01*
X142245425Y-99065499D01*
X142182495Y-98956501D01*
X142093499Y-98867505D01*
X141984503Y-98804576D01*
X141984502Y-98804575D01*
X141938940Y-98792367D01*
X141862930Y-98772000D01*
X141737070Y-98772000D01*
X141664127Y-98791545D01*
X141615497Y-98804575D01*
X141615496Y-98804576D01*
X141506504Y-98867503D01*
X141506498Y-98867507D01*
X141417507Y-98956498D01*
X141417503Y-98956504D01*
X141354576Y-99065496D01*
X141354575Y-99065497D01*
X141338347Y-99126061D01*
X141322000Y-99187070D01*
X130000000Y-99187070D01*
X130000000Y-92379996D01*
X130779508Y-92379996D01*
X130779508Y-92380003D01*
X130799352Y-92505300D01*
X130799352Y-92505301D01*
X130809719Y-92525646D01*
X130856950Y-92618342D01*
X130856952Y-92618344D01*
X130856954Y-92618347D01*
X130880926Y-92642319D01*
X130914411Y-92703642D01*
X130909427Y-92773334D01*
X130880926Y-92817681D01*
X130856954Y-92841652D01*
X130856951Y-92841657D01*
X130856950Y-92841658D01*
X130840168Y-92874594D01*
X130799352Y-92954698D01*
X130799352Y-92954699D01*
X130779508Y-93079996D01*
X130779508Y-93080003D01*
X130799352Y-93205300D01*
X130799352Y-93205301D01*
X130808857Y-93223955D01*
X130856950Y-93318342D01*
X130856952Y-93318344D01*
X130856954Y-93318347D01*
X130946652Y-93408045D01*
X130946654Y-93408046D01*
X130946658Y-93408050D01*
X131059696Y-93465646D01*
X131059697Y-93465646D01*
X131059699Y-93465647D01*
X131184997Y-93485492D01*
X131185000Y-93485492D01*
X131185003Y-93485492D01*
X131310300Y-93465647D01*
X131310301Y-93465647D01*
X131310302Y-93465646D01*
X131310304Y-93465646D01*
X131423342Y-93408050D01*
X131513050Y-93318342D01*
X131517754Y-93309109D01*
X131527071Y-93293701D01*
X131540935Y-93274142D01*
X131555049Y-93251171D01*
X131556475Y-93248467D01*
X131556476Y-93248464D01*
X131557418Y-93246679D01*
X131558079Y-93247027D01*
X131603789Y-93197887D01*
X131667111Y-93180500D01*
X131862033Y-93180500D01*
X131929072Y-93200185D01*
X131949714Y-93216819D01*
X133857721Y-95124825D01*
X133857724Y-95124829D01*
X133864792Y-95131897D01*
X133935259Y-95202364D01*
X134027328Y-95240500D01*
X134126984Y-95240500D01*
X136192033Y-95240500D01*
X136259072Y-95260185D01*
X136279714Y-95276819D01*
X139085209Y-98082313D01*
X139085212Y-98082317D01*
X139085213Y-98082317D01*
X139092279Y-98089383D01*
X139092280Y-98089385D01*
X139162747Y-98159852D01*
X139200884Y-98175648D01*
X139254817Y-98197989D01*
X139254818Y-98197989D01*
X139368906Y-98197989D01*
X139368914Y-98197988D01*
X145080234Y-98197988D01*
X145147273Y-98217673D01*
X145167916Y-98234308D01*
X145209141Y-98275534D01*
X145209143Y-98275535D01*
X145209146Y-98275538D01*
X145322184Y-98333134D01*
X145322185Y-98333134D01*
X145322187Y-98333135D01*
X145447485Y-98352980D01*
X145447488Y-98352980D01*
X145447491Y-98352980D01*
X145572788Y-98333135D01*
X145572789Y-98333135D01*
X145572790Y-98333134D01*
X145572792Y-98333134D01*
X145685830Y-98275538D01*
X145685837Y-98275530D01*
X145693729Y-98269799D01*
X145695435Y-98272148D01*
X145743050Y-98246138D01*
X145812743Y-98251111D01*
X145863144Y-98286099D01*
X145921948Y-98353965D01*
X145921950Y-98353966D01*
X145921951Y-98353967D01*
X146030931Y-98424004D01*
X146155225Y-98460499D01*
X146155227Y-98460500D01*
X146155228Y-98460500D01*
X146284773Y-98460500D01*
X146284773Y-98460499D01*
X146409069Y-98424004D01*
X146518049Y-98353967D01*
X146602882Y-98256063D01*
X146656697Y-98138226D01*
X146675133Y-98010000D01*
X146656697Y-97881774D01*
X146602882Y-97763937D01*
X146518049Y-97666033D01*
X146409069Y-97595996D01*
X146409065Y-97595994D01*
X146409064Y-97595994D01*
X146284774Y-97559500D01*
X146284772Y-97559500D01*
X146155228Y-97559500D01*
X146155226Y-97559500D01*
X146030935Y-97595994D01*
X146030932Y-97595995D01*
X146030931Y-97595996D01*
X145994453Y-97619439D01*
X145921948Y-97666034D01*
X145921178Y-97666924D01*
X145920186Y-97667560D01*
X145915246Y-97671842D01*
X145914630Y-97671131D01*
X145862397Y-97704694D01*
X145792528Y-97704690D01*
X145739789Y-97673396D01*
X145685835Y-97619442D01*
X145685832Y-97619440D01*
X145685830Y-97619438D01*
X145572792Y-97561842D01*
X145572791Y-97561841D01*
X145572788Y-97561840D01*
X145459221Y-97543853D01*
X145396086Y-97513924D01*
X145359155Y-97454612D01*
X145356146Y-97440777D01*
X145338159Y-97327211D01*
X145338159Y-97327210D01*
X145338158Y-97327208D01*
X145280562Y-97214170D01*
X145280558Y-97214166D01*
X145280557Y-97214164D01*
X145190859Y-97124466D01*
X145190856Y-97124464D01*
X145190854Y-97124462D01*
X145077816Y-97066866D01*
X145077815Y-97066865D01*
X145077812Y-97066864D01*
X144952515Y-97047020D01*
X144952509Y-97047020D01*
X144827211Y-97066864D01*
X144827210Y-97066864D01*
X144766265Y-97097918D01*
X144714170Y-97124462D01*
X144714169Y-97124463D01*
X144714164Y-97124466D01*
X144624466Y-97214164D01*
X144624461Y-97214171D01*
X144616761Y-97229284D01*
X144568787Y-97280079D01*
X144506277Y-97296988D01*
X139625454Y-97296988D01*
X139558415Y-97277303D01*
X139537773Y-97260669D01*
X138099661Y-95822557D01*
X136654741Y-94377636D01*
X136654740Y-94377635D01*
X136652295Y-94375190D01*
X136631197Y-94336552D01*
X136575821Y-94342108D01*
X136574518Y-94341856D01*
X136562672Y-94339500D01*
X134397966Y-94339500D01*
X134330927Y-94319815D01*
X134310285Y-94303181D01*
X133333266Y-93326162D01*
X132324741Y-92317636D01*
X132282589Y-92300176D01*
X132232673Y-92279500D01*
X132232672Y-92279500D01*
X131667111Y-92279500D01*
X131600072Y-92259815D01*
X131558216Y-92212833D01*
X131557393Y-92213268D01*
X131555026Y-92208782D01*
X131555024Y-92208779D01*
X131555022Y-92208776D01*
X131555019Y-92208770D01*
X131540932Y-92185850D01*
X131527065Y-92166286D01*
X131517748Y-92150879D01*
X131513050Y-92141658D01*
X131513044Y-92141652D01*
X131506497Y-92135105D01*
X131496069Y-92123255D01*
X131491683Y-92117579D01*
X131491270Y-92117088D01*
X131490445Y-92116106D01*
X131486879Y-92111979D01*
X131486870Y-92111971D01*
X131482897Y-92109131D01*
X131467333Y-92095940D01*
X131423347Y-92051954D01*
X131423344Y-92051952D01*
X131423342Y-92051950D01*
X131310304Y-91994354D01*
X131310303Y-91994353D01*
X131310300Y-91994352D01*
X131185003Y-91974508D01*
X131184997Y-91974508D01*
X131059699Y-91994352D01*
X131059698Y-91994352D01*
X130997978Y-92025801D01*
X130946658Y-92051950D01*
X130946657Y-92051951D01*
X130946652Y-92051954D01*
X130856954Y-92141652D01*
X130856951Y-92141657D01*
X130856950Y-92141658D01*
X130844398Y-92166292D01*
X130799352Y-92254698D01*
X130799352Y-92254699D01*
X130779508Y-92379996D01*
X130000000Y-92379996D01*
X130000000Y-90520000D01*
X132324867Y-90520000D01*
X132343302Y-90648225D01*
X132396928Y-90765647D01*
X132397118Y-90766063D01*
X132481951Y-90863967D01*
X132590931Y-90934004D01*
X132686119Y-90961953D01*
X132715225Y-90970499D01*
X132715227Y-90970500D01*
X132715228Y-90970500D01*
X132844773Y-90970500D01*
X132844773Y-90970499D01*
X132969069Y-90934004D01*
X133078049Y-90863967D01*
X133162882Y-90766063D01*
X133216697Y-90648226D01*
X133235133Y-90520000D01*
X133216697Y-90391774D01*
X133162882Y-90273937D01*
X133078049Y-90176033D01*
X132969069Y-90105996D01*
X132969065Y-90105994D01*
X132969064Y-90105994D01*
X132844774Y-90069500D01*
X132844772Y-90069500D01*
X132715228Y-90069500D01*
X132715226Y-90069500D01*
X132590935Y-90105994D01*
X132590932Y-90105995D01*
X132590931Y-90105996D01*
X132565462Y-90122364D01*
X132481950Y-90176033D01*
X132397118Y-90273937D01*
X132397117Y-90273938D01*
X132343302Y-90391774D01*
X132324867Y-90520000D01*
X130000000Y-90520000D01*
X130000000Y-85070000D01*
X132324867Y-85070000D01*
X132343302Y-85198225D01*
X132377534Y-85273181D01*
X132397118Y-85316063D01*
X132481951Y-85413967D01*
X132590931Y-85484004D01*
X132710157Y-85519011D01*
X132715225Y-85520499D01*
X132715227Y-85520500D01*
X132715228Y-85520500D01*
X132844773Y-85520500D01*
X132844773Y-85520499D01*
X132969069Y-85484004D01*
X133078049Y-85413967D01*
X133162882Y-85316063D01*
X133216697Y-85198226D01*
X133235133Y-85070000D01*
X133216697Y-84941774D01*
X133162882Y-84823937D01*
X133078049Y-84726033D01*
X132969069Y-84655996D01*
X132969065Y-84655994D01*
X132969064Y-84655994D01*
X132844774Y-84619500D01*
X132844772Y-84619500D01*
X132715228Y-84619500D01*
X132715226Y-84619500D01*
X132590935Y-84655994D01*
X132590932Y-84655995D01*
X132590931Y-84655996D01*
X132548244Y-84683429D01*
X132481950Y-84726033D01*
X132397118Y-84823937D01*
X132397117Y-84823938D01*
X132343302Y-84941774D01*
X132324867Y-85070000D01*
X130000000Y-85070000D01*
X130000000Y-80500987D01*
X130000017Y-80498961D01*
X130001136Y-80430499D01*
X130002559Y-80343416D01*
X130003602Y-80329283D01*
X130044346Y-80019800D01*
X130047505Y-80003915D01*
X130128032Y-79703385D01*
X130133246Y-79688028D01*
X130164718Y-79612048D01*
X130252306Y-79400592D01*
X130259473Y-79386058D01*
X130415036Y-79116615D01*
X130424038Y-79103143D01*
X130613443Y-78856305D01*
X130624124Y-78844126D01*
X130658250Y-78810000D01*
X135324867Y-78810000D01*
X135343302Y-78938225D01*
X135373313Y-79003938D01*
X135397118Y-79056063D01*
X135441475Y-79107254D01*
X135447812Y-79114568D01*
X135476836Y-79178124D01*
X135466892Y-79247283D01*
X135447812Y-79276971D01*
X135407120Y-79323932D01*
X135407117Y-79323938D01*
X135353302Y-79441774D01*
X135334867Y-79570000D01*
X135353302Y-79698225D01*
X135369612Y-79733938D01*
X135407118Y-79816063D01*
X135459717Y-79876766D01*
X135466477Y-79884568D01*
X135495501Y-79948124D01*
X135485557Y-80017283D01*
X135466477Y-80046971D01*
X135417120Y-80103932D01*
X135417117Y-80103938D01*
X135363302Y-80221774D01*
X135344867Y-80350000D01*
X135363302Y-80478225D01*
X135413814Y-80588828D01*
X135417118Y-80596063D01*
X135490624Y-80680895D01*
X135495976Y-80687072D01*
X135501951Y-80693967D01*
X135610931Y-80764004D01*
X135735225Y-80800499D01*
X135735227Y-80800500D01*
X135735228Y-80800500D01*
X135864773Y-80800500D01*
X135864773Y-80800499D01*
X135989069Y-80764004D01*
X136098049Y-80693967D01*
X136182882Y-80596063D01*
X136236697Y-80478226D01*
X136255133Y-80350000D01*
X136236697Y-80221774D01*
X136206398Y-80155431D01*
X136196455Y-80086274D01*
X136225480Y-80022718D01*
X136284257Y-79984943D01*
X136354127Y-79984943D01*
X136475225Y-80020499D01*
X136475227Y-80020500D01*
X136475228Y-80020500D01*
X136604773Y-80020500D01*
X136604773Y-80020499D01*
X136688227Y-79995996D01*
X136725872Y-79984943D01*
X136795741Y-79984943D01*
X136854519Y-80022718D01*
X136883544Y-80086274D01*
X136873601Y-80155431D01*
X136843302Y-80221776D01*
X136824867Y-80350000D01*
X136843302Y-80478225D01*
X136893814Y-80588828D01*
X136897118Y-80596063D01*
X136970624Y-80680895D01*
X136975976Y-80687072D01*
X136981951Y-80693967D01*
X137090931Y-80764004D01*
X137215225Y-80800499D01*
X137215227Y-80800500D01*
X137215228Y-80800500D01*
X137344773Y-80800500D01*
X137344773Y-80800499D01*
X137469069Y-80764004D01*
X137578049Y-80693967D01*
X137662882Y-80596063D01*
X137716697Y-80478226D01*
X137735133Y-80350000D01*
X137716697Y-80221774D01*
X137662882Y-80103937D01*
X137662880Y-80103935D01*
X137662879Y-80103932D01*
X137608523Y-80041202D01*
X137579498Y-79977647D01*
X137589442Y-79908488D01*
X137608523Y-79878798D01*
X137662879Y-79816067D01*
X137662879Y-79816065D01*
X137662882Y-79816063D01*
X137716697Y-79698226D01*
X137735133Y-79570000D01*
X137716697Y-79441774D01*
X137662882Y-79323937D01*
X137612186Y-79265430D01*
X137583163Y-79201875D01*
X137593107Y-79132716D01*
X137612185Y-79103030D01*
X137652882Y-79056063D01*
X137706697Y-78938226D01*
X137725133Y-78810000D01*
X137706697Y-78681774D01*
X137652882Y-78563937D01*
X137568049Y-78466033D01*
X137459069Y-78395996D01*
X137459065Y-78395994D01*
X137459064Y-78395994D01*
X137334774Y-78359500D01*
X137334772Y-78359500D01*
X137205228Y-78359500D01*
X137205226Y-78359500D01*
X137080933Y-78395994D01*
X137080932Y-78395994D01*
X136967038Y-78469189D01*
X136899999Y-78488873D01*
X136832962Y-78469189D01*
X136719066Y-78395994D01*
X136594774Y-78359500D01*
X136594772Y-78359500D01*
X136465228Y-78359500D01*
X136465226Y-78359500D01*
X136340935Y-78395994D01*
X136340932Y-78395995D01*
X136340931Y-78395996D01*
X136234884Y-78464148D01*
X136224490Y-78470828D01*
X136222936Y-78468410D01*
X136172624Y-78491376D01*
X136103467Y-78481420D01*
X136085941Y-78470156D01*
X136085510Y-78470828D01*
X136075116Y-78464148D01*
X135969069Y-78395996D01*
X135969065Y-78395994D01*
X135969064Y-78395994D01*
X135844774Y-78359500D01*
X135844772Y-78359500D01*
X135715228Y-78359500D01*
X135715226Y-78359500D01*
X135590935Y-78395994D01*
X135590932Y-78395995D01*
X135590931Y-78395996D01*
X135561304Y-78415036D01*
X135481950Y-78466033D01*
X135397118Y-78563937D01*
X135397117Y-78563938D01*
X135343302Y-78681774D01*
X135324867Y-78810000D01*
X130658250Y-78810000D01*
X130844126Y-78624124D01*
X130856305Y-78613443D01*
X131103143Y-78424038D01*
X131116615Y-78415036D01*
X131386058Y-78259473D01*
X131400592Y-78252306D01*
X131688030Y-78133245D01*
X131703387Y-78128032D01*
X132003915Y-78047505D01*
X132019800Y-78044346D01*
X132329283Y-78003602D01*
X132343416Y-78002559D01*
X132496083Y-78000064D01*
X132498961Y-78000017D01*
X132500987Y-78000000D01*
X140672962Y-78000000D01*
X140740001Y-78019685D01*
G37*
%TD.AperFunction*%
%TA.AperFunction,Conductor*%
G36*
X144827144Y-101309596D02*
G01*
X144866860Y-101359606D01*
X144867663Y-101359198D01*
X144869681Y-101363159D01*
X144870596Y-101364311D01*
X144871424Y-101366579D01*
X144872092Y-101367891D01*
X144872093Y-101367893D01*
X144929689Y-101480931D01*
X144929691Y-101480933D01*
X144929693Y-101480936D01*
X145019391Y-101570634D01*
X145019393Y-101570635D01*
X145019397Y-101570639D01*
X145132435Y-101628235D01*
X145132436Y-101628235D01*
X145132438Y-101628236D01*
X145257736Y-101648081D01*
X145257738Y-101648081D01*
X145257738Y-101648080D01*
X145257739Y-101648081D01*
X145299268Y-101641503D01*
X145368560Y-101650457D01*
X145422012Y-101695452D01*
X145429148Y-101707676D01*
X145430007Y-101709363D01*
X145508963Y-101788319D01*
X145542448Y-101849642D01*
X145537464Y-101919334D01*
X145495592Y-101975267D01*
X145430128Y-101999684D01*
X145421282Y-102000000D01*
X144085755Y-102000000D01*
X144018716Y-101980315D01*
X143972961Y-101927511D01*
X143963017Y-101858353D01*
X143992042Y-101794797D01*
X143998074Y-101788319D01*
X144088045Y-101698347D01*
X144088050Y-101698342D01*
X144130328Y-101615366D01*
X144178302Y-101564572D01*
X144246123Y-101547777D01*
X144260210Y-101549190D01*
X144299998Y-101555492D01*
X144300000Y-101555492D01*
X144300003Y-101555492D01*
X144425300Y-101535647D01*
X144425301Y-101535647D01*
X144425302Y-101535646D01*
X144425304Y-101535646D01*
X144538342Y-101478050D01*
X144628050Y-101388342D01*
X144645217Y-101354649D01*
X144693188Y-101303856D01*
X144761009Y-101287060D01*
X144827144Y-101309596D01*
G37*
%TD.AperFunction*%
%TA.AperFunction,Conductor*%
G36*
X162501039Y-78000017D02*
G01*
X162503981Y-78000065D01*
X162656582Y-78002559D01*
X162670718Y-78003602D01*
X162980196Y-78044345D01*
X162996087Y-78047506D01*
X163240218Y-78112921D01*
X163296612Y-78128032D01*
X163311971Y-78133246D01*
X163599400Y-78252303D01*
X163613947Y-78259477D01*
X163669262Y-78291413D01*
X163878040Y-78411951D01*
X163883377Y-78415032D01*
X163896863Y-78424043D01*
X164143686Y-78613437D01*
X164155881Y-78624132D01*
X164375867Y-78844118D01*
X164386562Y-78856313D01*
X164575956Y-79103136D01*
X164584967Y-79116622D01*
X164740522Y-79386052D01*
X164747696Y-79400599D01*
X164866753Y-79688028D01*
X164871967Y-79703387D01*
X164952491Y-80003903D01*
X164955655Y-80019812D01*
X164996396Y-80329270D01*
X164997440Y-80343428D01*
X164999983Y-80498960D01*
X165000000Y-80500987D01*
X165000000Y-93015677D01*
X164980315Y-93082716D01*
X164927511Y-93128471D01*
X164858353Y-93138415D01*
X164824484Y-93128469D01*
X164819066Y-93125994D01*
X164694774Y-93089500D01*
X164694772Y-93089500D01*
X164565228Y-93089500D01*
X164565226Y-93089500D01*
X164440935Y-93125994D01*
X164440932Y-93125995D01*
X164440931Y-93125996D01*
X164404000Y-93149730D01*
X164331950Y-93196033D01*
X164247118Y-93293937D01*
X164247117Y-93293938D01*
X164193302Y-93411774D01*
X164174867Y-93540000D01*
X164193302Y-93668225D01*
X164235444Y-93760501D01*
X164247118Y-93786063D01*
X164331951Y-93883967D01*
X164440931Y-93954004D01*
X164565225Y-93990499D01*
X164565227Y-93990500D01*
X164565228Y-93990500D01*
X164694773Y-93990500D01*
X164694773Y-93990499D01*
X164819069Y-93954004D01*
X164819077Y-93953998D01*
X164824477Y-93951533D01*
X164893634Y-93941582D01*
X164957193Y-93970601D01*
X164994973Y-94029375D01*
X165000000Y-94064322D01*
X165000000Y-99499012D01*
X164999983Y-99501039D01*
X164997440Y-99656571D01*
X164996396Y-99670729D01*
X164955655Y-99980187D01*
X164952491Y-99996096D01*
X164871967Y-100296612D01*
X164866753Y-100311971D01*
X164747696Y-100599400D01*
X164740522Y-100613947D01*
X164584967Y-100883377D01*
X164575956Y-100896863D01*
X164386562Y-101143686D01*
X164375867Y-101155881D01*
X164155881Y-101375867D01*
X164143686Y-101386562D01*
X163896863Y-101575956D01*
X163883377Y-101584967D01*
X163613947Y-101740522D01*
X163599400Y-101747696D01*
X163311971Y-101866753D01*
X163296612Y-101871967D01*
X162996096Y-101952491D01*
X162980187Y-101955655D01*
X162670729Y-101996396D01*
X162656571Y-101997440D01*
X162501040Y-101999983D01*
X162499013Y-102000000D01*
X152094836Y-102000000D01*
X152027797Y-101980315D01*
X151982042Y-101927511D01*
X151972098Y-101858353D01*
X152001123Y-101794797D01*
X152007155Y-101788319D01*
X152086104Y-101709369D01*
X152086109Y-101709364D01*
X152143705Y-101596326D01*
X152143705Y-101596324D01*
X152143706Y-101596323D01*
X152143706Y-101596322D01*
X152163551Y-101471025D01*
X152163551Y-101471018D01*
X152143706Y-101345721D01*
X152143706Y-101345720D01*
X152143705Y-101345718D01*
X152086109Y-101232680D01*
X152086105Y-101232676D01*
X152086104Y-101232674D01*
X152055611Y-101202181D01*
X152022126Y-101140858D01*
X152027110Y-101071166D01*
X152068982Y-101015233D01*
X152134446Y-100990816D01*
X152143292Y-100990500D01*
X155339826Y-100990500D01*
X155339828Y-100990500D01*
X155431897Y-100952364D01*
X158114455Y-98269803D01*
X158114458Y-98269802D01*
X158131896Y-98252364D01*
X158131897Y-98252364D01*
X158157232Y-98227028D01*
X158218552Y-98193544D01*
X158288244Y-98198528D01*
X158311950Y-98210394D01*
X158359342Y-98240850D01*
X158405098Y-98293653D01*
X158415042Y-98362811D01*
X158386018Y-98426367D01*
X158327241Y-98464142D01*
X158320936Y-98465993D01*
X158211950Y-98536033D01*
X158127118Y-98633937D01*
X158127117Y-98633938D01*
X158073302Y-98751774D01*
X158054867Y-98880000D01*
X158073302Y-99008225D01*
X158127117Y-99126061D01*
X158127118Y-99126063D01*
X158150482Y-99153027D01*
X158179506Y-99216584D01*
X158169562Y-99285742D01*
X158150483Y-99315429D01*
X158117120Y-99353933D01*
X158117117Y-99353938D01*
X158063302Y-99471774D01*
X158044867Y-99600000D01*
X158063302Y-99728225D01*
X158080569Y-99766033D01*
X158117118Y-99846063D01*
X158201951Y-99943967D01*
X158310931Y-100014004D01*
X158343487Y-100023563D01*
X158435225Y-100050499D01*
X158435227Y-100050500D01*
X158435228Y-100050500D01*
X158564773Y-100050500D01*
X158564773Y-100050499D01*
X158689069Y-100014004D01*
X158798049Y-99943967D01*
X158882882Y-99846063D01*
X158936697Y-99728226D01*
X158955133Y-99600000D01*
X158936697Y-99471774D01*
X158882882Y-99353937D01*
X158859516Y-99326971D01*
X158830493Y-99263416D01*
X158840437Y-99194257D01*
X158859516Y-99164569D01*
X158892882Y-99126063D01*
X158946697Y-99008226D01*
X158965133Y-98880000D01*
X158946697Y-98751774D01*
X158892882Y-98633937D01*
X158808049Y-98536033D01*
X158750655Y-98499148D01*
X158704901Y-98446345D01*
X158694957Y-98377186D01*
X158723982Y-98313630D01*
X158782758Y-98275856D01*
X158789069Y-98274004D01*
X158898049Y-98203967D01*
X158982882Y-98106063D01*
X159036697Y-97988226D01*
X159055133Y-97860000D01*
X159036697Y-97731774D01*
X158982882Y-97613937D01*
X158898049Y-97516033D01*
X158789069Y-97445996D01*
X158789065Y-97445994D01*
X158789064Y-97445994D01*
X158664774Y-97409500D01*
X158664772Y-97409500D01*
X158535228Y-97409500D01*
X158535226Y-97409500D01*
X158402421Y-97448494D01*
X158401614Y-97445745D01*
X158346849Y-97453618D01*
X158283294Y-97424591D01*
X158245522Y-97365812D01*
X158240500Y-97330881D01*
X158240500Y-97285121D01*
X158260185Y-97218082D01*
X158276814Y-97197444D01*
X159354455Y-96119803D01*
X159354458Y-96119802D01*
X159371896Y-96102364D01*
X159371897Y-96102364D01*
X159442364Y-96031897D01*
X159480500Y-95939828D01*
X159480500Y-94580172D01*
X159442364Y-94488103D01*
X159371897Y-94417636D01*
X158966819Y-94012558D01*
X158933334Y-93951235D01*
X158930500Y-93924877D01*
X158930500Y-92300176D01*
X158930499Y-92300173D01*
X158892364Y-92208106D01*
X158821897Y-92137639D01*
X158110267Y-91426009D01*
X158089164Y-91397843D01*
X158088916Y-91397389D01*
X158088913Y-91397386D01*
X158086302Y-91392612D01*
X158071397Y-91324350D01*
X158095763Y-91258867D01*
X158146854Y-91220558D01*
X158146609Y-91220076D01*
X158149381Y-91218663D01*
X158151664Y-91216952D01*
X158155084Y-91215757D01*
X158155300Y-91215646D01*
X158155304Y-91215646D01*
X158268342Y-91158050D01*
X158358050Y-91068342D01*
X158415646Y-90955304D01*
X158415646Y-90955302D01*
X158415647Y-90955301D01*
X158415647Y-90955300D01*
X158435492Y-90830003D01*
X158435492Y-90829996D01*
X158415647Y-90704699D01*
X158415647Y-90704698D01*
X158413211Y-90699917D01*
X158358050Y-90591658D01*
X158358046Y-90591654D01*
X158358045Y-90591652D01*
X158346393Y-90580000D01*
X163544867Y-90580000D01*
X163563302Y-90708225D01*
X163611136Y-90812964D01*
X163617118Y-90826063D01*
X163701951Y-90923967D01*
X163810931Y-90994004D01*
X163935225Y-91030499D01*
X163935227Y-91030500D01*
X163935228Y-91030500D01*
X164064773Y-91030500D01*
X164064773Y-91030499D01*
X164189069Y-90994004D01*
X164298049Y-90923967D01*
X164382882Y-90826063D01*
X164436697Y-90708226D01*
X164455133Y-90580000D01*
X164436697Y-90451774D01*
X164382882Y-90333937D01*
X164298049Y-90236033D01*
X164189069Y-90165996D01*
X164189065Y-90165994D01*
X164189064Y-90165994D01*
X164064774Y-90129500D01*
X164064772Y-90129500D01*
X163935228Y-90129500D01*
X163935226Y-90129500D01*
X163810935Y-90165994D01*
X163810932Y-90165995D01*
X163810931Y-90165996D01*
X163771766Y-90191166D01*
X163701950Y-90236033D01*
X163617118Y-90333937D01*
X163617117Y-90333938D01*
X163563302Y-90451774D01*
X163544867Y-90580000D01*
X158346393Y-90580000D01*
X158268347Y-90501954D01*
X158268344Y-90501952D01*
X158268342Y-90501950D01*
X158155304Y-90444354D01*
X158155303Y-90444353D01*
X158155300Y-90444352D01*
X158030003Y-90424508D01*
X158029997Y-90424508D01*
X157904699Y-90444352D01*
X157904698Y-90444352D01*
X157829337Y-90482751D01*
X157791658Y-90501950D01*
X157791657Y-90501951D01*
X157791652Y-90501954D01*
X157701954Y-90591652D01*
X157701951Y-90591657D01*
X157644352Y-90704698D01*
X157629861Y-90796198D01*
X157599932Y-90859332D01*
X157540621Y-90896264D01*
X157526788Y-90899273D01*
X157495760Y-90904188D01*
X157426467Y-90895234D01*
X157373014Y-90850239D01*
X157361799Y-90829167D01*
X157361671Y-90828858D01*
X157332364Y-90758103D01*
X157261897Y-90687636D01*
X156931897Y-90357636D01*
X156931896Y-90357635D01*
X156931894Y-90357634D01*
X156881491Y-90336756D01*
X156827088Y-90292915D01*
X156805024Y-90226620D01*
X156822304Y-90158921D01*
X156872648Y-90111713D01*
X156958342Y-90068050D01*
X157048050Y-89978342D01*
X157105646Y-89865304D01*
X157105646Y-89865302D01*
X157105647Y-89865301D01*
X157105647Y-89865300D01*
X157125492Y-89740003D01*
X157125492Y-89739996D01*
X157105647Y-89614699D01*
X157105647Y-89614698D01*
X157090396Y-89584767D01*
X157048050Y-89501658D01*
X157048046Y-89501654D01*
X157048045Y-89501652D01*
X156958347Y-89411954D01*
X156958344Y-89411952D01*
X156958342Y-89411950D01*
X156845304Y-89354354D01*
X156845303Y-89354353D01*
X156845300Y-89354352D01*
X156720003Y-89334508D01*
X156720001Y-89334508D01*
X156720000Y-89334508D01*
X156713895Y-89335474D01*
X156644604Y-89326519D01*
X156591152Y-89281522D01*
X156570513Y-89214771D01*
X156570500Y-89213001D01*
X156570500Y-88666998D01*
X156590185Y-88599959D01*
X156642989Y-88554204D01*
X156712147Y-88544260D01*
X156713832Y-88544515D01*
X156720000Y-88545492D01*
X156750398Y-88540677D01*
X156819689Y-88549631D01*
X156873142Y-88594626D01*
X156884356Y-88615695D01*
X156907636Y-88671897D01*
X157086636Y-88850897D01*
X157259730Y-89023990D01*
X157277491Y-89047696D01*
X157277654Y-89047586D01*
X157280155Y-89051253D01*
X157280835Y-89052160D01*
X157281081Y-89052609D01*
X157281085Y-89052616D01*
X157281087Y-89052618D01*
X157281090Y-89052623D01*
X157296386Y-89070899D01*
X157322422Y-89123941D01*
X157323407Y-89128436D01*
X157323997Y-89131291D01*
X157335633Y-89191083D01*
X157338542Y-89203856D01*
X157338898Y-89205217D01*
X157338903Y-89205234D01*
X157338908Y-89205253D01*
X157341107Y-89212695D01*
X157342599Y-89217743D01*
X157360685Y-89272506D01*
X157362133Y-89278471D01*
X157365495Y-89288819D01*
X157368091Y-89294891D01*
X157368162Y-89294865D01*
X157368541Y-89295891D01*
X157368813Y-89296627D01*
X157372149Y-89301862D01*
X157378050Y-89312186D01*
X157405818Y-89366682D01*
X157421951Y-89398344D01*
X157511652Y-89488045D01*
X157511654Y-89488046D01*
X157511658Y-89488050D01*
X157624696Y-89545646D01*
X157624697Y-89545646D01*
X157624699Y-89545647D01*
X157749997Y-89565492D01*
X157750000Y-89565492D01*
X157750003Y-89565492D01*
X157875300Y-89545647D01*
X157875301Y-89545647D01*
X157875302Y-89545646D01*
X157875304Y-89545646D01*
X157988342Y-89488050D01*
X158078050Y-89398342D01*
X158135646Y-89285304D01*
X158147146Y-89212691D01*
X158177074Y-89149560D01*
X158236385Y-89112628D01*
X158250210Y-89109620D01*
X158275304Y-89105646D01*
X158388342Y-89048050D01*
X158478050Y-88958342D01*
X158535646Y-88845304D01*
X158535646Y-88845302D01*
X158535647Y-88845301D01*
X158535647Y-88845300D01*
X158555492Y-88720003D01*
X158555492Y-88719996D01*
X158535647Y-88594699D01*
X158535647Y-88594698D01*
X158521372Y-88566682D01*
X158478050Y-88481658D01*
X158478046Y-88481654D01*
X158478045Y-88481652D01*
X158388347Y-88391954D01*
X158388343Y-88391951D01*
X158388342Y-88391950D01*
X158361635Y-88378342D01*
X158319201Y-88356720D01*
X158268405Y-88308745D01*
X158251611Y-88240924D01*
X158274149Y-88174789D01*
X158281774Y-88165044D01*
X158332882Y-88106063D01*
X158386697Y-87988226D01*
X158405133Y-87860000D01*
X158386697Y-87731774D01*
X158332882Y-87613937D01*
X158248049Y-87516033D01*
X158139069Y-87445996D01*
X158139065Y-87445994D01*
X158139064Y-87445994D01*
X158014774Y-87409500D01*
X158014772Y-87409500D01*
X157885228Y-87409500D01*
X157885226Y-87409500D01*
X157760935Y-87445994D01*
X157760932Y-87445995D01*
X157760931Y-87445996D01*
X157651951Y-87516033D01*
X157651948Y-87516035D01*
X157588213Y-87589590D01*
X157529435Y-87627365D01*
X157459566Y-87627365D01*
X157400787Y-87589591D01*
X157371762Y-87526036D01*
X157370500Y-87508388D01*
X157370500Y-87155123D01*
X157390185Y-87088084D01*
X157406819Y-87067442D01*
X157636619Y-86837642D01*
X157872364Y-86601897D01*
X157910500Y-86509828D01*
X157910500Y-86410173D01*
X157910500Y-86118584D01*
X157910501Y-86118575D01*
X157910501Y-86004488D01*
X157910500Y-86004484D01*
X157904500Y-85990000D01*
X158684867Y-85990000D01*
X158703302Y-86118225D01*
X158743771Y-86206837D01*
X158757118Y-86236063D01*
X158841951Y-86333967D01*
X158950931Y-86404004D01*
X159075225Y-86440499D01*
X159075227Y-86440500D01*
X159075228Y-86440500D01*
X159204773Y-86440500D01*
X159204773Y-86440499D01*
X159329069Y-86404004D01*
X159438049Y-86333967D01*
X159438049Y-86333966D01*
X159441698Y-86331622D01*
X159508738Y-86311938D01*
X159575777Y-86331623D01*
X159589935Y-86342221D01*
X159591947Y-86343964D01*
X159591950Y-86343966D01*
X159591951Y-86343967D01*
X159700931Y-86414004D01*
X159825225Y-86450499D01*
X159825227Y-86450500D01*
X159825228Y-86450500D01*
X159954773Y-86450500D01*
X159954773Y-86450499D01*
X160079069Y-86414004D01*
X160188049Y-86343967D01*
X160188049Y-86343966D01*
X160195510Y-86339172D01*
X160197555Y-86342354D01*
X160244683Y-86320640D01*
X160313874Y-86330349D01*
X160329784Y-86339001D01*
X160430931Y-86404004D01*
X160555225Y-86440499D01*
X160555227Y-86440500D01*
X160555228Y-86440500D01*
X160684773Y-86440500D01*
X160684773Y-86440499D01*
X160809069Y-86404004D01*
X160918049Y-86333967D01*
X161002882Y-86236063D01*
X161056697Y-86118226D01*
X161075133Y-85990000D01*
X161056697Y-85861774D01*
X161002882Y-85743937D01*
X160918049Y-85646033D01*
X160809069Y-85575996D01*
X160809065Y-85575994D01*
X160809064Y-85575994D01*
X160684774Y-85539500D01*
X160684772Y-85539500D01*
X160555228Y-85539500D01*
X160555226Y-85539500D01*
X160430935Y-85575994D01*
X160430932Y-85575995D01*
X160430931Y-85575996D01*
X160334340Y-85638071D01*
X160314490Y-85650828D01*
X160312495Y-85647723D01*
X160264651Y-85669456D01*
X160195513Y-85659371D01*
X160180216Y-85650998D01*
X160079066Y-85585994D01*
X159954774Y-85549500D01*
X159954772Y-85549500D01*
X159825228Y-85549500D01*
X159825226Y-85549500D01*
X159700933Y-85585994D01*
X159700932Y-85585994D01*
X159588300Y-85658378D01*
X159521261Y-85678062D01*
X159454221Y-85658377D01*
X159440058Y-85647774D01*
X159438049Y-85646033D01*
X159425660Y-85638071D01*
X159329069Y-85575996D01*
X159329065Y-85575994D01*
X159329064Y-85575994D01*
X159204774Y-85539500D01*
X159204772Y-85539500D01*
X159075228Y-85539500D01*
X159075226Y-85539500D01*
X158950935Y-85575994D01*
X158950932Y-85575995D01*
X158950931Y-85575996D01*
X158914665Y-85599303D01*
X158841950Y-85646033D01*
X158757118Y-85743937D01*
X158757117Y-85743938D01*
X158703302Y-85861774D01*
X158684867Y-85990000D01*
X157904500Y-85990000D01*
X157879248Y-85929036D01*
X157872365Y-85912420D01*
X157872364Y-85912417D01*
X157801897Y-85841950D01*
X157794832Y-85834885D01*
X157794825Y-85834879D01*
X157307583Y-85347636D01*
X157215515Y-85309500D01*
X157215514Y-85309500D01*
X156908014Y-85309500D01*
X156840975Y-85289815D01*
X156820333Y-85273181D01*
X156510006Y-84962853D01*
X156476521Y-84901530D01*
X156481505Y-84831838D01*
X156523377Y-84775905D01*
X156530636Y-84770864D01*
X156588049Y-84733968D01*
X156672882Y-84636064D01*
X156726697Y-84518227D01*
X156745133Y-84390001D01*
X156726697Y-84261775D01*
X156672882Y-84143938D01*
X156613978Y-84075958D01*
X156584954Y-84012402D01*
X156594898Y-83943243D01*
X156597208Y-83938460D01*
X156629696Y-83874699D01*
X156633797Y-83866651D01*
X156633797Y-83866649D01*
X156633798Y-83866647D01*
X156653643Y-83741350D01*
X156653643Y-83741343D01*
X156633798Y-83616046D01*
X156633798Y-83616045D01*
X156622824Y-83594508D01*
X156576201Y-83503005D01*
X156576197Y-83503001D01*
X156576196Y-83502999D01*
X156486498Y-83413301D01*
X156486495Y-83413299D01*
X156486493Y-83413297D01*
X156373455Y-83355701D01*
X156373454Y-83355700D01*
X156373451Y-83355699D01*
X156248154Y-83335855D01*
X156248148Y-83335855D01*
X156122850Y-83355699D01*
X156122849Y-83355699D01*
X156047488Y-83394098D01*
X156009809Y-83413297D01*
X156009808Y-83413298D01*
X156009803Y-83413301D01*
X155920105Y-83502999D01*
X155920102Y-83503004D01*
X155862503Y-83616045D01*
X155862503Y-83616046D01*
X155842659Y-83741343D01*
X155842659Y-83741350D01*
X155862503Y-83866647D01*
X155862503Y-83866648D01*
X155920103Y-83979693D01*
X155921210Y-83981216D01*
X155921981Y-83983378D01*
X155924532Y-83988384D01*
X155923884Y-83988713D01*
X155944687Y-84047023D01*
X155928859Y-84115076D01*
X155914608Y-84135293D01*
X155907118Y-84143937D01*
X155905787Y-84146009D01*
X155903929Y-84147617D01*
X155901316Y-84150635D01*
X155900881Y-84150258D01*
X155852980Y-84191760D01*
X155783820Y-84201699D01*
X155720267Y-84172669D01*
X155713815Y-84166662D01*
X155586816Y-84039664D01*
X155553334Y-83978343D01*
X155550500Y-83951985D01*
X155550500Y-81620173D01*
X155550499Y-81620170D01*
X155525574Y-81559996D01*
X155512364Y-81528103D01*
X155441897Y-81457636D01*
X155434832Y-81450571D01*
X155434825Y-81450565D01*
X154634089Y-80649829D01*
X153831897Y-79847636D01*
X153739829Y-79809500D01*
X153739828Y-79809500D01*
X152995123Y-79809500D01*
X152928084Y-79789815D01*
X152907442Y-79773181D01*
X152536970Y-79402709D01*
X152503485Y-79341386D01*
X152500651Y-79315028D01*
X152500651Y-78898357D01*
X152520336Y-78831318D01*
X152536971Y-78810675D01*
X152567646Y-78780000D01*
X157284867Y-78780000D01*
X157303302Y-78908225D01*
X157339447Y-78987370D01*
X157357118Y-79026063D01*
X157395994Y-79070929D01*
X157407812Y-79084568D01*
X157436836Y-79148124D01*
X157426892Y-79217283D01*
X157407812Y-79246971D01*
X157367120Y-79293932D01*
X157367117Y-79293938D01*
X157313302Y-79411774D01*
X157294867Y-79540000D01*
X157313302Y-79668225D01*
X157343313Y-79733938D01*
X157367118Y-79786063D01*
X157424046Y-79851762D01*
X157457759Y-79890670D01*
X157455914Y-79892267D01*
X157486632Y-79940064D01*
X157486633Y-80009933D01*
X157455915Y-80057732D01*
X157457759Y-80059330D01*
X157367118Y-80163937D01*
X157367117Y-80163938D01*
X157313302Y-80281774D01*
X157294867Y-80410000D01*
X157313302Y-80538225D01*
X157364271Y-80649829D01*
X157367118Y-80656063D01*
X157451951Y-80753967D01*
X157560931Y-80824004D01*
X157685225Y-80860499D01*
X157685227Y-80860500D01*
X157685228Y-80860500D01*
X157814773Y-80860500D01*
X157814773Y-80860499D01*
X157939069Y-80824004D01*
X158048049Y-80753967D01*
X158132882Y-80656063D01*
X158186697Y-80538226D01*
X158205133Y-80410000D01*
X158186697Y-80281774D01*
X158132882Y-80163937D01*
X158063407Y-80083757D01*
X158034383Y-80020201D01*
X158044327Y-79951042D01*
X158090083Y-79898239D01*
X158157122Y-79878555D01*
X158224157Y-79898238D01*
X158310931Y-79954004D01*
X158310932Y-79954004D01*
X158310935Y-79954006D01*
X158435225Y-79990499D01*
X158435227Y-79990500D01*
X158435228Y-79990500D01*
X158564773Y-79990500D01*
X158564773Y-79990499D01*
X158689069Y-79954004D01*
X158730709Y-79927243D01*
X158797746Y-79907559D01*
X158864786Y-79927243D01*
X158910541Y-79980047D01*
X158920485Y-80049205D01*
X158891461Y-80112760D01*
X158847120Y-80163932D01*
X158847117Y-80163938D01*
X158793302Y-80281774D01*
X158774867Y-80410000D01*
X158793302Y-80538225D01*
X158844271Y-80649829D01*
X158847118Y-80656063D01*
X158931951Y-80753967D01*
X159040931Y-80824004D01*
X159165225Y-80860499D01*
X159165227Y-80860500D01*
X159165228Y-80860500D01*
X159294773Y-80860500D01*
X159294773Y-80860499D01*
X159419069Y-80824004D01*
X159528049Y-80753967D01*
X159612882Y-80656063D01*
X159666697Y-80538226D01*
X159685133Y-80410000D01*
X159666697Y-80281774D01*
X159612882Y-80163937D01*
X159564608Y-80108225D01*
X159523433Y-80060705D01*
X159494409Y-79997149D01*
X159504353Y-79927990D01*
X159532272Y-79890697D01*
X159532241Y-79890670D01*
X159532623Y-79890228D01*
X159535951Y-79885784D01*
X159538043Y-79883970D01*
X159538049Y-79883967D01*
X159622882Y-79786063D01*
X159676697Y-79668226D01*
X159695133Y-79540000D01*
X159676697Y-79411774D01*
X159622882Y-79293937D01*
X159572186Y-79235430D01*
X159543163Y-79171875D01*
X159553107Y-79102716D01*
X159572185Y-79073030D01*
X159612882Y-79026063D01*
X159666697Y-78908226D01*
X159685133Y-78780000D01*
X159666697Y-78651774D01*
X159612882Y-78533937D01*
X159528049Y-78436033D01*
X159419069Y-78365996D01*
X159419065Y-78365994D01*
X159419064Y-78365994D01*
X159294774Y-78329500D01*
X159294772Y-78329500D01*
X159165228Y-78329500D01*
X159165226Y-78329500D01*
X159040933Y-78365994D01*
X159040932Y-78365994D01*
X158927038Y-78439189D01*
X158859999Y-78458873D01*
X158792962Y-78439189D01*
X158679066Y-78365994D01*
X158554774Y-78329500D01*
X158554772Y-78329500D01*
X158425228Y-78329500D01*
X158425226Y-78329500D01*
X158300935Y-78365994D01*
X158300932Y-78365995D01*
X158300931Y-78365996D01*
X158224623Y-78415036D01*
X158184490Y-78440828D01*
X158182936Y-78438410D01*
X158132624Y-78461376D01*
X158063467Y-78451420D01*
X158045941Y-78440156D01*
X158045510Y-78440828D01*
X158019384Y-78424038D01*
X157929069Y-78365996D01*
X157929065Y-78365994D01*
X157929064Y-78365994D01*
X157804774Y-78329500D01*
X157804772Y-78329500D01*
X157675228Y-78329500D01*
X157675226Y-78329500D01*
X157550935Y-78365994D01*
X157550932Y-78365995D01*
X157550931Y-78365996D01*
X157541094Y-78372318D01*
X157441950Y-78436033D01*
X157357118Y-78533937D01*
X157357117Y-78533938D01*
X157303302Y-78651774D01*
X157284867Y-78780000D01*
X152567646Y-78780000D01*
X152578197Y-78769449D01*
X152578201Y-78769445D01*
X152635797Y-78656407D01*
X152635797Y-78656405D01*
X152635798Y-78656404D01*
X152635798Y-78656403D01*
X152655643Y-78531106D01*
X152655643Y-78531099D01*
X152635798Y-78405802D01*
X152635798Y-78405801D01*
X152629789Y-78394008D01*
X152578201Y-78292761D01*
X152578197Y-78292757D01*
X152578196Y-78292755D01*
X152497122Y-78211681D01*
X152463637Y-78150358D01*
X152468621Y-78080666D01*
X152510493Y-78024733D01*
X152575957Y-78000316D01*
X152584803Y-78000000D01*
X162499013Y-78000000D01*
X162501039Y-78000017D01*
G37*
%TD.AperFunction*%
%TA.AperFunction,Conductor*%
G36*
X155883867Y-94939769D02*
G01*
X155920000Y-94945492D01*
X155926097Y-94944526D01*
X155995389Y-94953477D01*
X156048844Y-94998470D01*
X156069487Y-95065221D01*
X156069500Y-95066998D01*
X156069500Y-97844877D01*
X156049815Y-97911916D01*
X156033181Y-97932558D01*
X154422558Y-99543181D01*
X154361235Y-99576666D01*
X154334877Y-99579500D01*
X153768172Y-99579500D01*
X153701133Y-99559815D01*
X153655378Y-99507011D01*
X153645434Y-99437853D01*
X153648394Y-99423420D01*
X153678000Y-99312930D01*
X153678000Y-99187070D01*
X153645425Y-99065499D01*
X153582495Y-98956501D01*
X153493499Y-98867505D01*
X153384503Y-98804576D01*
X153384502Y-98804575D01*
X153370826Y-98800910D01*
X153338936Y-98792365D01*
X153279278Y-98756002D01*
X153248749Y-98693155D01*
X153257044Y-98623779D01*
X153301529Y-98569901D01*
X153368081Y-98548627D01*
X153371032Y-98548592D01*
X154289826Y-98548592D01*
X154289828Y-98548592D01*
X154381897Y-98510456D01*
X155614455Y-97277895D01*
X155614458Y-97277894D01*
X155631896Y-97260456D01*
X155631897Y-97260456D01*
X155702364Y-97189989D01*
X155740500Y-97097920D01*
X155740500Y-95062247D01*
X155760185Y-94995208D01*
X155812989Y-94949453D01*
X155882147Y-94939509D01*
X155883867Y-94939769D01*
G37*
%TD.AperFunction*%
%TA.AperFunction,Conductor*%
G36*
X140674593Y-92748853D02*
G01*
X141940565Y-94014825D01*
X141940568Y-94014829D01*
X141947636Y-94021897D01*
X142018103Y-94092364D01*
X142110172Y-94130500D01*
X142209828Y-94130500D01*
X142406841Y-94130500D01*
X142473880Y-94150185D01*
X142519635Y-94202989D01*
X142529579Y-94272147D01*
X142519635Y-94306011D01*
X142503303Y-94341772D01*
X142503302Y-94341773D01*
X142484867Y-94470000D01*
X142503302Y-94598225D01*
X142540648Y-94679999D01*
X142557118Y-94716063D01*
X142641951Y-94813967D01*
X142750931Y-94884004D01*
X142875225Y-94920499D01*
X142875227Y-94920500D01*
X142875228Y-94920500D01*
X143004773Y-94920500D01*
X143004773Y-94920499D01*
X143129069Y-94884004D01*
X143238049Y-94813967D01*
X143322882Y-94716063D01*
X143376697Y-94598226D01*
X143395133Y-94470000D01*
X143378160Y-94351950D01*
X143376697Y-94341773D01*
X143376696Y-94341772D01*
X143360365Y-94306011D01*
X143350421Y-94236853D01*
X143379446Y-94173297D01*
X143438224Y-94135523D01*
X143473159Y-94130500D01*
X145477223Y-94130500D01*
X145524674Y-94139938D01*
X145550172Y-94150500D01*
X145649828Y-94150500D01*
X145666841Y-94150500D01*
X145733880Y-94170185D01*
X145779635Y-94222989D01*
X145789579Y-94292147D01*
X145779635Y-94326011D01*
X145763303Y-94361772D01*
X145763302Y-94361773D01*
X145744867Y-94490000D01*
X145763302Y-94618225D01*
X145791516Y-94680003D01*
X145817118Y-94736063D01*
X145901951Y-94833967D01*
X146010931Y-94904004D01*
X146135225Y-94940499D01*
X146135227Y-94940500D01*
X146135228Y-94940500D01*
X146264773Y-94940500D01*
X146264773Y-94940499D01*
X146389069Y-94904004D01*
X146498049Y-94833967D01*
X146582882Y-94736063D01*
X146636697Y-94618226D01*
X146655133Y-94490000D01*
X146654012Y-94482204D01*
X146663955Y-94413048D01*
X146709710Y-94360243D01*
X146776749Y-94340558D01*
X146843788Y-94360242D01*
X146864431Y-94376877D01*
X146872379Y-94384825D01*
X146872382Y-94384829D01*
X146879450Y-94391897D01*
X146949917Y-94462364D01*
X146973057Y-94471949D01*
X146973059Y-94471950D01*
X146974059Y-94472364D01*
X147041986Y-94500501D01*
X147041989Y-94500501D01*
X147156076Y-94500501D01*
X147156084Y-94500500D01*
X148773001Y-94500500D01*
X148840040Y-94520185D01*
X148885795Y-94572989D01*
X148895739Y-94642147D01*
X148895482Y-94643845D01*
X148894508Y-94649999D01*
X148894508Y-94650002D01*
X148894508Y-94650003D01*
X148914352Y-94775300D01*
X148914352Y-94775301D01*
X148919357Y-94785123D01*
X148971950Y-94888342D01*
X148971952Y-94888344D01*
X148971954Y-94888347D01*
X149061652Y-94978045D01*
X149061654Y-94978046D01*
X149061658Y-94978050D01*
X149174696Y-95035646D01*
X149174697Y-95035646D01*
X149180617Y-95037570D01*
X149238291Y-95077010D01*
X149265487Y-95141369D01*
X149253571Y-95210215D01*
X149206325Y-95261689D01*
X149142295Y-95279500D01*
X142295122Y-95279500D01*
X142228083Y-95259815D01*
X142207441Y-95243181D01*
X140245006Y-93280745D01*
X140211521Y-93219422D01*
X140216505Y-93149730D01*
X140258377Y-93093797D01*
X140265648Y-93088748D01*
X140323049Y-93051859D01*
X140407882Y-92953955D01*
X140461697Y-92836118D01*
X140464174Y-92818888D01*
X140493197Y-92755333D01*
X140551975Y-92717558D01*
X140621844Y-92717556D01*
X140674593Y-92748853D01*
G37*
%TD.AperFunction*%
%TA.AperFunction,Conductor*%
G36*
X140578159Y-89360054D02*
G01*
X140608771Y-89366011D01*
X140611533Y-89366582D01*
X140616034Y-89367568D01*
X140669089Y-89393603D01*
X140687386Y-89408916D01*
X140690331Y-89410612D01*
X140716118Y-89430379D01*
X141287636Y-90001897D01*
X141358103Y-90072364D01*
X141450172Y-90110500D01*
X147542007Y-90110500D01*
X147609046Y-90130185D01*
X147654801Y-90182989D01*
X147664745Y-90252147D01*
X147664480Y-90253898D01*
X147644508Y-90379997D01*
X147644508Y-90380003D01*
X147664352Y-90505300D01*
X147664352Y-90505301D01*
X147664354Y-90505304D01*
X147721950Y-90618342D01*
X147721952Y-90618344D01*
X147721954Y-90618347D01*
X147811652Y-90708045D01*
X147811654Y-90708046D01*
X147811658Y-90708050D01*
X147924696Y-90765646D01*
X147924697Y-90765646D01*
X147924699Y-90765647D01*
X148049997Y-90785492D01*
X148050000Y-90785492D01*
X148050003Y-90785492D01*
X148175299Y-90765647D01*
X148175299Y-90765646D01*
X148175304Y-90765646D01*
X148197579Y-90754295D01*
X148220784Y-90745277D01*
X148230147Y-90742686D01*
X148297259Y-90708897D01*
X148308634Y-90702714D01*
X148309914Y-90701965D01*
X148321009Y-90694988D01*
X148371586Y-90660885D01*
X148373953Y-90659330D01*
X148377837Y-90656841D01*
X148433749Y-90637749D01*
X148457505Y-90635641D01*
X148460788Y-90634757D01*
X148493003Y-90630500D01*
X148804877Y-90630500D01*
X148871916Y-90650185D01*
X148892558Y-90666819D01*
X148937619Y-90711880D01*
X148971104Y-90773203D01*
X148966120Y-90842895D01*
X148924248Y-90898828D01*
X148869339Y-90922034D01*
X148854698Y-90924353D01*
X148854696Y-90924353D01*
X148854696Y-90924354D01*
X148741658Y-90981950D01*
X148741657Y-90981951D01*
X148741652Y-90981954D01*
X148651954Y-91071652D01*
X148651951Y-91071657D01*
X148651950Y-91071658D01*
X148635511Y-91103921D01*
X148594352Y-91184698D01*
X148594352Y-91184699D01*
X148574508Y-91309996D01*
X148574508Y-91310003D01*
X148594352Y-91435300D01*
X148594352Y-91435301D01*
X148609639Y-91465303D01*
X148651950Y-91548342D01*
X148651952Y-91548344D01*
X148651954Y-91548347D01*
X148741652Y-91638045D01*
X148741654Y-91638046D01*
X148741658Y-91638050D01*
X148854696Y-91695646D01*
X148854697Y-91695646D01*
X148854699Y-91695647D01*
X148979997Y-91715492D01*
X148980000Y-91715492D01*
X148980002Y-91715492D01*
X149111102Y-91694728D01*
X149180396Y-91703683D01*
X149233848Y-91748679D01*
X149254487Y-91815431D01*
X149254500Y-91817201D01*
X149254500Y-92084828D01*
X149256787Y-92096327D01*
X149250558Y-92165919D01*
X149207694Y-92221095D01*
X149191466Y-92230999D01*
X149081658Y-92286950D01*
X149081657Y-92286951D01*
X149081652Y-92286954D01*
X148991954Y-92376652D01*
X148991951Y-92376657D01*
X148991950Y-92376658D01*
X148974874Y-92410172D01*
X148934352Y-92489698D01*
X148934352Y-92489699D01*
X148914508Y-92614996D01*
X148914508Y-92615003D01*
X148934352Y-92740300D01*
X148934352Y-92740301D01*
X148945682Y-92762537D01*
X148991950Y-92853342D01*
X148991953Y-92853345D01*
X148997689Y-92861241D01*
X148996334Y-92862224D01*
X149024411Y-92913642D01*
X149019427Y-92983334D01*
X148996987Y-93018249D01*
X148997689Y-93018759D01*
X148991951Y-93026657D01*
X148991950Y-93026658D01*
X148977789Y-93054450D01*
X148934352Y-93139698D01*
X148934352Y-93139699D01*
X148914508Y-93264996D01*
X148914508Y-93265003D01*
X148934352Y-93390300D01*
X148934352Y-93390301D01*
X148945383Y-93411949D01*
X148991950Y-93503342D01*
X148991952Y-93503344D01*
X148991954Y-93503347D01*
X149081652Y-93593045D01*
X149081654Y-93593046D01*
X149081658Y-93593050D01*
X149194696Y-93650646D01*
X149194697Y-93650646D01*
X149194699Y-93650647D01*
X149319997Y-93670492D01*
X149320000Y-93670492D01*
X149320003Y-93670492D01*
X149445300Y-93650647D01*
X149445301Y-93650647D01*
X149445302Y-93650646D01*
X149445304Y-93650646D01*
X149558342Y-93593050D01*
X149648050Y-93503342D01*
X149705646Y-93390304D01*
X149705646Y-93390302D01*
X149705647Y-93390301D01*
X149705647Y-93390300D01*
X149725492Y-93265003D01*
X149725492Y-93264996D01*
X149705647Y-93139699D01*
X149705647Y-93139698D01*
X149700618Y-93129828D01*
X149648050Y-93026658D01*
X149648045Y-93026653D01*
X149642311Y-93018759D01*
X149643665Y-93017774D01*
X149615590Y-92966368D01*
X149620569Y-92896676D01*
X149643013Y-92861751D01*
X149642311Y-92861241D01*
X149648044Y-92853347D01*
X149648050Y-92853342D01*
X149678928Y-92792738D01*
X149726901Y-92741945D01*
X149794722Y-92725149D01*
X149860857Y-92747686D01*
X149877093Y-92761354D01*
X150360565Y-93244825D01*
X150360568Y-93244829D01*
X150367636Y-93251897D01*
X150438103Y-93322364D01*
X150471569Y-93336226D01*
X150530173Y-93360501D01*
X150530174Y-93360501D01*
X150644262Y-93360501D01*
X150644270Y-93360500D01*
X150649993Y-93360500D01*
X150717032Y-93380185D01*
X150762787Y-93432989D01*
X150772731Y-93502147D01*
X150760477Y-93540793D01*
X150756381Y-93548834D01*
X150734212Y-93592341D01*
X150734211Y-93592344D01*
X150714367Y-93717641D01*
X150714367Y-93717648D01*
X150735739Y-93852589D01*
X150732791Y-93853055D01*
X150734336Y-93907016D01*
X150698259Y-93966851D01*
X150635560Y-93997683D01*
X150614408Y-93999500D01*
X147246936Y-93999500D01*
X147179897Y-93979815D01*
X147159259Y-93963185D01*
X147055162Y-93859087D01*
X147021679Y-93797766D01*
X147026663Y-93728074D01*
X147055163Y-93683728D01*
X147118050Y-93620842D01*
X147175646Y-93507804D01*
X147175646Y-93507802D01*
X147175647Y-93507801D01*
X147175647Y-93507800D01*
X147195492Y-93382503D01*
X147195492Y-93382496D01*
X147175647Y-93257199D01*
X147175647Y-93257198D01*
X147172576Y-93251171D01*
X147118050Y-93144158D01*
X147118046Y-93144154D01*
X147118045Y-93144152D01*
X147028347Y-93054454D01*
X147028344Y-93054452D01*
X147028342Y-93054450D01*
X146915304Y-92996854D01*
X146915303Y-92996853D01*
X146915300Y-92996852D01*
X146790003Y-92977008D01*
X146789997Y-92977008D01*
X146664699Y-92996852D01*
X146664698Y-92996852D01*
X146589337Y-93035251D01*
X146551658Y-93054450D01*
X146551657Y-93054451D01*
X146551652Y-93054454D01*
X146461954Y-93144152D01*
X146461951Y-93144157D01*
X146461950Y-93144158D01*
X146444532Y-93178342D01*
X146404352Y-93257198D01*
X146404352Y-93257199D01*
X146384508Y-93382496D01*
X146384508Y-93382502D01*
X146404084Y-93506102D01*
X146395129Y-93575396D01*
X146350133Y-93628848D01*
X146283381Y-93649487D01*
X146281611Y-93649500D01*
X145702777Y-93649500D01*
X145655325Y-93640061D01*
X145639087Y-93633335D01*
X145629829Y-93629500D01*
X145629828Y-93629500D01*
X143334440Y-93629500D01*
X143267401Y-93609815D01*
X143221646Y-93557011D01*
X143211702Y-93487853D01*
X143240727Y-93424297D01*
X143246759Y-93417819D01*
X143278045Y-93386532D01*
X143278050Y-93386527D01*
X143335646Y-93273489D01*
X143335646Y-93273487D01*
X143335647Y-93273486D01*
X143335647Y-93273485D01*
X143355492Y-93148188D01*
X143355492Y-93148181D01*
X143335647Y-93022884D01*
X143335647Y-93022883D01*
X143323831Y-92999693D01*
X143278050Y-92909843D01*
X143278046Y-92909839D01*
X143278045Y-92909837D01*
X143188347Y-92820139D01*
X143188344Y-92820137D01*
X143188342Y-92820135D01*
X143075304Y-92762539D01*
X143075303Y-92762538D01*
X143075300Y-92762537D01*
X142950003Y-92742693D01*
X142949997Y-92742693D01*
X142824699Y-92762537D01*
X142824698Y-92762537D01*
X142751772Y-92799696D01*
X142711658Y-92820135D01*
X142711657Y-92820136D01*
X142711652Y-92820139D01*
X142621954Y-92909837D01*
X142621951Y-92909842D01*
X142621950Y-92909843D01*
X142614227Y-92925000D01*
X142564352Y-93022883D01*
X142564352Y-93022884D01*
X142544508Y-93148181D01*
X142544508Y-93148188D01*
X142564352Y-93273485D01*
X142564352Y-93273486D01*
X142568051Y-93280745D01*
X142621950Y-93386527D01*
X142621952Y-93386529D01*
X142621954Y-93386532D01*
X142653241Y-93417819D01*
X142686726Y-93479142D01*
X142681742Y-93548834D01*
X142639870Y-93604767D01*
X142574406Y-93629184D01*
X142565560Y-93629500D01*
X142315122Y-93629500D01*
X142248083Y-93609815D01*
X142227441Y-93593181D01*
X140466819Y-91832558D01*
X140433334Y-91771235D01*
X140430500Y-91744877D01*
X140430500Y-89481776D01*
X140450185Y-89414737D01*
X140502989Y-89368982D01*
X140572147Y-89359038D01*
X140578159Y-89360054D01*
G37*
%TD.AperFunction*%
%TA.AperFunction,Conductor*%
G36*
X157825703Y-92420410D02*
G01*
X157832181Y-92426442D01*
X158103181Y-92697442D01*
X158136666Y-92758765D01*
X158139500Y-92785123D01*
X158139500Y-93217751D01*
X158119815Y-93284790D01*
X158067011Y-93330545D01*
X157997853Y-93340489D01*
X157996103Y-93340225D01*
X157960001Y-93334507D01*
X157959999Y-93334507D01*
X157959998Y-93334507D01*
X157834700Y-93354351D01*
X157834696Y-93354352D01*
X157800794Y-93371627D01*
X157732125Y-93384523D01*
X157667385Y-93358246D01*
X157627128Y-93301140D01*
X157620500Y-93261142D01*
X157620500Y-92514123D01*
X157640185Y-92447084D01*
X157692989Y-92401329D01*
X157762147Y-92391385D01*
X157825703Y-92420410D01*
G37*
%TD.AperFunction*%
%TA.AperFunction,Conductor*%
G36*
X153588834Y-91162254D02*
G01*
X153644767Y-91204126D01*
X153669184Y-91269590D01*
X153669500Y-91278436D01*
X153669500Y-91350563D01*
X153649815Y-91417602D01*
X153633181Y-91438244D01*
X153223165Y-91848259D01*
X153161842Y-91881744D01*
X153124518Y-91884092D01*
X153103748Y-91882248D01*
X153047832Y-91863150D01*
X153043993Y-91860691D01*
X153041561Y-91859093D01*
X153023507Y-91846922D01*
X153023493Y-91846913D01*
X153019019Y-91843896D01*
X152974442Y-91790094D01*
X152966029Y-91720732D01*
X152996451Y-91657833D01*
X153010807Y-91645451D01*
X153010296Y-91644828D01*
X153014998Y-91640966D01*
X153014998Y-91640965D01*
X153015005Y-91640961D01*
X153029822Y-91626134D01*
X153029925Y-91626078D01*
X153065307Y-91590629D01*
X153065391Y-91590545D01*
X153067126Y-91588809D01*
X153067183Y-91588749D01*
X153108136Y-91547720D01*
X153108135Y-91547719D01*
X153144265Y-91511522D01*
X153144374Y-91511382D01*
X153144472Y-91511285D01*
X153144476Y-91511279D01*
X153186432Y-91469246D01*
X153186434Y-91469242D01*
X153189672Y-91465999D01*
X153237312Y-91418337D01*
X153244750Y-91407200D01*
X153260181Y-91388392D01*
X153457819Y-91190754D01*
X153519142Y-91157270D01*
X153588834Y-91162254D01*
G37*
%TD.AperFunction*%
%TA.AperFunction,Conductor*%
G36*
X155562266Y-90764506D02*
G01*
X155606614Y-90793007D01*
X155665926Y-90852319D01*
X155699411Y-90913642D01*
X155694427Y-90983334D01*
X155665926Y-91027681D01*
X155591954Y-91101652D01*
X155591951Y-91101657D01*
X155591950Y-91101658D01*
X155582517Y-91120172D01*
X155534352Y-91214698D01*
X155534352Y-91214699D01*
X155514508Y-91339996D01*
X155514508Y-91339997D01*
X155514508Y-91340000D01*
X155515475Y-91346103D01*
X155506519Y-91415396D01*
X155461522Y-91468848D01*
X155394771Y-91489487D01*
X155393001Y-91489500D01*
X154294500Y-91489500D01*
X154227461Y-91469815D01*
X154181706Y-91417011D01*
X154170500Y-91365500D01*
X154170500Y-91325122D01*
X154190185Y-91258083D01*
X154206819Y-91237441D01*
X154267441Y-91176819D01*
X154328764Y-91143334D01*
X154355122Y-91140500D01*
X155029826Y-91140500D01*
X155029828Y-91140500D01*
X155121897Y-91102364D01*
X155431255Y-90793004D01*
X155492575Y-90759522D01*
X155562266Y-90764506D01*
G37*
%TD.AperFunction*%
%TA.AperFunction,Conductor*%
G36*
X150818102Y-78590866D02*
G01*
X150856501Y-78639218D01*
X150857971Y-78638470D01*
X150862400Y-78647163D01*
X150862401Y-78647165D01*
X150919997Y-78760203D01*
X150919999Y-78760205D01*
X150920001Y-78760208D01*
X151009699Y-78849906D01*
X151009701Y-78849907D01*
X151009705Y-78849911D01*
X151122743Y-78907507D01*
X151122744Y-78907507D01*
X151122746Y-78907508D01*
X151248044Y-78927353D01*
X151248046Y-78927353D01*
X151248046Y-78927352D01*
X151248047Y-78927353D01*
X151286925Y-78921195D01*
X151356217Y-78930149D01*
X151409670Y-78975144D01*
X151416806Y-78987370D01*
X151418957Y-78991592D01*
X151508660Y-79081295D01*
X151508662Y-79081296D01*
X151508666Y-79081300D01*
X151621704Y-79138896D01*
X151621705Y-79138896D01*
X151621707Y-79138897D01*
X151747005Y-79158742D01*
X151747008Y-79158742D01*
X151747011Y-79158742D01*
X151856254Y-79141440D01*
X151925547Y-79150395D01*
X151978999Y-79195391D01*
X151999638Y-79262143D01*
X151999651Y-79263913D01*
X151999651Y-79519980D01*
X152005375Y-79533798D01*
X152037787Y-79612048D01*
X152698103Y-80272364D01*
X152731579Y-80286230D01*
X152749623Y-80293704D01*
X152804027Y-80337545D01*
X152826092Y-80403839D01*
X152809558Y-80470265D01*
X152754576Y-80565496D01*
X152754575Y-80565497D01*
X152746385Y-80596063D01*
X152722000Y-80687070D01*
X152722000Y-80687072D01*
X152722000Y-80765500D01*
X152702315Y-80832539D01*
X152649511Y-80878294D01*
X152598000Y-80889500D01*
X151565123Y-80889500D01*
X151498084Y-80869815D01*
X151477442Y-80853181D01*
X150537346Y-79913085D01*
X150503861Y-79851762D01*
X150501027Y-79825404D01*
X150501027Y-78877871D01*
X150520712Y-78810832D01*
X150537347Y-78790189D01*
X150578573Y-78748963D01*
X150578577Y-78748959D01*
X150636173Y-78635921D01*
X150636173Y-78635919D01*
X150684146Y-78585124D01*
X150751967Y-78568329D01*
X150818102Y-78590866D01*
G37*
%TD.AperFunction*%
%TD*%
%TA.AperFunction,Conductor*%
%TO.N,FDCAN2_RX*%
G36*
X139242124Y-85918248D02*
G01*
X139248427Y-85924609D01*
X139248707Y-85925368D01*
X139272270Y-85996718D01*
X139272645Y-85998152D01*
X139285027Y-86061781D01*
X139297021Y-86116528D01*
X139297022Y-86116533D01*
X139323182Y-86171753D01*
X139323185Y-86171756D01*
X139371324Y-86229276D01*
X139374006Y-86237820D01*
X139370625Y-86245058D01*
X139315058Y-86300625D01*
X139306785Y-86304052D01*
X139299276Y-86301324D01*
X139241756Y-86253185D01*
X139241753Y-86253182D01*
X139186533Y-86227022D01*
X139186528Y-86227021D01*
X139131781Y-86215027D01*
X139068152Y-86202645D01*
X139066718Y-86202270D01*
X138995368Y-86178707D01*
X138988587Y-86172858D01*
X138987927Y-86163928D01*
X138988195Y-86163199D01*
X139057435Y-85993836D01*
X139063738Y-85987476D01*
X139063780Y-85987458D01*
X139233171Y-85918207D01*
X139242124Y-85918248D01*
G37*
%TD.AperFunction*%
%TD*%
%TA.AperFunction,Conductor*%
%TO.N,SPI1_CS*%
G36*
X152733612Y-91164824D02*
G01*
X152799848Y-91176093D01*
X152802759Y-91176991D01*
X152864475Y-91205301D01*
X152917852Y-91230487D01*
X152949156Y-91232016D01*
X152970024Y-91233036D01*
X152970024Y-91233035D01*
X152970026Y-91233036D01*
X153021568Y-91199288D01*
X153030363Y-91197624D01*
X153036247Y-91200804D01*
X153091963Y-91256520D01*
X153095390Y-91264793D01*
X153091965Y-91273064D01*
X153040986Y-91324069D01*
X153040987Y-91324070D01*
X152998965Y-91366170D01*
X152998966Y-91366171D01*
X152962692Y-91402543D01*
X152962689Y-91402546D01*
X152920674Y-91444640D01*
X152920669Y-91444646D01*
X152869652Y-91495693D01*
X152861379Y-91499122D01*
X152853145Y-91495736D01*
X152722778Y-91366666D01*
X152719310Y-91358410D01*
X152719310Y-91358311D01*
X152719431Y-91324069D01*
X152719951Y-91176317D01*
X152723407Y-91168057D01*
X152731692Y-91164659D01*
X152733612Y-91164824D01*
G37*
%TD.AperFunction*%
%TD*%
%TA.AperFunction,Conductor*%
%TO.N,QSPI_CS*%
G36*
X151680723Y-93451180D02*
G01*
X151738240Y-93499318D01*
X151738242Y-93499319D01*
X151738243Y-93499319D01*
X151738245Y-93499321D01*
X151793471Y-93525482D01*
X151848232Y-93537479D01*
X151911853Y-93549859D01*
X151913272Y-93550230D01*
X151984632Y-93573797D01*
X151991412Y-93579645D01*
X151992072Y-93588575D01*
X151991792Y-93589334D01*
X151922564Y-93758667D01*
X151916261Y-93765028D01*
X151916162Y-93765069D01*
X151746829Y-93834297D01*
X151737874Y-93834256D01*
X151731571Y-93827895D01*
X151731299Y-93827159D01*
X151707725Y-93755777D01*
X151707354Y-93754358D01*
X151694974Y-93690737D01*
X151682977Y-93635976D01*
X151656816Y-93580750D01*
X151656814Y-93580748D01*
X151656814Y-93580747D01*
X151656813Y-93580745D01*
X151608675Y-93523228D01*
X151605993Y-93514684D01*
X151609373Y-93507447D01*
X151664942Y-93451878D01*
X151673214Y-93448452D01*
X151680723Y-93451180D01*
G37*
%TD.AperFunction*%
%TD*%
%TA.AperFunction,Conductor*%
%TO.N,SPI1_MISO*%
G36*
X155492898Y-85302493D02*
G01*
X155550415Y-85350631D01*
X155550417Y-85350632D01*
X155550418Y-85350632D01*
X155550420Y-85350634D01*
X155605646Y-85376795D01*
X155660407Y-85388792D01*
X155724028Y-85401172D01*
X155725447Y-85401543D01*
X155796807Y-85425110D01*
X155803587Y-85430958D01*
X155804247Y-85439888D01*
X155803967Y-85440647D01*
X155734739Y-85609980D01*
X155728436Y-85616341D01*
X155728337Y-85616382D01*
X155559004Y-85685610D01*
X155550049Y-85685569D01*
X155543746Y-85679208D01*
X155543474Y-85678472D01*
X155519900Y-85607090D01*
X155519529Y-85605671D01*
X155507149Y-85542050D01*
X155495152Y-85487289D01*
X155468991Y-85432063D01*
X155468989Y-85432061D01*
X155468989Y-85432060D01*
X155468988Y-85432058D01*
X155420850Y-85374541D01*
X155418168Y-85365997D01*
X155421548Y-85358760D01*
X155477117Y-85303191D01*
X155485389Y-85299765D01*
X155492898Y-85302493D01*
G37*
%TD.AperFunction*%
%TD*%
%TA.AperFunction,Conductor*%
%TO.N,QSPI_IO0*%
G36*
X140762124Y-86328248D02*
G01*
X140768427Y-86334609D01*
X140768707Y-86335368D01*
X140792270Y-86406718D01*
X140792645Y-86408152D01*
X140805027Y-86471781D01*
X140817021Y-86526528D01*
X140817022Y-86526533D01*
X140843182Y-86581753D01*
X140843185Y-86581756D01*
X140891324Y-86639276D01*
X140894006Y-86647820D01*
X140890625Y-86655058D01*
X140835058Y-86710625D01*
X140826785Y-86714052D01*
X140819276Y-86711324D01*
X140761756Y-86663185D01*
X140761753Y-86663182D01*
X140706533Y-86637022D01*
X140706528Y-86637021D01*
X140651781Y-86625027D01*
X140588152Y-86612645D01*
X140586718Y-86612270D01*
X140515368Y-86588707D01*
X140508587Y-86582858D01*
X140507927Y-86573928D01*
X140508195Y-86573199D01*
X140577435Y-86403836D01*
X140583738Y-86397476D01*
X140583780Y-86397458D01*
X140753171Y-86328207D01*
X140762124Y-86328248D01*
G37*
%TD.AperFunction*%
%TD*%
%TA.AperFunction,Conductor*%
%TO.N,QSPI_IO1*%
G36*
X148010742Y-88629374D02*
G01*
X148066310Y-88684942D01*
X148069737Y-88693215D01*
X148067009Y-88700724D01*
X148018871Y-88758241D01*
X148018869Y-88758244D01*
X148018868Y-88758246D01*
X148014802Y-88766830D01*
X147992705Y-88813472D01*
X147980712Y-88868217D01*
X147968330Y-88931847D01*
X147967955Y-88933281D01*
X147944392Y-89004632D01*
X147938544Y-89011413D01*
X147929613Y-89012073D01*
X147928859Y-89011795D01*
X147887425Y-88994855D01*
X147759522Y-88942565D01*
X147753161Y-88936262D01*
X147753120Y-88936163D01*
X147683892Y-88766830D01*
X147683933Y-88757875D01*
X147690294Y-88751572D01*
X147691021Y-88751303D01*
X147762415Y-88727724D01*
X147763826Y-88727355D01*
X147827451Y-88714975D01*
X147882213Y-88702978D01*
X147937438Y-88676817D01*
X147994963Y-88628674D01*
X148003503Y-88625993D01*
X148010742Y-88629374D01*
G37*
%TD.AperFunction*%
%TD*%
%TA.AperFunction,Conductor*%
%TO.N,FDCAN2_RX*%
G36*
X154146818Y-92868203D02*
G01*
X154280899Y-92923018D01*
X154316162Y-92937435D01*
X154322523Y-92943738D01*
X154322564Y-92943837D01*
X154391792Y-93113169D01*
X154391751Y-93122124D01*
X154385390Y-93128427D01*
X154384631Y-93128707D01*
X154313280Y-93152270D01*
X154311846Y-93152645D01*
X154248216Y-93165027D01*
X154193471Y-93177020D01*
X154159615Y-93193059D01*
X154138245Y-93203183D01*
X154138243Y-93203184D01*
X154138240Y-93203186D01*
X154080723Y-93251324D01*
X154072179Y-93254006D01*
X154064941Y-93250625D01*
X154009373Y-93195057D01*
X154005946Y-93186784D01*
X154008672Y-93179278D01*
X154056816Y-93121753D01*
X154082977Y-93066528D01*
X154094974Y-93011766D01*
X154107354Y-92948141D01*
X154107723Y-92946730D01*
X154131292Y-92875365D01*
X154137140Y-92868587D01*
X154146070Y-92867927D01*
X154146818Y-92868203D01*
G37*
%TD.AperFunction*%
%TD*%
%TA.AperFunction,Conductor*%
%TO.N,CAN2+*%
G36*
X131519441Y-87413516D02*
G01*
X131522868Y-87421789D01*
X131522868Y-87500580D01*
X131519441Y-87508853D01*
X131513560Y-87512033D01*
X131453240Y-87524632D01*
X131453238Y-87524633D01*
X131418182Y-87563373D01*
X131418180Y-87563376D01*
X131409776Y-87586873D01*
X131398288Y-87618991D01*
X131374703Y-87682696D01*
X131373277Y-87685400D01*
X131334408Y-87740240D01*
X131326828Y-87745008D01*
X131318096Y-87743020D01*
X131316618Y-87741776D01*
X131315071Y-87740240D01*
X131187479Y-87613544D01*
X131184024Y-87605284D01*
X131184942Y-87421730D01*
X131188410Y-87413475D01*
X131196642Y-87410089D01*
X131511168Y-87410089D01*
X131519441Y-87413516D01*
G37*
%TD.AperFunction*%
%TD*%
%TA.AperFunction,Conductor*%
%TO.N,UART8_TX*%
G36*
X155302124Y-92868248D02*
G01*
X155308427Y-92874609D01*
X155308707Y-92875368D01*
X155332270Y-92946718D01*
X155332645Y-92948152D01*
X155345027Y-93011781D01*
X155357021Y-93066528D01*
X155357022Y-93066533D01*
X155383182Y-93121753D01*
X155383185Y-93121756D01*
X155431324Y-93179276D01*
X155434006Y-93187820D01*
X155430625Y-93195058D01*
X155375058Y-93250625D01*
X155366785Y-93254052D01*
X155359276Y-93251324D01*
X155301756Y-93203185D01*
X155301753Y-93203182D01*
X155246533Y-93177022D01*
X155246528Y-93177021D01*
X155191781Y-93165027D01*
X155128152Y-93152645D01*
X155126718Y-93152270D01*
X155055368Y-93128707D01*
X155048587Y-93122858D01*
X155047927Y-93113928D01*
X155048195Y-93113199D01*
X155117435Y-92943836D01*
X155123738Y-92937476D01*
X155123780Y-92937458D01*
X155293171Y-92868207D01*
X155302124Y-92868248D01*
G37*
%TD.AperFunction*%
%TD*%
%TA.AperFunction,Conductor*%
%TO.N,SPI2_MOSI*%
G36*
X156006830Y-90360930D02*
G01*
X156007913Y-90361453D01*
X156074807Y-90398079D01*
X156076731Y-90399396D01*
X156128116Y-90442748D01*
X156128269Y-90442880D01*
X156172598Y-90481710D01*
X156228196Y-90509433D01*
X156228199Y-90509433D01*
X156228201Y-90509434D01*
X156258190Y-90513125D01*
X156303763Y-90518735D01*
X156311555Y-90523147D01*
X156314033Y-90530347D01*
X156314033Y-90608955D01*
X156310606Y-90617228D01*
X156303007Y-90620636D01*
X156231643Y-90624755D01*
X156174543Y-90638454D01*
X156174535Y-90638456D01*
X156126868Y-90660258D01*
X156073106Y-90689155D01*
X156072500Y-90689458D01*
X156007556Y-90719652D01*
X155998609Y-90720033D01*
X155992014Y-90713976D01*
X155991846Y-90713597D01*
X155920898Y-90544525D01*
X155920858Y-90535573D01*
X155920871Y-90535540D01*
X155991515Y-90367190D01*
X155997875Y-90360889D01*
X156006830Y-90360930D01*
G37*
%TD.AperFunction*%
%TD*%
%TA.AperFunction,Conductor*%
%TO.N,PA0_ADC1_INP16*%
G36*
X157510723Y-88848675D02*
G01*
X157568240Y-88896813D01*
X157568242Y-88896814D01*
X157568243Y-88896814D01*
X157568245Y-88896816D01*
X157623471Y-88922977D01*
X157678232Y-88934974D01*
X157741853Y-88947354D01*
X157743272Y-88947725D01*
X157814632Y-88971292D01*
X157821412Y-88977140D01*
X157822072Y-88986070D01*
X157821792Y-88986829D01*
X157752564Y-89156162D01*
X157746261Y-89162523D01*
X157746162Y-89162564D01*
X157576829Y-89231792D01*
X157567874Y-89231751D01*
X157561571Y-89225390D01*
X157561299Y-89224654D01*
X157537725Y-89153272D01*
X157537354Y-89151853D01*
X157524974Y-89088232D01*
X157512977Y-89033471D01*
X157486816Y-88978245D01*
X157486814Y-88978243D01*
X157486814Y-88978242D01*
X157486813Y-88978240D01*
X157438675Y-88920723D01*
X157435993Y-88912179D01*
X157439373Y-88904942D01*
X157494942Y-88849373D01*
X157503214Y-88845947D01*
X157510723Y-88848675D01*
G37*
%TD.AperFunction*%
%TD*%
%TA.AperFunction,Conductor*%
%TO.N,SPI2_CS*%
G36*
X157802124Y-91218251D02*
G01*
X157808427Y-91224612D01*
X157808707Y-91225371D01*
X157832270Y-91296721D01*
X157832645Y-91298155D01*
X157845027Y-91361784D01*
X157857021Y-91416531D01*
X157857022Y-91416536D01*
X157883182Y-91471756D01*
X157883185Y-91471759D01*
X157931324Y-91529279D01*
X157934006Y-91537823D01*
X157930625Y-91545061D01*
X157875058Y-91600628D01*
X157866785Y-91604055D01*
X157859276Y-91601327D01*
X157801756Y-91553188D01*
X157801753Y-91553185D01*
X157746533Y-91527025D01*
X157746528Y-91527024D01*
X157691781Y-91515030D01*
X157628152Y-91502648D01*
X157626718Y-91502273D01*
X157555368Y-91478710D01*
X157548587Y-91472861D01*
X157547927Y-91463931D01*
X157548195Y-91463202D01*
X157617435Y-91293839D01*
X157623738Y-91287479D01*
X157623780Y-91287461D01*
X157793171Y-91218210D01*
X157802124Y-91218251D01*
G37*
%TD.AperFunction*%
%TD*%
%TA.AperFunction,Conductor*%
%TO.N,FDCAN1_RX*%
G36*
X139043162Y-93987238D02*
G01*
X139049465Y-93993600D01*
X139049424Y-94002554D01*
X139049085Y-94003288D01*
X139015296Y-94070400D01*
X139014547Y-94071680D01*
X138978313Y-94125421D01*
X138948079Y-94172619D01*
X138927526Y-94230174D01*
X138920895Y-94304887D01*
X138916750Y-94312825D01*
X138909241Y-94315553D01*
X138830655Y-94315553D01*
X138822382Y-94312126D01*
X138819001Y-94304888D01*
X138819001Y-94304887D01*
X138812368Y-94230172D01*
X138791816Y-94172622D01*
X138761578Y-94125417D01*
X138725342Y-94071673D01*
X138724602Y-94070408D01*
X138690810Y-94003288D01*
X138690150Y-93994358D01*
X138695999Y-93987577D01*
X138696716Y-93987245D01*
X138865422Y-93916451D01*
X138874376Y-93916411D01*
X139043162Y-93987238D01*
G37*
%TD.AperFunction*%
%TD*%
%TA.AperFunction,Conductor*%
%TO.N,SPI2_CLK*%
G36*
X152102206Y-92868215D02*
G01*
X152108509Y-92874576D01*
X152108763Y-92875256D01*
X152132557Y-92945623D01*
X152132904Y-92946878D01*
X152146507Y-93009261D01*
X152160002Y-93062716D01*
X152160003Y-93062718D01*
X152160004Y-93062721D01*
X152187237Y-93116744D01*
X152197336Y-93128641D01*
X152235223Y-93173272D01*
X152237964Y-93181797D01*
X152234576Y-93189117D01*
X152179001Y-93244692D01*
X152170728Y-93248119D01*
X152163292Y-93245452D01*
X152105208Y-93197638D01*
X152105206Y-93197637D01*
X152105205Y-93197636D01*
X152092401Y-93192012D01*
X152049101Y-93172993D01*
X152049095Y-93172991D01*
X152034871Y-93170414D01*
X151993322Y-93162886D01*
X151962360Y-93157693D01*
X151928892Y-93152080D01*
X151927250Y-93151681D01*
X151855500Y-93128641D01*
X151848671Y-93122849D01*
X151847937Y-93113924D01*
X151848247Y-93113073D01*
X151868833Y-93062721D01*
X151917435Y-92943836D01*
X151923738Y-92937476D01*
X151923780Y-92937458D01*
X152093252Y-92868174D01*
X152102206Y-92868215D01*
G37*
%TD.AperFunction*%
%TD*%
%TA.AperFunction,Conductor*%
%TO.N,QSPI_CS*%
G36*
X148137001Y-90200523D02*
G01*
X148137735Y-90200862D01*
X148204855Y-90234654D01*
X148206120Y-90235394D01*
X148242231Y-90259742D01*
X148259868Y-90271633D01*
X148307069Y-90301868D01*
X148364619Y-90322420D01*
X148439335Y-90329053D01*
X148447272Y-90333198D01*
X148450000Y-90340707D01*
X148450000Y-90419292D01*
X148446573Y-90427565D01*
X148439335Y-90430946D01*
X148364621Y-90437578D01*
X148307066Y-90458131D01*
X148259868Y-90488365D01*
X148206127Y-90524599D01*
X148204847Y-90525348D01*
X148137735Y-90559137D01*
X148128805Y-90559797D01*
X148122024Y-90553948D01*
X148121685Y-90553214D01*
X148109851Y-90525012D01*
X148050898Y-90384525D01*
X148050858Y-90375573D01*
X148050871Y-90375540D01*
X148121686Y-90206783D01*
X148128046Y-90200482D01*
X148137001Y-90200523D01*
G37*
%TD.AperFunction*%
%TD*%
%TA.AperFunction,Conductor*%
%TO.N,CAN2+*%
G36*
X144552975Y-82534050D02*
G01*
X144553314Y-82534784D01*
X144624100Y-82703472D01*
X144624141Y-82712427D01*
X144624100Y-82712526D01*
X144553314Y-82881213D01*
X144546952Y-82887516D01*
X144537998Y-82887475D01*
X144537264Y-82887136D01*
X144470150Y-82853347D01*
X144468870Y-82852598D01*
X144415129Y-82816364D01*
X144367931Y-82786130D01*
X144367930Y-82786129D01*
X144367929Y-82786129D01*
X144310380Y-82765578D01*
X144310379Y-82765577D01*
X144310377Y-82765577D01*
X144235665Y-82758945D01*
X144227728Y-82754800D01*
X144225000Y-82747291D01*
X144225000Y-82668706D01*
X144228427Y-82660433D01*
X144235664Y-82657052D01*
X144310380Y-82650419D01*
X144367929Y-82629867D01*
X144415135Y-82599629D01*
X144468884Y-82563389D01*
X144470135Y-82562657D01*
X144537264Y-82528860D01*
X144546194Y-82528201D01*
X144552975Y-82534050D01*
G37*
%TD.AperFunction*%
%TD*%
%TA.AperFunction,Conductor*%
%TO.N,FDCAN2_TX*%
G36*
X154146818Y-93668203D02*
G01*
X154280899Y-93723018D01*
X154316162Y-93737435D01*
X154322523Y-93743738D01*
X154322564Y-93743837D01*
X154391792Y-93913169D01*
X154391751Y-93922124D01*
X154385390Y-93928427D01*
X154384631Y-93928707D01*
X154313280Y-93952270D01*
X154311846Y-93952645D01*
X154248216Y-93965027D01*
X154193471Y-93977020D01*
X154159615Y-93993059D01*
X154138245Y-94003183D01*
X154138243Y-94003184D01*
X154138240Y-94003186D01*
X154080723Y-94051324D01*
X154072179Y-94054006D01*
X154064941Y-94050625D01*
X154009373Y-93995057D01*
X154005946Y-93986784D01*
X154008672Y-93979278D01*
X154056816Y-93921753D01*
X154082977Y-93866528D01*
X154094974Y-93811766D01*
X154107354Y-93748141D01*
X154107723Y-93746730D01*
X154131292Y-93675365D01*
X154137140Y-93668587D01*
X154146070Y-93667927D01*
X154146818Y-93668203D01*
G37*
%TD.AperFunction*%
%TD*%
%TA.AperFunction,Conductor*%
%TO.N,FDCAN1_RX*%
G36*
X154946818Y-93668203D02*
G01*
X155080899Y-93723018D01*
X155116162Y-93737435D01*
X155122523Y-93743738D01*
X155122564Y-93743837D01*
X155191792Y-93913169D01*
X155191751Y-93922124D01*
X155185390Y-93928427D01*
X155184631Y-93928707D01*
X155113280Y-93952270D01*
X155111846Y-93952645D01*
X155048216Y-93965027D01*
X154993471Y-93977020D01*
X154959615Y-93993059D01*
X154938245Y-94003183D01*
X154938243Y-94003184D01*
X154938240Y-94003186D01*
X154880723Y-94051324D01*
X154872179Y-94054006D01*
X154864941Y-94050625D01*
X154809373Y-93995057D01*
X154805946Y-93986784D01*
X154808672Y-93979278D01*
X154856816Y-93921753D01*
X154882977Y-93866528D01*
X154894974Y-93811766D01*
X154907354Y-93748141D01*
X154907723Y-93746730D01*
X154931292Y-93675365D01*
X154937140Y-93668587D01*
X154946070Y-93667927D01*
X154946818Y-93668203D01*
G37*
%TD.AperFunction*%
%TD*%
%TA.AperFunction,Conductor*%
%TO.N,SPI1_MOSI*%
G36*
X152807001Y-91960523D02*
G01*
X152807735Y-91960862D01*
X152874855Y-91994654D01*
X152876120Y-91995394D01*
X152912231Y-92019742D01*
X152929868Y-92031633D01*
X152977069Y-92061868D01*
X153034619Y-92082420D01*
X153109335Y-92089053D01*
X153117272Y-92093198D01*
X153120000Y-92100707D01*
X153120000Y-92179292D01*
X153116573Y-92187565D01*
X153109335Y-92190946D01*
X153034621Y-92197578D01*
X152977066Y-92218131D01*
X152929868Y-92248365D01*
X152876127Y-92284599D01*
X152874847Y-92285348D01*
X152807735Y-92319137D01*
X152798805Y-92319797D01*
X152792024Y-92313948D01*
X152791685Y-92313214D01*
X152779851Y-92285012D01*
X152720898Y-92144525D01*
X152720858Y-92135573D01*
X152720871Y-92135540D01*
X152791686Y-91966783D01*
X152798046Y-91960482D01*
X152807001Y-91960523D01*
G37*
%TD.AperFunction*%
%TD*%
%TA.AperFunction,Conductor*%
%TO.N,QSPI_CLK*%
G36*
X140762124Y-87598248D02*
G01*
X140768427Y-87604609D01*
X140768707Y-87605368D01*
X140792270Y-87676718D01*
X140792645Y-87678152D01*
X140805027Y-87741781D01*
X140817021Y-87796528D01*
X140817022Y-87796533D01*
X140843182Y-87851753D01*
X140843185Y-87851756D01*
X140891324Y-87909276D01*
X140894006Y-87917820D01*
X140890625Y-87925058D01*
X140835058Y-87980625D01*
X140826785Y-87984052D01*
X140819276Y-87981324D01*
X140761756Y-87933185D01*
X140761753Y-87933182D01*
X140706533Y-87907022D01*
X140706528Y-87907021D01*
X140651781Y-87895027D01*
X140588152Y-87882645D01*
X140586718Y-87882270D01*
X140515368Y-87858707D01*
X140508587Y-87852858D01*
X140507927Y-87843928D01*
X140508195Y-87843199D01*
X140577435Y-87673836D01*
X140583738Y-87667476D01*
X140583780Y-87667458D01*
X140753171Y-87598207D01*
X140762124Y-87598248D01*
G37*
%TD.AperFunction*%
%TD*%
%TA.AperFunction,Conductor*%
%TO.N,CAN2-*%
G36*
X131333165Y-86778458D02*
G01*
X131334408Y-86779936D01*
X131373275Y-86834772D01*
X131374702Y-86837476D01*
X131398266Y-86901128D01*
X131398310Y-86901249D01*
X131418179Y-86956796D01*
X131418180Y-86956798D01*
X131418181Y-86956800D01*
X131453241Y-86995545D01*
X131513561Y-87008145D01*
X131520958Y-87013190D01*
X131522868Y-87019597D01*
X131522868Y-87098389D01*
X131519441Y-87106662D01*
X131511168Y-87110089D01*
X131439076Y-87110089D01*
X131379611Y-87110089D01*
X131328256Y-87110089D01*
X131268791Y-87110089D01*
X131196642Y-87110089D01*
X131188369Y-87106662D01*
X131184942Y-87098448D01*
X131184682Y-87046574D01*
X131184024Y-86914991D01*
X131187409Y-86906703D01*
X131316621Y-86778399D01*
X131324904Y-86775002D01*
X131333165Y-86778458D01*
G37*
%TD.AperFunction*%
%TD*%
%TA.AperFunction,Conductor*%
%TO.N,QSPI_IO3*%
G36*
X140762124Y-88868248D02*
G01*
X140768427Y-88874609D01*
X140768707Y-88875368D01*
X140792270Y-88946718D01*
X140792645Y-88948152D01*
X140805027Y-89011781D01*
X140817021Y-89066528D01*
X140817022Y-89066533D01*
X140843182Y-89121753D01*
X140843185Y-89121756D01*
X140891324Y-89179276D01*
X140894006Y-89187820D01*
X140890625Y-89195058D01*
X140835058Y-89250625D01*
X140826785Y-89254052D01*
X140819276Y-89251324D01*
X140761756Y-89203185D01*
X140761753Y-89203182D01*
X140706533Y-89177022D01*
X140706528Y-89177021D01*
X140651781Y-89165027D01*
X140588152Y-89152645D01*
X140586718Y-89152270D01*
X140515368Y-89128707D01*
X140508587Y-89122858D01*
X140507927Y-89113928D01*
X140508195Y-89113199D01*
X140577435Y-88943836D01*
X140583738Y-88937476D01*
X140583780Y-88937458D01*
X140753171Y-88868207D01*
X140762124Y-88868248D01*
G37*
%TD.AperFunction*%
%TD*%
%TA.AperFunction,Conductor*%
%TO.N,UART8_RX*%
G36*
X155302124Y-92068248D02*
G01*
X155308427Y-92074609D01*
X155308707Y-92075368D01*
X155332270Y-92146718D01*
X155332645Y-92148152D01*
X155345027Y-92211781D01*
X155357021Y-92266528D01*
X155357022Y-92266533D01*
X155383182Y-92321753D01*
X155383185Y-92321756D01*
X155431324Y-92379276D01*
X155434006Y-92387820D01*
X155430625Y-92395058D01*
X155375058Y-92450625D01*
X155366785Y-92454052D01*
X155359276Y-92451324D01*
X155301756Y-92403185D01*
X155301753Y-92403182D01*
X155246533Y-92377022D01*
X155246528Y-92377021D01*
X155191781Y-92365027D01*
X155128152Y-92352645D01*
X155126718Y-92352270D01*
X155055368Y-92328707D01*
X155048587Y-92322858D01*
X155047927Y-92313928D01*
X155048195Y-92313199D01*
X155117435Y-92143836D01*
X155123738Y-92137476D01*
X155123780Y-92137458D01*
X155293171Y-92068207D01*
X155302124Y-92068248D01*
G37*
%TD.AperFunction*%
%TD*%
%TA.AperFunction,Conductor*%
%TO.N,QSPI_IO2*%
G36*
X153967566Y-85663427D02*
G01*
X153970947Y-85670666D01*
X153977578Y-85745377D01*
X153977578Y-85745379D01*
X153977579Y-85745380D01*
X153998129Y-85802927D01*
X153998131Y-85802931D01*
X154028365Y-85850129D01*
X154064599Y-85903870D01*
X154065348Y-85905150D01*
X154099137Y-85972264D01*
X154099797Y-85981194D01*
X154093948Y-85987975D01*
X154093214Y-85988314D01*
X153924527Y-86059100D01*
X153915573Y-86059141D01*
X153915473Y-86059100D01*
X153746785Y-85988314D01*
X153740482Y-85981953D01*
X153740523Y-85972998D01*
X153740862Y-85972264D01*
X153774658Y-85905135D01*
X153775390Y-85903884D01*
X153811630Y-85850135D01*
X153841868Y-85802929D01*
X153862420Y-85745380D01*
X153869053Y-85670664D01*
X153873198Y-85662728D01*
X153880707Y-85660000D01*
X153959293Y-85660000D01*
X153967566Y-85663427D01*
G37*
%TD.AperFunction*%
%TD*%
%TA.AperFunction,Conductor*%
%TO.N,SPI1_CLK*%
G36*
X155967566Y-87743427D02*
G01*
X155970947Y-87750666D01*
X155977578Y-87825377D01*
X155977578Y-87825379D01*
X155977579Y-87825380D01*
X155998129Y-87882927D01*
X155998131Y-87882931D01*
X156028365Y-87930129D01*
X156064599Y-87983870D01*
X156065348Y-87985150D01*
X156099137Y-88052264D01*
X156099797Y-88061194D01*
X156093948Y-88067975D01*
X156093214Y-88068314D01*
X155924527Y-88139100D01*
X155915573Y-88139141D01*
X155915473Y-88139100D01*
X155746785Y-88068314D01*
X155740482Y-88061953D01*
X155740523Y-88052998D01*
X155740862Y-88052264D01*
X155774658Y-87985135D01*
X155775390Y-87983884D01*
X155811630Y-87930135D01*
X155841868Y-87882929D01*
X155862420Y-87825380D01*
X155869053Y-87750664D01*
X155873198Y-87742728D01*
X155880707Y-87740000D01*
X155959293Y-87740000D01*
X155967566Y-87743427D01*
G37*
%TD.AperFunction*%
%TD*%
%TA.AperFunction,Conductor*%
%TO.N,FDCAN1_TX*%
G36*
X154903214Y-94901685D02*
G01*
X154909517Y-94908047D01*
X154909476Y-94917001D01*
X154909137Y-94917735D01*
X154875348Y-94984847D01*
X154874599Y-94986127D01*
X154838365Y-95039868D01*
X154808131Y-95087066D01*
X154787578Y-95144621D01*
X154780947Y-95219334D01*
X154776802Y-95227272D01*
X154769293Y-95230000D01*
X154690707Y-95230000D01*
X154682434Y-95226573D01*
X154679053Y-95219335D01*
X154679053Y-95219334D01*
X154672420Y-95144619D01*
X154651868Y-95087069D01*
X154621630Y-95039864D01*
X154585394Y-94986120D01*
X154584654Y-94984855D01*
X154550862Y-94917735D01*
X154550202Y-94908805D01*
X154556051Y-94902024D01*
X154556768Y-94901692D01*
X154725474Y-94830898D01*
X154734428Y-94830858D01*
X154903214Y-94901685D01*
G37*
%TD.AperFunction*%
%TD*%
%TA.AperFunction,Conductor*%
%TO.N,CAN1-*%
G36*
X131333165Y-92248369D02*
G01*
X131334408Y-92249847D01*
X131373275Y-92304683D01*
X131374702Y-92307387D01*
X131398266Y-92371039D01*
X131398310Y-92371160D01*
X131418179Y-92426707D01*
X131418180Y-92426709D01*
X131418181Y-92426711D01*
X131453241Y-92465456D01*
X131513561Y-92478056D01*
X131520958Y-92483101D01*
X131522868Y-92489508D01*
X131522868Y-92568300D01*
X131519441Y-92576573D01*
X131511168Y-92580000D01*
X131439076Y-92580000D01*
X131379611Y-92580000D01*
X131328256Y-92580000D01*
X131268791Y-92580000D01*
X131196642Y-92580000D01*
X131188369Y-92576573D01*
X131184942Y-92568359D01*
X131184682Y-92516485D01*
X131184024Y-92384902D01*
X131187409Y-92376614D01*
X131316621Y-92248310D01*
X131324904Y-92244913D01*
X131333165Y-92248369D01*
G37*
%TD.AperFunction*%
%TD*%
%TA.AperFunction,Conductor*%
%TO.N,QSPI_CLK*%
G36*
X154324087Y-88942708D02*
G01*
X154324157Y-88942778D01*
X154453390Y-89073310D01*
X154456776Y-89081601D01*
X154453512Y-89089649D01*
X154404422Y-89140724D01*
X154365943Y-89184708D01*
X154333769Y-89223422D01*
X154333577Y-89223648D01*
X154295367Y-89267324D01*
X154294997Y-89267727D01*
X154246468Y-89318222D01*
X154238264Y-89321813D01*
X154229925Y-89318551D01*
X154229759Y-89318388D01*
X154174098Y-89262727D01*
X154170671Y-89254454D01*
X154172476Y-89248211D01*
X154205946Y-89195184D01*
X154199594Y-89142050D01*
X154198851Y-89140721D01*
X154169340Y-89087906D01*
X154169174Y-89087597D01*
X154161744Y-89073310D01*
X154136581Y-89024926D01*
X154135468Y-89021713D01*
X154122617Y-88953825D01*
X154124445Y-88945060D01*
X154131937Y-88940154D01*
X154134067Y-88939950D01*
X154315802Y-88939310D01*
X154324087Y-88942708D01*
G37*
%TD.AperFunction*%
%TD*%
%TA.AperFunction,Conductor*%
%TO.N,FDCAN1_TX*%
G36*
X137072124Y-93708248D02*
G01*
X137078427Y-93714609D01*
X137078707Y-93715368D01*
X137102270Y-93786718D01*
X137102645Y-93788152D01*
X137115027Y-93851781D01*
X137127021Y-93906528D01*
X137127022Y-93906533D01*
X137153182Y-93961753D01*
X137153185Y-93961756D01*
X137201324Y-94019276D01*
X137204006Y-94027820D01*
X137200625Y-94035058D01*
X137145058Y-94090625D01*
X137136785Y-94094052D01*
X137129276Y-94091324D01*
X137071756Y-94043185D01*
X137071753Y-94043182D01*
X137016533Y-94017022D01*
X137016528Y-94017021D01*
X136961781Y-94005027D01*
X136898152Y-93992645D01*
X136896718Y-93992270D01*
X136825368Y-93968707D01*
X136818587Y-93962858D01*
X136817927Y-93953928D01*
X136818195Y-93953199D01*
X136887435Y-93783836D01*
X136893738Y-93777476D01*
X136893780Y-93777458D01*
X137063171Y-93708207D01*
X137072124Y-93708248D01*
G37*
%TD.AperFunction*%
%TD*%
%TA.AperFunction,Conductor*%
%TO.N,FDCAN2_TX*%
G36*
X139243214Y-86731685D02*
G01*
X139249517Y-86738047D01*
X139249476Y-86747001D01*
X139249137Y-86747735D01*
X139215348Y-86814847D01*
X139214599Y-86816127D01*
X139178365Y-86869868D01*
X139148131Y-86917066D01*
X139127578Y-86974621D01*
X139120947Y-87049334D01*
X139116802Y-87057272D01*
X139109293Y-87060000D01*
X139030707Y-87060000D01*
X139022434Y-87056573D01*
X139019053Y-87049335D01*
X139019053Y-87049334D01*
X139012420Y-86974619D01*
X138991868Y-86917069D01*
X138961630Y-86869864D01*
X138925394Y-86816120D01*
X138924654Y-86814855D01*
X138890862Y-86747735D01*
X138890202Y-86738805D01*
X138896051Y-86732024D01*
X138896768Y-86731692D01*
X139065474Y-86660898D01*
X139074428Y-86660858D01*
X139243214Y-86731685D01*
G37*
%TD.AperFunction*%
%TD*%
%TA.AperFunction,Conductor*%
%TO.N,QSPI_IO0*%
G36*
X154324087Y-88142708D02*
G01*
X154324157Y-88142778D01*
X154452619Y-88272530D01*
X154456005Y-88280820D01*
X154452537Y-88289076D01*
X154451963Y-88289608D01*
X154390199Y-88343081D01*
X154388605Y-88344241D01*
X154331423Y-88378892D01*
X154330512Y-88379390D01*
X154277010Y-88405634D01*
X154277008Y-88405635D01*
X154218540Y-88441069D01*
X154218538Y-88441070D01*
X154154804Y-88496250D01*
X154146306Y-88499074D01*
X154138873Y-88495677D01*
X154083238Y-88440042D01*
X154079811Y-88431769D01*
X154082345Y-88424498D01*
X154120636Y-88376253D01*
X154136605Y-88327062D01*
X154134600Y-88276812D01*
X154125523Y-88217666D01*
X154125422Y-88216756D01*
X154120881Y-88152477D01*
X154123716Y-88143985D01*
X154131728Y-88139984D01*
X154132483Y-88139956D01*
X154315802Y-88139310D01*
X154324087Y-88142708D01*
G37*
%TD.AperFunction*%
%TD*%
%TA.AperFunction,Conductor*%
%TO.N,QSPI_IO3*%
G36*
X153716073Y-88614884D02*
G01*
X153719500Y-88623157D01*
X153719500Y-88628713D01*
X153719495Y-88629049D01*
X153717669Y-88692644D01*
X153717620Y-88693433D01*
X153712096Y-88750600D01*
X153712047Y-88751025D01*
X153705413Y-88800640D01*
X153699831Y-88858410D01*
X153699829Y-88858430D01*
X153697814Y-88928693D01*
X153694151Y-88936864D01*
X153686178Y-88940057D01*
X153502394Y-88940976D01*
X153494103Y-88937590D01*
X153494033Y-88937520D01*
X153366062Y-88808643D01*
X153362664Y-88800358D01*
X153366120Y-88792097D01*
X153367840Y-88790687D01*
X153425949Y-88751724D01*
X153429168Y-88750217D01*
X153498184Y-88729945D01*
X153498576Y-88729838D01*
X153560039Y-88714264D01*
X153603532Y-88682055D01*
X153617891Y-88620499D01*
X153623108Y-88613221D01*
X153629285Y-88611457D01*
X153707800Y-88611457D01*
X153716073Y-88614884D01*
G37*
%TD.AperFunction*%
%TD*%
%TA.AperFunction,Conductor*%
%TO.N,SPI2_MISO*%
G36*
X156902123Y-91268247D02*
G01*
X156908426Y-91274608D01*
X156908706Y-91275367D01*
X156918910Y-91306263D01*
X156919500Y-91309932D01*
X156919500Y-91399884D01*
X156950023Y-91473572D01*
X156950025Y-91473575D01*
X156968226Y-91491776D01*
X156970526Y-91495040D01*
X156983181Y-91521752D01*
X156983184Y-91521755D01*
X157031323Y-91579275D01*
X157034005Y-91587819D01*
X157030624Y-91595057D01*
X156975057Y-91650624D01*
X156966784Y-91654051D01*
X156959275Y-91651323D01*
X156901755Y-91603184D01*
X156901752Y-91603181D01*
X156846532Y-91577021D01*
X156846527Y-91577020D01*
X156791780Y-91565026D01*
X156728151Y-91552644D01*
X156726717Y-91552269D01*
X156655367Y-91528706D01*
X156648586Y-91522857D01*
X156647926Y-91513927D01*
X156648194Y-91513198D01*
X156717434Y-91343835D01*
X156723737Y-91337475D01*
X156723779Y-91337457D01*
X156893170Y-91268206D01*
X156902123Y-91268247D01*
G37*
%TD.AperFunction*%
%TD*%
%TA.AperFunction,Conductor*%
%TO.N,CAN2-*%
G36*
X145135723Y-82396674D02*
G01*
X145193240Y-82444812D01*
X145193242Y-82444813D01*
X145193243Y-82444813D01*
X145193245Y-82444815D01*
X145248471Y-82470976D01*
X145303232Y-82482973D01*
X145366853Y-82495353D01*
X145368272Y-82495724D01*
X145439632Y-82519291D01*
X145446412Y-82525139D01*
X145447072Y-82534069D01*
X145446792Y-82534828D01*
X145377564Y-82704161D01*
X145371261Y-82710522D01*
X145371162Y-82710563D01*
X145201829Y-82779791D01*
X145192874Y-82779750D01*
X145186571Y-82773389D01*
X145186299Y-82772653D01*
X145162725Y-82701271D01*
X145162354Y-82699852D01*
X145149974Y-82636231D01*
X145137977Y-82581470D01*
X145111816Y-82526244D01*
X145111814Y-82526242D01*
X145111814Y-82526241D01*
X145111813Y-82526239D01*
X145063675Y-82468722D01*
X145060993Y-82460178D01*
X145064373Y-82452941D01*
X145119942Y-82397372D01*
X145128214Y-82393946D01*
X145135723Y-82396674D01*
G37*
%TD.AperFunction*%
%TD*%
%TA.AperFunction,Conductor*%
%TO.N,CAN1+*%
G36*
X131519441Y-92883427D02*
G01*
X131522868Y-92891700D01*
X131522868Y-92970491D01*
X131519441Y-92978764D01*
X131513560Y-92981944D01*
X131453240Y-92994543D01*
X131453238Y-92994544D01*
X131418182Y-93033284D01*
X131418180Y-93033287D01*
X131409776Y-93056784D01*
X131398288Y-93088902D01*
X131374703Y-93152607D01*
X131373277Y-93155311D01*
X131334408Y-93210151D01*
X131326828Y-93214919D01*
X131318096Y-93212931D01*
X131316618Y-93211687D01*
X131315071Y-93210151D01*
X131187479Y-93083455D01*
X131184024Y-93075195D01*
X131184942Y-92891641D01*
X131188410Y-92883386D01*
X131196642Y-92880000D01*
X131511168Y-92880000D01*
X131519441Y-92883427D01*
G37*
%TD.AperFunction*%
%TD*%
%TA.AperFunction,Conductor*%
%TO.N,QSPI_IO2*%
G36*
X147737566Y-87273427D02*
G01*
X147740947Y-87280666D01*
X147747578Y-87355377D01*
X147747578Y-87355379D01*
X147747579Y-87355380D01*
X147768129Y-87412927D01*
X147768131Y-87412931D01*
X147798365Y-87460129D01*
X147834599Y-87513870D01*
X147835348Y-87515150D01*
X147869137Y-87582264D01*
X147869797Y-87591194D01*
X147863948Y-87597975D01*
X147863214Y-87598314D01*
X147694527Y-87669100D01*
X147685573Y-87669141D01*
X147685473Y-87669100D01*
X147516785Y-87598314D01*
X147510482Y-87591953D01*
X147510523Y-87582998D01*
X147510862Y-87582264D01*
X147544658Y-87515135D01*
X147545390Y-87513884D01*
X147581630Y-87460135D01*
X147611868Y-87412929D01*
X147632420Y-87355380D01*
X147639053Y-87280664D01*
X147643198Y-87272728D01*
X147650707Y-87270000D01*
X147729293Y-87270000D01*
X147737566Y-87273427D01*
G37*
%TD.AperFunction*%
%TD*%
%TA.AperFunction,Conductor*%
%TO.N,QSPI_IO1*%
G36*
X154080723Y-87028675D02*
G01*
X154138240Y-87076813D01*
X154138242Y-87076814D01*
X154138243Y-87076814D01*
X154138245Y-87076816D01*
X154193471Y-87102977D01*
X154248232Y-87114974D01*
X154311853Y-87127354D01*
X154313272Y-87127725D01*
X154384632Y-87151292D01*
X154391412Y-87157140D01*
X154392072Y-87166070D01*
X154391792Y-87166829D01*
X154322564Y-87336162D01*
X154316261Y-87342523D01*
X154316162Y-87342564D01*
X154146829Y-87411792D01*
X154137874Y-87411751D01*
X154131571Y-87405390D01*
X154131299Y-87404654D01*
X154107725Y-87333272D01*
X154107354Y-87331853D01*
X154094974Y-87268232D01*
X154082977Y-87213471D01*
X154056816Y-87158245D01*
X154056814Y-87158243D01*
X154056814Y-87158242D01*
X154056813Y-87158240D01*
X154008675Y-87100723D01*
X154005993Y-87092179D01*
X154009373Y-87084942D01*
X154064942Y-87029373D01*
X154073214Y-87025947D01*
X154080723Y-87028675D01*
G37*
%TD.AperFunction*%
%TD*%
M02*
