M48
; DRILL file {KiCad 8.0.7} date 2025-08-30T11:06:19-0700
; FORMAT={-:-/ absolute / metric / decimal}
; #@! TF.CreationDate,2025-08-30T11:06:19-07:00
; #@! TF.GenerationSoftware,Kicad,Pcbnew,8.0.7
; #@! TF.FileFunction,Plated,1,6,PTH
FMAT,2
METRIC
; #@! TA.AperFunction,Plated,PTH,ViaDrill
T1C0.300
; #@! TA.AperFunction,Plated,PTH,ComponentDrill
T2C0.300
; #@! TA.AperFunction,Plated,PTH,ComponentDrill
T3C2.200
%
G90
G05
T1
X130.5Y-83.0
X130.5Y-85.0
X130.5Y-89.0
X130.5Y-91.0
X130.5Y-95.0
X130.5Y-97.0
X131.185Y-86.91
X131.185Y-87.61
X131.185Y-92.38
X131.185Y-93.08
X131.9Y-89.2
X131.9Y-90.0
X131.9Y-90.8
X132.78Y-85.07
X132.78Y-90.52
X134.19Y-95.7
X134.26Y-84.15
X134.9Y-101.2
X135.15Y-90.47
X135.52Y-85.75
X135.7Y-89.2
X135.7Y-90.6
X135.78Y-78.81
X135.79Y-79.57
X135.8Y-80.35
X136.53Y-78.81
X136.54Y-79.57
X136.55Y-81.25
X136.7Y-89.2
X136.7Y-90.6
X136.89Y-93.78
X136.9Y-101.2
X137.27Y-78.81
X137.28Y-79.57
X137.28Y-80.35
X137.7Y-89.2
X137.7Y-90.6
X137.88Y-92.99
X138.072Y-87.301
X138.08Y-86.46
X138.293Y-93.616
X138.4Y-99.777
X138.87Y-93.916
X138.9Y-101.2
X139.05Y-100.11
X139.06Y-85.99
X139.07Y-86.66
X139.72Y-94.68
X139.76Y-85.04
X140.025Y-92.708
X140.51Y-85.05
X140.58Y-86.4
X140.58Y-87.67
X140.58Y-88.94
X140.76Y-99.19
X140.814Y-91.806
X140.836Y-93.364
X140.9Y-101.2
X141.09Y-78.52
X141.1Y-79.25
X141.1Y-79.98
X141.24Y-85.04
X141.6Y-81.56
X142.3Y-91.6
X142.75Y-78.74
X142.75Y-84.0
X142.9Y-85.23
X142.94Y-94.47
X142.95Y-93.148
X143.01Y-101.21
X143.25Y-78.511
X143.25Y-84.0
X143.3Y-98.6
X143.6Y-85.24
X143.75Y-84.0
X143.75Y-78.739
X143.76Y-101.46
X144.1Y-98.6
X144.251Y-78.511
X144.3Y-101.15
X144.414Y-85.364
X144.625Y-82.708
X144.74Y-101.61
X144.747Y-78.748
X144.9Y-98.6
X144.953Y-97.453
X145.248Y-78.522
X145.258Y-101.243
X145.27Y-94.56
X145.375Y-82.708
X145.447Y-97.947
X145.636Y-85.364
X145.758Y-101.471
X145.76Y-78.74
X146.08Y-86.52
X146.2Y-94.49
X146.22Y-98.01
X146.258Y-101.242
X146.26Y-78.511
X146.74Y-101.52
X146.76Y-78.739
X146.79Y-93.382
X147.251Y-101.234
X147.261Y-78.511
X147.69Y-87.67
X147.748Y-101.471
X147.756Y-88.94
X147.757Y-78.748
X148.05Y-90.38
X148.248Y-101.243
X148.27Y-78.47
X148.45Y-96.993
X148.55Y-98.215
X148.55Y-97.665
X148.748Y-101.471
X148.75Y-78.74
X148.9Y-92.0
X148.98Y-91.31
X149.248Y-101.242
X149.25Y-78.511
X149.3Y-94.65
X149.32Y-92.615
X149.32Y-93.265
X149.75Y-78.739
X149.76Y-101.46
X150.251Y-78.511
X150.261Y-101.234
X150.297Y-91.34
X150.304Y-92.134
X150.32Y-89.74
X150.343Y-88.14
X150.343Y-88.94
X150.37Y-85.99
X150.53Y-82.7
X150.58Y-97.794
X150.747Y-78.748
X150.758Y-101.471
X150.93Y-97.37
X151.034Y-94.65
X151.097Y-91.34
X151.12Y-93.718
X151.12Y-92.143
X151.12Y-87.34
X151.12Y-88.14
X151.12Y-88.94
X151.12Y-89.74
X151.15Y-82.68
X151.248Y-78.522
X151.258Y-101.243
X151.52Y-86.25
X151.711Y-82.78
X151.747Y-78.753
X151.758Y-101.471
X151.92Y-88.14
X151.92Y-92.151
X151.92Y-92.94
X151.92Y-93.763
X151.931Y-90.575
X151.943Y-91.34
X152.03Y-97.41
X152.25Y-78.531
X152.3Y-82.79
X152.32Y-86.25
X152.32Y-94.68
X152.72Y-89.74
X152.72Y-91.363
X152.72Y-92.14
X152.725Y-92.925
X153.497Y-88.94
X153.497Y-88.14
X153.52Y-89.74
X153.52Y-91.34
X153.871Y-95.461
X153.92Y-86.06
X153.93Y-94.8
X154.32Y-87.34
X154.32Y-88.14
X154.32Y-88.94
X154.32Y-89.74
X154.32Y-91.34
X154.32Y-92.14
X154.32Y-92.94
X154.32Y-93.74
X154.73Y-94.83
X154.802Y-97.17
X154.91Y-98.48
X155.12Y-88.14
X155.12Y-88.94
X155.12Y-89.74
X155.12Y-91.34
X155.12Y-92.14
X155.12Y-92.94
X155.12Y-93.74
X155.52Y-86.45
X155.732Y-85.614
X155.92Y-88.14
X155.92Y-88.94
X155.92Y-90.54
X155.92Y-91.34
X155.92Y-92.14
X155.92Y-92.94
X155.92Y-93.74
X155.92Y-94.54
X156.248Y-83.741
X156.29Y-84.39
X156.32Y-86.2
X156.34Y-82.56
X156.72Y-91.34
X156.72Y-88.14
X156.72Y-89.74
X156.72Y-92.14
X156.72Y-93.74
X156.72Y-94.54
X157.12Y-86.12
X157.62Y-91.29
X157.74Y-78.78
X157.75Y-79.54
X157.75Y-80.41
X157.75Y-89.16
X157.78Y-92.941
X157.95Y-87.86
X157.96Y-93.74
X158.03Y-90.83
X158.15Y-88.72
X158.24Y-89.73
X158.28Y-95.19
X158.33Y-84.12
X158.49Y-78.78
X158.5Y-79.54
X158.5Y-99.6
X158.506Y-82.339
X158.51Y-98.88
X158.6Y-97.86
X159.14Y-85.99
X159.22Y-93.3
X159.23Y-78.78
X159.23Y-80.41
X159.24Y-79.54
X159.89Y-86.0
X159.95Y-86.9
X160.62Y-85.99
X160.66Y-84.32
X160.725Y-88.77
X161.39Y-85.05
X161.48Y-88.77
X161.71Y-96.02
X162.235Y-88.77
X162.9Y-95.8
X162.9Y-96.8
X163.99Y-93.04
X164.0Y-90.58
X164.275Y-95.59
X164.63Y-93.54
T2
X134.32Y-87.26
X134.32Y-92.73
X134.87Y-86.31
X134.87Y-88.21
X134.87Y-91.78
X134.87Y-93.68
X135.42Y-87.26
X135.42Y-92.73
T3
X132.5Y-80.5
X132.5Y-99.5
X162.5Y-80.5
X162.5Y-99.5
M30
