%TF.GenerationSoftware,KiCad,Pcbnew,8.0.7*%
%TF.CreationDate,2025-08-30T11:06:05-07:00*%
%TF.ProjectId,Pivot_Core,5069766f-745f-4436-9f72-652e6b696361,rev?*%
%TF.SameCoordinates,Original*%
%TF.FileFunction,Soldermask,Bot*%
%TF.FilePolarity,Negative*%
%FSLAX46Y46*%
G04 Gerber Fmt 4.6, Leading zero omitted, Abs format (unit mm)*
G04 Created by KiCad (PCBNEW 8.0.7) date 2025-08-30 11:06:05*
%MOMM*%
%LPD*%
G01*
G04 APERTURE LIST*
G04 Aperture macros list*
%AMRoundRect*
0 Rectangle with rounded corners*
0 $1 Rounding radius*
0 $2 $3 $4 $5 $6 $7 $8 $9 X,Y pos of 4 corners*
0 Add a 4 corners polygon primitive as box body*
4,1,4,$2,$3,$4,$5,$6,$7,$8,$9,$2,$3,0*
0 Add four circle primitives for the rounded corners*
1,1,$1+$1,$2,$3*
1,1,$1+$1,$4,$5*
1,1,$1+$1,$6,$7*
1,1,$1+$1,$8,$9*
0 Add four rect primitives between the rounded corners*
20,1,$1+$1,$2,$3,$4,$5,0*
20,1,$1+$1,$4,$5,$6,$7,0*
20,1,$1+$1,$6,$7,$8,$9,0*
20,1,$1+$1,$8,$9,$2,$3,0*%
G04 Aperture macros list end*
%ADD10C,3.800000*%
%ADD11RoundRect,0.140000X-0.140000X-0.170000X0.140000X-0.170000X0.140000X0.170000X-0.140000X0.170000X0*%
%ADD12C,0.550000*%
%ADD13R,0.300000X1.800000*%
%ADD14RoundRect,0.140000X0.140000X0.170000X-0.140000X0.170000X-0.140000X-0.170000X0.140000X-0.170000X0*%
%ADD15RoundRect,0.140000X0.170000X-0.140000X0.170000X0.140000X-0.170000X0.140000X-0.170000X-0.140000X0*%
%ADD16RoundRect,0.175000X2.075000X-1.575000X2.075000X1.575000X-2.075000X1.575000X-2.075000X-1.575000X0*%
%ADD17C,6.000000*%
%ADD18RoundRect,0.140000X-0.170000X0.140000X-0.170000X-0.140000X0.170000X-0.140000X0.170000X0.140000X0*%
%ADD19RoundRect,0.150000X-0.587500X-0.150000X0.587500X-0.150000X0.587500X0.150000X-0.587500X0.150000X0*%
G04 APERTURE END LIST*
D10*
%TO.C,H1*%
X132500000Y-80500000D03*
%TD*%
%TO.C,H2*%
X132500000Y-99500000D03*
%TD*%
%TO.C,H4*%
X162500000Y-99500000D03*
%TD*%
%TO.C,H3*%
X162500000Y-80500000D03*
%TD*%
D11*
%TO.C,C23*%
X151110000Y-90620000D03*
X152070000Y-90620000D03*
%TD*%
D12*
%TO.C,J2*%
X153200000Y-99250000D03*
X141800000Y-99250000D03*
D13*
X152250000Y-96000000D03*
X151750000Y-96000000D03*
X151250000Y-96000000D03*
X150750000Y-96000000D03*
X150250000Y-96000000D03*
X149750000Y-96000000D03*
X149250000Y-96000000D03*
X148750000Y-96000000D03*
X148250000Y-96000000D03*
X147750000Y-96000000D03*
X147250000Y-96000000D03*
X146750000Y-96000000D03*
X146250000Y-96000000D03*
X145750000Y-96000000D03*
X145250000Y-96000000D03*
X144750000Y-96000000D03*
X144250000Y-96000000D03*
X143750000Y-96000000D03*
X143250000Y-96000000D03*
X142750000Y-96000000D03*
X152250000Y-100000000D03*
X151750000Y-100000000D03*
X151250000Y-100000000D03*
X150750000Y-100000000D03*
X150250000Y-100000000D03*
X149750000Y-100000000D03*
X149250000Y-100000000D03*
X148750000Y-100000000D03*
X148250000Y-100000000D03*
X147750000Y-100000000D03*
X147250000Y-100000000D03*
X146750000Y-100000000D03*
X146250000Y-100000000D03*
X145750000Y-100000000D03*
X145250000Y-100000000D03*
X144750000Y-100000000D03*
X144250000Y-100000000D03*
X143750000Y-100000000D03*
X143250000Y-100000000D03*
X142750000Y-100000000D03*
%TD*%
D14*
%TO.C,C25*%
X158110000Y-92130000D03*
X157150000Y-92130000D03*
%TD*%
D15*
%TO.C,C28*%
X155260000Y-91020000D03*
X155260000Y-90060000D03*
%TD*%
D14*
%TO.C,C22*%
X152070000Y-89670000D03*
X151110000Y-89670000D03*
%TD*%
D16*
%TO.C,BT1*%
X136980000Y-96450000D03*
X136980000Y-83550000D03*
D17*
X136980000Y-90000000D03*
%TD*%
D14*
%TO.C,C21*%
X161100000Y-96030000D03*
X160140000Y-96030000D03*
%TD*%
D12*
%TO.C,J1*%
X141800000Y-80750000D03*
X153200000Y-80750000D03*
D13*
X142750000Y-84000000D03*
X143250000Y-84000000D03*
X143750000Y-84000000D03*
X144250000Y-84000000D03*
X144750000Y-84000000D03*
X145250000Y-84000000D03*
X145750000Y-84000000D03*
X146250000Y-84000000D03*
X146750000Y-84000000D03*
X147250000Y-84000000D03*
X147750000Y-84000000D03*
X148250000Y-84000000D03*
X148750000Y-84000000D03*
X149250000Y-84000000D03*
X149750000Y-84000000D03*
X150250000Y-84000000D03*
X150750000Y-84000000D03*
X151250000Y-84000000D03*
X151750000Y-84000000D03*
X152250000Y-84000000D03*
X142750000Y-80000000D03*
X143250000Y-80000000D03*
X143750000Y-80000000D03*
X144250000Y-80000000D03*
X144750000Y-80000000D03*
X145250000Y-80000000D03*
X145750000Y-80000000D03*
X146250000Y-80000000D03*
X146750000Y-80000000D03*
X147250000Y-80000000D03*
X147750000Y-80000000D03*
X148250000Y-80000000D03*
X148750000Y-80000000D03*
X149250000Y-80000000D03*
X149750000Y-80000000D03*
X150250000Y-80000000D03*
X150750000Y-80000000D03*
X151250000Y-80000000D03*
X151750000Y-80000000D03*
X152250000Y-80000000D03*
%TD*%
D15*
%TO.C,C27*%
X154320000Y-91020000D03*
X154320000Y-90060000D03*
%TD*%
D14*
%TO.C,C20*%
X158110000Y-93080000D03*
X157150000Y-93080000D03*
%TD*%
D18*
%TO.C,C24*%
X158670000Y-85050000D03*
X158670000Y-86010000D03*
%TD*%
D15*
%TO.C,C26*%
X153390000Y-91020000D03*
X153390000Y-90060000D03*
%TD*%
D19*
%TO.C,D4*%
X156715000Y-98030000D03*
X156715000Y-96130000D03*
X158590000Y-97080000D03*
%TD*%
M02*
