%TF.GenerationSoftware,KiCad,Pcbnew,8.0.7*%
%TF.CreationDate,2025-08-30T11:06:05-07:00*%
%TF.ProjectId,Pivot_Core,5069766f-745f-4436-9f72-652e6b696361,rev?*%
%TF.SameCoordinates,Original*%
%TF.FileFunction,Legend,Bot*%
%TF.FilePolarity,Positive*%
%FSLAX46Y46*%
G04 Gerber Fmt 4.6, Leading zero omitted, Abs format (unit mm)*
G04 Created by KiCad (PCBNEW 8.0.7) date 2025-08-30 11:06:05*
%MOMM*%
%LPD*%
G01*
G04 APERTURE LIST*
G04 Aperture macros list*
%AMRoundRect*
0 Rectangle with rounded corners*
0 $1 Rounding radius*
0 $2 $3 $4 $5 $6 $7 $8 $9 X,Y pos of 4 corners*
0 Add a 4 corners polygon primitive as box body*
4,1,4,$2,$3,$4,$5,$6,$7,$8,$9,$2,$3,0*
0 Add four circle primitives for the rounded corners*
1,1,$1+$1,$2,$3*
1,1,$1+$1,$4,$5*
1,1,$1+$1,$6,$7*
1,1,$1+$1,$8,$9*
0 Add four rect primitives between the rounded corners*
20,1,$1+$1,$2,$3,$4,$5,0*
20,1,$1+$1,$4,$5,$6,$7,0*
20,1,$1+$1,$6,$7,$8,$9,0*
20,1,$1+$1,$8,$9,$2,$3,0*%
G04 Aperture macros list end*
%ADD10C,0.100000*%
%ADD11C,0.120000*%
%ADD12C,0.400000*%
%ADD13C,0.000000*%
%ADD14C,3.800000*%
%ADD15RoundRect,0.140000X-0.140000X-0.170000X0.140000X-0.170000X0.140000X0.170000X-0.140000X0.170000X0*%
%ADD16C,0.550000*%
%ADD17R,0.300000X1.800000*%
%ADD18RoundRect,0.140000X0.140000X0.170000X-0.140000X0.170000X-0.140000X-0.170000X0.140000X-0.170000X0*%
%ADD19RoundRect,0.140000X0.170000X-0.140000X0.170000X0.140000X-0.170000X0.140000X-0.170000X-0.140000X0*%
%ADD20RoundRect,0.175000X2.075000X-1.575000X2.075000X1.575000X-2.075000X1.575000X-2.075000X-1.575000X0*%
%ADD21C,6.000000*%
%ADD22RoundRect,0.140000X-0.170000X0.140000X-0.170000X-0.140000X0.170000X-0.140000X0.170000X0.140000X0*%
%ADD23RoundRect,0.150000X-0.587500X-0.150000X0.587500X-0.150000X0.587500X0.150000X-0.587500X0.150000X0*%
G04 APERTURE END LIST*
D10*
G36*
X149397591Y-93044010D02*
G01*
X149436879Y-93050349D01*
X149474773Y-93062769D01*
X149508471Y-93083339D01*
X149511631Y-93086056D01*
X149537803Y-93116747D01*
X149554282Y-93153620D01*
X149561067Y-93196675D01*
X149561261Y-93206028D01*
X149556338Y-93248446D01*
X149541569Y-93285331D01*
X149516954Y-93316682D01*
X149510849Y-93322288D01*
X149477099Y-93343540D01*
X149438041Y-93356592D01*
X149396874Y-93363504D01*
X149356393Y-93366080D01*
X149341833Y-93366252D01*
X149300153Y-93364720D01*
X149257481Y-93359060D01*
X149216567Y-93347486D01*
X149180553Y-93327955D01*
X149173990Y-93322679D01*
X149147405Y-93292270D01*
X149130667Y-93255756D01*
X149123775Y-93213136D01*
X149123578Y-93203879D01*
X149127473Y-93163137D01*
X149140937Y-93124394D01*
X149164018Y-93092520D01*
X149172817Y-93084298D01*
X149207023Y-93063801D01*
X149248172Y-93051214D01*
X149292472Y-93044547D01*
X149336605Y-93042063D01*
X149352580Y-93041897D01*
X149397591Y-93044010D01*
G37*
G36*
X149278460Y-92261008D02*
G01*
X149318508Y-92269104D01*
X149350822Y-92284940D01*
X149378417Y-92315377D01*
X149386188Y-92347270D01*
X149376151Y-92385885D01*
X149350626Y-92414095D01*
X149314025Y-92431554D01*
X149275381Y-92438927D01*
X149232803Y-92441060D01*
X149193437Y-92438880D01*
X149153928Y-92430298D01*
X149121624Y-92413509D01*
X149094953Y-92382490D01*
X149086062Y-92344535D01*
X149097979Y-92305768D01*
X149119866Y-92283767D01*
X149155809Y-92267701D01*
X149194781Y-92260915D01*
X149238274Y-92258952D01*
X149278460Y-92261008D01*
G37*
G36*
X149348836Y-91526641D02*
G01*
X149367235Y-91544591D01*
X149383060Y-91582089D01*
X149386188Y-91615128D01*
X149380653Y-91655616D01*
X149362438Y-91690197D01*
X149357270Y-91696021D01*
X149323047Y-91716386D01*
X149311157Y-91718883D01*
X149311157Y-91512937D01*
X149348836Y-91526641D01*
G37*
G36*
X149278063Y-89339962D02*
G01*
X149317693Y-89349214D01*
X149350235Y-89367312D01*
X149376041Y-89398118D01*
X149386153Y-89437509D01*
X149386188Y-89440194D01*
X149378159Y-89479808D01*
X149354074Y-89512551D01*
X149349649Y-89516398D01*
X149313318Y-89535881D01*
X149272200Y-89544608D01*
X149236321Y-89546489D01*
X149195853Y-89544124D01*
X149155293Y-89534811D01*
X149122210Y-89516594D01*
X149096264Y-89485261D01*
X149086204Y-89447316D01*
X149086062Y-89441758D01*
X149093876Y-89402780D01*
X149117318Y-89370843D01*
X149121624Y-89367117D01*
X149158190Y-89348014D01*
X149196544Y-89339946D01*
X149238665Y-89337612D01*
X149278063Y-89339962D01*
G37*
G36*
X149348836Y-86594108D02*
G01*
X149367235Y-86612058D01*
X149383060Y-86649556D01*
X149386188Y-86682595D01*
X149380653Y-86723083D01*
X149362438Y-86757664D01*
X149357270Y-86763488D01*
X149323047Y-86783853D01*
X149311157Y-86786349D01*
X149311157Y-86580404D01*
X149348836Y-86594108D01*
G37*
G36*
X149850234Y-93716578D02*
G01*
X148622016Y-93716578D01*
X148622016Y-93195477D01*
X148923494Y-93195477D01*
X148923707Y-93203879D01*
X148924558Y-93237380D01*
X148927749Y-93276993D01*
X148934387Y-93321506D01*
X148944089Y-93362722D01*
X148956855Y-93400641D01*
X148967067Y-93424088D01*
X148988647Y-93462193D01*
X149015088Y-93497007D01*
X149046392Y-93528530D01*
X149077093Y-93552930D01*
X149105406Y-93571416D01*
X149142592Y-93590540D01*
X149183076Y-93605707D01*
X149226856Y-93616918D01*
X149265859Y-93623238D01*
X149307151Y-93626810D01*
X149341833Y-93627689D01*
X149389955Y-93625943D01*
X149435354Y-93620704D01*
X149478029Y-93611972D01*
X149517981Y-93599748D01*
X149555210Y-93584031D01*
X149589715Y-93564821D01*
X149629018Y-93535897D01*
X149650556Y-93515924D01*
X149676522Y-93486624D01*
X149699026Y-93454607D01*
X149718068Y-93419872D01*
X149733648Y-93382421D01*
X149745765Y-93342252D01*
X149754421Y-93299366D01*
X149759614Y-93253763D01*
X149761345Y-93205442D01*
X149759644Y-93155995D01*
X149754543Y-93109455D01*
X149746040Y-93065821D01*
X149734136Y-93025093D01*
X149718831Y-92987272D01*
X149700125Y-92952358D01*
X149671960Y-92912802D01*
X149652510Y-92891248D01*
X149616391Y-92859332D01*
X149576055Y-92832825D01*
X149540749Y-92815514D01*
X149502745Y-92801665D01*
X149462042Y-92791279D01*
X149418640Y-92784355D01*
X149372539Y-92780892D01*
X149348477Y-92780460D01*
X149305500Y-92781643D01*
X149264984Y-92785192D01*
X149219614Y-92792574D01*
X149177789Y-92803363D01*
X149139509Y-92817560D01*
X149115958Y-92828917D01*
X149078048Y-92852099D01*
X149043990Y-92879412D01*
X149013784Y-92910859D01*
X148987431Y-92946438D01*
X148974101Y-92968624D01*
X148956903Y-93004402D01*
X148943263Y-93043298D01*
X148933181Y-93085314D01*
X148926657Y-93130447D01*
X148923939Y-93170441D01*
X148923494Y-93195477D01*
X148622016Y-93195477D01*
X148622016Y-92439301D01*
X148710905Y-92439301D01*
X148710905Y-92677682D01*
X149536251Y-92677682D01*
X149536251Y-92455910D01*
X149468058Y-92455910D01*
X149495853Y-92428211D01*
X149519670Y-92394489D01*
X149524527Y-92385177D01*
X149539292Y-92346031D01*
X149546839Y-92307540D01*
X149548756Y-92274193D01*
X149545514Y-92230987D01*
X149535787Y-92191642D01*
X149516243Y-92150619D01*
X149487872Y-92114850D01*
X149456530Y-92088373D01*
X149420528Y-92066128D01*
X149381544Y-92048485D01*
X149339580Y-92035445D01*
X149294633Y-92027007D01*
X149254901Y-92023491D01*
X149230068Y-92022916D01*
X149185304Y-92024662D01*
X149143946Y-92029900D01*
X149098812Y-92040795D01*
X149058583Y-92056718D01*
X149023258Y-92077669D01*
X149002434Y-92094430D01*
X148971675Y-92127522D01*
X148948471Y-92164223D01*
X148932822Y-92204534D01*
X148924728Y-92248453D01*
X148923494Y-92275170D01*
X148926171Y-92316678D01*
X148931984Y-92344535D01*
X148934200Y-92355154D01*
X148939712Y-92371890D01*
X148956247Y-92408404D01*
X148978205Y-92439301D01*
X148710905Y-92439301D01*
X148622016Y-92439301D01*
X148622016Y-91617864D01*
X148923494Y-91617864D01*
X148924669Y-91660096D01*
X148929009Y-91704992D01*
X148936546Y-91745175D01*
X148949076Y-91785329D01*
X148956907Y-91803097D01*
X148978933Y-91839507D01*
X149007204Y-91872237D01*
X149037576Y-91898243D01*
X149063592Y-91915840D01*
X149101706Y-91935331D01*
X149142971Y-91949252D01*
X149181662Y-91956866D01*
X149222766Y-91960216D01*
X149234953Y-91960390D01*
X149277487Y-91958205D01*
X149317408Y-91951651D01*
X149361861Y-91938017D01*
X149402551Y-91918092D01*
X149439476Y-91891874D01*
X149462001Y-91870899D01*
X149491484Y-91834970D01*
X149514867Y-91794302D01*
X149529694Y-91756790D01*
X149540284Y-91715987D01*
X149546638Y-91671893D01*
X149548756Y-91624507D01*
X149547430Y-91578808D01*
X149543453Y-91536818D01*
X149535461Y-91492518D01*
X149523861Y-91453267D01*
X149511045Y-91423642D01*
X149490162Y-91388825D01*
X149465030Y-91358429D01*
X149435647Y-91332454D01*
X149402015Y-91310899D01*
X149363632Y-91293888D01*
X149325740Y-91282990D01*
X149283827Y-91275813D01*
X149244701Y-91272623D01*
X149216976Y-91272016D01*
X149186104Y-91272016D01*
X149186104Y-91718883D01*
X149186104Y-91719664D01*
X149146403Y-91709579D01*
X149120256Y-91692895D01*
X149095713Y-91660154D01*
X149086363Y-91622081D01*
X149086062Y-91612979D01*
X149092374Y-91573120D01*
X149100717Y-91553384D01*
X149127120Y-91522148D01*
X149136474Y-91513914D01*
X149109900Y-91281004D01*
X149073376Y-91302564D01*
X149041180Y-91325334D01*
X149009087Y-91353427D01*
X148982884Y-91383165D01*
X148965113Y-91409964D01*
X148946905Y-91450289D01*
X148935240Y-91491944D01*
X148928412Y-91532381D01*
X148924510Y-91577188D01*
X148923494Y-91617864D01*
X148622016Y-91617864D01*
X148622016Y-90793691D01*
X148936000Y-90793691D01*
X149266020Y-90793691D01*
X149306353Y-90797244D01*
X149340075Y-90812253D01*
X149359508Y-90846911D01*
X149361177Y-90864814D01*
X149350914Y-90904636D01*
X149332064Y-90926168D01*
X149294134Y-90943138D01*
X149252566Y-90948979D01*
X149224988Y-90949811D01*
X148936000Y-90949811D01*
X148936000Y-91186042D01*
X149536251Y-91186042D01*
X149536251Y-90965247D01*
X149452427Y-90965247D01*
X149483531Y-90936203D01*
X149509140Y-90903588D01*
X149523159Y-90879859D01*
X149538757Y-90840081D01*
X149546731Y-90798356D01*
X149548756Y-90760474D01*
X149546007Y-90720654D01*
X149536134Y-90679999D01*
X149519079Y-90644523D01*
X149491310Y-90610802D01*
X149458765Y-90587037D01*
X149418575Y-90570062D01*
X149377137Y-90560779D01*
X149336961Y-90556959D01*
X149315260Y-90556482D01*
X148936000Y-90556482D01*
X148936000Y-90793691D01*
X148622016Y-90793691D01*
X148622016Y-90158073D01*
X148923494Y-90158073D01*
X148924634Y-90206441D01*
X148928055Y-90250305D01*
X148933755Y-90289666D01*
X148943606Y-90330956D01*
X148959248Y-90370931D01*
X148970193Y-90389811D01*
X148996462Y-90421574D01*
X149028568Y-90447305D01*
X149066511Y-90467004D01*
X149104499Y-90479291D01*
X149110291Y-90480669D01*
X149136669Y-90246587D01*
X149100228Y-90229832D01*
X149077270Y-90208876D01*
X149062968Y-90171629D01*
X149061052Y-90146545D01*
X149066015Y-90106441D01*
X149078637Y-90080306D01*
X149108728Y-90063698D01*
X149139600Y-90085582D01*
X149150914Y-90123906D01*
X149159228Y-90166013D01*
X149161680Y-90179957D01*
X149169145Y-90221434D01*
X149177645Y-90263538D01*
X149187085Y-90303368D01*
X149199586Y-90343698D01*
X149218193Y-90379001D01*
X149245120Y-90409661D01*
X149260354Y-90422246D01*
X149294444Y-90441892D01*
X149335220Y-90452943D01*
X149358833Y-90454486D01*
X149398245Y-90450376D01*
X149436764Y-90436519D01*
X149462587Y-90419706D01*
X149492226Y-90390049D01*
X149513795Y-90356587D01*
X149527458Y-90324744D01*
X149538689Y-90283257D01*
X149544679Y-90244490D01*
X149548007Y-90200764D01*
X149548756Y-90164716D01*
X149547943Y-90121163D01*
X149545021Y-90077776D01*
X149539194Y-90037112D01*
X149531757Y-90008206D01*
X149514817Y-89969543D01*
X149491621Y-89936427D01*
X149478805Y-89923014D01*
X149447252Y-89898605D01*
X149410266Y-89878402D01*
X149374269Y-89863418D01*
X149360982Y-90088708D01*
X149394193Y-90110870D01*
X149396935Y-90115086D01*
X149409513Y-90152368D01*
X149411198Y-90175658D01*
X149405657Y-90215127D01*
X149399475Y-90226656D01*
X149372120Y-90241897D01*
X149345937Y-90223335D01*
X149334905Y-90183431D01*
X149328771Y-90142914D01*
X149327179Y-90129741D01*
X149322125Y-90089601D01*
X149315309Y-90047807D01*
X149306306Y-90006683D01*
X149294630Y-89968884D01*
X149291812Y-89961702D01*
X149273694Y-89926464D01*
X149248452Y-89894975D01*
X149225769Y-89876119D01*
X149189424Y-89856763D01*
X149150240Y-89847275D01*
X149131198Y-89846224D01*
X149089420Y-89851416D01*
X149051657Y-89865424D01*
X149029984Y-89877682D01*
X148998668Y-89903535D01*
X148974365Y-89934371D01*
X148954032Y-89972190D01*
X148952217Y-89976356D01*
X148938333Y-90017905D01*
X148929805Y-90061118D01*
X148925289Y-90103778D01*
X148923606Y-90143945D01*
X148923494Y-90158073D01*
X148622016Y-90158073D01*
X148622016Y-89442930D01*
X148923494Y-89442930D01*
X148925278Y-89486291D01*
X148930631Y-89526980D01*
X148941764Y-89572281D01*
X148958035Y-89613735D01*
X148979444Y-89651342D01*
X148996572Y-89674277D01*
X149026339Y-89705687D01*
X149058854Y-89731773D01*
X149094116Y-89752536D01*
X149132127Y-89767974D01*
X149172885Y-89778090D01*
X149216390Y-89782881D01*
X149234562Y-89783307D01*
X149276131Y-89781060D01*
X149315353Y-89774319D01*
X149359321Y-89760299D01*
X149399910Y-89739808D01*
X149437119Y-89712846D01*
X149460047Y-89691276D01*
X149485603Y-89660957D01*
X149506827Y-89627517D01*
X149523720Y-89590958D01*
X149536281Y-89551279D01*
X149544511Y-89508480D01*
X149548409Y-89462562D01*
X149548756Y-89443321D01*
X149547126Y-89400129D01*
X149542235Y-89359655D01*
X149531536Y-89312884D01*
X149515742Y-89270358D01*
X149494853Y-89232078D01*
X149468870Y-89198043D01*
X149444415Y-89173872D01*
X149411548Y-89148838D01*
X149375960Y-89128983D01*
X149337652Y-89114308D01*
X149296624Y-89104812D01*
X149252876Y-89100496D01*
X149237688Y-89100208D01*
X149195796Y-89102436D01*
X149156336Y-89109119D01*
X149112196Y-89123021D01*
X149071560Y-89143338D01*
X149034426Y-89170071D01*
X149011617Y-89191458D01*
X148986230Y-89221605D01*
X148965146Y-89255140D01*
X148948365Y-89292062D01*
X148935887Y-89332370D01*
X148927711Y-89376066D01*
X148923838Y-89423149D01*
X148923514Y-89441758D01*
X148923494Y-89442930D01*
X148622016Y-89442930D01*
X148622016Y-88808094D01*
X148923494Y-88808094D01*
X148926243Y-88847695D01*
X148936117Y-88888190D01*
X148953171Y-88923606D01*
X148980940Y-88957375D01*
X149013449Y-88981055D01*
X149053529Y-88997968D01*
X149094810Y-89007218D01*
X149134808Y-89011024D01*
X149156404Y-89011499D01*
X149536251Y-89011499D01*
X149536251Y-88774291D01*
X149206621Y-88774291D01*
X149166346Y-88770738D01*
X149132371Y-88755728D01*
X149112757Y-88720991D01*
X149111073Y-88703167D01*
X149121268Y-88663602D01*
X149139991Y-88642009D01*
X149177921Y-88624898D01*
X149219489Y-88619009D01*
X149247067Y-88618171D01*
X149536251Y-88618171D01*
X149536251Y-88381939D01*
X148936000Y-88381939D01*
X148936000Y-88603321D01*
X149019628Y-88603321D01*
X148990818Y-88629784D01*
X148964760Y-88662025D01*
X148948896Y-88688513D01*
X148933417Y-88728135D01*
X148925504Y-88769959D01*
X148923494Y-88808094D01*
X148622016Y-88808094D01*
X148622016Y-88023391D01*
X148936000Y-88023391D01*
X148936000Y-88260795D01*
X149536251Y-88260795D01*
X149536251Y-88038827D01*
X149460242Y-88038827D01*
X149493939Y-88017741D01*
X149522595Y-87988340D01*
X149524136Y-87986266D01*
X149541808Y-87951324D01*
X149548540Y-87912513D01*
X149548756Y-87903418D01*
X149544030Y-87863164D01*
X149531394Y-87822740D01*
X149515148Y-87787159D01*
X149342615Y-87861018D01*
X149356537Y-87899462D01*
X149361177Y-87926866D01*
X149351637Y-87964864D01*
X149327374Y-87989783D01*
X149287635Y-88007506D01*
X149249441Y-88016006D01*
X149209901Y-88020732D01*
X149164082Y-88023095D01*
X149138819Y-88023391D01*
X148936000Y-88023391D01*
X148622016Y-88023391D01*
X148622016Y-87420990D01*
X148923494Y-87420990D01*
X148924336Y-87460555D01*
X148927358Y-87502177D01*
X148933386Y-87544418D01*
X148941080Y-87577892D01*
X148954330Y-87615516D01*
X148973842Y-87652981D01*
X148998526Y-87686335D01*
X149027546Y-87715215D01*
X149059799Y-87739523D01*
X149091924Y-87757654D01*
X149128847Y-87771256D01*
X149167787Y-87779190D01*
X149206942Y-87782817D01*
X149233585Y-87783446D01*
X149277695Y-87781468D01*
X149317995Y-87775533D01*
X149358779Y-87764126D01*
X149387165Y-87751792D01*
X149422258Y-87730412D01*
X149454190Y-87703421D01*
X149467863Y-87689071D01*
X149493949Y-87656297D01*
X149514101Y-87622750D01*
X149521401Y-87607005D01*
X149534624Y-87566621D01*
X149542745Y-87525844D01*
X149547046Y-87486398D01*
X149548729Y-87443437D01*
X149548756Y-87437012D01*
X149547482Y-87393431D01*
X149543661Y-87353180D01*
X149535713Y-87309273D01*
X149524097Y-87270162D01*
X149505909Y-87230591D01*
X149496586Y-87215631D01*
X149471125Y-87184120D01*
X149440390Y-87156780D01*
X149404382Y-87133609D01*
X149363101Y-87114609D01*
X149337144Y-87105624D01*
X149310570Y-87328959D01*
X149347093Y-87344238D01*
X149368602Y-87364130D01*
X149383715Y-87401362D01*
X149386188Y-87430369D01*
X149379803Y-87469818D01*
X149358645Y-87505016D01*
X149347500Y-87515756D01*
X149312805Y-87535641D01*
X149270767Y-87545806D01*
X149229091Y-87548387D01*
X149188157Y-87545239D01*
X149148004Y-87533149D01*
X149122015Y-87516147D01*
X149097438Y-87484400D01*
X149086624Y-87445921D01*
X149086062Y-87433691D01*
X149091797Y-87392971D01*
X149106383Y-87363544D01*
X149135640Y-87336970D01*
X149171244Y-87320386D01*
X149174185Y-87319385D01*
X149147612Y-87094291D01*
X149108422Y-87107171D01*
X149069374Y-87125397D01*
X149035058Y-87147746D01*
X149025685Y-87155254D01*
X148997414Y-87183113D01*
X148973418Y-87215399D01*
X148953695Y-87252111D01*
X148950263Y-87259985D01*
X148937323Y-87298474D01*
X148929376Y-87337150D01*
X148924775Y-87380027D01*
X148923494Y-87420990D01*
X148622016Y-87420990D01*
X148622016Y-86685331D01*
X148923494Y-86685331D01*
X148924669Y-86727563D01*
X148929009Y-86772459D01*
X148936546Y-86812642D01*
X148949076Y-86852796D01*
X148956907Y-86870564D01*
X148978933Y-86906973D01*
X149007204Y-86939704D01*
X149037576Y-86965710D01*
X149063592Y-86983307D01*
X149101706Y-87002797D01*
X149142971Y-87016719D01*
X149181662Y-87024333D01*
X149222766Y-87027683D01*
X149234953Y-87027857D01*
X149277487Y-87025672D01*
X149317408Y-87019117D01*
X149361861Y-87005484D01*
X149402551Y-86985558D01*
X149439476Y-86959340D01*
X149462001Y-86938366D01*
X149491484Y-86902437D01*
X149514867Y-86861768D01*
X149529694Y-86824257D01*
X149540284Y-86783454D01*
X149546638Y-86739360D01*
X149548756Y-86691974D01*
X149547430Y-86646275D01*
X149543453Y-86604285D01*
X149535461Y-86559985D01*
X149523861Y-86520734D01*
X149511045Y-86491109D01*
X149490162Y-86456292D01*
X149465030Y-86425896D01*
X149435647Y-86399921D01*
X149402015Y-86378366D01*
X149363632Y-86361355D01*
X149325740Y-86350457D01*
X149283827Y-86343280D01*
X149244701Y-86340090D01*
X149216976Y-86339483D01*
X149186104Y-86339483D01*
X149186104Y-86786349D01*
X149186104Y-86787131D01*
X149146403Y-86777046D01*
X149120256Y-86760362D01*
X149095713Y-86727621D01*
X149086363Y-86689548D01*
X149086062Y-86680446D01*
X149092374Y-86640587D01*
X149100717Y-86620850D01*
X149127120Y-86589615D01*
X149136474Y-86581381D01*
X149109900Y-86348471D01*
X149073376Y-86370031D01*
X149041180Y-86392801D01*
X149009087Y-86420893D01*
X148982884Y-86450631D01*
X148965113Y-86477431D01*
X148946905Y-86517755D01*
X148935240Y-86559411D01*
X148928412Y-86599848D01*
X148924510Y-86644655D01*
X148923494Y-86685331D01*
X148622016Y-86685331D01*
X148622016Y-86250594D01*
X149850234Y-86250594D01*
X149850234Y-93716578D01*
G37*
D11*
%TO.C,C23*%
X151697836Y-90260000D02*
X151482164Y-90260000D01*
X151697836Y-90980000D02*
X151482164Y-90980000D01*
D10*
%TO.C,J2*%
X141100000Y-96000000D02*
X141900000Y-96000000D01*
X141100000Y-100000000D02*
X141100000Y-96000000D01*
X141100000Y-100000000D02*
X141900000Y-100000000D01*
X153100000Y-96000000D02*
X153900000Y-96000000D01*
X153100000Y-100000000D02*
X153900000Y-100000000D01*
X153900000Y-100000000D02*
X153900000Y-96000000D01*
D11*
%TO.C,C25*%
X157522164Y-91770000D02*
X157737836Y-91770000D01*
X157522164Y-92490000D02*
X157737836Y-92490000D01*
%TO.C,C28*%
X154900000Y-90432164D02*
X154900000Y-90647836D01*
X155620000Y-90432164D02*
X155620000Y-90647836D01*
%TO.C,C22*%
X151482164Y-89310000D02*
X151697836Y-89310000D01*
X151482164Y-90030000D02*
X151697836Y-90030000D01*
D12*
%TO.C,BT1*%
X132680000Y-93000000D02*
X132680000Y-87000000D01*
X133480000Y-85850000D02*
X132680000Y-85150000D01*
X133480000Y-94150000D02*
X132680000Y-94850000D01*
X134519230Y-85250000D02*
X133480000Y-85850000D01*
X134519230Y-94750000D02*
X133480000Y-94150000D01*
X139454874Y-85757360D02*
X140338757Y-86641243D01*
X139454874Y-94242640D02*
X140338757Y-93358757D01*
X141222640Y-87525126D02*
X140338757Y-86641243D01*
X141222640Y-92474874D02*
X140338757Y-93358757D01*
X141222640Y-92474874D02*
X141222640Y-87525126D01*
D11*
%TO.C,C21*%
X160512164Y-95670000D02*
X160727836Y-95670000D01*
X160512164Y-96390000D02*
X160727836Y-96390000D01*
D10*
%TO.C,J1*%
X141100000Y-80000000D02*
X141100000Y-84000000D01*
X141900000Y-80000000D02*
X141100000Y-80000000D01*
X141900000Y-84000000D02*
X141100000Y-84000000D01*
X153900000Y-80000000D02*
X153100000Y-80000000D01*
X153900000Y-80000000D02*
X153900000Y-84000000D01*
X153900000Y-84000000D02*
X153100000Y-84000000D01*
D11*
%TO.C,C27*%
X153960000Y-90432164D02*
X153960000Y-90647836D01*
X154680000Y-90432164D02*
X154680000Y-90647836D01*
D13*
%TO.C,G\u002A\u002A\u002A*%
G36*
X142619776Y-91920189D02*
G01*
X142619776Y-92040200D01*
X142499764Y-92040200D01*
X142379752Y-92040200D01*
X142379752Y-91920189D01*
X142379752Y-91800177D01*
X142499764Y-91800177D01*
X142619776Y-91800177D01*
X142619776Y-91920189D01*
G37*
G36*
X143579870Y-91440141D02*
G01*
X143579870Y-91560153D01*
X143459859Y-91560153D01*
X143339847Y-91560153D01*
X143339847Y-91440141D01*
X143339847Y-91320130D01*
X143459859Y-91320130D01*
X143579870Y-91320130D01*
X143579870Y-91440141D01*
G37*
G36*
X145980107Y-87119716D02*
G01*
X145980107Y-87239728D01*
X145740083Y-87239728D01*
X145500059Y-87239728D01*
X145500059Y-87119716D01*
X145500059Y-86999704D01*
X145740083Y-86999704D01*
X145980107Y-86999704D01*
X145980107Y-87119716D01*
G37*
G36*
X146460154Y-90480047D02*
G01*
X146460154Y-90600059D01*
X146340142Y-90600059D01*
X146220130Y-90600059D01*
X146220130Y-90480047D01*
X146220130Y-90360035D01*
X146340142Y-90360035D01*
X146460154Y-90360035D01*
X146460154Y-90480047D01*
G37*
G36*
X147900296Y-89039905D02*
G01*
X147900296Y-89159917D01*
X147420248Y-89159917D01*
X146940201Y-89159917D01*
X146940201Y-89039905D01*
X146940201Y-88919893D01*
X147420248Y-88919893D01*
X147900296Y-88919893D01*
X147900296Y-89039905D01*
G37*
G36*
X142743679Y-87480340D02*
G01*
X143066890Y-87481002D01*
X143077539Y-87488502D01*
X143080545Y-87490864D01*
X143088219Y-87498718D01*
X143094006Y-87507022D01*
X143099823Y-87518042D01*
X143099809Y-87837055D01*
X143099802Y-87868646D01*
X143099758Y-87919494D01*
X143099676Y-87965422D01*
X143099556Y-88006478D01*
X143099396Y-88042714D01*
X143099197Y-88074179D01*
X143098958Y-88100924D01*
X143098678Y-88122999D01*
X143098357Y-88140455D01*
X143097996Y-88153341D01*
X143097592Y-88161708D01*
X143097147Y-88165606D01*
X143096830Y-88166644D01*
X143092032Y-88175834D01*
X143084422Y-88184995D01*
X143075507Y-88192569D01*
X143066791Y-88197000D01*
X143066408Y-88197076D01*
X143061659Y-88197416D01*
X143052154Y-88197738D01*
X143038091Y-88198040D01*
X143019671Y-88198320D01*
X142997094Y-88198577D01*
X142970559Y-88198809D01*
X142940268Y-88199015D01*
X142906419Y-88199194D01*
X142869212Y-88199343D01*
X142828848Y-88199461D01*
X142785527Y-88199546D01*
X142739448Y-88199597D01*
X142420327Y-88199822D01*
X142407001Y-88192861D01*
X142398552Y-88187758D01*
X142392214Y-88181549D01*
X142386714Y-88172573D01*
X142379752Y-88159247D01*
X142379752Y-87839787D01*
X142379752Y-87520327D01*
X142386714Y-87507001D01*
X142391900Y-87498437D01*
X142398097Y-87492160D01*
X142407072Y-87486676D01*
X142420468Y-87479678D01*
X142743679Y-87480340D01*
G37*
G36*
X147064104Y-87480340D02*
G01*
X147387316Y-87481002D01*
X147397965Y-87488502D01*
X147400970Y-87490864D01*
X147408644Y-87498718D01*
X147414431Y-87507022D01*
X147420248Y-87518042D01*
X147420234Y-87837055D01*
X147420227Y-87868646D01*
X147420183Y-87919494D01*
X147420102Y-87965422D01*
X147419981Y-88006478D01*
X147419821Y-88042714D01*
X147419622Y-88074179D01*
X147419383Y-88100924D01*
X147419103Y-88122999D01*
X147418783Y-88140455D01*
X147418421Y-88153341D01*
X147418017Y-88161708D01*
X147417572Y-88165606D01*
X147417255Y-88166644D01*
X147412457Y-88175834D01*
X147404848Y-88184995D01*
X147395932Y-88192569D01*
X147387217Y-88197000D01*
X147386833Y-88197076D01*
X147382085Y-88197416D01*
X147372579Y-88197738D01*
X147358516Y-88198040D01*
X147340096Y-88198320D01*
X147317519Y-88198577D01*
X147290985Y-88198809D01*
X147260693Y-88199015D01*
X147226844Y-88199194D01*
X147189637Y-88199343D01*
X147149274Y-88199461D01*
X147105952Y-88199546D01*
X147059873Y-88199597D01*
X146740753Y-88199822D01*
X146727427Y-88192861D01*
X146718977Y-88187758D01*
X146712639Y-88181549D01*
X146707139Y-88172573D01*
X146700178Y-88159247D01*
X146700178Y-87839787D01*
X146700178Y-87520327D01*
X146707139Y-87507001D01*
X146712325Y-87498437D01*
X146718522Y-87492160D01*
X146727497Y-87486676D01*
X146740893Y-87479678D01*
X147064104Y-87480340D01*
G37*
G36*
X147064104Y-91800765D02*
G01*
X147387316Y-91801427D01*
X147397965Y-91808928D01*
X147400970Y-91811289D01*
X147408644Y-91819143D01*
X147414431Y-91827448D01*
X147420248Y-91838467D01*
X147420234Y-92157480D01*
X147420227Y-92189071D01*
X147420183Y-92239920D01*
X147420102Y-92285847D01*
X147419981Y-92326903D01*
X147419821Y-92363139D01*
X147419622Y-92394604D01*
X147419383Y-92421349D01*
X147419103Y-92443425D01*
X147418783Y-92460880D01*
X147418421Y-92473767D01*
X147418017Y-92482134D01*
X147417572Y-92486032D01*
X147417255Y-92487069D01*
X147412457Y-92496259D01*
X147404848Y-92505420D01*
X147395932Y-92512995D01*
X147387217Y-92517425D01*
X147386833Y-92517502D01*
X147382085Y-92517842D01*
X147372579Y-92518163D01*
X147358516Y-92518465D01*
X147340096Y-92518745D01*
X147317519Y-92519002D01*
X147290985Y-92519234D01*
X147260693Y-92519441D01*
X147226844Y-92519619D01*
X147189637Y-92519768D01*
X147149274Y-92519886D01*
X147105952Y-92519971D01*
X147059873Y-92520022D01*
X146740753Y-92520248D01*
X146727427Y-92513286D01*
X146718977Y-92508183D01*
X146712639Y-92501974D01*
X146707139Y-92492999D01*
X146700178Y-92479673D01*
X146700178Y-92160212D01*
X146700178Y-91840752D01*
X146707139Y-91827426D01*
X146712325Y-91818863D01*
X146718522Y-91812585D01*
X146727497Y-91807102D01*
X146740893Y-91800103D01*
X147064104Y-91800765D01*
G37*
G36*
X143579283Y-87863078D02*
G01*
X143579338Y-87945478D01*
X143579376Y-88022957D01*
X143579396Y-88095576D01*
X143579399Y-88163393D01*
X143579385Y-88226471D01*
X143579353Y-88284867D01*
X143579303Y-88338642D01*
X143579235Y-88387856D01*
X143579148Y-88432568D01*
X143579044Y-88472840D01*
X143578921Y-88508730D01*
X143578779Y-88540298D01*
X143578619Y-88567604D01*
X143578439Y-88590709D01*
X143578241Y-88609671D01*
X143578023Y-88624552D01*
X143577786Y-88635410D01*
X143577530Y-88642306D01*
X143577254Y-88645299D01*
X143577015Y-88646121D01*
X143572304Y-88655507D01*
X143564709Y-88664831D01*
X143555723Y-88672534D01*
X143546839Y-88677055D01*
X143543883Y-88677271D01*
X143535971Y-88677488D01*
X143523231Y-88677693D01*
X143505754Y-88677884D01*
X143483628Y-88678062D01*
X143456943Y-88678226D01*
X143425789Y-88678377D01*
X143390254Y-88678513D01*
X143350429Y-88678635D01*
X143306403Y-88678743D01*
X143258264Y-88678836D01*
X143206103Y-88678914D01*
X143150009Y-88678978D01*
X143090071Y-88679025D01*
X143026379Y-88679058D01*
X142959022Y-88679074D01*
X142888089Y-88679075D01*
X142813670Y-88679059D01*
X142735855Y-88679027D01*
X141933093Y-88678620D01*
X141922958Y-88671912D01*
X141920594Y-88670212D01*
X141912881Y-88663155D01*
X141906889Y-88655661D01*
X141900955Y-88646116D01*
X141900955Y-88055501D01*
X142139704Y-88055501D01*
X142139708Y-88102615D01*
X142139727Y-88145624D01*
X142139765Y-88184715D01*
X142139828Y-88220079D01*
X142139920Y-88251903D01*
X142140048Y-88280377D01*
X142140215Y-88305689D01*
X142140428Y-88328028D01*
X142140691Y-88347583D01*
X142141010Y-88364543D01*
X142141388Y-88379096D01*
X142141833Y-88391432D01*
X142142349Y-88401739D01*
X142142940Y-88410206D01*
X142143613Y-88417021D01*
X142144371Y-88422375D01*
X142145222Y-88426455D01*
X142146168Y-88429450D01*
X142147216Y-88431549D01*
X142148371Y-88432941D01*
X142149638Y-88433814D01*
X142151022Y-88434359D01*
X142152528Y-88434762D01*
X142154161Y-88435214D01*
X142155926Y-88435903D01*
X142156531Y-88436144D01*
X142158162Y-88436562D01*
X142160624Y-88436948D01*
X142164109Y-88437302D01*
X142168805Y-88437627D01*
X142174901Y-88437923D01*
X142182588Y-88438191D01*
X142192055Y-88438434D01*
X142203491Y-88438651D01*
X142217086Y-88438845D01*
X142233029Y-88439017D01*
X142251509Y-88439167D01*
X142272716Y-88439298D01*
X142296840Y-88439410D01*
X142324070Y-88439505D01*
X142354595Y-88439584D01*
X142388605Y-88439648D01*
X142426290Y-88439699D01*
X142467838Y-88439737D01*
X142513439Y-88439764D01*
X142563283Y-88439782D01*
X142617559Y-88439791D01*
X142676457Y-88439793D01*
X142740166Y-88439789D01*
X142774594Y-88439787D01*
X142836039Y-88439787D01*
X142892773Y-88439788D01*
X142944986Y-88439787D01*
X142992868Y-88439778D01*
X143036608Y-88439756D01*
X143076396Y-88439718D01*
X143112421Y-88439657D01*
X143144873Y-88439570D01*
X143173941Y-88439452D01*
X143199816Y-88439298D01*
X143222687Y-88439103D01*
X143242743Y-88438863D01*
X143260175Y-88438573D01*
X143275171Y-88438228D01*
X143287922Y-88437823D01*
X143298616Y-88437354D01*
X143307444Y-88436817D01*
X143314595Y-88436206D01*
X143320259Y-88435516D01*
X143324626Y-88434744D01*
X143327884Y-88433884D01*
X143330225Y-88432931D01*
X143331836Y-88431882D01*
X143332909Y-88430730D01*
X143333632Y-88429472D01*
X143334195Y-88428103D01*
X143334788Y-88426618D01*
X143335600Y-88425012D01*
X143335837Y-88424558D01*
X143336287Y-88423309D01*
X143336701Y-88421450D01*
X143337082Y-88418790D01*
X143337432Y-88415137D01*
X143337751Y-88410302D01*
X143338040Y-88404092D01*
X143338302Y-88396318D01*
X143338538Y-88386788D01*
X143338748Y-88375311D01*
X143338935Y-88361697D01*
X143339100Y-88345755D01*
X143339243Y-88327294D01*
X143339368Y-88306123D01*
X143339474Y-88282050D01*
X143339563Y-88254886D01*
X143339638Y-88224440D01*
X143339698Y-88190520D01*
X143339746Y-88152935D01*
X143339782Y-88111495D01*
X143339809Y-88066009D01*
X143339828Y-88016286D01*
X143339839Y-87962136D01*
X143339845Y-87903366D01*
X143339847Y-87839787D01*
X143339847Y-87835551D01*
X143339845Y-87772184D01*
X143339837Y-87713617D01*
X143339824Y-87659657D01*
X143339803Y-87610117D01*
X143339774Y-87564805D01*
X143339734Y-87523532D01*
X143339682Y-87486108D01*
X143339618Y-87452344D01*
X143339539Y-87422048D01*
X143339445Y-87395033D01*
X143339334Y-87371106D01*
X143339205Y-87350080D01*
X143339057Y-87331763D01*
X143338888Y-87315967D01*
X143338696Y-87302500D01*
X143338481Y-87291174D01*
X143338241Y-87281798D01*
X143337976Y-87274183D01*
X143337682Y-87268138D01*
X143337360Y-87263474D01*
X143337008Y-87260001D01*
X143336624Y-87257529D01*
X143336208Y-87255869D01*
X143335758Y-87254829D01*
X143331222Y-87249130D01*
X143324746Y-87243817D01*
X143324694Y-87243787D01*
X143323620Y-87243339D01*
X143321913Y-87242925D01*
X143319382Y-87242543D01*
X143315839Y-87242193D01*
X143311092Y-87241873D01*
X143304952Y-87241581D01*
X143297229Y-87241317D01*
X143287734Y-87241079D01*
X143276276Y-87240866D01*
X143262666Y-87240676D01*
X143246713Y-87240508D01*
X143228228Y-87240361D01*
X143207021Y-87240233D01*
X143182903Y-87240123D01*
X143155682Y-87240030D01*
X143125170Y-87239952D01*
X143091176Y-87239889D01*
X143053511Y-87239838D01*
X143011984Y-87239799D01*
X142966407Y-87239770D01*
X142916588Y-87239750D01*
X142862339Y-87239737D01*
X142803469Y-87239730D01*
X142739788Y-87239728D01*
X142704384Y-87239728D01*
X142643471Y-87239732D01*
X142587263Y-87239741D01*
X142535569Y-87239756D01*
X142488198Y-87239778D01*
X142444959Y-87239810D01*
X142405662Y-87239852D01*
X142370114Y-87239907D01*
X142338126Y-87239974D01*
X142309506Y-87240056D01*
X142284063Y-87240154D01*
X142261607Y-87240270D01*
X142241945Y-87240404D01*
X142224888Y-87240559D01*
X142210245Y-87240735D01*
X142197824Y-87240934D01*
X142187434Y-87241158D01*
X142178885Y-87241408D01*
X142171985Y-87241684D01*
X142166544Y-87241990D01*
X142162370Y-87242325D01*
X142159273Y-87242692D01*
X142157061Y-87243091D01*
X142155544Y-87243524D01*
X142154531Y-87243994D01*
X142153668Y-87244462D01*
X142152118Y-87245142D01*
X142150687Y-87245703D01*
X142149369Y-87246336D01*
X142148161Y-87247229D01*
X142147058Y-87248572D01*
X142146054Y-87250555D01*
X142145146Y-87253367D01*
X142144328Y-87257199D01*
X142143597Y-87262238D01*
X142142946Y-87268677D01*
X142142371Y-87276702D01*
X142141869Y-87286506D01*
X142141433Y-87298276D01*
X142141059Y-87312202D01*
X142140743Y-87328475D01*
X142140480Y-87347284D01*
X142140265Y-87368818D01*
X142140094Y-87393266D01*
X142139961Y-87420820D01*
X142139862Y-87451667D01*
X142139792Y-87485998D01*
X142139747Y-87524003D01*
X142139722Y-87565870D01*
X142139712Y-87611790D01*
X142139712Y-87661952D01*
X142139718Y-87716546D01*
X142139725Y-87775761D01*
X142139729Y-87839787D01*
X142139726Y-87887635D01*
X142139718Y-87948199D01*
X142139709Y-88004092D01*
X142139704Y-88055501D01*
X141900955Y-88055501D01*
X141900955Y-87839787D01*
X141900955Y-87033458D01*
X141906889Y-87023913D01*
X141908434Y-87021661D01*
X141915265Y-87014008D01*
X141922958Y-87007662D01*
X141933093Y-87000954D01*
X142739605Y-87000954D01*
X143546117Y-87000954D01*
X143555661Y-87006888D01*
X143557914Y-87008433D01*
X143565567Y-87015264D01*
X143571913Y-87022957D01*
X143578620Y-87033092D01*
X143579261Y-87834280D01*
X143579262Y-87835551D01*
X143579283Y-87863078D01*
G37*
G36*
X147899708Y-87863078D02*
G01*
X147899763Y-87945478D01*
X147899801Y-88022957D01*
X147899822Y-88095576D01*
X147899825Y-88163393D01*
X147899810Y-88226471D01*
X147899778Y-88284867D01*
X147899728Y-88338642D01*
X147899660Y-88387856D01*
X147899574Y-88432568D01*
X147899469Y-88472840D01*
X147899346Y-88508730D01*
X147899204Y-88540298D01*
X147899044Y-88567604D01*
X147898865Y-88590709D01*
X147898666Y-88609671D01*
X147898448Y-88624552D01*
X147898211Y-88635410D01*
X147897955Y-88642306D01*
X147897679Y-88645299D01*
X147897440Y-88646121D01*
X147892729Y-88655507D01*
X147885134Y-88664831D01*
X147876148Y-88672534D01*
X147867264Y-88677055D01*
X147864308Y-88677271D01*
X147856396Y-88677488D01*
X147843656Y-88677693D01*
X147826179Y-88677884D01*
X147804053Y-88678062D01*
X147777368Y-88678226D01*
X147746214Y-88678377D01*
X147710680Y-88678513D01*
X147670854Y-88678635D01*
X147626828Y-88678743D01*
X147578690Y-88678836D01*
X147526529Y-88678914D01*
X147470434Y-88678978D01*
X147410497Y-88679025D01*
X147346804Y-88679058D01*
X147279447Y-88679074D01*
X147208514Y-88679075D01*
X147134096Y-88679059D01*
X147056280Y-88679027D01*
X146253518Y-88678620D01*
X146243383Y-88671912D01*
X146241019Y-88670212D01*
X146233306Y-88663155D01*
X146227314Y-88655661D01*
X146221380Y-88646116D01*
X146221380Y-88055501D01*
X146460129Y-88055501D01*
X146460133Y-88102615D01*
X146460152Y-88145624D01*
X146460190Y-88184715D01*
X146460253Y-88220079D01*
X146460346Y-88251903D01*
X146460473Y-88280377D01*
X146460641Y-88305689D01*
X146460853Y-88328028D01*
X146461116Y-88347583D01*
X146461435Y-88364543D01*
X146461814Y-88379096D01*
X146462258Y-88391432D01*
X146462774Y-88401739D01*
X146463365Y-88410206D01*
X146464038Y-88417021D01*
X146464797Y-88422375D01*
X146465647Y-88426455D01*
X146466593Y-88429450D01*
X146467641Y-88431549D01*
X146468796Y-88432941D01*
X146470063Y-88433814D01*
X146471447Y-88434359D01*
X146472953Y-88434762D01*
X146474586Y-88435214D01*
X146476352Y-88435903D01*
X146476957Y-88436144D01*
X146478587Y-88436562D01*
X146481049Y-88436948D01*
X146484534Y-88437302D01*
X146489230Y-88437627D01*
X146495327Y-88437923D01*
X146503014Y-88438191D01*
X146512480Y-88438434D01*
X146523916Y-88438651D01*
X146537511Y-88438845D01*
X146553454Y-88439017D01*
X146571934Y-88439167D01*
X146593142Y-88439298D01*
X146617265Y-88439410D01*
X146644495Y-88439505D01*
X146675020Y-88439584D01*
X146709030Y-88439648D01*
X146746715Y-88439699D01*
X146788263Y-88439737D01*
X146833864Y-88439764D01*
X146883708Y-88439782D01*
X146937984Y-88439791D01*
X146996882Y-88439793D01*
X147060591Y-88439789D01*
X147095019Y-88439787D01*
X147156464Y-88439787D01*
X147213198Y-88439788D01*
X147265412Y-88439787D01*
X147313293Y-88439778D01*
X147357033Y-88439756D01*
X147396821Y-88439718D01*
X147432846Y-88439657D01*
X147465298Y-88439570D01*
X147494367Y-88439452D01*
X147520242Y-88439298D01*
X147543112Y-88439103D01*
X147563169Y-88438863D01*
X147580600Y-88438573D01*
X147595596Y-88438228D01*
X147608347Y-88437823D01*
X147619041Y-88437354D01*
X147627869Y-88436817D01*
X147635021Y-88436206D01*
X147640685Y-88435516D01*
X147645051Y-88434744D01*
X147648310Y-88433884D01*
X147650650Y-88432931D01*
X147652261Y-88431882D01*
X147653334Y-88430730D01*
X147654057Y-88429472D01*
X147654620Y-88428103D01*
X147655213Y-88426618D01*
X147656025Y-88425012D01*
X147656263Y-88424558D01*
X147656712Y-88423309D01*
X147657126Y-88421450D01*
X147657508Y-88418790D01*
X147657857Y-88415137D01*
X147658176Y-88410302D01*
X147658466Y-88404092D01*
X147658727Y-88396318D01*
X147658963Y-88386788D01*
X147659173Y-88375311D01*
X147659360Y-88361697D01*
X147659525Y-88345755D01*
X147659669Y-88327294D01*
X147659793Y-88306123D01*
X147659899Y-88282050D01*
X147659989Y-88254886D01*
X147660063Y-88224440D01*
X147660123Y-88190520D01*
X147660171Y-88152935D01*
X147660208Y-88111495D01*
X147660235Y-88066009D01*
X147660253Y-88016286D01*
X147660265Y-87962136D01*
X147660270Y-87903366D01*
X147660272Y-87839787D01*
X147660272Y-87835551D01*
X147660270Y-87772184D01*
X147660263Y-87713617D01*
X147660249Y-87659657D01*
X147660228Y-87610117D01*
X147660199Y-87564805D01*
X147660159Y-87523532D01*
X147660107Y-87486108D01*
X147660043Y-87452344D01*
X147659965Y-87422048D01*
X147659870Y-87395033D01*
X147659760Y-87371106D01*
X147659631Y-87350080D01*
X147659482Y-87331763D01*
X147659313Y-87315967D01*
X147659121Y-87302500D01*
X147658906Y-87291174D01*
X147658667Y-87281798D01*
X147658401Y-87274183D01*
X147658108Y-87268138D01*
X147657785Y-87263474D01*
X147657433Y-87260001D01*
X147657050Y-87257529D01*
X147656633Y-87255869D01*
X147656183Y-87254829D01*
X147651647Y-87249130D01*
X147645171Y-87243817D01*
X147645119Y-87243787D01*
X147644045Y-87243339D01*
X147642338Y-87242925D01*
X147639808Y-87242543D01*
X147636264Y-87242193D01*
X147631517Y-87241873D01*
X147625377Y-87241581D01*
X147617655Y-87241317D01*
X147608159Y-87241079D01*
X147596701Y-87240866D01*
X147583091Y-87240676D01*
X147567138Y-87240508D01*
X147548654Y-87240361D01*
X147527447Y-87240233D01*
X147503328Y-87240123D01*
X147476107Y-87240030D01*
X147445595Y-87239952D01*
X147411601Y-87239889D01*
X147373936Y-87239838D01*
X147332410Y-87239799D01*
X147286832Y-87239770D01*
X147237014Y-87239750D01*
X147182764Y-87239737D01*
X147123894Y-87239730D01*
X147060213Y-87239728D01*
X147024809Y-87239728D01*
X146963896Y-87239732D01*
X146907688Y-87239741D01*
X146855994Y-87239756D01*
X146808623Y-87239778D01*
X146765385Y-87239810D01*
X146726087Y-87239852D01*
X146690540Y-87239907D01*
X146658551Y-87239974D01*
X146629931Y-87240056D01*
X146604488Y-87240154D01*
X146582032Y-87240270D01*
X146562371Y-87240404D01*
X146545314Y-87240559D01*
X146530670Y-87240735D01*
X146518249Y-87240934D01*
X146507859Y-87241158D01*
X146499310Y-87241408D01*
X146492410Y-87241684D01*
X146486969Y-87241990D01*
X146482795Y-87242325D01*
X146479698Y-87242692D01*
X146477487Y-87243091D01*
X146475970Y-87243524D01*
X146474957Y-87243994D01*
X146474094Y-87244462D01*
X146472543Y-87245142D01*
X146471112Y-87245703D01*
X146469795Y-87246336D01*
X146468586Y-87247229D01*
X146467483Y-87248572D01*
X146466480Y-87250555D01*
X146465571Y-87253367D01*
X146464754Y-87257199D01*
X146464022Y-87262238D01*
X146463371Y-87268677D01*
X146462797Y-87276702D01*
X146462294Y-87286506D01*
X146461858Y-87298276D01*
X146461485Y-87312202D01*
X146461169Y-87328475D01*
X146460905Y-87347284D01*
X146460690Y-87368818D01*
X146460519Y-87393266D01*
X146460386Y-87420820D01*
X146460287Y-87451667D01*
X146460217Y-87485998D01*
X146460172Y-87524003D01*
X146460147Y-87565870D01*
X146460137Y-87611790D01*
X146460137Y-87661952D01*
X146460143Y-87716546D01*
X146460151Y-87775761D01*
X146460154Y-87839787D01*
X146460152Y-87887635D01*
X146460143Y-87948199D01*
X146460134Y-88004092D01*
X146460129Y-88055501D01*
X146221380Y-88055501D01*
X146221380Y-87839787D01*
X146221380Y-87033458D01*
X146227314Y-87023913D01*
X146228860Y-87021661D01*
X146235690Y-87014008D01*
X146243383Y-87007662D01*
X146253518Y-87000954D01*
X147060030Y-87000954D01*
X147866542Y-87000954D01*
X147876087Y-87006888D01*
X147878339Y-87008433D01*
X147885992Y-87015264D01*
X147892338Y-87022957D01*
X147899046Y-87033092D01*
X147899686Y-87834280D01*
X147899687Y-87835551D01*
X147899708Y-87863078D01*
G37*
G36*
X147899708Y-92183503D02*
G01*
X147899763Y-92265903D01*
X147899801Y-92343382D01*
X147899822Y-92416001D01*
X147899825Y-92483819D01*
X147899810Y-92546896D01*
X147899778Y-92605292D01*
X147899728Y-92659067D01*
X147899660Y-92708281D01*
X147899574Y-92752994D01*
X147899469Y-92793265D01*
X147899346Y-92829155D01*
X147899204Y-92860723D01*
X147899044Y-92888029D01*
X147898865Y-92911134D01*
X147898666Y-92930096D01*
X147898448Y-92944977D01*
X147898211Y-92955835D01*
X147897955Y-92962731D01*
X147897679Y-92965724D01*
X147897440Y-92966546D01*
X147892729Y-92975933D01*
X147885134Y-92985257D01*
X147876148Y-92992959D01*
X147867264Y-92997481D01*
X147864308Y-92997696D01*
X147856396Y-92997913D01*
X147843656Y-92998118D01*
X147826179Y-92998309D01*
X147804053Y-92998487D01*
X147777368Y-92998651D01*
X147746214Y-92998802D01*
X147710680Y-92998938D01*
X147670854Y-92999061D01*
X147626828Y-92999168D01*
X147578690Y-92999261D01*
X147526529Y-92999340D01*
X147470434Y-92999403D01*
X147410497Y-92999451D01*
X147346804Y-92999483D01*
X147279447Y-92999499D01*
X147208514Y-92999500D01*
X147134096Y-92999484D01*
X147056280Y-92999452D01*
X146253518Y-92999045D01*
X146243383Y-92992337D01*
X146241019Y-92990637D01*
X146233306Y-92983580D01*
X146227314Y-92976086D01*
X146221380Y-92966542D01*
X146221380Y-92375926D01*
X146460129Y-92375926D01*
X146460133Y-92423040D01*
X146460152Y-92466049D01*
X146460190Y-92505141D01*
X146460253Y-92540504D01*
X146460346Y-92572328D01*
X146460473Y-92600802D01*
X146460641Y-92626114D01*
X146460853Y-92648453D01*
X146461116Y-92668008D01*
X146461435Y-92684968D01*
X146461814Y-92699521D01*
X146462258Y-92711857D01*
X146462774Y-92722164D01*
X146463365Y-92730631D01*
X146464038Y-92737447D01*
X146464797Y-92742800D01*
X146465647Y-92746880D01*
X146466593Y-92749875D01*
X146467641Y-92751974D01*
X146468796Y-92753366D01*
X146470063Y-92754240D01*
X146471447Y-92754784D01*
X146472953Y-92755187D01*
X146474586Y-92755639D01*
X146476352Y-92756328D01*
X146476957Y-92756569D01*
X146478587Y-92756987D01*
X146481049Y-92757373D01*
X146484534Y-92757727D01*
X146489230Y-92758052D01*
X146495327Y-92758348D01*
X146503014Y-92758616D01*
X146512480Y-92758859D01*
X146523916Y-92759076D01*
X146537511Y-92759270D01*
X146553454Y-92759442D01*
X146571934Y-92759592D01*
X146593142Y-92759723D01*
X146617265Y-92759835D01*
X146644495Y-92759930D01*
X146675020Y-92760009D01*
X146709030Y-92760073D01*
X146746715Y-92760124D01*
X146788263Y-92760162D01*
X146833864Y-92760190D01*
X146883708Y-92760207D01*
X146937984Y-92760216D01*
X146996882Y-92760218D01*
X147060591Y-92760214D01*
X147095019Y-92760212D01*
X147156464Y-92760212D01*
X147213198Y-92760214D01*
X147265412Y-92760212D01*
X147313293Y-92760203D01*
X147357033Y-92760181D01*
X147396821Y-92760143D01*
X147432846Y-92760082D01*
X147465298Y-92759995D01*
X147494367Y-92759877D01*
X147520242Y-92759723D01*
X147543112Y-92759528D01*
X147563169Y-92759288D01*
X147580600Y-92758998D01*
X147595596Y-92758653D01*
X147608347Y-92758248D01*
X147619041Y-92757780D01*
X147627869Y-92757242D01*
X147635021Y-92756631D01*
X147640685Y-92755942D01*
X147645051Y-92755169D01*
X147648310Y-92754309D01*
X147650650Y-92753357D01*
X147652261Y-92752307D01*
X147653334Y-92751156D01*
X147654057Y-92749898D01*
X147654620Y-92748528D01*
X147655213Y-92747043D01*
X147656025Y-92745437D01*
X147656263Y-92744983D01*
X147656712Y-92743734D01*
X147657126Y-92741875D01*
X147657508Y-92739215D01*
X147657857Y-92735562D01*
X147658176Y-92730727D01*
X147658466Y-92724517D01*
X147658727Y-92716743D01*
X147658963Y-92707213D01*
X147659173Y-92695737D01*
X147659360Y-92682123D01*
X147659525Y-92666180D01*
X147659669Y-92647719D01*
X147659793Y-92626548D01*
X147659899Y-92602476D01*
X147659989Y-92575312D01*
X147660063Y-92544865D01*
X147660123Y-92510945D01*
X147660171Y-92473360D01*
X147660208Y-92431921D01*
X147660235Y-92386435D01*
X147660253Y-92336712D01*
X147660265Y-92282561D01*
X147660270Y-92223791D01*
X147660272Y-92160212D01*
X147660272Y-92155976D01*
X147660270Y-92092610D01*
X147660263Y-92034042D01*
X147660249Y-91980082D01*
X147660228Y-91930542D01*
X147660199Y-91885230D01*
X147660159Y-91843957D01*
X147660107Y-91806533D01*
X147660043Y-91772769D01*
X147659965Y-91742474D01*
X147659870Y-91715458D01*
X147659760Y-91691532D01*
X147659631Y-91670505D01*
X147659482Y-91652189D01*
X147659313Y-91636392D01*
X147659121Y-91622926D01*
X147658906Y-91611599D01*
X147658667Y-91602224D01*
X147658401Y-91594608D01*
X147658108Y-91588564D01*
X147657785Y-91583900D01*
X147657433Y-91580427D01*
X147657050Y-91577955D01*
X147656633Y-91576294D01*
X147656183Y-91575254D01*
X147651647Y-91569555D01*
X147645171Y-91564242D01*
X147645119Y-91564212D01*
X147644045Y-91563764D01*
X147642338Y-91563350D01*
X147639808Y-91562968D01*
X147636264Y-91562618D01*
X147631517Y-91562298D01*
X147625377Y-91562006D01*
X147617655Y-91561742D01*
X147608159Y-91561504D01*
X147596701Y-91561291D01*
X147583091Y-91561101D01*
X147567138Y-91560933D01*
X147548654Y-91560786D01*
X147527447Y-91560658D01*
X147503328Y-91560548D01*
X147476107Y-91560455D01*
X147445595Y-91560378D01*
X147411601Y-91560314D01*
X147373936Y-91560264D01*
X147332410Y-91560224D01*
X147286832Y-91560195D01*
X147237014Y-91560175D01*
X147182764Y-91560162D01*
X147123894Y-91560155D01*
X147060213Y-91560153D01*
X147024809Y-91560154D01*
X146963896Y-91560157D01*
X146907688Y-91560166D01*
X146855994Y-91560181D01*
X146808623Y-91560204D01*
X146765385Y-91560235D01*
X146726087Y-91560278D01*
X146690540Y-91560332D01*
X146658551Y-91560399D01*
X146629931Y-91560481D01*
X146604488Y-91560579D01*
X146582032Y-91560695D01*
X146562371Y-91560829D01*
X146545314Y-91560984D01*
X146530670Y-91561160D01*
X146518249Y-91561360D01*
X146507859Y-91561583D01*
X146499310Y-91561833D01*
X146492410Y-91562110D01*
X146486969Y-91562415D01*
X146482795Y-91562750D01*
X146479698Y-91563117D01*
X146477487Y-91563516D01*
X146475970Y-91563950D01*
X146474957Y-91564419D01*
X146474094Y-91564887D01*
X146472543Y-91565567D01*
X146471112Y-91566129D01*
X146469795Y-91566761D01*
X146468586Y-91567654D01*
X146467483Y-91568997D01*
X146466480Y-91570980D01*
X146465571Y-91573792D01*
X146464754Y-91577624D01*
X146464022Y-91582664D01*
X146463371Y-91589102D01*
X146462797Y-91597128D01*
X146462294Y-91606931D01*
X146461858Y-91618701D01*
X146461485Y-91632628D01*
X146461169Y-91648900D01*
X146460905Y-91667709D01*
X146460690Y-91689243D01*
X146460519Y-91713692D01*
X146460386Y-91741245D01*
X146460287Y-91772093D01*
X146460217Y-91806424D01*
X146460172Y-91844428D01*
X146460147Y-91886296D01*
X146460137Y-91932216D01*
X146460137Y-91982378D01*
X146460143Y-92036971D01*
X146460151Y-92096186D01*
X146460154Y-92160212D01*
X146460152Y-92208060D01*
X146460143Y-92268625D01*
X146460134Y-92324517D01*
X146460129Y-92375926D01*
X146221380Y-92375926D01*
X146221380Y-92160212D01*
X146221380Y-91353883D01*
X146227314Y-91344339D01*
X146228860Y-91342086D01*
X146235690Y-91334433D01*
X146243383Y-91328087D01*
X146253518Y-91321380D01*
X147060030Y-91321380D01*
X147866542Y-91321380D01*
X147876087Y-91327313D01*
X147878339Y-91328859D01*
X147885992Y-91335689D01*
X147892338Y-91343382D01*
X147899046Y-91353517D01*
X147899686Y-92154705D01*
X147899687Y-92155976D01*
X147899708Y-92183503D01*
G37*
G36*
X147900296Y-89879988D02*
G01*
X147780284Y-89879988D01*
X147660272Y-89879988D01*
X147660272Y-90240023D01*
X147660272Y-90600059D01*
X147540260Y-90600059D01*
X147420248Y-90600059D01*
X147420248Y-90840082D01*
X147420248Y-91080106D01*
X147180225Y-91080106D01*
X146940201Y-91080106D01*
X146940201Y-90960094D01*
X146940201Y-90840082D01*
X146820189Y-90840082D01*
X146700178Y-90840082D01*
X146700178Y-90960094D01*
X146700178Y-91080106D01*
X146460154Y-91080106D01*
X146220130Y-91080106D01*
X146220130Y-90960094D01*
X146220130Y-90840082D01*
X145860095Y-90840082D01*
X145500059Y-90840082D01*
X145500059Y-90720071D01*
X145500059Y-90600059D01*
X145860095Y-90600059D01*
X146220130Y-90600059D01*
X146220130Y-90720071D01*
X146220130Y-90840082D01*
X146460154Y-90840082D01*
X146700178Y-90840082D01*
X146700178Y-90480047D01*
X146700178Y-90120011D01*
X147180225Y-90120011D01*
X147180225Y-90240023D01*
X147180225Y-90360035D01*
X147300237Y-90360035D01*
X147420248Y-90360035D01*
X147420248Y-90240023D01*
X147420248Y-90120011D01*
X147300237Y-90120011D01*
X147180225Y-90120011D01*
X146700178Y-90120011D01*
X146340142Y-90120011D01*
X145980107Y-90120011D01*
X145980107Y-90240023D01*
X145980107Y-90360035D01*
X145740083Y-90360035D01*
X145500059Y-90360035D01*
X145500059Y-90480047D01*
X145500059Y-90600059D01*
X145380048Y-90600059D01*
X145260036Y-90600059D01*
X145260036Y-90480047D01*
X145260036Y-90360035D01*
X145140024Y-90360035D01*
X145020012Y-90360035D01*
X145020012Y-90600059D01*
X145020012Y-90840082D01*
X144900000Y-90840082D01*
X144779989Y-90840082D01*
X144779989Y-90720071D01*
X144779989Y-90600059D01*
X144659977Y-90600059D01*
X144539965Y-90600059D01*
X144539965Y-90720071D01*
X144539965Y-90840082D01*
X144659977Y-90840082D01*
X144779989Y-90840082D01*
X144779989Y-90960094D01*
X144779989Y-91080106D01*
X144900000Y-91080106D01*
X145020012Y-91080106D01*
X145020012Y-90960094D01*
X145020012Y-90840082D01*
X145260036Y-90840082D01*
X145500059Y-90840082D01*
X145500059Y-90960094D01*
X145500059Y-91080106D01*
X145740083Y-91080106D01*
X145980107Y-91080106D01*
X145980107Y-91200118D01*
X145980107Y-91320130D01*
X145740083Y-91320130D01*
X145500059Y-91320130D01*
X145500059Y-91440141D01*
X145500059Y-91560153D01*
X145260036Y-91560153D01*
X145020012Y-91560153D01*
X145020012Y-91680165D01*
X145020012Y-91800177D01*
X145260036Y-91800177D01*
X145500059Y-91800177D01*
X145500059Y-91680165D01*
X145500059Y-91560153D01*
X145620071Y-91560153D01*
X145740083Y-91560153D01*
X145740083Y-91680165D01*
X145740083Y-91800177D01*
X145740083Y-92040200D01*
X145860095Y-92040200D01*
X145980107Y-92040200D01*
X145980107Y-92520248D01*
X145980107Y-93000295D01*
X145860095Y-93000295D01*
X145740083Y-93000295D01*
X145740083Y-92880283D01*
X145740083Y-92760271D01*
X145620071Y-92760271D01*
X145500059Y-92760271D01*
X145500059Y-92640259D01*
X145500059Y-92520248D01*
X145260036Y-92520248D01*
X145020012Y-92520248D01*
X145020012Y-92400236D01*
X145500059Y-92400236D01*
X145500059Y-92520248D01*
X145620071Y-92520248D01*
X145740083Y-92520248D01*
X145740083Y-92400236D01*
X145740083Y-92280224D01*
X145620071Y-92280224D01*
X145500059Y-92280224D01*
X145500059Y-92400236D01*
X145020012Y-92400236D01*
X145020012Y-92280224D01*
X145260036Y-92280224D01*
X145500059Y-92280224D01*
X145500059Y-92160212D01*
X145500059Y-92040200D01*
X145260036Y-92040200D01*
X145020012Y-92040200D01*
X145020012Y-91920189D01*
X145020012Y-91800177D01*
X144900000Y-91800177D01*
X144779989Y-91800177D01*
X144779989Y-91560153D01*
X144779989Y-91320130D01*
X144659977Y-91320130D01*
X144539965Y-91320130D01*
X144539965Y-91440141D01*
X144539965Y-91560153D01*
X144539965Y-91800177D01*
X144419953Y-91800177D01*
X144299941Y-91800177D01*
X144299941Y-92160212D01*
X144299941Y-92280224D01*
X144299941Y-92760271D01*
X144419953Y-92760271D01*
X144539965Y-92760271D01*
X144539965Y-92640259D01*
X144539965Y-92520248D01*
X144659977Y-92520248D01*
X144779989Y-92520248D01*
X144779989Y-92760271D01*
X144779989Y-93000295D01*
X144419953Y-93000295D01*
X144059918Y-93000295D01*
X144059918Y-92640259D01*
X144059918Y-92280224D01*
X143939906Y-92280224D01*
X143819894Y-92280224D01*
X143819894Y-92520248D01*
X143819894Y-92760271D01*
X143699882Y-92760271D01*
X143579870Y-92760271D01*
X143579870Y-92640259D01*
X143579870Y-92520248D01*
X143459859Y-92520248D01*
X143339847Y-92520248D01*
X143339847Y-92280224D01*
X143339847Y-92040200D01*
X143579870Y-92040200D01*
X143579870Y-92160212D01*
X143579870Y-92280224D01*
X143699882Y-92280224D01*
X143819894Y-92280224D01*
X143819894Y-92160212D01*
X143819894Y-92040200D01*
X143699882Y-92040200D01*
X143579870Y-92040200D01*
X143339847Y-92040200D01*
X143219835Y-92040200D01*
X143099823Y-92040200D01*
X143099823Y-92160212D01*
X143099823Y-92280224D01*
X142979811Y-92280224D01*
X142859800Y-92280224D01*
X142859800Y-92400236D01*
X142859800Y-92520248D01*
X142739788Y-92520248D01*
X142619776Y-92520248D01*
X142619776Y-92760271D01*
X142619776Y-93000295D01*
X142259741Y-93000295D01*
X141899705Y-93000295D01*
X141899705Y-92760271D01*
X141899705Y-92520248D01*
X142019717Y-92520248D01*
X142139729Y-92520248D01*
X142139729Y-92400236D01*
X142139729Y-92280224D01*
X142019717Y-92280224D01*
X141899705Y-92280224D01*
X141899705Y-91800177D01*
X142139729Y-91800177D01*
X142139729Y-91920189D01*
X142139729Y-92040200D01*
X142259741Y-92040200D01*
X142379752Y-92040200D01*
X142379752Y-92160212D01*
X142379752Y-92280224D01*
X142619776Y-92280224D01*
X142859800Y-92280224D01*
X142859800Y-91800177D01*
X142859800Y-91320130D01*
X142739788Y-91320130D01*
X142619776Y-91320130D01*
X142619776Y-91440141D01*
X142619776Y-91560153D01*
X142499764Y-91560153D01*
X142379752Y-91560153D01*
X142379752Y-91680165D01*
X142379752Y-91800177D01*
X142259741Y-91800177D01*
X142139729Y-91800177D01*
X141899705Y-91800177D01*
X141899705Y-91320130D01*
X142139729Y-91320130D01*
X142379752Y-91320130D01*
X142379752Y-91200118D01*
X142379752Y-91080106D01*
X142259741Y-91080106D01*
X142139729Y-91080106D01*
X142139729Y-90960094D01*
X142139729Y-90840082D01*
X142019717Y-90840082D01*
X141899705Y-90840082D01*
X141899705Y-90720071D01*
X141899705Y-90600059D01*
X142019717Y-90600059D01*
X142139729Y-90600059D01*
X142139729Y-90480047D01*
X142139729Y-90360035D01*
X142019717Y-90360035D01*
X141899705Y-90360035D01*
X141899705Y-89639964D01*
X142139729Y-89639964D01*
X142139729Y-89759976D01*
X142139729Y-89879988D01*
X142259741Y-89879988D01*
X142379752Y-89879988D01*
X142379752Y-89759976D01*
X142379752Y-89639964D01*
X142259741Y-89639964D01*
X142139729Y-89639964D01*
X141899705Y-89639964D01*
X141899705Y-88919893D01*
X142019717Y-88919893D01*
X142139729Y-88919893D01*
X142139729Y-89159917D01*
X142139729Y-89399941D01*
X142499764Y-89399941D01*
X142859800Y-89399941D01*
X142859800Y-89279929D01*
X142859800Y-89159917D01*
X142619776Y-89159917D01*
X142379752Y-89159917D01*
X142379752Y-89039905D01*
X142379752Y-88919893D01*
X142739788Y-88919893D01*
X143099823Y-88919893D01*
X143099823Y-89039905D01*
X143099823Y-89159917D01*
X143219835Y-89159917D01*
X143339847Y-89159917D01*
X143339847Y-89279929D01*
X143339847Y-89399941D01*
X143099823Y-89399941D01*
X142859800Y-89399941D01*
X142859800Y-89639964D01*
X142859800Y-89759976D01*
X142859800Y-89879988D01*
X142979811Y-89879988D01*
X143099823Y-89879988D01*
X143099823Y-89759976D01*
X143099823Y-89639964D01*
X143459859Y-89639964D01*
X143819894Y-89639964D01*
X143819894Y-89759976D01*
X143819894Y-89879988D01*
X143699882Y-89879988D01*
X143579870Y-89879988D01*
X143579870Y-90000000D01*
X143579870Y-90120011D01*
X143459859Y-90120011D01*
X143339847Y-90120011D01*
X143339847Y-90240023D01*
X143339847Y-90360035D01*
X143339847Y-90600059D01*
X142979811Y-90600059D01*
X142619776Y-90600059D01*
X142619776Y-90240023D01*
X142619776Y-90120011D01*
X142859800Y-90120011D01*
X142859800Y-90240023D01*
X142859800Y-90360035D01*
X142979811Y-90360035D01*
X143099823Y-90360035D01*
X143099823Y-90240023D01*
X143099823Y-90120011D01*
X142979811Y-90120011D01*
X142859800Y-90120011D01*
X142619776Y-90120011D01*
X142619776Y-89879988D01*
X142499764Y-89879988D01*
X142379752Y-89879988D01*
X142379752Y-90480047D01*
X142379752Y-91080106D01*
X142619776Y-91080106D01*
X142859800Y-91080106D01*
X143099823Y-91080106D01*
X143099823Y-91440141D01*
X143099823Y-91800177D01*
X143459859Y-91800177D01*
X143819894Y-91800177D01*
X143819894Y-91560153D01*
X144059918Y-91560153D01*
X144179929Y-91560153D01*
X144299941Y-91560153D01*
X144299941Y-91440141D01*
X144299941Y-91320130D01*
X144179929Y-91320130D01*
X144059918Y-91320130D01*
X144059918Y-91440141D01*
X144059918Y-91560153D01*
X143819894Y-91560153D01*
X143819894Y-91440141D01*
X143819894Y-91200118D01*
X145020012Y-91200118D01*
X145020012Y-91320130D01*
X145140024Y-91320130D01*
X145260036Y-91320130D01*
X145260036Y-91200118D01*
X145260036Y-91080106D01*
X145140024Y-91080106D01*
X145020012Y-91080106D01*
X145020012Y-91200118D01*
X143819894Y-91200118D01*
X143819894Y-91080106D01*
X143459859Y-91080106D01*
X143099823Y-91080106D01*
X142859800Y-91080106D01*
X142859800Y-90960094D01*
X142859800Y-90840082D01*
X143219835Y-90840082D01*
X143579870Y-90840082D01*
X143579870Y-90600059D01*
X143819894Y-90600059D01*
X143819894Y-90720071D01*
X143819894Y-90840082D01*
X143939906Y-90840082D01*
X144059918Y-90840082D01*
X144059918Y-90960094D01*
X144059918Y-91080106D01*
X144179929Y-91080106D01*
X144299941Y-91080106D01*
X144299941Y-90840082D01*
X144299941Y-90600059D01*
X144059918Y-90600059D01*
X143819894Y-90600059D01*
X143579870Y-90600059D01*
X143579870Y-90360035D01*
X143699882Y-90360035D01*
X143819894Y-90360035D01*
X143819894Y-90240023D01*
X143819894Y-90120011D01*
X143939906Y-90120011D01*
X144059918Y-90120011D01*
X144299941Y-90120011D01*
X144299941Y-90240023D01*
X144299941Y-90360035D01*
X144659977Y-90360035D01*
X145020012Y-90360035D01*
X145020012Y-90120011D01*
X145020012Y-89879988D01*
X144900000Y-89879988D01*
X144779989Y-89879988D01*
X144779989Y-90000000D01*
X144779989Y-90120011D01*
X144539965Y-90120011D01*
X144299941Y-90120011D01*
X144059918Y-90120011D01*
X144059918Y-89879988D01*
X144059918Y-89639964D01*
X144179929Y-89639964D01*
X144299941Y-89639964D01*
X144299941Y-89759976D01*
X144299941Y-89879988D01*
X144419953Y-89879988D01*
X144539965Y-89879988D01*
X144539965Y-89759976D01*
X144539965Y-89639964D01*
X144900000Y-89639964D01*
X145260036Y-89639964D01*
X145260036Y-89879988D01*
X145260036Y-90120011D01*
X145380048Y-90120011D01*
X145500059Y-90120011D01*
X145500059Y-90000000D01*
X145500059Y-89879988D01*
X145620071Y-89879988D01*
X145740083Y-89879988D01*
X145740083Y-89639964D01*
X145740083Y-89399941D01*
X145620071Y-89399941D01*
X145500059Y-89399941D01*
X145500059Y-89279929D01*
X145500059Y-89159917D01*
X145620071Y-89159917D01*
X145740083Y-89159917D01*
X145740083Y-89039905D01*
X145740083Y-88919893D01*
X145860095Y-88919893D01*
X145980107Y-88919893D01*
X145980107Y-89039905D01*
X145980107Y-89159917D01*
X146100118Y-89159917D01*
X146220130Y-89159917D01*
X146220130Y-89039905D01*
X146220130Y-88919893D01*
X146340142Y-88919893D01*
X146460154Y-88919893D01*
X146460154Y-89039905D01*
X146460154Y-89159917D01*
X146340142Y-89159917D01*
X146220130Y-89159917D01*
X146220130Y-89279929D01*
X146220130Y-89399941D01*
X146100118Y-89399941D01*
X145980107Y-89399941D01*
X145980107Y-89519952D01*
X145980107Y-89639964D01*
X146100118Y-89639964D01*
X146220130Y-89639964D01*
X146220130Y-89759976D01*
X146220130Y-89879988D01*
X146340142Y-89879988D01*
X146460154Y-89879988D01*
X146460154Y-89759976D01*
X146460154Y-89639964D01*
X146700178Y-89639964D01*
X146940201Y-89639964D01*
X146940201Y-89759976D01*
X146940201Y-89879988D01*
X147060213Y-89879988D01*
X147180225Y-89879988D01*
X147180225Y-89759976D01*
X147180225Y-89639964D01*
X147060213Y-89639964D01*
X146940201Y-89639964D01*
X146940201Y-89519952D01*
X146940201Y-89399941D01*
X147060213Y-89399941D01*
X147180225Y-89399941D01*
X147180225Y-89519952D01*
X147180225Y-89639964D01*
X147300237Y-89639964D01*
X147420248Y-89639964D01*
X147420248Y-89519952D01*
X147420248Y-89399941D01*
X147540260Y-89399941D01*
X147660272Y-89399941D01*
X147660272Y-89519952D01*
X147660272Y-89639964D01*
X147780284Y-89639964D01*
X147900296Y-89639964D01*
X147900296Y-89759976D01*
X147900296Y-89879988D01*
G37*
G36*
X142979811Y-92520248D02*
G01*
X143099823Y-92520248D01*
X143099823Y-92640259D01*
X143099823Y-92760271D01*
X142979811Y-92760271D01*
X142859800Y-92760271D01*
X142859800Y-92640259D01*
X142859800Y-92520248D01*
X142979811Y-92520248D01*
G37*
G36*
X145020012Y-92160212D02*
G01*
X145020012Y-92280224D01*
X144900000Y-92280224D01*
X144779989Y-92280224D01*
X144779989Y-92160212D01*
X144779989Y-92040200D01*
X144900000Y-92040200D01*
X145020012Y-92040200D01*
X145020012Y-92160212D01*
G37*
G36*
X147780284Y-90600059D02*
G01*
X147900296Y-90600059D01*
X147900296Y-90720071D01*
X147900296Y-90840082D01*
X147780284Y-90840082D01*
X147660272Y-90840082D01*
X147660272Y-90720071D01*
X147660272Y-90600059D01*
X147780284Y-90600059D01*
G37*
G36*
X146340142Y-89399941D02*
G01*
X146460154Y-89399941D01*
X146460154Y-89519952D01*
X146460154Y-89639964D01*
X146340142Y-89639964D01*
X146220130Y-89639964D01*
X146220130Y-89519952D01*
X146220130Y-89399941D01*
X146340142Y-89399941D01*
G37*
G36*
X146940201Y-89279929D02*
G01*
X146940201Y-89399941D01*
X146820189Y-89399941D01*
X146700178Y-89399941D01*
X146700178Y-89279929D01*
X146700178Y-89159917D01*
X146820189Y-89159917D01*
X146940201Y-89159917D01*
X146940201Y-89279929D01*
G37*
G36*
X144539965Y-88679870D02*
G01*
X144539965Y-89039905D01*
X144539965Y-89399941D01*
X144059918Y-89399941D01*
X143579870Y-89399941D01*
X143579870Y-89159917D01*
X143579870Y-88919893D01*
X143699882Y-88919893D01*
X143819894Y-88919893D01*
X144059918Y-88919893D01*
X144059918Y-89039905D01*
X144059918Y-89159917D01*
X144179929Y-89159917D01*
X144299941Y-89159917D01*
X144299941Y-89039905D01*
X144299941Y-88919893D01*
X144179929Y-88919893D01*
X144059918Y-88919893D01*
X143819894Y-88919893D01*
X143819894Y-88199822D01*
X143819894Y-87959799D01*
X144059918Y-87959799D01*
X144059918Y-88319834D01*
X144059918Y-88679870D01*
X144179929Y-88679870D01*
X144299941Y-88679870D01*
X144299941Y-88319834D01*
X144299941Y-87959799D01*
X144179929Y-87959799D01*
X144059918Y-87959799D01*
X143819894Y-87959799D01*
X143819894Y-87479752D01*
X143939906Y-87479752D01*
X144059918Y-87479752D01*
X144059918Y-87359740D01*
X144059918Y-87239728D01*
X143939906Y-87239728D01*
X143819894Y-87239728D01*
X143819894Y-87119716D01*
X143819894Y-86999704D01*
X143939906Y-86999704D01*
X144059918Y-86999704D01*
X144059918Y-87119716D01*
X144059918Y-87239728D01*
X144179929Y-87239728D01*
X144299941Y-87239728D01*
X144299941Y-87119716D01*
X144299941Y-86999704D01*
X144419953Y-86999704D01*
X144539965Y-86999704D01*
X144539965Y-87119716D01*
X144539965Y-87239728D01*
X144419953Y-87239728D01*
X144299941Y-87239728D01*
X144299941Y-87599763D01*
X144299941Y-87959799D01*
X144419953Y-87959799D01*
X144539965Y-87959799D01*
X144539965Y-87599763D01*
X144539965Y-87239728D01*
X144659977Y-87239728D01*
X144779989Y-87239728D01*
X144779989Y-87359740D01*
X144779989Y-87479752D01*
X145020012Y-87479752D01*
X145260036Y-87479752D01*
X145260036Y-87599763D01*
X145260036Y-87719775D01*
X145260036Y-87959799D01*
X145380048Y-87959799D01*
X145500059Y-87959799D01*
X145500059Y-87839787D01*
X145500059Y-87719775D01*
X145620071Y-87719775D01*
X145740083Y-87719775D01*
X145740083Y-87599763D01*
X145740083Y-87479752D01*
X145860095Y-87479752D01*
X145980107Y-87479752D01*
X145980107Y-87839787D01*
X145980107Y-88199822D01*
X145860095Y-88199822D01*
X145740083Y-88199822D01*
X145740083Y-88319834D01*
X145740083Y-88439846D01*
X145620071Y-88439846D01*
X145500059Y-88439846D01*
X145500059Y-88319834D01*
X145500059Y-88199822D01*
X145260036Y-88199822D01*
X145020012Y-88199822D01*
X145020012Y-87959799D01*
X145020012Y-87719775D01*
X144900000Y-87719775D01*
X144779989Y-87719775D01*
X144779989Y-87839787D01*
X144779989Y-87959799D01*
X144659977Y-87959799D01*
X144539965Y-87959799D01*
X144539965Y-88319834D01*
X144539965Y-88679870D01*
G37*
G36*
X145020012Y-88439846D02*
G01*
X145020012Y-88679870D01*
X145140024Y-88679870D01*
X145260036Y-88679870D01*
X145260036Y-88559858D01*
X145260036Y-88439846D01*
X145380048Y-88439846D01*
X145500059Y-88439846D01*
X145500059Y-88559858D01*
X145500059Y-88679870D01*
X145620071Y-88679870D01*
X145740083Y-88679870D01*
X145740083Y-88559858D01*
X145740083Y-88439846D01*
X145860095Y-88439846D01*
X145980107Y-88439846D01*
X145980107Y-88559858D01*
X145980107Y-88679870D01*
X145860095Y-88679870D01*
X145740083Y-88679870D01*
X145740083Y-88799882D01*
X145740083Y-88919893D01*
X145620071Y-88919893D01*
X145500059Y-88919893D01*
X145500059Y-88799882D01*
X145500059Y-88679870D01*
X145380048Y-88679870D01*
X145260036Y-88679870D01*
X145260036Y-88799882D01*
X145260036Y-88919893D01*
X145140024Y-88919893D01*
X145020012Y-88919893D01*
X145020012Y-88799882D01*
X145020012Y-88679870D01*
X144900000Y-88679870D01*
X144779989Y-88679870D01*
X144779989Y-88439846D01*
X144779989Y-88199822D01*
X144900000Y-88199822D01*
X145020012Y-88199822D01*
X145020012Y-88439846D01*
G37*
D11*
%TO.C,C20*%
X157522164Y-92720000D02*
X157737836Y-92720000D01*
X157522164Y-93440000D02*
X157737836Y-93440000D01*
%TO.C,C24*%
X158310000Y-85637836D02*
X158310000Y-85422164D01*
X159030000Y-85637836D02*
X159030000Y-85422164D01*
%TO.C,C26*%
X153030000Y-90432164D02*
X153030000Y-90647836D01*
X153750000Y-90432164D02*
X153750000Y-90647836D01*
%TO.C,D4*%
X157002500Y-95520000D02*
X157652500Y-95520000D01*
X157002500Y-98640000D02*
X157652500Y-98640000D01*
X158302500Y-95520000D02*
X157652500Y-95520000D01*
X158302500Y-98640000D02*
X157652500Y-98640000D01*
X156730000Y-98920000D02*
X156250000Y-98920000D01*
X156490000Y-98590000D01*
X156730000Y-98920000D01*
G36*
X156730000Y-98920000D02*
G01*
X156250000Y-98920000D01*
X156490000Y-98590000D01*
X156730000Y-98920000D01*
G37*
%TD*%
%LPC*%
D14*
%TO.C,H1*%
X132500000Y-80500000D03*
%TD*%
%TO.C,H2*%
X132500000Y-99500000D03*
%TD*%
%TO.C,H4*%
X162500000Y-99500000D03*
%TD*%
%TO.C,H3*%
X162500000Y-80500000D03*
%TD*%
D15*
%TO.C,C23*%
X151110000Y-90620000D03*
X152070000Y-90620000D03*
%TD*%
D16*
%TO.C,J2*%
X153200000Y-99250000D03*
X141800000Y-99250000D03*
D17*
X152250000Y-96000000D03*
X151750000Y-96000000D03*
X151250000Y-96000000D03*
X150750000Y-96000000D03*
X150250000Y-96000000D03*
X149750000Y-96000000D03*
X149250000Y-96000000D03*
X148750000Y-96000000D03*
X148250000Y-96000000D03*
X147750000Y-96000000D03*
X147250000Y-96000000D03*
X146750000Y-96000000D03*
X146250000Y-96000000D03*
X145750000Y-96000000D03*
X145250000Y-96000000D03*
X144750000Y-96000000D03*
X144250000Y-96000000D03*
X143750000Y-96000000D03*
X143250000Y-96000000D03*
X142750000Y-96000000D03*
X152250000Y-100000000D03*
X151750000Y-100000000D03*
X151250000Y-100000000D03*
X150750000Y-100000000D03*
X150250000Y-100000000D03*
X149750000Y-100000000D03*
X149250000Y-100000000D03*
X148750000Y-100000000D03*
X148250000Y-100000000D03*
X147750000Y-100000000D03*
X147250000Y-100000000D03*
X146750000Y-100000000D03*
X146250000Y-100000000D03*
X145750000Y-100000000D03*
X145250000Y-100000000D03*
X144750000Y-100000000D03*
X144250000Y-100000000D03*
X143750000Y-100000000D03*
X143250000Y-100000000D03*
X142750000Y-100000000D03*
%TD*%
D18*
%TO.C,C25*%
X158110000Y-92130000D03*
X157150000Y-92130000D03*
%TD*%
D19*
%TO.C,C28*%
X155260000Y-91020000D03*
X155260000Y-90060000D03*
%TD*%
D18*
%TO.C,C22*%
X152070000Y-89670000D03*
X151110000Y-89670000D03*
%TD*%
D20*
%TO.C,BT1*%
X136980000Y-96450000D03*
X136980000Y-83550000D03*
D21*
X136980000Y-90000000D03*
%TD*%
D18*
%TO.C,C21*%
X161100000Y-96030000D03*
X160140000Y-96030000D03*
%TD*%
D16*
%TO.C,J1*%
X141800000Y-80750000D03*
X153200000Y-80750000D03*
D17*
X142750000Y-84000000D03*
X143250000Y-84000000D03*
X143750000Y-84000000D03*
X144250000Y-84000000D03*
X144750000Y-84000000D03*
X145250000Y-84000000D03*
X145750000Y-84000000D03*
X146250000Y-84000000D03*
X146750000Y-84000000D03*
X147250000Y-84000000D03*
X147750000Y-84000000D03*
X148250000Y-84000000D03*
X148750000Y-84000000D03*
X149250000Y-84000000D03*
X149750000Y-84000000D03*
X150250000Y-84000000D03*
X150750000Y-84000000D03*
X151250000Y-84000000D03*
X151750000Y-84000000D03*
X152250000Y-84000000D03*
X142750000Y-80000000D03*
X143250000Y-80000000D03*
X143750000Y-80000000D03*
X144250000Y-80000000D03*
X144750000Y-80000000D03*
X145250000Y-80000000D03*
X145750000Y-80000000D03*
X146250000Y-80000000D03*
X146750000Y-80000000D03*
X147250000Y-80000000D03*
X147750000Y-80000000D03*
X148250000Y-80000000D03*
X148750000Y-80000000D03*
X149250000Y-80000000D03*
X149750000Y-80000000D03*
X150250000Y-80000000D03*
X150750000Y-80000000D03*
X151250000Y-80000000D03*
X151750000Y-80000000D03*
X152250000Y-80000000D03*
%TD*%
D19*
%TO.C,C27*%
X154320000Y-91020000D03*
X154320000Y-90060000D03*
%TD*%
D18*
%TO.C,C20*%
X158110000Y-93080000D03*
X157150000Y-93080000D03*
%TD*%
D22*
%TO.C,C24*%
X158670000Y-85050000D03*
X158670000Y-86010000D03*
%TD*%
D19*
%TO.C,C26*%
X153390000Y-91020000D03*
X153390000Y-90060000D03*
%TD*%
D23*
%TO.C,D4*%
X156715000Y-98030000D03*
X156715000Y-96130000D03*
X158590000Y-97080000D03*
%TD*%
%LPD*%
M02*
