%TF.GenerationSoftware,KiCad,Pcbnew,8.0.7*%
%TF.CreationDate,2025-08-30T11:06:20-07:00*%
%TF.ProjectId,Pivot_Core,5069766f-745f-4436-9f72-652e6b696361,rev?*%
%TF.SameCoordinates,Original*%
%TF.FileFunction,Drillmap*%
%TF.FilePolarity,Positive*%
%FSLAX45Y45*%
G04 Gerber Fmt 4.5, Leading zero omitted, Abs format (unit mm)*
G04 Created by KiCad (PCBNEW 8.0.7) date 2025-08-30 11:06:20*
%MOMM*%
%LPD*%
G01*
G04 APERTURE LIST*
%ADD10C,0.050000*%
%ADD11C,0.200000*%
%ADD12C,0.100000*%
G04 APERTURE END LIST*
D10*
X16250000Y-7800000D02*
G75*
G02*
X16500000Y-8050000I0J-250000D01*
G01*
X13250000Y-7800000D02*
X16250000Y-7800000D01*
X16250000Y-10200000D02*
X13250000Y-10200000D01*
X13000000Y-8050000D02*
G75*
G02*
X13250000Y-7800000I250000J0D01*
G01*
X16500000Y-9950000D02*
X16500000Y-8050000D01*
X16500000Y-9950000D02*
G75*
G02*
X16250000Y-10200000I-250000J0D01*
G01*
X13250000Y-10200000D02*
G75*
G02*
X13000000Y-9950000I0J250000D01*
G01*
X13000000Y-9950000D02*
X13000000Y-8050000D01*
D11*
D12*
X14152250Y-8047250D02*
X14207750Y-8102750D01*
X14207750Y-8047250D02*
X14152250Y-8102750D01*
X14152250Y-9897250D02*
X14207750Y-9952750D01*
X14207750Y-9897250D02*
X14152250Y-9952750D01*
X15292250Y-8047250D02*
X15347750Y-8102750D01*
X15347750Y-8047250D02*
X15292250Y-8102750D01*
X15292250Y-9897250D02*
X15347750Y-9952750D01*
X15347750Y-9897250D02*
X15292250Y-9952750D01*
D11*
X13258277Y-10513984D02*
X13258277Y-10313984D01*
X13258277Y-10313984D02*
X13305896Y-10313984D01*
X13305896Y-10313984D02*
X13334467Y-10323508D01*
X13334467Y-10323508D02*
X13353515Y-10342555D01*
X13353515Y-10342555D02*
X13363039Y-10361603D01*
X13363039Y-10361603D02*
X13372562Y-10399698D01*
X13372562Y-10399698D02*
X13372562Y-10428270D01*
X13372562Y-10428270D02*
X13363039Y-10466365D01*
X13363039Y-10466365D02*
X13353515Y-10485412D01*
X13353515Y-10485412D02*
X13334467Y-10504460D01*
X13334467Y-10504460D02*
X13305896Y-10513984D01*
X13305896Y-10513984D02*
X13258277Y-10513984D01*
X13458277Y-10513984D02*
X13458277Y-10380650D01*
X13458277Y-10418746D02*
X13467801Y-10399698D01*
X13467801Y-10399698D02*
X13477324Y-10390174D01*
X13477324Y-10390174D02*
X13496372Y-10380650D01*
X13496372Y-10380650D02*
X13515420Y-10380650D01*
X13582086Y-10513984D02*
X13582086Y-10380650D01*
X13582086Y-10313984D02*
X13572562Y-10323508D01*
X13572562Y-10323508D02*
X13582086Y-10333031D01*
X13582086Y-10333031D02*
X13591610Y-10323508D01*
X13591610Y-10323508D02*
X13582086Y-10313984D01*
X13582086Y-10313984D02*
X13582086Y-10333031D01*
X13705896Y-10513984D02*
X13686848Y-10504460D01*
X13686848Y-10504460D02*
X13677324Y-10485412D01*
X13677324Y-10485412D02*
X13677324Y-10313984D01*
X13810658Y-10513984D02*
X13791610Y-10504460D01*
X13791610Y-10504460D02*
X13782086Y-10485412D01*
X13782086Y-10485412D02*
X13782086Y-10313984D01*
X14039229Y-10513984D02*
X14039229Y-10313984D01*
X14039229Y-10313984D02*
X14105896Y-10456841D01*
X14105896Y-10456841D02*
X14172562Y-10313984D01*
X14172562Y-10313984D02*
X14172562Y-10513984D01*
X14353515Y-10513984D02*
X14353515Y-10409222D01*
X14353515Y-10409222D02*
X14343991Y-10390174D01*
X14343991Y-10390174D02*
X14324943Y-10380650D01*
X14324943Y-10380650D02*
X14286848Y-10380650D01*
X14286848Y-10380650D02*
X14267801Y-10390174D01*
X14353515Y-10504460D02*
X14334467Y-10513984D01*
X14334467Y-10513984D02*
X14286848Y-10513984D01*
X14286848Y-10513984D02*
X14267801Y-10504460D01*
X14267801Y-10504460D02*
X14258277Y-10485412D01*
X14258277Y-10485412D02*
X14258277Y-10466365D01*
X14258277Y-10466365D02*
X14267801Y-10447317D01*
X14267801Y-10447317D02*
X14286848Y-10437793D01*
X14286848Y-10437793D02*
X14334467Y-10437793D01*
X14334467Y-10437793D02*
X14353515Y-10428270D01*
X14448753Y-10380650D02*
X14448753Y-10580650D01*
X14448753Y-10390174D02*
X14467801Y-10380650D01*
X14467801Y-10380650D02*
X14505896Y-10380650D01*
X14505896Y-10380650D02*
X14524943Y-10390174D01*
X14524943Y-10390174D02*
X14534467Y-10399698D01*
X14534467Y-10399698D02*
X14543991Y-10418746D01*
X14543991Y-10418746D02*
X14543991Y-10475889D01*
X14543991Y-10475889D02*
X14534467Y-10494936D01*
X14534467Y-10494936D02*
X14524943Y-10504460D01*
X14524943Y-10504460D02*
X14505896Y-10513984D01*
X14505896Y-10513984D02*
X14467801Y-10513984D01*
X14467801Y-10513984D02*
X14448753Y-10504460D01*
X14629705Y-10494936D02*
X14639229Y-10504460D01*
X14639229Y-10504460D02*
X14629705Y-10513984D01*
X14629705Y-10513984D02*
X14620182Y-10504460D01*
X14620182Y-10504460D02*
X14629705Y-10494936D01*
X14629705Y-10494936D02*
X14629705Y-10513984D01*
X14629705Y-10390174D02*
X14639229Y-10399698D01*
X14639229Y-10399698D02*
X14629705Y-10409222D01*
X14629705Y-10409222D02*
X14620182Y-10399698D01*
X14620182Y-10399698D02*
X14629705Y-10390174D01*
X14629705Y-10390174D02*
X14629705Y-10409222D01*
D12*
X12942000Y-10814750D02*
X12997500Y-10870250D01*
X12997500Y-10814750D02*
X12942000Y-10870250D01*
D11*
X13296372Y-10733984D02*
X13315420Y-10733984D01*
X13315420Y-10733984D02*
X13334467Y-10743508D01*
X13334467Y-10743508D02*
X13343991Y-10753031D01*
X13343991Y-10753031D02*
X13353515Y-10772079D01*
X13353515Y-10772079D02*
X13363039Y-10810174D01*
X13363039Y-10810174D02*
X13363039Y-10857793D01*
X13363039Y-10857793D02*
X13353515Y-10895889D01*
X13353515Y-10895889D02*
X13343991Y-10914936D01*
X13343991Y-10914936D02*
X13334467Y-10924460D01*
X13334467Y-10924460D02*
X13315420Y-10933984D01*
X13315420Y-10933984D02*
X13296372Y-10933984D01*
X13296372Y-10933984D02*
X13277324Y-10924460D01*
X13277324Y-10924460D02*
X13267801Y-10914936D01*
X13267801Y-10914936D02*
X13258277Y-10895889D01*
X13258277Y-10895889D02*
X13248753Y-10857793D01*
X13248753Y-10857793D02*
X13248753Y-10810174D01*
X13248753Y-10810174D02*
X13258277Y-10772079D01*
X13258277Y-10772079D02*
X13267801Y-10753031D01*
X13267801Y-10753031D02*
X13277324Y-10743508D01*
X13277324Y-10743508D02*
X13296372Y-10733984D01*
X13448753Y-10914936D02*
X13458277Y-10924460D01*
X13458277Y-10924460D02*
X13448753Y-10933984D01*
X13448753Y-10933984D02*
X13439229Y-10924460D01*
X13439229Y-10924460D02*
X13448753Y-10914936D01*
X13448753Y-10914936D02*
X13448753Y-10933984D01*
X13639229Y-10733984D02*
X13543991Y-10733984D01*
X13543991Y-10733984D02*
X13534467Y-10829222D01*
X13534467Y-10829222D02*
X13543991Y-10819698D01*
X13543991Y-10819698D02*
X13563039Y-10810174D01*
X13563039Y-10810174D02*
X13610658Y-10810174D01*
X13610658Y-10810174D02*
X13629705Y-10819698D01*
X13629705Y-10819698D02*
X13639229Y-10829222D01*
X13639229Y-10829222D02*
X13648753Y-10848270D01*
X13648753Y-10848270D02*
X13648753Y-10895889D01*
X13648753Y-10895889D02*
X13639229Y-10914936D01*
X13639229Y-10914936D02*
X13629705Y-10924460D01*
X13629705Y-10924460D02*
X13610658Y-10933984D01*
X13610658Y-10933984D02*
X13563039Y-10933984D01*
X13563039Y-10933984D02*
X13543991Y-10924460D01*
X13543991Y-10924460D02*
X13534467Y-10914936D01*
X13829705Y-10733984D02*
X13734467Y-10733984D01*
X13734467Y-10733984D02*
X13724943Y-10829222D01*
X13724943Y-10829222D02*
X13734467Y-10819698D01*
X13734467Y-10819698D02*
X13753515Y-10810174D01*
X13753515Y-10810174D02*
X13801134Y-10810174D01*
X13801134Y-10810174D02*
X13820182Y-10819698D01*
X13820182Y-10819698D02*
X13829705Y-10829222D01*
X13829705Y-10829222D02*
X13839229Y-10848270D01*
X13839229Y-10848270D02*
X13839229Y-10895889D01*
X13839229Y-10895889D02*
X13829705Y-10914936D01*
X13829705Y-10914936D02*
X13820182Y-10924460D01*
X13820182Y-10924460D02*
X13801134Y-10933984D01*
X13801134Y-10933984D02*
X13753515Y-10933984D01*
X13753515Y-10933984D02*
X13734467Y-10924460D01*
X13734467Y-10924460D02*
X13724943Y-10914936D01*
X14020182Y-10733984D02*
X13924943Y-10733984D01*
X13924943Y-10733984D02*
X13915420Y-10829222D01*
X13915420Y-10829222D02*
X13924943Y-10819698D01*
X13924943Y-10819698D02*
X13943991Y-10810174D01*
X13943991Y-10810174D02*
X13991610Y-10810174D01*
X13991610Y-10810174D02*
X14010658Y-10819698D01*
X14010658Y-10819698D02*
X14020182Y-10829222D01*
X14020182Y-10829222D02*
X14029705Y-10848270D01*
X14029705Y-10848270D02*
X14029705Y-10895889D01*
X14029705Y-10895889D02*
X14020182Y-10914936D01*
X14020182Y-10914936D02*
X14010658Y-10924460D01*
X14010658Y-10924460D02*
X13991610Y-10933984D01*
X13991610Y-10933984D02*
X13943991Y-10933984D01*
X13943991Y-10933984D02*
X13924943Y-10924460D01*
X13924943Y-10924460D02*
X13915420Y-10914936D01*
X14115420Y-10933984D02*
X14115420Y-10800650D01*
X14115420Y-10819698D02*
X14124943Y-10810174D01*
X14124943Y-10810174D02*
X14143991Y-10800650D01*
X14143991Y-10800650D02*
X14172563Y-10800650D01*
X14172563Y-10800650D02*
X14191610Y-10810174D01*
X14191610Y-10810174D02*
X14201134Y-10829222D01*
X14201134Y-10829222D02*
X14201134Y-10933984D01*
X14201134Y-10829222D02*
X14210658Y-10810174D01*
X14210658Y-10810174D02*
X14229705Y-10800650D01*
X14229705Y-10800650D02*
X14258277Y-10800650D01*
X14258277Y-10800650D02*
X14277324Y-10810174D01*
X14277324Y-10810174D02*
X14286848Y-10829222D01*
X14286848Y-10829222D02*
X14286848Y-10933984D01*
X14382086Y-10933984D02*
X14382086Y-10800650D01*
X14382086Y-10819698D02*
X14391610Y-10810174D01*
X14391610Y-10810174D02*
X14410658Y-10800650D01*
X14410658Y-10800650D02*
X14439229Y-10800650D01*
X14439229Y-10800650D02*
X14458277Y-10810174D01*
X14458277Y-10810174D02*
X14467801Y-10829222D01*
X14467801Y-10829222D02*
X14467801Y-10933984D01*
X14467801Y-10829222D02*
X14477324Y-10810174D01*
X14477324Y-10810174D02*
X14496372Y-10800650D01*
X14496372Y-10800650D02*
X14524943Y-10800650D01*
X14524943Y-10800650D02*
X14543991Y-10810174D01*
X14543991Y-10810174D02*
X14553515Y-10829222D01*
X14553515Y-10829222D02*
X14553515Y-10933984D01*
X14943991Y-10724460D02*
X14772563Y-10981603D01*
X15201134Y-10733984D02*
X15220182Y-10733984D01*
X15220182Y-10733984D02*
X15239229Y-10743508D01*
X15239229Y-10743508D02*
X15248753Y-10753031D01*
X15248753Y-10753031D02*
X15258277Y-10772079D01*
X15258277Y-10772079D02*
X15267801Y-10810174D01*
X15267801Y-10810174D02*
X15267801Y-10857793D01*
X15267801Y-10857793D02*
X15258277Y-10895889D01*
X15258277Y-10895889D02*
X15248753Y-10914936D01*
X15248753Y-10914936D02*
X15239229Y-10924460D01*
X15239229Y-10924460D02*
X15220182Y-10933984D01*
X15220182Y-10933984D02*
X15201134Y-10933984D01*
X15201134Y-10933984D02*
X15182086Y-10924460D01*
X15182086Y-10924460D02*
X15172563Y-10914936D01*
X15172563Y-10914936D02*
X15163039Y-10895889D01*
X15163039Y-10895889D02*
X15153515Y-10857793D01*
X15153515Y-10857793D02*
X15153515Y-10810174D01*
X15153515Y-10810174D02*
X15163039Y-10772079D01*
X15163039Y-10772079D02*
X15172563Y-10753031D01*
X15172563Y-10753031D02*
X15182086Y-10743508D01*
X15182086Y-10743508D02*
X15201134Y-10733984D01*
X15353515Y-10914936D02*
X15363039Y-10924460D01*
X15363039Y-10924460D02*
X15353515Y-10933984D01*
X15353515Y-10933984D02*
X15343991Y-10924460D01*
X15343991Y-10924460D02*
X15353515Y-10914936D01*
X15353515Y-10914936D02*
X15353515Y-10933984D01*
X15486848Y-10733984D02*
X15505896Y-10733984D01*
X15505896Y-10733984D02*
X15524944Y-10743508D01*
X15524944Y-10743508D02*
X15534467Y-10753031D01*
X15534467Y-10753031D02*
X15543991Y-10772079D01*
X15543991Y-10772079D02*
X15553515Y-10810174D01*
X15553515Y-10810174D02*
X15553515Y-10857793D01*
X15553515Y-10857793D02*
X15543991Y-10895889D01*
X15543991Y-10895889D02*
X15534467Y-10914936D01*
X15534467Y-10914936D02*
X15524944Y-10924460D01*
X15524944Y-10924460D02*
X15505896Y-10933984D01*
X15505896Y-10933984D02*
X15486848Y-10933984D01*
X15486848Y-10933984D02*
X15467801Y-10924460D01*
X15467801Y-10924460D02*
X15458277Y-10914936D01*
X15458277Y-10914936D02*
X15448753Y-10895889D01*
X15448753Y-10895889D02*
X15439229Y-10857793D01*
X15439229Y-10857793D02*
X15439229Y-10810174D01*
X15439229Y-10810174D02*
X15448753Y-10772079D01*
X15448753Y-10772079D02*
X15458277Y-10753031D01*
X15458277Y-10753031D02*
X15467801Y-10743508D01*
X15467801Y-10743508D02*
X15486848Y-10733984D01*
X15629706Y-10753031D02*
X15639229Y-10743508D01*
X15639229Y-10743508D02*
X15658277Y-10733984D01*
X15658277Y-10733984D02*
X15705896Y-10733984D01*
X15705896Y-10733984D02*
X15724944Y-10743508D01*
X15724944Y-10743508D02*
X15734467Y-10753031D01*
X15734467Y-10753031D02*
X15743991Y-10772079D01*
X15743991Y-10772079D02*
X15743991Y-10791127D01*
X15743991Y-10791127D02*
X15734467Y-10819698D01*
X15734467Y-10819698D02*
X15620182Y-10933984D01*
X15620182Y-10933984D02*
X15743991Y-10933984D01*
X15934467Y-10933984D02*
X15820182Y-10933984D01*
X15877325Y-10933984D02*
X15877325Y-10733984D01*
X15877325Y-10733984D02*
X15858277Y-10762555D01*
X15858277Y-10762555D02*
X15839229Y-10781603D01*
X15839229Y-10781603D02*
X15820182Y-10791127D01*
X16029706Y-10933984D02*
X16067801Y-10933984D01*
X16067801Y-10933984D02*
X16086848Y-10924460D01*
X16086848Y-10924460D02*
X16096372Y-10914936D01*
X16096372Y-10914936D02*
X16115420Y-10886365D01*
X16115420Y-10886365D02*
X16124944Y-10848270D01*
X16124944Y-10848270D02*
X16124944Y-10772079D01*
X16124944Y-10772079D02*
X16115420Y-10753031D01*
X16115420Y-10753031D02*
X16105896Y-10743508D01*
X16105896Y-10743508D02*
X16086848Y-10733984D01*
X16086848Y-10733984D02*
X16048753Y-10733984D01*
X16048753Y-10733984D02*
X16029706Y-10743508D01*
X16029706Y-10743508D02*
X16020182Y-10753031D01*
X16020182Y-10753031D02*
X16010658Y-10772079D01*
X16010658Y-10772079D02*
X16010658Y-10819698D01*
X16010658Y-10819698D02*
X16020182Y-10838746D01*
X16020182Y-10838746D02*
X16029706Y-10848270D01*
X16029706Y-10848270D02*
X16048753Y-10857793D01*
X16048753Y-10857793D02*
X16086848Y-10857793D01*
X16086848Y-10857793D02*
X16105896Y-10848270D01*
X16105896Y-10848270D02*
X16115420Y-10838746D01*
X16115420Y-10838746D02*
X16124944Y-10819698D01*
X16201134Y-10733984D02*
X16201134Y-10772079D01*
X16277325Y-10733984D02*
X16277325Y-10772079D01*
X16572563Y-11010174D02*
X16563039Y-11000650D01*
X16563039Y-11000650D02*
X16543991Y-10972079D01*
X16543991Y-10972079D02*
X16534468Y-10953031D01*
X16534468Y-10953031D02*
X16524944Y-10924460D01*
X16524944Y-10924460D02*
X16515420Y-10876841D01*
X16515420Y-10876841D02*
X16515420Y-10838746D01*
X16515420Y-10838746D02*
X16524944Y-10791127D01*
X16524944Y-10791127D02*
X16534468Y-10762555D01*
X16534468Y-10762555D02*
X16543991Y-10743508D01*
X16543991Y-10743508D02*
X16563039Y-10714936D01*
X16563039Y-10714936D02*
X16572563Y-10705412D01*
X16734468Y-10800650D02*
X16734468Y-10933984D01*
X16686848Y-10724460D02*
X16639229Y-10867317D01*
X16639229Y-10867317D02*
X16763039Y-10867317D01*
X16991611Y-10933984D02*
X16991611Y-10733984D01*
X17077325Y-10933984D02*
X17077325Y-10829222D01*
X17077325Y-10829222D02*
X17067801Y-10810174D01*
X17067801Y-10810174D02*
X17048753Y-10800650D01*
X17048753Y-10800650D02*
X17020182Y-10800650D01*
X17020182Y-10800650D02*
X17001134Y-10810174D01*
X17001134Y-10810174D02*
X16991611Y-10819698D01*
X17201134Y-10933984D02*
X17182087Y-10924460D01*
X17182087Y-10924460D02*
X17172563Y-10914936D01*
X17172563Y-10914936D02*
X17163039Y-10895889D01*
X17163039Y-10895889D02*
X17163039Y-10838746D01*
X17163039Y-10838746D02*
X17172563Y-10819698D01*
X17172563Y-10819698D02*
X17182087Y-10810174D01*
X17182087Y-10810174D02*
X17201134Y-10800650D01*
X17201134Y-10800650D02*
X17229706Y-10800650D01*
X17229706Y-10800650D02*
X17248753Y-10810174D01*
X17248753Y-10810174D02*
X17258277Y-10819698D01*
X17258277Y-10819698D02*
X17267801Y-10838746D01*
X17267801Y-10838746D02*
X17267801Y-10895889D01*
X17267801Y-10895889D02*
X17258277Y-10914936D01*
X17258277Y-10914936D02*
X17248753Y-10924460D01*
X17248753Y-10924460D02*
X17229706Y-10933984D01*
X17229706Y-10933984D02*
X17201134Y-10933984D01*
X17382087Y-10933984D02*
X17363039Y-10924460D01*
X17363039Y-10924460D02*
X17353515Y-10905412D01*
X17353515Y-10905412D02*
X17353515Y-10733984D01*
X17534468Y-10924460D02*
X17515420Y-10933984D01*
X17515420Y-10933984D02*
X17477325Y-10933984D01*
X17477325Y-10933984D02*
X17458277Y-10924460D01*
X17458277Y-10924460D02*
X17448753Y-10905412D01*
X17448753Y-10905412D02*
X17448753Y-10829222D01*
X17448753Y-10829222D02*
X17458277Y-10810174D01*
X17458277Y-10810174D02*
X17477325Y-10800650D01*
X17477325Y-10800650D02*
X17515420Y-10800650D01*
X17515420Y-10800650D02*
X17534468Y-10810174D01*
X17534468Y-10810174D02*
X17543992Y-10829222D01*
X17543992Y-10829222D02*
X17543992Y-10848270D01*
X17543992Y-10848270D02*
X17448753Y-10867317D01*
X17620182Y-10924460D02*
X17639230Y-10933984D01*
X17639230Y-10933984D02*
X17677325Y-10933984D01*
X17677325Y-10933984D02*
X17696373Y-10924460D01*
X17696373Y-10924460D02*
X17705896Y-10905412D01*
X17705896Y-10905412D02*
X17705896Y-10895889D01*
X17705896Y-10895889D02*
X17696373Y-10876841D01*
X17696373Y-10876841D02*
X17677325Y-10867317D01*
X17677325Y-10867317D02*
X17648753Y-10867317D01*
X17648753Y-10867317D02*
X17629706Y-10857793D01*
X17629706Y-10857793D02*
X17620182Y-10838746D01*
X17620182Y-10838746D02*
X17620182Y-10829222D01*
X17620182Y-10829222D02*
X17629706Y-10810174D01*
X17629706Y-10810174D02*
X17648753Y-10800650D01*
X17648753Y-10800650D02*
X17677325Y-10800650D01*
X17677325Y-10800650D02*
X17696373Y-10810174D01*
X17772563Y-11010174D02*
X17782087Y-11000650D01*
X17782087Y-11000650D02*
X17801134Y-10972079D01*
X17801134Y-10972079D02*
X17810658Y-10953031D01*
X17810658Y-10953031D02*
X17820182Y-10924460D01*
X17820182Y-10924460D02*
X17829706Y-10876841D01*
X17829706Y-10876841D02*
X17829706Y-10838746D01*
X17829706Y-10838746D02*
X17820182Y-10791127D01*
X17820182Y-10791127D02*
X17810658Y-10762555D01*
X17810658Y-10762555D02*
X17801134Y-10743508D01*
X17801134Y-10743508D02*
X17782087Y-10714936D01*
X17782087Y-10714936D02*
X17772563Y-10705412D01*
X18134468Y-11010174D02*
X18124944Y-11000650D01*
X18124944Y-11000650D02*
X18105896Y-10972079D01*
X18105896Y-10972079D02*
X18096373Y-10953031D01*
X18096373Y-10953031D02*
X18086849Y-10924460D01*
X18086849Y-10924460D02*
X18077325Y-10876841D01*
X18077325Y-10876841D02*
X18077325Y-10838746D01*
X18077325Y-10838746D02*
X18086849Y-10791127D01*
X18086849Y-10791127D02*
X18096373Y-10762555D01*
X18096373Y-10762555D02*
X18105896Y-10743508D01*
X18105896Y-10743508D02*
X18124944Y-10714936D01*
X18124944Y-10714936D02*
X18134468Y-10705412D01*
X18210658Y-10800650D02*
X18210658Y-10933984D01*
X18210658Y-10819698D02*
X18220182Y-10810174D01*
X18220182Y-10810174D02*
X18239230Y-10800650D01*
X18239230Y-10800650D02*
X18267801Y-10800650D01*
X18267801Y-10800650D02*
X18286849Y-10810174D01*
X18286849Y-10810174D02*
X18296373Y-10829222D01*
X18296373Y-10829222D02*
X18296373Y-10933984D01*
X18420182Y-10933984D02*
X18401134Y-10924460D01*
X18401134Y-10924460D02*
X18391611Y-10914936D01*
X18391611Y-10914936D02*
X18382087Y-10895889D01*
X18382087Y-10895889D02*
X18382087Y-10838746D01*
X18382087Y-10838746D02*
X18391611Y-10819698D01*
X18391611Y-10819698D02*
X18401134Y-10810174D01*
X18401134Y-10810174D02*
X18420182Y-10800650D01*
X18420182Y-10800650D02*
X18448754Y-10800650D01*
X18448754Y-10800650D02*
X18467801Y-10810174D01*
X18467801Y-10810174D02*
X18477325Y-10819698D01*
X18477325Y-10819698D02*
X18486849Y-10838746D01*
X18486849Y-10838746D02*
X18486849Y-10895889D01*
X18486849Y-10895889D02*
X18477325Y-10914936D01*
X18477325Y-10914936D02*
X18467801Y-10924460D01*
X18467801Y-10924460D02*
X18448754Y-10933984D01*
X18448754Y-10933984D02*
X18420182Y-10933984D01*
X18543992Y-10800650D02*
X18620182Y-10800650D01*
X18572563Y-10733984D02*
X18572563Y-10905412D01*
X18572563Y-10905412D02*
X18582087Y-10924460D01*
X18582087Y-10924460D02*
X18601134Y-10933984D01*
X18601134Y-10933984D02*
X18620182Y-10933984D01*
X18839230Y-10800650D02*
X18839230Y-11000650D01*
X18839230Y-10810174D02*
X18858277Y-10800650D01*
X18858277Y-10800650D02*
X18896373Y-10800650D01*
X18896373Y-10800650D02*
X18915420Y-10810174D01*
X18915420Y-10810174D02*
X18924944Y-10819698D01*
X18924944Y-10819698D02*
X18934468Y-10838746D01*
X18934468Y-10838746D02*
X18934468Y-10895889D01*
X18934468Y-10895889D02*
X18924944Y-10914936D01*
X18924944Y-10914936D02*
X18915420Y-10924460D01*
X18915420Y-10924460D02*
X18896373Y-10933984D01*
X18896373Y-10933984D02*
X18858277Y-10933984D01*
X18858277Y-10933984D02*
X18839230Y-10924460D01*
X19048754Y-10933984D02*
X19029706Y-10924460D01*
X19029706Y-10924460D02*
X19020182Y-10905412D01*
X19020182Y-10905412D02*
X19020182Y-10733984D01*
X19210658Y-10933984D02*
X19210658Y-10829222D01*
X19210658Y-10829222D02*
X19201135Y-10810174D01*
X19201135Y-10810174D02*
X19182087Y-10800650D01*
X19182087Y-10800650D02*
X19143992Y-10800650D01*
X19143992Y-10800650D02*
X19124944Y-10810174D01*
X19210658Y-10924460D02*
X19191611Y-10933984D01*
X19191611Y-10933984D02*
X19143992Y-10933984D01*
X19143992Y-10933984D02*
X19124944Y-10924460D01*
X19124944Y-10924460D02*
X19115420Y-10905412D01*
X19115420Y-10905412D02*
X19115420Y-10886365D01*
X19115420Y-10886365D02*
X19124944Y-10867317D01*
X19124944Y-10867317D02*
X19143992Y-10857793D01*
X19143992Y-10857793D02*
X19191611Y-10857793D01*
X19191611Y-10857793D02*
X19210658Y-10848270D01*
X19277325Y-10800650D02*
X19353515Y-10800650D01*
X19305896Y-10733984D02*
X19305896Y-10905412D01*
X19305896Y-10905412D02*
X19315420Y-10924460D01*
X19315420Y-10924460D02*
X19334468Y-10933984D01*
X19334468Y-10933984D02*
X19353515Y-10933984D01*
X19496373Y-10924460D02*
X19477325Y-10933984D01*
X19477325Y-10933984D02*
X19439230Y-10933984D01*
X19439230Y-10933984D02*
X19420182Y-10924460D01*
X19420182Y-10924460D02*
X19410658Y-10905412D01*
X19410658Y-10905412D02*
X19410658Y-10829222D01*
X19410658Y-10829222D02*
X19420182Y-10810174D01*
X19420182Y-10810174D02*
X19439230Y-10800650D01*
X19439230Y-10800650D02*
X19477325Y-10800650D01*
X19477325Y-10800650D02*
X19496373Y-10810174D01*
X19496373Y-10810174D02*
X19505896Y-10829222D01*
X19505896Y-10829222D02*
X19505896Y-10848270D01*
X19505896Y-10848270D02*
X19410658Y-10867317D01*
X19677325Y-10933984D02*
X19677325Y-10733984D01*
X19677325Y-10924460D02*
X19658277Y-10933984D01*
X19658277Y-10933984D02*
X19620182Y-10933984D01*
X19620182Y-10933984D02*
X19601135Y-10924460D01*
X19601135Y-10924460D02*
X19591611Y-10914936D01*
X19591611Y-10914936D02*
X19582087Y-10895889D01*
X19582087Y-10895889D02*
X19582087Y-10838746D01*
X19582087Y-10838746D02*
X19591611Y-10819698D01*
X19591611Y-10819698D02*
X19601135Y-10810174D01*
X19601135Y-10810174D02*
X19620182Y-10800650D01*
X19620182Y-10800650D02*
X19658277Y-10800650D01*
X19658277Y-10800650D02*
X19677325Y-10810174D01*
X19753516Y-11010174D02*
X19763039Y-11000650D01*
X19763039Y-11000650D02*
X19782087Y-10972079D01*
X19782087Y-10972079D02*
X19791611Y-10953031D01*
X19791611Y-10953031D02*
X19801135Y-10924460D01*
X19801135Y-10924460D02*
X19810658Y-10876841D01*
X19810658Y-10876841D02*
X19810658Y-10838746D01*
X19810658Y-10838746D02*
X19801135Y-10791127D01*
X19801135Y-10791127D02*
X19791611Y-10762555D01*
X19791611Y-10762555D02*
X19782087Y-10743508D01*
X19782087Y-10743508D02*
X19763039Y-10714936D01*
X19763039Y-10714936D02*
X19753516Y-10705412D01*
M02*
