%TF.GenerationSoftware,KiCad,Pcbnew,8.0.7*%
%TF.CreationDate,2025-08-30T11:06:04-07:00*%
%TF.ProjectId,Pivot_Core,5069766f-745f-4436-9f72-652e6b696361,rev?*%
%TF.SameCoordinates,Original*%
%TF.FileFunction,Paste,Top*%
%TF.FilePolarity,Positive*%
%FSLAX46Y46*%
G04 Gerber Fmt 4.6, Leading zero omitted, Abs format (unit mm)*
G04 Created by KiCad (PCBNEW 8.0.7) date 2025-08-30 11:06:04*
%MOMM*%
%LPD*%
G01*
G04 APERTURE LIST*
G04 Aperture macros list*
%AMRoundRect*
0 Rectangle with rounded corners*
0 $1 Rounding radius*
0 $2 $3 $4 $5 $6 $7 $8 $9 X,Y pos of 4 corners*
0 Add a 4 corners polygon primitive as box body*
4,1,4,$2,$3,$4,$5,$6,$7,$8,$9,$2,$3,0*
0 Add four circle primitives for the rounded corners*
1,1,$1+$1,$2,$3*
1,1,$1+$1,$4,$5*
1,1,$1+$1,$6,$7*
1,1,$1+$1,$8,$9*
0 Add four rect primitives between the rounded corners*
20,1,$1+$1,$2,$3,$4,$5,0*
20,1,$1+$1,$4,$5,$6,$7,0*
20,1,$1+$1,$6,$7,$8,$9,0*
20,1,$1+$1,$8,$9,$2,$3,0*%
G04 Aperture macros list end*
%ADD10RoundRect,0.140000X0.140000X0.170000X-0.140000X0.170000X-0.140000X-0.170000X0.140000X-0.170000X0*%
%ADD11RoundRect,0.135000X-0.185000X0.135000X-0.185000X-0.135000X0.185000X-0.135000X0.185000X0.135000X0*%
%ADD12R,1.050000X0.800000*%
%ADD13RoundRect,0.140000X0.170000X-0.140000X0.170000X0.140000X-0.170000X0.140000X-0.170000X-0.140000X0*%
%ADD14C,0.400002*%
%ADD15RoundRect,0.150000X-0.587500X-0.150000X0.587500X-0.150000X0.587500X0.150000X-0.587500X0.150000X0*%
%ADD16RoundRect,0.140000X-0.170000X0.140000X-0.170000X-0.140000X0.170000X-0.140000X0.170000X0.140000X0*%
%ADD17RoundRect,0.250000X0.435000X0.615000X-0.435000X0.615000X-0.435000X-0.615000X0.435000X-0.615000X0*%
%ADD18RoundRect,0.125000X0.250000X0.125000X-0.250000X0.125000X-0.250000X-0.125000X0.250000X-0.125000X0*%
%ADD19RoundRect,0.135000X0.135000X0.185000X-0.135000X0.185000X-0.135000X-0.185000X0.135000X-0.185000X0*%
%ADD20RoundRect,0.135000X-0.135000X-0.185000X0.135000X-0.185000X0.135000X0.185000X-0.135000X0.185000X0*%
%ADD21R,1.400000X1.200000*%
%ADD22RoundRect,0.140000X-0.140000X-0.170000X0.140000X-0.170000X0.140000X0.170000X-0.140000X0.170000X0*%
%ADD23RoundRect,0.135000X0.185000X-0.135000X0.185000X0.135000X-0.185000X0.135000X-0.185000X-0.135000X0*%
%ADD24R,0.900000X1.700000*%
%ADD25RoundRect,0.243750X0.456250X-0.243750X0.456250X0.243750X-0.456250X0.243750X-0.456250X-0.243750X0*%
%ADD26RoundRect,0.200000X0.275000X-0.200000X0.275000X0.200000X-0.275000X0.200000X-0.275000X-0.200000X0*%
%ADD27RoundRect,0.150000X-0.150000X0.512500X-0.150000X-0.512500X0.150000X-0.512500X0.150000X0.512500X0*%
%ADD28RoundRect,0.080000X0.655000X0.455000X-0.655000X0.455000X-0.655000X-0.455000X0.655000X-0.455000X0*%
%ADD29RoundRect,0.075000X0.225000X0.075000X-0.225000X0.075000X-0.225000X-0.075000X0.225000X-0.075000X0*%
%ADD30RoundRect,0.112500X-0.112500X0.187500X-0.112500X-0.187500X0.112500X-0.187500X0.112500X0.187500X0*%
%ADD31RoundRect,0.090000X0.810000X-0.360000X0.810000X0.360000X-0.810000X0.360000X-0.810000X-0.360000X0*%
%ADD32R,0.475000X0.250000*%
%ADD33R,0.250000X0.475000*%
%ADD34RoundRect,0.243750X-0.456250X0.243750X-0.456250X-0.243750X0.456250X-0.243750X0.456250X0.243750X0*%
G04 APERTURE END LIST*
D10*
%TO.C,C7*%
X158825000Y-85050000D03*
X157865000Y-85050000D03*
%TD*%
D11*
%TO.C,R12*%
X148050000Y-90070000D03*
X148050000Y-91090000D03*
%TD*%
D12*
%TO.C,Y2*%
X162830000Y-93410000D03*
X160180000Y-93410000D03*
X160180000Y-94610000D03*
X162830000Y-94610000D03*
%TD*%
D13*
%TO.C,C11*%
X154120000Y-98680000D03*
X154120000Y-97720000D03*
%TD*%
D14*
%TO.C,U1*%
X157120000Y-94140000D03*
X156320000Y-94140000D03*
X155520000Y-94140000D03*
X154720000Y-94140000D03*
X153920000Y-94140000D03*
X153120000Y-94140000D03*
X152320000Y-94140000D03*
X151520000Y-94140000D03*
X150720000Y-94140000D03*
X149920000Y-94140000D03*
X157120000Y-93340000D03*
X156320000Y-93340000D03*
X155520000Y-93340000D03*
X154720000Y-93340000D03*
X153920000Y-93340000D03*
X153120000Y-93340000D03*
X152320000Y-93340000D03*
X151520000Y-93340000D03*
X150720000Y-93340000D03*
X149920000Y-93340000D03*
X157120000Y-92540000D03*
X156320000Y-92540000D03*
X155520000Y-92540000D03*
X154720000Y-92540000D03*
X153920000Y-92540000D03*
X153120000Y-92540000D03*
X152320000Y-92540000D03*
X151520000Y-92540000D03*
X150720000Y-92540000D03*
X149920000Y-92540000D03*
X157120000Y-91740000D03*
X156320000Y-91740000D03*
X155520000Y-91740000D03*
X154720000Y-91740000D03*
X153920000Y-91740000D03*
X153120000Y-91740000D03*
X152320000Y-91740000D03*
X151520000Y-91740000D03*
X150720000Y-91740000D03*
X149920000Y-91740000D03*
X157120000Y-90940000D03*
X156320000Y-90940000D03*
X155520000Y-90940000D03*
X154720000Y-90940000D03*
X153920000Y-90940000D03*
X153120000Y-90940000D03*
X152320000Y-90940000D03*
X151520000Y-90940000D03*
X150720000Y-90940000D03*
X149920000Y-90940000D03*
X157120000Y-90140000D03*
X156320000Y-90140000D03*
X155520000Y-90140000D03*
X154720000Y-90140000D03*
X153920000Y-90140000D03*
X153120000Y-90140000D03*
X152320000Y-90140000D03*
X151520000Y-90140000D03*
X150720000Y-90140000D03*
X149920000Y-90140000D03*
X157120000Y-89340000D03*
X156320000Y-89340000D03*
X155520000Y-89340000D03*
X154720000Y-89340000D03*
X153920000Y-89340000D03*
X153120000Y-89340000D03*
X152320000Y-89340000D03*
X151520000Y-89340000D03*
X150720000Y-89340000D03*
X149920000Y-89340000D03*
X157120000Y-88540000D03*
X156320000Y-88540000D03*
X155520000Y-88540000D03*
X154720000Y-88540000D03*
X153920000Y-88540000D03*
X153120000Y-88540000D03*
X152320000Y-88540000D03*
X151520000Y-88540000D03*
X150720000Y-88540000D03*
X149920000Y-88540000D03*
X157120000Y-87740000D03*
X156320000Y-87740000D03*
X155520000Y-87740000D03*
X154720000Y-87740000D03*
X153920000Y-87740000D03*
X153120000Y-87740000D03*
X152320000Y-87740000D03*
X151520000Y-87740000D03*
X150720000Y-87740000D03*
X149920000Y-87740000D03*
X157120000Y-86940000D03*
X156320000Y-86940000D03*
X155520000Y-86940000D03*
X154720000Y-86940000D03*
X153920000Y-86940000D03*
X153120000Y-86940000D03*
X152320000Y-86940000D03*
X151520000Y-86940000D03*
X150720000Y-86940000D03*
X149920000Y-86940000D03*
%TD*%
D13*
%TO.C,C14*%
X164000000Y-94830000D03*
X164000000Y-93870000D03*
%TD*%
D15*
%TO.C,Q1*%
X141872500Y-96383274D03*
X141872500Y-98283274D03*
X143747500Y-97333274D03*
%TD*%
D16*
%TO.C,C17*%
X138750000Y-81042500D03*
X138750000Y-82002500D03*
%TD*%
D17*
%TO.C,U2*%
X145080000Y-89380000D03*
X145080000Y-87230000D03*
X143380000Y-89380000D03*
X143380000Y-87230000D03*
D18*
X146930000Y-90210000D03*
X146930000Y-88940000D03*
X146930000Y-87670000D03*
X146930000Y-86400000D03*
X141530000Y-86400000D03*
X141530000Y-87670000D03*
X141530000Y-88940000D03*
X141530000Y-90210000D03*
%TD*%
D13*
%TO.C,C12*%
X163990000Y-92240000D03*
X163990000Y-91280000D03*
%TD*%
D19*
%TO.C,R13*%
X149630000Y-84070000D03*
X148610000Y-84070000D03*
%TD*%
D20*
%TO.C,R9*%
X153890000Y-96500000D03*
X154910000Y-96500000D03*
%TD*%
D16*
%TO.C,C1*%
X140420000Y-90210000D03*
X140420000Y-91170000D03*
%TD*%
D21*
%TO.C,Y1*%
X162600000Y-90120000D03*
X160400000Y-90120000D03*
X160400000Y-91820000D03*
X162600000Y-91820000D03*
%TD*%
D22*
%TO.C,C5*%
X133520000Y-90505000D03*
X134480000Y-90505000D03*
%TD*%
D23*
%TO.C,R3*%
X140290000Y-95220000D03*
X140290000Y-94200000D03*
%TD*%
D16*
%TO.C,C9*%
X137340000Y-86785089D03*
X137340000Y-87745089D03*
%TD*%
D19*
%TO.C,R5*%
X159970000Y-88780000D03*
X158950000Y-88780000D03*
%TD*%
D24*
%TO.C,SW2(B3U-1000)1*%
X156300000Y-97770000D03*
X159700000Y-97770000D03*
%TD*%
D25*
%TO.C,D1*%
X163460000Y-87437500D03*
X163460000Y-85562500D03*
%TD*%
D22*
%TO.C,C16*%
X159700000Y-85050000D03*
X160660000Y-85050000D03*
%TD*%
D11*
%TO.C,FB1*%
X160900000Y-86890000D03*
X160900000Y-87910000D03*
%TD*%
D13*
%TO.C,C13*%
X159000000Y-92780000D03*
X159000000Y-91820000D03*
%TD*%
D16*
%TO.C,C33*%
X159950000Y-86900000D03*
X159950000Y-87860000D03*
%TD*%
D19*
%TO.C,R1*%
X164010000Y-88710000D03*
X162990000Y-88710000D03*
%TD*%
D20*
%TO.C,R2*%
X139780000Y-81080000D03*
X140800000Y-81080000D03*
%TD*%
%TO.C,R8*%
X133470000Y-94955000D03*
X134490000Y-94955000D03*
%TD*%
D26*
%TO.C,R7*%
X132110000Y-88097589D03*
X132110000Y-86447589D03*
%TD*%
D10*
%TO.C,C2*%
X146370000Y-95092500D03*
X145410000Y-95092500D03*
%TD*%
D20*
%TO.C,R16*%
X146220000Y-98480000D03*
X147240000Y-98480000D03*
%TD*%
D27*
%TO.C,U9*%
X137487500Y-81400000D03*
X136537500Y-81400000D03*
X135587500Y-81400000D03*
X135587500Y-83675000D03*
X137487500Y-83675000D03*
%TD*%
D28*
%TO.C,U7*%
X134870000Y-93365000D03*
X134870000Y-92095000D03*
D29*
X136270000Y-93705000D03*
X136270000Y-93055000D03*
X136270000Y-92405000D03*
X136270000Y-91755000D03*
X133470000Y-91755000D03*
X133470000Y-92405000D03*
X133470000Y-93055000D03*
X133470000Y-93705000D03*
%TD*%
D27*
%TO.C,U8*%
X159440000Y-81395000D03*
X158490000Y-81395000D03*
X157540000Y-81395000D03*
X157540000Y-83670000D03*
X159440000Y-83670000D03*
%TD*%
D19*
%TO.C,TH1*%
X156298949Y-85060000D03*
X155278949Y-85060000D03*
%TD*%
D30*
%TO.C,D3*%
X139920000Y-96830000D03*
X139920000Y-98930000D03*
%TD*%
D16*
%TO.C,C32*%
X159000000Y-86900000D03*
X159000000Y-87860000D03*
%TD*%
D22*
%TO.C,C10*%
X133520000Y-85055089D03*
X134480000Y-85055089D03*
%TD*%
D31*
%TO.C,BZ1*%
X136940000Y-95727500D03*
X136940000Y-99227500D03*
%TD*%
D32*
%TO.C,U3*%
X143737500Y-92380000D03*
X143737500Y-92880000D03*
X143737500Y-93380000D03*
X143737500Y-93880000D03*
D33*
X144400000Y-94042500D03*
X144900000Y-94042500D03*
X145400000Y-94042500D03*
D32*
X146062500Y-93880000D03*
X146062500Y-93380000D03*
X146062500Y-92880000D03*
X146062500Y-92380000D03*
D33*
X145400000Y-92217500D03*
X144900000Y-92217500D03*
X144400000Y-92217500D03*
%TD*%
D16*
%TO.C,C6*%
X156330000Y-81010000D03*
X156330000Y-81970000D03*
%TD*%
D24*
%TO.C,SW1(B3U-1000)1*%
X152990000Y-97750000D03*
X149590000Y-97750000D03*
%TD*%
D26*
%TO.C,R11*%
X132110000Y-93567500D03*
X132110000Y-91917500D03*
%TD*%
D22*
%TO.C,C3*%
X143580000Y-95092500D03*
X144540000Y-95092500D03*
%TD*%
D16*
%TO.C,C15*%
X159020000Y-93870000D03*
X159020000Y-94830000D03*
%TD*%
D20*
%TO.C,R15*%
X149310000Y-85040000D03*
X150330000Y-85040000D03*
%TD*%
D28*
%TO.C,U5*%
X134870000Y-87895089D03*
X134870000Y-86625089D03*
D29*
X136270000Y-88235089D03*
X136270000Y-87585089D03*
X136270000Y-86935089D03*
X136270000Y-86285089D03*
X133470000Y-86285089D03*
X133470000Y-86935089D03*
X133470000Y-87585089D03*
X133470000Y-88235089D03*
%TD*%
D19*
%TO.C,R14*%
X147240000Y-97520000D03*
X146220000Y-97520000D03*
%TD*%
D34*
%TO.C,D2*%
X140280000Y-82340000D03*
X140280000Y-84215000D03*
%TD*%
D20*
%TO.C,R6*%
X133470000Y-89485089D03*
X134490000Y-89485089D03*
%TD*%
D13*
%TO.C,C18*%
X138700000Y-84160000D03*
X138700000Y-83200000D03*
%TD*%
D16*
%TO.C,C4*%
X137330000Y-92250000D03*
X137330000Y-93210000D03*
%TD*%
D23*
%TO.C,R10*%
X155150000Y-98710000D03*
X155150000Y-97690000D03*
%TD*%
D10*
%TO.C,C19*%
X137490000Y-85050000D03*
X136530000Y-85050000D03*
%TD*%
D23*
%TO.C,R4*%
X141240000Y-95220000D03*
X141240000Y-94200000D03*
%TD*%
D16*
%TO.C,C8*%
X159000000Y-89720000D03*
X159000000Y-90680000D03*
%TD*%
D13*
%TO.C,C34*%
X161850000Y-87860000D03*
X161850000Y-86900000D03*
%TD*%
M02*
