%TF.GenerationSoftware,KiCad,Pcbnew,8.0.7*%
%TF.CreationDate,2025-08-30T11:06:20-07:00*%
%TF.ProjectId,Pivot_Core,5069766f-745f-4436-9f72-652e6b696361,rev?*%
%TF.SameCoordinates,Original*%
%TF.FileFunction,Drillmap*%
%TF.FilePolarity,Positive*%
%FSLAX45Y45*%
G04 Gerber Fmt 4.5, Leading zero omitted, Abs format (unit mm)*
G04 Created by KiCad (PCBNEW 8.0.7) date 2025-08-30 11:06:20*
%MOMM*%
%LPD*%
G01*
G04 APERTURE LIST*
%ADD10C,0.050000*%
%ADD11C,0.200000*%
%ADD12C,0.100000*%
%ADD13C,0.220000*%
G04 APERTURE END LIST*
D10*
X16250000Y-7800000D02*
G75*
G02*
X16500000Y-8050000I0J-250000D01*
G01*
X13250000Y-7800000D02*
X16250000Y-7800000D01*
X16250000Y-10200000D02*
X13250000Y-10200000D01*
X13000000Y-8050000D02*
G75*
G02*
X13250000Y-7800000I250000J0D01*
G01*
X16500000Y-9950000D02*
X16500000Y-8050000D01*
X16500000Y-9950000D02*
G75*
G02*
X16250000Y-10200000I-250000J0D01*
G01*
X13250000Y-10200000D02*
G75*
G02*
X13000000Y-9950000I0J250000D01*
G01*
X13000000Y-9950000D02*
X13000000Y-8050000D01*
D11*
D12*
X13035000Y-8285000D02*
X13065000Y-8315000D01*
X13065000Y-8285000D02*
X13035000Y-8315000D01*
X13035000Y-8485000D02*
X13065000Y-8515000D01*
X13065000Y-8485000D02*
X13035000Y-8515000D01*
X13035000Y-8885000D02*
X13065000Y-8915000D01*
X13065000Y-8885000D02*
X13035000Y-8915000D01*
X13035000Y-9085000D02*
X13065000Y-9115000D01*
X13065000Y-9085000D02*
X13035000Y-9115000D01*
X13035000Y-9485000D02*
X13065000Y-9515000D01*
X13065000Y-9485000D02*
X13035000Y-9515000D01*
X13035000Y-9685000D02*
X13065000Y-9715000D01*
X13065000Y-9685000D02*
X13035000Y-9715000D01*
X13103500Y-8676009D02*
X13133500Y-8706009D01*
X13133500Y-8676009D02*
X13103500Y-8706009D01*
X13103500Y-8746009D02*
X13133500Y-8776009D01*
X13133500Y-8746009D02*
X13103500Y-8776009D01*
X13103500Y-9223000D02*
X13133500Y-9253000D01*
X13133500Y-9223000D02*
X13103500Y-9253000D01*
X13103500Y-9293000D02*
X13133500Y-9323000D01*
X13133500Y-9293000D02*
X13103500Y-9323000D01*
X13175000Y-8905000D02*
X13205000Y-8935000D01*
X13205000Y-8905000D02*
X13175000Y-8935000D01*
X13175000Y-8985000D02*
X13205000Y-9015000D01*
X13205000Y-8985000D02*
X13175000Y-9015000D01*
X13175000Y-9065000D02*
X13205000Y-9095000D01*
X13205000Y-9065000D02*
X13175000Y-9095000D01*
X13263000Y-8492000D02*
X13293000Y-8522000D01*
X13293000Y-8492000D02*
X13263000Y-8522000D01*
X13263000Y-9037000D02*
X13293000Y-9067000D01*
X13293000Y-9037000D02*
X13263000Y-9067000D01*
X13404000Y-9555000D02*
X13434000Y-9585000D01*
X13434000Y-9555000D02*
X13404000Y-9585000D01*
X13411000Y-8400000D02*
X13441000Y-8430000D01*
X13441000Y-8400000D02*
X13411000Y-8430000D01*
X13475000Y-10105000D02*
X13505000Y-10135000D01*
X13505000Y-10105000D02*
X13475000Y-10135000D01*
X13500000Y-9032000D02*
X13530000Y-9062000D01*
X13530000Y-9032000D02*
X13500000Y-9062000D01*
X13537000Y-8560000D02*
X13567000Y-8590000D01*
X13567000Y-8560000D02*
X13537000Y-8590000D01*
X13555000Y-8905000D02*
X13585000Y-8935000D01*
X13585000Y-8905000D02*
X13555000Y-8935000D01*
X13555000Y-9045000D02*
X13585000Y-9075000D01*
X13585000Y-9045000D02*
X13555000Y-9075000D01*
X13563000Y-7866000D02*
X13593000Y-7896000D01*
X13593000Y-7866000D02*
X13563000Y-7896000D01*
X13564000Y-7942000D02*
X13594000Y-7972000D01*
X13594000Y-7942000D02*
X13564000Y-7972000D01*
X13565000Y-8020000D02*
X13595000Y-8050000D01*
X13595000Y-8020000D02*
X13565000Y-8050000D01*
X13638000Y-7866000D02*
X13668000Y-7896000D01*
X13668000Y-7866000D02*
X13638000Y-7896000D01*
X13639000Y-7942000D02*
X13669000Y-7972000D01*
X13669000Y-7942000D02*
X13639000Y-7972000D01*
X13640000Y-8110000D02*
X13670000Y-8140000D01*
X13670000Y-8110000D02*
X13640000Y-8140000D01*
X13655000Y-8905000D02*
X13685000Y-8935000D01*
X13685000Y-8905000D02*
X13655000Y-8935000D01*
X13655000Y-9045000D02*
X13685000Y-9075000D01*
X13685000Y-9045000D02*
X13655000Y-9075000D01*
X13674000Y-9363000D02*
X13704000Y-9393000D01*
X13704000Y-9363000D02*
X13674000Y-9393000D01*
X13675000Y-10105000D02*
X13705000Y-10135000D01*
X13705000Y-10105000D02*
X13675000Y-10135000D01*
X13712000Y-7866000D02*
X13742000Y-7896000D01*
X13742000Y-7866000D02*
X13712000Y-7896000D01*
X13713000Y-7942000D02*
X13743000Y-7972000D01*
X13743000Y-7942000D02*
X13713000Y-7972000D01*
X13713000Y-8020000D02*
X13743000Y-8050000D01*
X13743000Y-8020000D02*
X13713000Y-8050000D01*
X13755000Y-8905000D02*
X13785000Y-8935000D01*
X13785000Y-8905000D02*
X13755000Y-8935000D01*
X13755000Y-9045000D02*
X13785000Y-9075000D01*
X13785000Y-9045000D02*
X13755000Y-9075000D01*
X13773000Y-9284000D02*
X13803000Y-9314000D01*
X13803000Y-9284000D02*
X13773000Y-9314000D01*
X13792238Y-8715091D02*
X13822238Y-8745091D01*
X13822238Y-8715091D02*
X13792238Y-8745091D01*
X13793000Y-8631000D02*
X13823000Y-8661000D01*
X13823000Y-8631000D02*
X13793000Y-8661000D01*
X13814309Y-9346599D02*
X13844309Y-9376599D01*
X13844309Y-9346599D02*
X13814309Y-9376599D01*
X13825000Y-9962750D02*
X13855000Y-9992750D01*
X13855000Y-9962750D02*
X13825000Y-9992750D01*
X13871995Y-9376555D02*
X13901995Y-9406555D01*
X13901995Y-9376555D02*
X13871995Y-9406555D01*
X13875000Y-10105000D02*
X13905000Y-10135000D01*
X13905000Y-10105000D02*
X13875000Y-10135000D01*
X13890000Y-9996000D02*
X13920000Y-10026000D01*
X13920000Y-9996000D02*
X13890000Y-10026000D01*
X13891000Y-8584000D02*
X13921000Y-8614000D01*
X13921000Y-8584000D02*
X13891000Y-8614000D01*
X13892000Y-8651000D02*
X13922000Y-8681000D01*
X13922000Y-8651000D02*
X13892000Y-8681000D01*
X13957000Y-9453000D02*
X13987000Y-9483000D01*
X13987000Y-9453000D02*
X13957000Y-9483000D01*
X13961000Y-8489000D02*
X13991000Y-8519000D01*
X13991000Y-8489000D02*
X13961000Y-8519000D01*
X13987500Y-9255789D02*
X14017500Y-9285789D01*
X14017500Y-9255789D02*
X13987500Y-9285789D01*
X14036000Y-8490000D02*
X14066000Y-8520000D01*
X14066000Y-8490000D02*
X14036000Y-8520000D01*
X14043000Y-8625000D02*
X14073000Y-8655000D01*
X14073000Y-8625000D02*
X14043000Y-8655000D01*
X14043000Y-8752000D02*
X14073000Y-8782000D01*
X14073000Y-8752000D02*
X14043000Y-8782000D01*
X14043000Y-8879000D02*
X14073000Y-8909000D01*
X14073000Y-8879000D02*
X14043000Y-8909000D01*
X14061000Y-9904000D02*
X14091000Y-9934000D01*
X14091000Y-9904000D02*
X14061000Y-9934000D01*
X14066355Y-9165645D02*
X14096355Y-9195645D01*
X14096355Y-9165645D02*
X14066355Y-9195645D01*
X14068645Y-9321355D02*
X14098645Y-9351355D01*
X14098645Y-9321355D02*
X14068645Y-9351355D01*
X14075000Y-10105000D02*
X14105000Y-10135000D01*
X14105000Y-10105000D02*
X14075000Y-10135000D01*
X14094000Y-7837000D02*
X14124000Y-7867000D01*
X14124000Y-7837000D02*
X14094000Y-7867000D01*
X14095000Y-7910000D02*
X14125000Y-7940000D01*
X14125000Y-7910000D02*
X14095000Y-7940000D01*
X14095000Y-7983000D02*
X14125000Y-8013000D01*
X14125000Y-7983000D02*
X14095000Y-8013000D01*
X14109000Y-8489000D02*
X14139000Y-8519000D01*
X14139000Y-8489000D02*
X14109000Y-8519000D01*
X14145000Y-8141000D02*
X14175000Y-8171000D01*
X14175000Y-8141000D02*
X14145000Y-8171000D01*
X14215000Y-9145000D02*
X14245000Y-9175000D01*
X14245000Y-9145000D02*
X14215000Y-9175000D01*
X14260000Y-7859000D02*
X14290000Y-7889000D01*
X14290000Y-7859000D02*
X14260000Y-7889000D01*
X14260000Y-8385000D02*
X14290000Y-8415000D01*
X14290000Y-8385000D02*
X14260000Y-8415000D01*
X14275000Y-8508000D02*
X14305000Y-8538000D01*
X14305000Y-8508000D02*
X14275000Y-8538000D01*
X14279000Y-9432000D02*
X14309000Y-9462000D01*
X14309000Y-9432000D02*
X14279000Y-9462000D01*
X14280000Y-9299819D02*
X14310000Y-9329819D01*
X14310000Y-9299819D02*
X14280000Y-9329819D01*
X14286000Y-10106000D02*
X14316000Y-10136000D01*
X14316000Y-10106000D02*
X14286000Y-10136000D01*
X14309999Y-7836084D02*
X14339999Y-7866084D01*
X14339999Y-7836084D02*
X14309999Y-7866084D01*
X14310000Y-8385000D02*
X14340000Y-8415000D01*
X14340000Y-8385000D02*
X14310000Y-8415000D01*
X14315000Y-9845000D02*
X14345000Y-9875000D01*
X14345000Y-9845000D02*
X14315000Y-9875000D01*
X14345000Y-8509000D02*
X14375000Y-8539000D01*
X14375000Y-8509000D02*
X14345000Y-8539000D01*
X14360000Y-8385000D02*
X14390000Y-8415000D01*
X14390000Y-8385000D02*
X14360000Y-8415000D01*
X14360031Y-7858927D02*
X14390031Y-7888927D01*
X14390031Y-7858927D02*
X14360031Y-7888927D01*
X14361000Y-10131000D02*
X14391000Y-10161000D01*
X14391000Y-10131000D02*
X14361000Y-10161000D01*
X14395000Y-9845000D02*
X14425000Y-9875000D01*
X14425000Y-9845000D02*
X14395000Y-9875000D01*
X14410053Y-7836062D02*
X14440053Y-7866062D01*
X14440053Y-7836062D02*
X14410053Y-7866062D01*
X14415000Y-10100000D02*
X14445000Y-10130000D01*
X14445000Y-10100000D02*
X14415000Y-10130000D01*
X14426430Y-8521424D02*
X14456430Y-8551424D01*
X14456430Y-8521424D02*
X14426430Y-8551424D01*
X14447500Y-8255800D02*
X14477500Y-8285800D01*
X14477500Y-8255800D02*
X14447500Y-8285800D01*
X14459000Y-10146000D02*
X14489000Y-10176000D01*
X14489000Y-10146000D02*
X14459000Y-10176000D01*
X14459667Y-7859798D02*
X14489667Y-7889798D01*
X14489667Y-7859798D02*
X14459667Y-7889798D01*
X14475000Y-9845000D02*
X14505000Y-9875000D01*
X14505000Y-9845000D02*
X14475000Y-9875000D01*
X14480251Y-9730251D02*
X14510251Y-9760251D01*
X14510251Y-9730251D02*
X14480251Y-9760251D01*
X14509805Y-7837186D02*
X14539805Y-7867186D01*
X14539805Y-7837186D02*
X14509805Y-7867186D01*
X14510774Y-10109259D02*
X14540774Y-10139259D01*
X14540774Y-10109259D02*
X14510774Y-10139259D01*
X14512000Y-9441000D02*
X14542000Y-9471000D01*
X14542000Y-9441000D02*
X14512000Y-9471000D01*
X14522500Y-8255800D02*
X14552500Y-8285800D01*
X14552500Y-8255800D02*
X14522500Y-8285800D01*
X14529749Y-9779749D02*
X14559749Y-9809749D01*
X14559749Y-9779749D02*
X14529749Y-9809749D01*
X14548576Y-8521424D02*
X14578576Y-8551424D01*
X14578576Y-8521424D02*
X14548576Y-8551424D01*
X14560806Y-10132102D02*
X14590806Y-10162102D01*
X14590806Y-10132102D02*
X14560806Y-10162102D01*
X14561000Y-7859000D02*
X14591000Y-7889000D01*
X14591000Y-7859000D02*
X14561000Y-7889000D01*
X14593000Y-8637000D02*
X14623000Y-8667000D01*
X14623000Y-8637000D02*
X14593000Y-8667000D01*
X14605000Y-9434000D02*
X14635000Y-9464000D01*
X14635000Y-9434000D02*
X14605000Y-9464000D01*
X14607000Y-9786000D02*
X14637000Y-9816000D01*
X14637000Y-9786000D02*
X14607000Y-9816000D01*
X14610805Y-10109186D02*
X14640805Y-10139186D01*
X14640805Y-10109186D02*
X14610805Y-10139186D01*
X14610999Y-7836084D02*
X14640999Y-7866084D01*
X14640999Y-7836084D02*
X14610999Y-7866084D01*
X14659000Y-10137000D02*
X14689000Y-10167000D01*
X14689000Y-10137000D02*
X14659000Y-10167000D01*
X14661031Y-7858927D02*
X14691031Y-7888927D01*
X14691031Y-7858927D02*
X14661031Y-7888927D01*
X14664000Y-9323250D02*
X14694000Y-9353250D01*
X14694000Y-9323250D02*
X14664000Y-9353250D01*
X14710137Y-10108388D02*
X14740137Y-10138388D01*
X14740137Y-10108388D02*
X14710137Y-10138388D01*
X14711053Y-7836062D02*
X14741053Y-7866062D01*
X14741053Y-7836062D02*
X14711053Y-7866062D01*
X14754000Y-8752000D02*
X14784000Y-8782000D01*
X14784000Y-8752000D02*
X14754000Y-8782000D01*
X14759752Y-10132124D02*
X14789752Y-10162124D01*
X14789752Y-10132124D02*
X14759752Y-10162124D01*
X14760568Y-8879000D02*
X14790568Y-8909000D01*
X14790568Y-8879000D02*
X14760568Y-8909000D01*
X14760667Y-7859798D02*
X14790667Y-7889798D01*
X14790667Y-7859798D02*
X14760667Y-7889798D01*
X14790000Y-9023000D02*
X14820000Y-9053000D01*
X14820000Y-9023000D02*
X14790000Y-9053000D01*
X14809774Y-10109259D02*
X14839774Y-10139259D01*
X14839774Y-10109259D02*
X14809774Y-10139259D01*
X14812000Y-7832000D02*
X14842000Y-7862000D01*
X14842000Y-7832000D02*
X14812000Y-7862000D01*
X14830000Y-9684289D02*
X14860000Y-9714289D01*
X14860000Y-9684289D02*
X14830000Y-9714289D01*
X14840000Y-9806467D02*
X14870000Y-9836467D01*
X14870000Y-9806467D02*
X14840000Y-9836467D01*
X14840000Y-9751467D02*
X14870000Y-9781467D01*
X14870000Y-9751467D02*
X14840000Y-9781467D01*
X14859806Y-10132102D02*
X14889806Y-10162102D01*
X14889806Y-10132102D02*
X14859806Y-10162102D01*
X14860000Y-7859000D02*
X14890000Y-7889000D01*
X14890000Y-7859000D02*
X14860000Y-7889000D01*
X14875000Y-9185000D02*
X14905000Y-9215000D01*
X14905000Y-9185000D02*
X14875000Y-9215000D01*
X14883000Y-9116000D02*
X14913000Y-9146000D01*
X14913000Y-9116000D02*
X14883000Y-9146000D01*
X14909805Y-10109186D02*
X14939805Y-10139186D01*
X14939805Y-10109186D02*
X14909805Y-10139186D01*
X14909999Y-7836084D02*
X14939999Y-7866084D01*
X14939999Y-7836084D02*
X14909999Y-7866084D01*
X14915000Y-9450000D02*
X14945000Y-9480000D01*
X14945000Y-9450000D02*
X14915000Y-9480000D01*
X14917000Y-9246500D02*
X14947000Y-9276500D01*
X14947000Y-9246500D02*
X14917000Y-9276500D01*
X14917000Y-9311500D02*
X14947000Y-9341500D01*
X14947000Y-9311500D02*
X14917000Y-9341500D01*
X14960031Y-7858927D02*
X14990031Y-7888927D01*
X14990031Y-7858927D02*
X14960031Y-7888927D01*
X14961000Y-10131000D02*
X14991000Y-10161000D01*
X14991000Y-10131000D02*
X14961000Y-10161000D01*
X15010053Y-7836062D02*
X15040053Y-7866062D01*
X15040053Y-7836062D02*
X15010053Y-7866062D01*
X15011137Y-10108388D02*
X15041137Y-10138388D01*
X15041137Y-10108388D02*
X15011137Y-10138388D01*
X15014749Y-9119000D02*
X15044749Y-9149000D01*
X15044749Y-9119000D02*
X15014749Y-9149000D01*
X15015383Y-9198393D02*
X15045383Y-9228393D01*
X15045383Y-9198393D02*
X15015383Y-9228393D01*
X15017000Y-8959000D02*
X15047000Y-8989000D01*
X15047000Y-8959000D02*
X15017000Y-8989000D01*
X15019251Y-8799000D02*
X15049251Y-8829000D01*
X15049251Y-8799000D02*
X15019251Y-8829000D01*
X15019251Y-8879000D02*
X15049251Y-8909000D01*
X15049251Y-8879000D02*
X15019251Y-8909000D01*
X15022000Y-8584000D02*
X15052000Y-8614000D01*
X15052000Y-8584000D02*
X15022000Y-8614000D01*
X15038000Y-8255000D02*
X15068000Y-8285000D01*
X15068000Y-8255000D02*
X15038000Y-8285000D01*
X15042999Y-9764426D02*
X15072999Y-9794426D01*
X15072999Y-9764426D02*
X15042999Y-9794426D01*
X15059667Y-7859798D02*
X15089667Y-7889798D01*
X15089667Y-7859798D02*
X15059667Y-7889798D01*
X15060752Y-10132124D02*
X15090752Y-10162124D01*
X15090752Y-10132124D02*
X15060752Y-10162124D01*
X15078000Y-9722000D02*
X15108000Y-9752000D01*
X15108000Y-9722000D02*
X15078000Y-9752000D01*
X15088431Y-9450000D02*
X15118431Y-9480000D01*
X15118431Y-9450000D02*
X15088431Y-9480000D01*
X15094749Y-9119000D02*
X15124749Y-9149000D01*
X15124749Y-9119000D02*
X15094749Y-9149000D01*
X15096986Y-9356765D02*
X15126986Y-9386765D01*
X15126986Y-9356765D02*
X15096986Y-9386765D01*
X15097000Y-9199304D02*
X15127000Y-9229304D01*
X15127000Y-9199304D02*
X15097000Y-9229304D01*
X15097000Y-8719000D02*
X15127000Y-8749000D01*
X15127000Y-8719000D02*
X15097000Y-8749000D01*
X15097000Y-8799000D02*
X15127000Y-8829000D01*
X15127000Y-8799000D02*
X15097000Y-8829000D01*
X15097000Y-8879000D02*
X15127000Y-8909000D01*
X15127000Y-8879000D02*
X15097000Y-8909000D01*
X15097000Y-8959000D02*
X15127000Y-8989000D01*
X15127000Y-8959000D02*
X15097000Y-8989000D01*
X15100000Y-8253000D02*
X15130000Y-8283000D01*
X15130000Y-8253000D02*
X15100000Y-8283000D01*
X15109805Y-7837186D02*
X15139805Y-7867186D01*
X15139805Y-7837186D02*
X15109805Y-7867186D01*
X15110774Y-10109259D02*
X15140774Y-10139259D01*
X15140774Y-10109259D02*
X15110774Y-10139259D01*
X15137000Y-8610000D02*
X15167000Y-8640000D01*
X15167000Y-8610000D02*
X15137000Y-8640000D01*
X15156098Y-8263000D02*
X15186098Y-8293000D01*
X15186098Y-8263000D02*
X15156098Y-8293000D01*
X15159701Y-7860325D02*
X15189701Y-7890325D01*
X15189701Y-7860325D02*
X15159701Y-7890325D01*
X15160806Y-10132102D02*
X15190806Y-10162102D01*
X15190806Y-10132102D02*
X15160806Y-10162102D01*
X15177000Y-8799000D02*
X15207000Y-8829000D01*
X15207000Y-8799000D02*
X15177000Y-8829000D01*
X15177000Y-9200111D02*
X15207000Y-9230111D01*
X15207000Y-9200111D02*
X15177000Y-9230111D01*
X15177000Y-9279000D02*
X15207000Y-9309000D01*
X15207000Y-9279000D02*
X15177000Y-9309000D01*
X15177000Y-9361251D02*
X15207000Y-9391251D01*
X15207000Y-9361251D02*
X15177000Y-9391251D01*
X15178109Y-9042462D02*
X15208109Y-9072462D01*
X15208109Y-9042462D02*
X15178109Y-9072462D01*
X15179251Y-9119000D02*
X15209251Y-9149000D01*
X15209251Y-9119000D02*
X15179251Y-9149000D01*
X15188000Y-9726000D02*
X15218000Y-9756000D01*
X15218000Y-9726000D02*
X15188000Y-9756000D01*
X15210015Y-7838110D02*
X15240015Y-7868110D01*
X15240015Y-7838110D02*
X15210015Y-7868110D01*
X15215000Y-8264000D02*
X15245000Y-8294000D01*
X15245000Y-8264000D02*
X15215000Y-8294000D01*
X15217000Y-8610000D02*
X15247000Y-8640000D01*
X15247000Y-8610000D02*
X15217000Y-8640000D01*
X15217000Y-9453000D02*
X15247000Y-9483000D01*
X15247000Y-9453000D02*
X15217000Y-9483000D01*
X15257000Y-8959000D02*
X15287000Y-8989000D01*
X15287000Y-8959000D02*
X15257000Y-8989000D01*
X15257000Y-9121251D02*
X15287000Y-9151251D01*
X15287000Y-9121251D02*
X15257000Y-9151251D01*
X15257000Y-9199000D02*
X15287000Y-9229000D01*
X15287000Y-9199000D02*
X15257000Y-9229000D01*
X15257500Y-9277500D02*
X15287500Y-9307500D01*
X15287500Y-9277500D02*
X15257500Y-9307500D01*
X15334749Y-8879000D02*
X15364749Y-8909000D01*
X15364749Y-8879000D02*
X15334749Y-8909000D01*
X15334749Y-8799000D02*
X15364749Y-8829000D01*
X15364749Y-8799000D02*
X15334749Y-8829000D01*
X15337000Y-8959000D02*
X15367000Y-8989000D01*
X15367000Y-8959000D02*
X15337000Y-8989000D01*
X15337000Y-9119000D02*
X15367000Y-9149000D01*
X15367000Y-9119000D02*
X15337000Y-9149000D01*
X15372134Y-9531122D02*
X15402134Y-9561122D01*
X15402134Y-9531122D02*
X15372134Y-9561122D01*
X15377000Y-8591000D02*
X15407000Y-8621000D01*
X15407000Y-8591000D02*
X15377000Y-8621000D01*
X15378000Y-9465000D02*
X15408000Y-9495000D01*
X15408000Y-9465000D02*
X15378000Y-9495000D01*
X15417000Y-8719000D02*
X15447000Y-8749000D01*
X15447000Y-8719000D02*
X15417000Y-8749000D01*
X15417000Y-8799000D02*
X15447000Y-8829000D01*
X15447000Y-8799000D02*
X15417000Y-8829000D01*
X15417000Y-8879000D02*
X15447000Y-8909000D01*
X15447000Y-8879000D02*
X15417000Y-8909000D01*
X15417000Y-8959000D02*
X15447000Y-8989000D01*
X15447000Y-8959000D02*
X15417000Y-8989000D01*
X15417000Y-9119000D02*
X15447000Y-9149000D01*
X15447000Y-9119000D02*
X15417000Y-9149000D01*
X15417000Y-9199000D02*
X15447000Y-9229000D01*
X15447000Y-9199000D02*
X15417000Y-9229000D01*
X15417000Y-9279000D02*
X15447000Y-9309000D01*
X15447000Y-9279000D02*
X15417000Y-9309000D01*
X15417000Y-9359000D02*
X15447000Y-9389000D01*
X15447000Y-9359000D02*
X15417000Y-9389000D01*
X15458000Y-9468000D02*
X15488000Y-9498000D01*
X15488000Y-9468000D02*
X15458000Y-9498000D01*
X15465241Y-9702000D02*
X15495241Y-9732000D01*
X15495241Y-9702000D02*
X15465241Y-9732000D01*
X15476000Y-9833000D02*
X15506000Y-9863000D01*
X15506000Y-9833000D02*
X15476000Y-9863000D01*
X15497000Y-8799000D02*
X15527000Y-8829000D01*
X15527000Y-8799000D02*
X15497000Y-8829000D01*
X15497000Y-8879000D02*
X15527000Y-8909000D01*
X15527000Y-8879000D02*
X15497000Y-8909000D01*
X15497000Y-8959000D02*
X15527000Y-8989000D01*
X15527000Y-8959000D02*
X15497000Y-8989000D01*
X15497000Y-9119000D02*
X15527000Y-9149000D01*
X15527000Y-9119000D02*
X15497000Y-9149000D01*
X15497000Y-9199000D02*
X15527000Y-9229000D01*
X15527000Y-9199000D02*
X15497000Y-9229000D01*
X15497000Y-9279000D02*
X15527000Y-9309000D01*
X15527000Y-9279000D02*
X15497000Y-9309000D01*
X15497000Y-9359000D02*
X15527000Y-9389000D01*
X15527000Y-9359000D02*
X15497000Y-9389000D01*
X15537000Y-8630000D02*
X15567000Y-8660000D01*
X15567000Y-8630000D02*
X15537000Y-8660000D01*
X15558217Y-8546382D02*
X15588217Y-8576382D01*
X15588217Y-8546382D02*
X15558217Y-8576382D01*
X15577000Y-8799000D02*
X15607000Y-8829000D01*
X15607000Y-8799000D02*
X15577000Y-8829000D01*
X15577000Y-8879000D02*
X15607000Y-8909000D01*
X15607000Y-8879000D02*
X15577000Y-8909000D01*
X15577000Y-9039000D02*
X15607000Y-9069000D01*
X15607000Y-9039000D02*
X15577000Y-9069000D01*
X15577000Y-9119000D02*
X15607000Y-9149000D01*
X15607000Y-9119000D02*
X15577000Y-9149000D01*
X15577000Y-9199000D02*
X15607000Y-9229000D01*
X15607000Y-9199000D02*
X15577000Y-9229000D01*
X15577000Y-9279000D02*
X15607000Y-9309000D01*
X15607000Y-9279000D02*
X15577000Y-9309000D01*
X15577000Y-9359000D02*
X15607000Y-9389000D01*
X15607000Y-9359000D02*
X15577000Y-9389000D01*
X15577000Y-9439000D02*
X15607000Y-9469000D01*
X15607000Y-9439000D02*
X15577000Y-9469000D01*
X15609815Y-8359135D02*
X15639815Y-8389135D01*
X15639815Y-8359135D02*
X15609815Y-8389135D01*
X15614000Y-8424000D02*
X15644000Y-8454000D01*
X15644000Y-8424000D02*
X15614000Y-8454000D01*
X15617000Y-8605000D02*
X15647000Y-8635000D01*
X15647000Y-8605000D02*
X15617000Y-8635000D01*
X15619000Y-8241000D02*
X15649000Y-8271000D01*
X15649000Y-8241000D02*
X15619000Y-8271000D01*
X15657000Y-9119000D02*
X15687000Y-9149000D01*
X15687000Y-9119000D02*
X15657000Y-9149000D01*
X15657000Y-8799000D02*
X15687000Y-8829000D01*
X15687000Y-8799000D02*
X15657000Y-8829000D01*
X15657000Y-8959000D02*
X15687000Y-8989000D01*
X15687000Y-8959000D02*
X15657000Y-8989000D01*
X15657000Y-9199000D02*
X15687000Y-9229000D01*
X15687000Y-9199000D02*
X15657000Y-9229000D01*
X15657000Y-9359000D02*
X15687000Y-9389000D01*
X15687000Y-9359000D02*
X15657000Y-9389000D01*
X15657000Y-9439000D02*
X15687000Y-9469000D01*
X15687000Y-9439000D02*
X15657000Y-9469000D01*
X15697000Y-8597000D02*
X15727000Y-8627000D01*
X15727000Y-8597000D02*
X15697000Y-8627000D01*
X15747000Y-9114000D02*
X15777000Y-9144000D01*
X15777000Y-9114000D02*
X15747000Y-9144000D01*
X15759000Y-7863000D02*
X15789000Y-7893000D01*
X15789000Y-7863000D02*
X15759000Y-7893000D01*
X15760000Y-7939000D02*
X15790000Y-7969000D01*
X15790000Y-7939000D02*
X15760000Y-7969000D01*
X15760000Y-8026000D02*
X15790000Y-8056000D01*
X15790000Y-8026000D02*
X15760000Y-8056000D01*
X15760000Y-8901000D02*
X15790000Y-8931000D01*
X15790000Y-8901000D02*
X15760000Y-8931000D01*
X15763000Y-9279092D02*
X15793000Y-9309092D01*
X15793000Y-9279092D02*
X15763000Y-9309092D01*
X15780000Y-8771000D02*
X15810000Y-8801000D01*
X15810000Y-8771000D02*
X15780000Y-8801000D01*
X15781000Y-9359000D02*
X15811000Y-9389000D01*
X15811000Y-9359000D02*
X15781000Y-9389000D01*
X15788000Y-9068000D02*
X15818000Y-9098000D01*
X15818000Y-9068000D02*
X15788000Y-9098000D01*
X15800000Y-8857000D02*
X15830000Y-8887000D01*
X15830000Y-8857000D02*
X15800000Y-8887000D01*
X15809000Y-8958000D02*
X15839000Y-8988000D01*
X15839000Y-8958000D02*
X15809000Y-8988000D01*
X15813000Y-9504000D02*
X15843000Y-9534000D01*
X15843000Y-9504000D02*
X15813000Y-9534000D01*
X15818000Y-8397000D02*
X15848000Y-8427000D01*
X15848000Y-8397000D02*
X15818000Y-8427000D01*
X15834000Y-7863000D02*
X15864000Y-7893000D01*
X15864000Y-7863000D02*
X15834000Y-7893000D01*
X15835000Y-7939000D02*
X15865000Y-7969000D01*
X15865000Y-7939000D02*
X15835000Y-7969000D01*
X15835000Y-9945000D02*
X15865000Y-9975000D01*
X15865000Y-9945000D02*
X15835000Y-9975000D01*
X15835573Y-8218875D02*
X15865573Y-8248875D01*
X15865573Y-8218875D02*
X15835573Y-8248875D01*
X15836000Y-9873000D02*
X15866000Y-9903000D01*
X15866000Y-9873000D02*
X15836000Y-9903000D01*
X15845000Y-9771000D02*
X15875000Y-9801000D01*
X15875000Y-9771000D02*
X15845000Y-9801000D01*
X15899000Y-8584000D02*
X15929000Y-8614000D01*
X15929000Y-8584000D02*
X15899000Y-8614000D01*
X15907000Y-9315000D02*
X15937000Y-9345000D01*
X15937000Y-9315000D02*
X15907000Y-9345000D01*
X15908000Y-7863000D02*
X15938000Y-7893000D01*
X15938000Y-7863000D02*
X15908000Y-7893000D01*
X15908000Y-8026000D02*
X15938000Y-8056000D01*
X15938000Y-8026000D02*
X15908000Y-8056000D01*
X15909000Y-7939000D02*
X15939000Y-7969000D01*
X15939000Y-7939000D02*
X15909000Y-7969000D01*
X15974000Y-8585000D02*
X16004000Y-8615000D01*
X16004000Y-8585000D02*
X15974000Y-8615000D01*
X15980000Y-8675000D02*
X16010000Y-8705000D01*
X16010000Y-8675000D02*
X15980000Y-8705000D01*
X16047000Y-8584000D02*
X16077000Y-8614000D01*
X16077000Y-8584000D02*
X16047000Y-8614000D01*
X16051000Y-8417000D02*
X16081000Y-8447000D01*
X16081000Y-8417000D02*
X16051000Y-8447000D01*
X16057500Y-8862000D02*
X16087500Y-8892000D01*
X16087500Y-8862000D02*
X16057500Y-8892000D01*
X16124000Y-8490000D02*
X16154000Y-8520000D01*
X16154000Y-8490000D02*
X16124000Y-8520000D01*
X16133000Y-8862000D02*
X16163000Y-8892000D01*
X16163000Y-8862000D02*
X16133000Y-8892000D01*
X16156000Y-9587000D02*
X16186000Y-9617000D01*
X16186000Y-9587000D02*
X16156000Y-9617000D01*
X16208500Y-8862000D02*
X16238500Y-8892000D01*
X16238500Y-8862000D02*
X16208500Y-8892000D01*
X16275000Y-9565000D02*
X16305000Y-9595000D01*
X16305000Y-9565000D02*
X16275000Y-9595000D01*
X16275000Y-9665000D02*
X16305000Y-9695000D01*
X16305000Y-9665000D02*
X16275000Y-9695000D01*
X16384000Y-9289000D02*
X16414000Y-9319000D01*
X16414000Y-9289000D02*
X16384000Y-9319000D01*
X16385000Y-9043000D02*
X16415000Y-9073000D01*
X16415000Y-9043000D02*
X16385000Y-9073000D01*
X16412500Y-9544000D02*
X16442500Y-9574000D01*
X16442500Y-9544000D02*
X16412500Y-9574000D01*
X16448000Y-9339000D02*
X16478000Y-9369000D01*
X16478000Y-9339000D02*
X16448000Y-9369000D01*
X13447000Y-8726009D02*
G75*
G02*
X13417000Y-8726009I-15000J0D01*
G01*
X13417000Y-8726009D02*
G75*
G02*
X13447000Y-8726009I15000J0D01*
G01*
X13447000Y-9273000D02*
G75*
G02*
X13417000Y-9273000I-15000J0D01*
G01*
X13417000Y-9273000D02*
G75*
G02*
X13447000Y-9273000I15000J0D01*
G01*
X13502000Y-8631009D02*
G75*
G02*
X13472000Y-8631009I-15000J0D01*
G01*
X13472000Y-8631009D02*
G75*
G02*
X13502000Y-8631009I15000J0D01*
G01*
X13502000Y-8821009D02*
G75*
G02*
X13472000Y-8821009I-15000J0D01*
G01*
X13472000Y-8821009D02*
G75*
G02*
X13502000Y-8821009I15000J0D01*
G01*
X13502000Y-9178000D02*
G75*
G02*
X13472000Y-9178000I-15000J0D01*
G01*
X13472000Y-9178000D02*
G75*
G02*
X13502000Y-9178000I15000J0D01*
G01*
X13502000Y-9368000D02*
G75*
G02*
X13472000Y-9368000I-15000J0D01*
G01*
X13472000Y-9368000D02*
G75*
G02*
X13502000Y-9368000I15000J0D01*
G01*
X13557000Y-8726009D02*
G75*
G02*
X13527000Y-8726009I-15000J0D01*
G01*
X13527000Y-8726009D02*
G75*
G02*
X13557000Y-8726009I15000J0D01*
G01*
X13557000Y-9273000D02*
G75*
G02*
X13527000Y-9273000I-15000J0D01*
G01*
X13527000Y-9273000D02*
G75*
G02*
X13557000Y-9273000I15000J0D01*
G01*
D13*
X13250000Y-7940000D02*
X13250000Y-8160000D01*
X13140000Y-8050000D02*
X13360000Y-8050000D01*
X13250000Y-9840000D02*
X13250000Y-10060000D01*
X13140000Y-9950000D02*
X13360000Y-9950000D01*
X16250000Y-7940000D02*
X16250000Y-8160000D01*
X16140000Y-8050000D02*
X16360000Y-8050000D01*
X16250000Y-9840000D02*
X16250000Y-10060000D01*
X16140000Y-9950000D02*
X16360000Y-9950000D01*
D11*
X13258277Y-10513984D02*
X13258277Y-10313984D01*
X13258277Y-10313984D02*
X13305896Y-10313984D01*
X13305896Y-10313984D02*
X13334467Y-10323508D01*
X13334467Y-10323508D02*
X13353515Y-10342555D01*
X13353515Y-10342555D02*
X13363039Y-10361603D01*
X13363039Y-10361603D02*
X13372562Y-10399698D01*
X13372562Y-10399698D02*
X13372562Y-10428270D01*
X13372562Y-10428270D02*
X13363039Y-10466365D01*
X13363039Y-10466365D02*
X13353515Y-10485412D01*
X13353515Y-10485412D02*
X13334467Y-10504460D01*
X13334467Y-10504460D02*
X13305896Y-10513984D01*
X13305896Y-10513984D02*
X13258277Y-10513984D01*
X13458277Y-10513984D02*
X13458277Y-10380650D01*
X13458277Y-10418746D02*
X13467801Y-10399698D01*
X13467801Y-10399698D02*
X13477324Y-10390174D01*
X13477324Y-10390174D02*
X13496372Y-10380650D01*
X13496372Y-10380650D02*
X13515420Y-10380650D01*
X13582086Y-10513984D02*
X13582086Y-10380650D01*
X13582086Y-10313984D02*
X13572562Y-10323508D01*
X13572562Y-10323508D02*
X13582086Y-10333031D01*
X13582086Y-10333031D02*
X13591610Y-10323508D01*
X13591610Y-10323508D02*
X13582086Y-10313984D01*
X13582086Y-10313984D02*
X13582086Y-10333031D01*
X13705896Y-10513984D02*
X13686848Y-10504460D01*
X13686848Y-10504460D02*
X13677324Y-10485412D01*
X13677324Y-10485412D02*
X13677324Y-10313984D01*
X13810658Y-10513984D02*
X13791610Y-10504460D01*
X13791610Y-10504460D02*
X13782086Y-10485412D01*
X13782086Y-10485412D02*
X13782086Y-10313984D01*
X14039229Y-10513984D02*
X14039229Y-10313984D01*
X14039229Y-10313984D02*
X14105896Y-10456841D01*
X14105896Y-10456841D02*
X14172562Y-10313984D01*
X14172562Y-10313984D02*
X14172562Y-10513984D01*
X14353515Y-10513984D02*
X14353515Y-10409222D01*
X14353515Y-10409222D02*
X14343991Y-10390174D01*
X14343991Y-10390174D02*
X14324943Y-10380650D01*
X14324943Y-10380650D02*
X14286848Y-10380650D01*
X14286848Y-10380650D02*
X14267801Y-10390174D01*
X14353515Y-10504460D02*
X14334467Y-10513984D01*
X14334467Y-10513984D02*
X14286848Y-10513984D01*
X14286848Y-10513984D02*
X14267801Y-10504460D01*
X14267801Y-10504460D02*
X14258277Y-10485412D01*
X14258277Y-10485412D02*
X14258277Y-10466365D01*
X14258277Y-10466365D02*
X14267801Y-10447317D01*
X14267801Y-10447317D02*
X14286848Y-10437793D01*
X14286848Y-10437793D02*
X14334467Y-10437793D01*
X14334467Y-10437793D02*
X14353515Y-10428270D01*
X14448753Y-10380650D02*
X14448753Y-10580650D01*
X14448753Y-10390174D02*
X14467801Y-10380650D01*
X14467801Y-10380650D02*
X14505896Y-10380650D01*
X14505896Y-10380650D02*
X14524943Y-10390174D01*
X14524943Y-10390174D02*
X14534467Y-10399698D01*
X14534467Y-10399698D02*
X14543991Y-10418746D01*
X14543991Y-10418746D02*
X14543991Y-10475889D01*
X14543991Y-10475889D02*
X14534467Y-10494936D01*
X14534467Y-10494936D02*
X14524943Y-10504460D01*
X14524943Y-10504460D02*
X14505896Y-10513984D01*
X14505896Y-10513984D02*
X14467801Y-10513984D01*
X14467801Y-10513984D02*
X14448753Y-10504460D01*
X14629705Y-10494936D02*
X14639229Y-10504460D01*
X14639229Y-10504460D02*
X14629705Y-10513984D01*
X14629705Y-10513984D02*
X14620182Y-10504460D01*
X14620182Y-10504460D02*
X14629705Y-10494936D01*
X14629705Y-10494936D02*
X14629705Y-10513984D01*
X14629705Y-10390174D02*
X14639229Y-10399698D01*
X14639229Y-10399698D02*
X14629705Y-10409222D01*
X14629705Y-10409222D02*
X14620182Y-10399698D01*
X14620182Y-10399698D02*
X14629705Y-10390174D01*
X14629705Y-10390174D02*
X14629705Y-10409222D01*
D12*
X12967500Y-10827500D02*
X12997500Y-10857500D01*
X12997500Y-10827500D02*
X12967500Y-10857500D01*
D11*
X13296372Y-10733984D02*
X13315420Y-10733984D01*
X13315420Y-10733984D02*
X13334467Y-10743508D01*
X13334467Y-10743508D02*
X13343991Y-10753031D01*
X13343991Y-10753031D02*
X13353515Y-10772079D01*
X13353515Y-10772079D02*
X13363039Y-10810174D01*
X13363039Y-10810174D02*
X13363039Y-10857793D01*
X13363039Y-10857793D02*
X13353515Y-10895889D01*
X13353515Y-10895889D02*
X13343991Y-10914936D01*
X13343991Y-10914936D02*
X13334467Y-10924460D01*
X13334467Y-10924460D02*
X13315420Y-10933984D01*
X13315420Y-10933984D02*
X13296372Y-10933984D01*
X13296372Y-10933984D02*
X13277324Y-10924460D01*
X13277324Y-10924460D02*
X13267801Y-10914936D01*
X13267801Y-10914936D02*
X13258277Y-10895889D01*
X13258277Y-10895889D02*
X13248753Y-10857793D01*
X13248753Y-10857793D02*
X13248753Y-10810174D01*
X13248753Y-10810174D02*
X13258277Y-10772079D01*
X13258277Y-10772079D02*
X13267801Y-10753031D01*
X13267801Y-10753031D02*
X13277324Y-10743508D01*
X13277324Y-10743508D02*
X13296372Y-10733984D01*
X13448753Y-10914936D02*
X13458277Y-10924460D01*
X13458277Y-10924460D02*
X13448753Y-10933984D01*
X13448753Y-10933984D02*
X13439229Y-10924460D01*
X13439229Y-10924460D02*
X13448753Y-10914936D01*
X13448753Y-10914936D02*
X13448753Y-10933984D01*
X13524943Y-10733984D02*
X13648753Y-10733984D01*
X13648753Y-10733984D02*
X13582086Y-10810174D01*
X13582086Y-10810174D02*
X13610658Y-10810174D01*
X13610658Y-10810174D02*
X13629705Y-10819698D01*
X13629705Y-10819698D02*
X13639229Y-10829222D01*
X13639229Y-10829222D02*
X13648753Y-10848270D01*
X13648753Y-10848270D02*
X13648753Y-10895889D01*
X13648753Y-10895889D02*
X13639229Y-10914936D01*
X13639229Y-10914936D02*
X13629705Y-10924460D01*
X13629705Y-10924460D02*
X13610658Y-10933984D01*
X13610658Y-10933984D02*
X13553515Y-10933984D01*
X13553515Y-10933984D02*
X13534467Y-10924460D01*
X13534467Y-10924460D02*
X13524943Y-10914936D01*
X13772562Y-10733984D02*
X13791610Y-10733984D01*
X13791610Y-10733984D02*
X13810658Y-10743508D01*
X13810658Y-10743508D02*
X13820182Y-10753031D01*
X13820182Y-10753031D02*
X13829705Y-10772079D01*
X13829705Y-10772079D02*
X13839229Y-10810174D01*
X13839229Y-10810174D02*
X13839229Y-10857793D01*
X13839229Y-10857793D02*
X13829705Y-10895889D01*
X13829705Y-10895889D02*
X13820182Y-10914936D01*
X13820182Y-10914936D02*
X13810658Y-10924460D01*
X13810658Y-10924460D02*
X13791610Y-10933984D01*
X13791610Y-10933984D02*
X13772562Y-10933984D01*
X13772562Y-10933984D02*
X13753515Y-10924460D01*
X13753515Y-10924460D02*
X13743991Y-10914936D01*
X13743991Y-10914936D02*
X13734467Y-10895889D01*
X13734467Y-10895889D02*
X13724943Y-10857793D01*
X13724943Y-10857793D02*
X13724943Y-10810174D01*
X13724943Y-10810174D02*
X13734467Y-10772079D01*
X13734467Y-10772079D02*
X13743991Y-10753031D01*
X13743991Y-10753031D02*
X13753515Y-10743508D01*
X13753515Y-10743508D02*
X13772562Y-10733984D01*
X13963039Y-10733984D02*
X13982086Y-10733984D01*
X13982086Y-10733984D02*
X14001134Y-10743508D01*
X14001134Y-10743508D02*
X14010658Y-10753031D01*
X14010658Y-10753031D02*
X14020182Y-10772079D01*
X14020182Y-10772079D02*
X14029705Y-10810174D01*
X14029705Y-10810174D02*
X14029705Y-10857793D01*
X14029705Y-10857793D02*
X14020182Y-10895889D01*
X14020182Y-10895889D02*
X14010658Y-10914936D01*
X14010658Y-10914936D02*
X14001134Y-10924460D01*
X14001134Y-10924460D02*
X13982086Y-10933984D01*
X13982086Y-10933984D02*
X13963039Y-10933984D01*
X13963039Y-10933984D02*
X13943991Y-10924460D01*
X13943991Y-10924460D02*
X13934467Y-10914936D01*
X13934467Y-10914936D02*
X13924943Y-10895889D01*
X13924943Y-10895889D02*
X13915420Y-10857793D01*
X13915420Y-10857793D02*
X13915420Y-10810174D01*
X13915420Y-10810174D02*
X13924943Y-10772079D01*
X13924943Y-10772079D02*
X13934467Y-10753031D01*
X13934467Y-10753031D02*
X13943991Y-10743508D01*
X13943991Y-10743508D02*
X13963039Y-10733984D01*
X14115420Y-10933984D02*
X14115420Y-10800650D01*
X14115420Y-10819698D02*
X14124943Y-10810174D01*
X14124943Y-10810174D02*
X14143991Y-10800650D01*
X14143991Y-10800650D02*
X14172563Y-10800650D01*
X14172563Y-10800650D02*
X14191610Y-10810174D01*
X14191610Y-10810174D02*
X14201134Y-10829222D01*
X14201134Y-10829222D02*
X14201134Y-10933984D01*
X14201134Y-10829222D02*
X14210658Y-10810174D01*
X14210658Y-10810174D02*
X14229705Y-10800650D01*
X14229705Y-10800650D02*
X14258277Y-10800650D01*
X14258277Y-10800650D02*
X14277324Y-10810174D01*
X14277324Y-10810174D02*
X14286848Y-10829222D01*
X14286848Y-10829222D02*
X14286848Y-10933984D01*
X14382086Y-10933984D02*
X14382086Y-10800650D01*
X14382086Y-10819698D02*
X14391610Y-10810174D01*
X14391610Y-10810174D02*
X14410658Y-10800650D01*
X14410658Y-10800650D02*
X14439229Y-10800650D01*
X14439229Y-10800650D02*
X14458277Y-10810174D01*
X14458277Y-10810174D02*
X14467801Y-10829222D01*
X14467801Y-10829222D02*
X14467801Y-10933984D01*
X14467801Y-10829222D02*
X14477324Y-10810174D01*
X14477324Y-10810174D02*
X14496372Y-10800650D01*
X14496372Y-10800650D02*
X14524943Y-10800650D01*
X14524943Y-10800650D02*
X14543991Y-10810174D01*
X14543991Y-10810174D02*
X14553515Y-10829222D01*
X14553515Y-10829222D02*
X14553515Y-10933984D01*
X14943991Y-10724460D02*
X14772563Y-10981603D01*
X15201134Y-10733984D02*
X15220182Y-10733984D01*
X15220182Y-10733984D02*
X15239229Y-10743508D01*
X15239229Y-10743508D02*
X15248753Y-10753031D01*
X15248753Y-10753031D02*
X15258277Y-10772079D01*
X15258277Y-10772079D02*
X15267801Y-10810174D01*
X15267801Y-10810174D02*
X15267801Y-10857793D01*
X15267801Y-10857793D02*
X15258277Y-10895889D01*
X15258277Y-10895889D02*
X15248753Y-10914936D01*
X15248753Y-10914936D02*
X15239229Y-10924460D01*
X15239229Y-10924460D02*
X15220182Y-10933984D01*
X15220182Y-10933984D02*
X15201134Y-10933984D01*
X15201134Y-10933984D02*
X15182086Y-10924460D01*
X15182086Y-10924460D02*
X15172563Y-10914936D01*
X15172563Y-10914936D02*
X15163039Y-10895889D01*
X15163039Y-10895889D02*
X15153515Y-10857793D01*
X15153515Y-10857793D02*
X15153515Y-10810174D01*
X15153515Y-10810174D02*
X15163039Y-10772079D01*
X15163039Y-10772079D02*
X15172563Y-10753031D01*
X15172563Y-10753031D02*
X15182086Y-10743508D01*
X15182086Y-10743508D02*
X15201134Y-10733984D01*
X15353515Y-10914936D02*
X15363039Y-10924460D01*
X15363039Y-10924460D02*
X15353515Y-10933984D01*
X15353515Y-10933984D02*
X15343991Y-10924460D01*
X15343991Y-10924460D02*
X15353515Y-10914936D01*
X15353515Y-10914936D02*
X15353515Y-10933984D01*
X15486848Y-10733984D02*
X15505896Y-10733984D01*
X15505896Y-10733984D02*
X15524944Y-10743508D01*
X15524944Y-10743508D02*
X15534467Y-10753031D01*
X15534467Y-10753031D02*
X15543991Y-10772079D01*
X15543991Y-10772079D02*
X15553515Y-10810174D01*
X15553515Y-10810174D02*
X15553515Y-10857793D01*
X15553515Y-10857793D02*
X15543991Y-10895889D01*
X15543991Y-10895889D02*
X15534467Y-10914936D01*
X15534467Y-10914936D02*
X15524944Y-10924460D01*
X15524944Y-10924460D02*
X15505896Y-10933984D01*
X15505896Y-10933984D02*
X15486848Y-10933984D01*
X15486848Y-10933984D02*
X15467801Y-10924460D01*
X15467801Y-10924460D02*
X15458277Y-10914936D01*
X15458277Y-10914936D02*
X15448753Y-10895889D01*
X15448753Y-10895889D02*
X15439229Y-10857793D01*
X15439229Y-10857793D02*
X15439229Y-10810174D01*
X15439229Y-10810174D02*
X15448753Y-10772079D01*
X15448753Y-10772079D02*
X15458277Y-10753031D01*
X15458277Y-10753031D02*
X15467801Y-10743508D01*
X15467801Y-10743508D02*
X15486848Y-10733984D01*
X15743991Y-10933984D02*
X15629706Y-10933984D01*
X15686848Y-10933984D02*
X15686848Y-10733984D01*
X15686848Y-10733984D02*
X15667801Y-10762555D01*
X15667801Y-10762555D02*
X15648753Y-10781603D01*
X15648753Y-10781603D02*
X15629706Y-10791127D01*
X15934467Y-10933984D02*
X15820182Y-10933984D01*
X15877325Y-10933984D02*
X15877325Y-10733984D01*
X15877325Y-10733984D02*
X15858277Y-10762555D01*
X15858277Y-10762555D02*
X15839229Y-10781603D01*
X15839229Y-10781603D02*
X15820182Y-10791127D01*
X16048753Y-10819698D02*
X16029706Y-10810174D01*
X16029706Y-10810174D02*
X16020182Y-10800650D01*
X16020182Y-10800650D02*
X16010658Y-10781603D01*
X16010658Y-10781603D02*
X16010658Y-10772079D01*
X16010658Y-10772079D02*
X16020182Y-10753031D01*
X16020182Y-10753031D02*
X16029706Y-10743508D01*
X16029706Y-10743508D02*
X16048753Y-10733984D01*
X16048753Y-10733984D02*
X16086848Y-10733984D01*
X16086848Y-10733984D02*
X16105896Y-10743508D01*
X16105896Y-10743508D02*
X16115420Y-10753031D01*
X16115420Y-10753031D02*
X16124944Y-10772079D01*
X16124944Y-10772079D02*
X16124944Y-10781603D01*
X16124944Y-10781603D02*
X16115420Y-10800650D01*
X16115420Y-10800650D02*
X16105896Y-10810174D01*
X16105896Y-10810174D02*
X16086848Y-10819698D01*
X16086848Y-10819698D02*
X16048753Y-10819698D01*
X16048753Y-10819698D02*
X16029706Y-10829222D01*
X16029706Y-10829222D02*
X16020182Y-10838746D01*
X16020182Y-10838746D02*
X16010658Y-10857793D01*
X16010658Y-10857793D02*
X16010658Y-10895889D01*
X16010658Y-10895889D02*
X16020182Y-10914936D01*
X16020182Y-10914936D02*
X16029706Y-10924460D01*
X16029706Y-10924460D02*
X16048753Y-10933984D01*
X16048753Y-10933984D02*
X16086848Y-10933984D01*
X16086848Y-10933984D02*
X16105896Y-10924460D01*
X16105896Y-10924460D02*
X16115420Y-10914936D01*
X16115420Y-10914936D02*
X16124944Y-10895889D01*
X16124944Y-10895889D02*
X16124944Y-10857793D01*
X16124944Y-10857793D02*
X16115420Y-10838746D01*
X16115420Y-10838746D02*
X16105896Y-10829222D01*
X16105896Y-10829222D02*
X16086848Y-10819698D01*
X16201134Y-10733984D02*
X16201134Y-10772079D01*
X16277325Y-10733984D02*
X16277325Y-10772079D01*
X16572563Y-11010174D02*
X16563039Y-11000650D01*
X16563039Y-11000650D02*
X16543991Y-10972079D01*
X16543991Y-10972079D02*
X16534468Y-10953031D01*
X16534468Y-10953031D02*
X16524944Y-10924460D01*
X16524944Y-10924460D02*
X16515420Y-10876841D01*
X16515420Y-10876841D02*
X16515420Y-10838746D01*
X16515420Y-10838746D02*
X16524944Y-10791127D01*
X16524944Y-10791127D02*
X16534468Y-10762555D01*
X16534468Y-10762555D02*
X16543991Y-10743508D01*
X16543991Y-10743508D02*
X16563039Y-10714936D01*
X16563039Y-10714936D02*
X16572563Y-10705412D01*
X16639229Y-10753031D02*
X16648753Y-10743508D01*
X16648753Y-10743508D02*
X16667801Y-10733984D01*
X16667801Y-10733984D02*
X16715420Y-10733984D01*
X16715420Y-10733984D02*
X16734468Y-10743508D01*
X16734468Y-10743508D02*
X16743991Y-10753031D01*
X16743991Y-10753031D02*
X16753515Y-10772079D01*
X16753515Y-10772079D02*
X16753515Y-10791127D01*
X16753515Y-10791127D02*
X16743991Y-10819698D01*
X16743991Y-10819698D02*
X16629706Y-10933984D01*
X16629706Y-10933984D02*
X16753515Y-10933984D01*
X16934468Y-10733984D02*
X16839230Y-10733984D01*
X16839230Y-10733984D02*
X16829706Y-10829222D01*
X16829706Y-10829222D02*
X16839230Y-10819698D01*
X16839230Y-10819698D02*
X16858277Y-10810174D01*
X16858277Y-10810174D02*
X16905896Y-10810174D01*
X16905896Y-10810174D02*
X16924944Y-10819698D01*
X16924944Y-10819698D02*
X16934468Y-10829222D01*
X16934468Y-10829222D02*
X16943991Y-10848270D01*
X16943991Y-10848270D02*
X16943991Y-10895889D01*
X16943991Y-10895889D02*
X16934468Y-10914936D01*
X16934468Y-10914936D02*
X16924944Y-10924460D01*
X16924944Y-10924460D02*
X16905896Y-10933984D01*
X16905896Y-10933984D02*
X16858277Y-10933984D01*
X16858277Y-10933984D02*
X16839230Y-10924460D01*
X16839230Y-10924460D02*
X16829706Y-10914936D01*
X17010658Y-10733984D02*
X17134468Y-10733984D01*
X17134468Y-10733984D02*
X17067801Y-10810174D01*
X17067801Y-10810174D02*
X17096372Y-10810174D01*
X17096372Y-10810174D02*
X17115420Y-10819698D01*
X17115420Y-10819698D02*
X17124944Y-10829222D01*
X17124944Y-10829222D02*
X17134468Y-10848270D01*
X17134468Y-10848270D02*
X17134468Y-10895889D01*
X17134468Y-10895889D02*
X17124944Y-10914936D01*
X17124944Y-10914936D02*
X17115420Y-10924460D01*
X17115420Y-10924460D02*
X17096372Y-10933984D01*
X17096372Y-10933984D02*
X17039230Y-10933984D01*
X17039230Y-10933984D02*
X17020182Y-10924460D01*
X17020182Y-10924460D02*
X17010658Y-10914936D01*
X17372563Y-10933984D02*
X17372563Y-10733984D01*
X17458277Y-10933984D02*
X17458277Y-10829222D01*
X17458277Y-10829222D02*
X17448753Y-10810174D01*
X17448753Y-10810174D02*
X17429706Y-10800650D01*
X17429706Y-10800650D02*
X17401134Y-10800650D01*
X17401134Y-10800650D02*
X17382087Y-10810174D01*
X17382087Y-10810174D02*
X17372563Y-10819698D01*
X17582087Y-10933984D02*
X17563039Y-10924460D01*
X17563039Y-10924460D02*
X17553515Y-10914936D01*
X17553515Y-10914936D02*
X17543992Y-10895889D01*
X17543992Y-10895889D02*
X17543992Y-10838746D01*
X17543992Y-10838746D02*
X17553515Y-10819698D01*
X17553515Y-10819698D02*
X17563039Y-10810174D01*
X17563039Y-10810174D02*
X17582087Y-10800650D01*
X17582087Y-10800650D02*
X17610658Y-10800650D01*
X17610658Y-10800650D02*
X17629706Y-10810174D01*
X17629706Y-10810174D02*
X17639230Y-10819698D01*
X17639230Y-10819698D02*
X17648753Y-10838746D01*
X17648753Y-10838746D02*
X17648753Y-10895889D01*
X17648753Y-10895889D02*
X17639230Y-10914936D01*
X17639230Y-10914936D02*
X17629706Y-10924460D01*
X17629706Y-10924460D02*
X17610658Y-10933984D01*
X17610658Y-10933984D02*
X17582087Y-10933984D01*
X17763039Y-10933984D02*
X17743992Y-10924460D01*
X17743992Y-10924460D02*
X17734468Y-10905412D01*
X17734468Y-10905412D02*
X17734468Y-10733984D01*
X17915420Y-10924460D02*
X17896373Y-10933984D01*
X17896373Y-10933984D02*
X17858277Y-10933984D01*
X17858277Y-10933984D02*
X17839230Y-10924460D01*
X17839230Y-10924460D02*
X17829706Y-10905412D01*
X17829706Y-10905412D02*
X17829706Y-10829222D01*
X17829706Y-10829222D02*
X17839230Y-10810174D01*
X17839230Y-10810174D02*
X17858277Y-10800650D01*
X17858277Y-10800650D02*
X17896373Y-10800650D01*
X17896373Y-10800650D02*
X17915420Y-10810174D01*
X17915420Y-10810174D02*
X17924944Y-10829222D01*
X17924944Y-10829222D02*
X17924944Y-10848270D01*
X17924944Y-10848270D02*
X17829706Y-10867317D01*
X18001134Y-10924460D02*
X18020182Y-10933984D01*
X18020182Y-10933984D02*
X18058277Y-10933984D01*
X18058277Y-10933984D02*
X18077325Y-10924460D01*
X18077325Y-10924460D02*
X18086849Y-10905412D01*
X18086849Y-10905412D02*
X18086849Y-10895889D01*
X18086849Y-10895889D02*
X18077325Y-10876841D01*
X18077325Y-10876841D02*
X18058277Y-10867317D01*
X18058277Y-10867317D02*
X18029706Y-10867317D01*
X18029706Y-10867317D02*
X18010658Y-10857793D01*
X18010658Y-10857793D02*
X18001134Y-10838746D01*
X18001134Y-10838746D02*
X18001134Y-10829222D01*
X18001134Y-10829222D02*
X18010658Y-10810174D01*
X18010658Y-10810174D02*
X18029706Y-10800650D01*
X18029706Y-10800650D02*
X18058277Y-10800650D01*
X18058277Y-10800650D02*
X18077325Y-10810174D01*
X18153515Y-11010174D02*
X18163039Y-11000650D01*
X18163039Y-11000650D02*
X18182087Y-10972079D01*
X18182087Y-10972079D02*
X18191611Y-10953031D01*
X18191611Y-10953031D02*
X18201134Y-10924460D01*
X18201134Y-10924460D02*
X18210658Y-10876841D01*
X18210658Y-10876841D02*
X18210658Y-10838746D01*
X18210658Y-10838746D02*
X18201134Y-10791127D01*
X18201134Y-10791127D02*
X18191611Y-10762555D01*
X18191611Y-10762555D02*
X18182087Y-10743508D01*
X18182087Y-10743508D02*
X18163039Y-10714936D01*
X18163039Y-10714936D02*
X18153515Y-10705412D01*
D12*
X12997500Y-11106500D02*
G75*
G02*
X12967500Y-11106500I-15000J0D01*
G01*
X12967500Y-11106500D02*
G75*
G02*
X12997500Y-11106500I15000J0D01*
G01*
D11*
X13296372Y-10997984D02*
X13315420Y-10997984D01*
X13315420Y-10997984D02*
X13334467Y-11007508D01*
X13334467Y-11007508D02*
X13343991Y-11017031D01*
X13343991Y-11017031D02*
X13353515Y-11036079D01*
X13353515Y-11036079D02*
X13363039Y-11074174D01*
X13363039Y-11074174D02*
X13363039Y-11121793D01*
X13363039Y-11121793D02*
X13353515Y-11159889D01*
X13353515Y-11159889D02*
X13343991Y-11178936D01*
X13343991Y-11178936D02*
X13334467Y-11188460D01*
X13334467Y-11188460D02*
X13315420Y-11197984D01*
X13315420Y-11197984D02*
X13296372Y-11197984D01*
X13296372Y-11197984D02*
X13277324Y-11188460D01*
X13277324Y-11188460D02*
X13267801Y-11178936D01*
X13267801Y-11178936D02*
X13258277Y-11159889D01*
X13258277Y-11159889D02*
X13248753Y-11121793D01*
X13248753Y-11121793D02*
X13248753Y-11074174D01*
X13248753Y-11074174D02*
X13258277Y-11036079D01*
X13258277Y-11036079D02*
X13267801Y-11017031D01*
X13267801Y-11017031D02*
X13277324Y-11007508D01*
X13277324Y-11007508D02*
X13296372Y-10997984D01*
X13448753Y-11178936D02*
X13458277Y-11188460D01*
X13458277Y-11188460D02*
X13448753Y-11197984D01*
X13448753Y-11197984D02*
X13439229Y-11188460D01*
X13439229Y-11188460D02*
X13448753Y-11178936D01*
X13448753Y-11178936D02*
X13448753Y-11197984D01*
X13524943Y-10997984D02*
X13648753Y-10997984D01*
X13648753Y-10997984D02*
X13582086Y-11074174D01*
X13582086Y-11074174D02*
X13610658Y-11074174D01*
X13610658Y-11074174D02*
X13629705Y-11083698D01*
X13629705Y-11083698D02*
X13639229Y-11093222D01*
X13639229Y-11093222D02*
X13648753Y-11112270D01*
X13648753Y-11112270D02*
X13648753Y-11159889D01*
X13648753Y-11159889D02*
X13639229Y-11178936D01*
X13639229Y-11178936D02*
X13629705Y-11188460D01*
X13629705Y-11188460D02*
X13610658Y-11197984D01*
X13610658Y-11197984D02*
X13553515Y-11197984D01*
X13553515Y-11197984D02*
X13534467Y-11188460D01*
X13534467Y-11188460D02*
X13524943Y-11178936D01*
X13772562Y-10997984D02*
X13791610Y-10997984D01*
X13791610Y-10997984D02*
X13810658Y-11007508D01*
X13810658Y-11007508D02*
X13820182Y-11017031D01*
X13820182Y-11017031D02*
X13829705Y-11036079D01*
X13829705Y-11036079D02*
X13839229Y-11074174D01*
X13839229Y-11074174D02*
X13839229Y-11121793D01*
X13839229Y-11121793D02*
X13829705Y-11159889D01*
X13829705Y-11159889D02*
X13820182Y-11178936D01*
X13820182Y-11178936D02*
X13810658Y-11188460D01*
X13810658Y-11188460D02*
X13791610Y-11197984D01*
X13791610Y-11197984D02*
X13772562Y-11197984D01*
X13772562Y-11197984D02*
X13753515Y-11188460D01*
X13753515Y-11188460D02*
X13743991Y-11178936D01*
X13743991Y-11178936D02*
X13734467Y-11159889D01*
X13734467Y-11159889D02*
X13724943Y-11121793D01*
X13724943Y-11121793D02*
X13724943Y-11074174D01*
X13724943Y-11074174D02*
X13734467Y-11036079D01*
X13734467Y-11036079D02*
X13743991Y-11017031D01*
X13743991Y-11017031D02*
X13753515Y-11007508D01*
X13753515Y-11007508D02*
X13772562Y-10997984D01*
X13963039Y-10997984D02*
X13982086Y-10997984D01*
X13982086Y-10997984D02*
X14001134Y-11007508D01*
X14001134Y-11007508D02*
X14010658Y-11017031D01*
X14010658Y-11017031D02*
X14020182Y-11036079D01*
X14020182Y-11036079D02*
X14029705Y-11074174D01*
X14029705Y-11074174D02*
X14029705Y-11121793D01*
X14029705Y-11121793D02*
X14020182Y-11159889D01*
X14020182Y-11159889D02*
X14010658Y-11178936D01*
X14010658Y-11178936D02*
X14001134Y-11188460D01*
X14001134Y-11188460D02*
X13982086Y-11197984D01*
X13982086Y-11197984D02*
X13963039Y-11197984D01*
X13963039Y-11197984D02*
X13943991Y-11188460D01*
X13943991Y-11188460D02*
X13934467Y-11178936D01*
X13934467Y-11178936D02*
X13924943Y-11159889D01*
X13924943Y-11159889D02*
X13915420Y-11121793D01*
X13915420Y-11121793D02*
X13915420Y-11074174D01*
X13915420Y-11074174D02*
X13924943Y-11036079D01*
X13924943Y-11036079D02*
X13934467Y-11017031D01*
X13934467Y-11017031D02*
X13943991Y-11007508D01*
X13943991Y-11007508D02*
X13963039Y-10997984D01*
X14115420Y-11197984D02*
X14115420Y-11064650D01*
X14115420Y-11083698D02*
X14124943Y-11074174D01*
X14124943Y-11074174D02*
X14143991Y-11064650D01*
X14143991Y-11064650D02*
X14172563Y-11064650D01*
X14172563Y-11064650D02*
X14191610Y-11074174D01*
X14191610Y-11074174D02*
X14201134Y-11093222D01*
X14201134Y-11093222D02*
X14201134Y-11197984D01*
X14201134Y-11093222D02*
X14210658Y-11074174D01*
X14210658Y-11074174D02*
X14229705Y-11064650D01*
X14229705Y-11064650D02*
X14258277Y-11064650D01*
X14258277Y-11064650D02*
X14277324Y-11074174D01*
X14277324Y-11074174D02*
X14286848Y-11093222D01*
X14286848Y-11093222D02*
X14286848Y-11197984D01*
X14382086Y-11197984D02*
X14382086Y-11064650D01*
X14382086Y-11083698D02*
X14391610Y-11074174D01*
X14391610Y-11074174D02*
X14410658Y-11064650D01*
X14410658Y-11064650D02*
X14439229Y-11064650D01*
X14439229Y-11064650D02*
X14458277Y-11074174D01*
X14458277Y-11074174D02*
X14467801Y-11093222D01*
X14467801Y-11093222D02*
X14467801Y-11197984D01*
X14467801Y-11093222D02*
X14477324Y-11074174D01*
X14477324Y-11074174D02*
X14496372Y-11064650D01*
X14496372Y-11064650D02*
X14524943Y-11064650D01*
X14524943Y-11064650D02*
X14543991Y-11074174D01*
X14543991Y-11074174D02*
X14553515Y-11093222D01*
X14553515Y-11093222D02*
X14553515Y-11197984D01*
X14943991Y-10988460D02*
X14772563Y-11245603D01*
X15201134Y-10997984D02*
X15220182Y-10997984D01*
X15220182Y-10997984D02*
X15239229Y-11007508D01*
X15239229Y-11007508D02*
X15248753Y-11017031D01*
X15248753Y-11017031D02*
X15258277Y-11036079D01*
X15258277Y-11036079D02*
X15267801Y-11074174D01*
X15267801Y-11074174D02*
X15267801Y-11121793D01*
X15267801Y-11121793D02*
X15258277Y-11159889D01*
X15258277Y-11159889D02*
X15248753Y-11178936D01*
X15248753Y-11178936D02*
X15239229Y-11188460D01*
X15239229Y-11188460D02*
X15220182Y-11197984D01*
X15220182Y-11197984D02*
X15201134Y-11197984D01*
X15201134Y-11197984D02*
X15182086Y-11188460D01*
X15182086Y-11188460D02*
X15172563Y-11178936D01*
X15172563Y-11178936D02*
X15163039Y-11159889D01*
X15163039Y-11159889D02*
X15153515Y-11121793D01*
X15153515Y-11121793D02*
X15153515Y-11074174D01*
X15153515Y-11074174D02*
X15163039Y-11036079D01*
X15163039Y-11036079D02*
X15172563Y-11017031D01*
X15172563Y-11017031D02*
X15182086Y-11007508D01*
X15182086Y-11007508D02*
X15201134Y-10997984D01*
X15353515Y-11178936D02*
X15363039Y-11188460D01*
X15363039Y-11188460D02*
X15353515Y-11197984D01*
X15353515Y-11197984D02*
X15343991Y-11188460D01*
X15343991Y-11188460D02*
X15353515Y-11178936D01*
X15353515Y-11178936D02*
X15353515Y-11197984D01*
X15486848Y-10997984D02*
X15505896Y-10997984D01*
X15505896Y-10997984D02*
X15524944Y-11007508D01*
X15524944Y-11007508D02*
X15534467Y-11017031D01*
X15534467Y-11017031D02*
X15543991Y-11036079D01*
X15543991Y-11036079D02*
X15553515Y-11074174D01*
X15553515Y-11074174D02*
X15553515Y-11121793D01*
X15553515Y-11121793D02*
X15543991Y-11159889D01*
X15543991Y-11159889D02*
X15534467Y-11178936D01*
X15534467Y-11178936D02*
X15524944Y-11188460D01*
X15524944Y-11188460D02*
X15505896Y-11197984D01*
X15505896Y-11197984D02*
X15486848Y-11197984D01*
X15486848Y-11197984D02*
X15467801Y-11188460D01*
X15467801Y-11188460D02*
X15458277Y-11178936D01*
X15458277Y-11178936D02*
X15448753Y-11159889D01*
X15448753Y-11159889D02*
X15439229Y-11121793D01*
X15439229Y-11121793D02*
X15439229Y-11074174D01*
X15439229Y-11074174D02*
X15448753Y-11036079D01*
X15448753Y-11036079D02*
X15458277Y-11017031D01*
X15458277Y-11017031D02*
X15467801Y-11007508D01*
X15467801Y-11007508D02*
X15486848Y-10997984D01*
X15743991Y-11197984D02*
X15629706Y-11197984D01*
X15686848Y-11197984D02*
X15686848Y-10997984D01*
X15686848Y-10997984D02*
X15667801Y-11026555D01*
X15667801Y-11026555D02*
X15648753Y-11045603D01*
X15648753Y-11045603D02*
X15629706Y-11055127D01*
X15934467Y-11197984D02*
X15820182Y-11197984D01*
X15877325Y-11197984D02*
X15877325Y-10997984D01*
X15877325Y-10997984D02*
X15858277Y-11026555D01*
X15858277Y-11026555D02*
X15839229Y-11045603D01*
X15839229Y-11045603D02*
X15820182Y-11055127D01*
X16048753Y-11083698D02*
X16029706Y-11074174D01*
X16029706Y-11074174D02*
X16020182Y-11064650D01*
X16020182Y-11064650D02*
X16010658Y-11045603D01*
X16010658Y-11045603D02*
X16010658Y-11036079D01*
X16010658Y-11036079D02*
X16020182Y-11017031D01*
X16020182Y-11017031D02*
X16029706Y-11007508D01*
X16029706Y-11007508D02*
X16048753Y-10997984D01*
X16048753Y-10997984D02*
X16086848Y-10997984D01*
X16086848Y-10997984D02*
X16105896Y-11007508D01*
X16105896Y-11007508D02*
X16115420Y-11017031D01*
X16115420Y-11017031D02*
X16124944Y-11036079D01*
X16124944Y-11036079D02*
X16124944Y-11045603D01*
X16124944Y-11045603D02*
X16115420Y-11064650D01*
X16115420Y-11064650D02*
X16105896Y-11074174D01*
X16105896Y-11074174D02*
X16086848Y-11083698D01*
X16086848Y-11083698D02*
X16048753Y-11083698D01*
X16048753Y-11083698D02*
X16029706Y-11093222D01*
X16029706Y-11093222D02*
X16020182Y-11102746D01*
X16020182Y-11102746D02*
X16010658Y-11121793D01*
X16010658Y-11121793D02*
X16010658Y-11159889D01*
X16010658Y-11159889D02*
X16020182Y-11178936D01*
X16020182Y-11178936D02*
X16029706Y-11188460D01*
X16029706Y-11188460D02*
X16048753Y-11197984D01*
X16048753Y-11197984D02*
X16086848Y-11197984D01*
X16086848Y-11197984D02*
X16105896Y-11188460D01*
X16105896Y-11188460D02*
X16115420Y-11178936D01*
X16115420Y-11178936D02*
X16124944Y-11159889D01*
X16124944Y-11159889D02*
X16124944Y-11121793D01*
X16124944Y-11121793D02*
X16115420Y-11102746D01*
X16115420Y-11102746D02*
X16105896Y-11093222D01*
X16105896Y-11093222D02*
X16086848Y-11083698D01*
X16201134Y-10997984D02*
X16201134Y-11036079D01*
X16277325Y-10997984D02*
X16277325Y-11036079D01*
X16572563Y-11274174D02*
X16563039Y-11264650D01*
X16563039Y-11264650D02*
X16543991Y-11236079D01*
X16543991Y-11236079D02*
X16534468Y-11217031D01*
X16534468Y-11217031D02*
X16524944Y-11188460D01*
X16524944Y-11188460D02*
X16515420Y-11140841D01*
X16515420Y-11140841D02*
X16515420Y-11102746D01*
X16515420Y-11102746D02*
X16524944Y-11055127D01*
X16524944Y-11055127D02*
X16534468Y-11026555D01*
X16534468Y-11026555D02*
X16543991Y-11007508D01*
X16543991Y-11007508D02*
X16563039Y-10978936D01*
X16563039Y-10978936D02*
X16572563Y-10969412D01*
X16677325Y-11083698D02*
X16658277Y-11074174D01*
X16658277Y-11074174D02*
X16648753Y-11064650D01*
X16648753Y-11064650D02*
X16639229Y-11045603D01*
X16639229Y-11045603D02*
X16639229Y-11036079D01*
X16639229Y-11036079D02*
X16648753Y-11017031D01*
X16648753Y-11017031D02*
X16658277Y-11007508D01*
X16658277Y-11007508D02*
X16677325Y-10997984D01*
X16677325Y-10997984D02*
X16715420Y-10997984D01*
X16715420Y-10997984D02*
X16734468Y-11007508D01*
X16734468Y-11007508D02*
X16743991Y-11017031D01*
X16743991Y-11017031D02*
X16753515Y-11036079D01*
X16753515Y-11036079D02*
X16753515Y-11045603D01*
X16753515Y-11045603D02*
X16743991Y-11064650D01*
X16743991Y-11064650D02*
X16734468Y-11074174D01*
X16734468Y-11074174D02*
X16715420Y-11083698D01*
X16715420Y-11083698D02*
X16677325Y-11083698D01*
X16677325Y-11083698D02*
X16658277Y-11093222D01*
X16658277Y-11093222D02*
X16648753Y-11102746D01*
X16648753Y-11102746D02*
X16639229Y-11121793D01*
X16639229Y-11121793D02*
X16639229Y-11159889D01*
X16639229Y-11159889D02*
X16648753Y-11178936D01*
X16648753Y-11178936D02*
X16658277Y-11188460D01*
X16658277Y-11188460D02*
X16677325Y-11197984D01*
X16677325Y-11197984D02*
X16715420Y-11197984D01*
X16715420Y-11197984D02*
X16734468Y-11188460D01*
X16734468Y-11188460D02*
X16743991Y-11178936D01*
X16743991Y-11178936D02*
X16753515Y-11159889D01*
X16753515Y-11159889D02*
X16753515Y-11121793D01*
X16753515Y-11121793D02*
X16743991Y-11102746D01*
X16743991Y-11102746D02*
X16734468Y-11093222D01*
X16734468Y-11093222D02*
X16715420Y-11083698D01*
X16991611Y-11197984D02*
X16991611Y-10997984D01*
X17077325Y-11197984D02*
X17077325Y-11093222D01*
X17077325Y-11093222D02*
X17067801Y-11074174D01*
X17067801Y-11074174D02*
X17048753Y-11064650D01*
X17048753Y-11064650D02*
X17020182Y-11064650D01*
X17020182Y-11064650D02*
X17001134Y-11074174D01*
X17001134Y-11074174D02*
X16991611Y-11083698D01*
X17201134Y-11197984D02*
X17182087Y-11188460D01*
X17182087Y-11188460D02*
X17172563Y-11178936D01*
X17172563Y-11178936D02*
X17163039Y-11159889D01*
X17163039Y-11159889D02*
X17163039Y-11102746D01*
X17163039Y-11102746D02*
X17172563Y-11083698D01*
X17172563Y-11083698D02*
X17182087Y-11074174D01*
X17182087Y-11074174D02*
X17201134Y-11064650D01*
X17201134Y-11064650D02*
X17229706Y-11064650D01*
X17229706Y-11064650D02*
X17248753Y-11074174D01*
X17248753Y-11074174D02*
X17258277Y-11083698D01*
X17258277Y-11083698D02*
X17267801Y-11102746D01*
X17267801Y-11102746D02*
X17267801Y-11159889D01*
X17267801Y-11159889D02*
X17258277Y-11178936D01*
X17258277Y-11178936D02*
X17248753Y-11188460D01*
X17248753Y-11188460D02*
X17229706Y-11197984D01*
X17229706Y-11197984D02*
X17201134Y-11197984D01*
X17382087Y-11197984D02*
X17363039Y-11188460D01*
X17363039Y-11188460D02*
X17353515Y-11169412D01*
X17353515Y-11169412D02*
X17353515Y-10997984D01*
X17534468Y-11188460D02*
X17515420Y-11197984D01*
X17515420Y-11197984D02*
X17477325Y-11197984D01*
X17477325Y-11197984D02*
X17458277Y-11188460D01*
X17458277Y-11188460D02*
X17448753Y-11169412D01*
X17448753Y-11169412D02*
X17448753Y-11093222D01*
X17448753Y-11093222D02*
X17458277Y-11074174D01*
X17458277Y-11074174D02*
X17477325Y-11064650D01*
X17477325Y-11064650D02*
X17515420Y-11064650D01*
X17515420Y-11064650D02*
X17534468Y-11074174D01*
X17534468Y-11074174D02*
X17543992Y-11093222D01*
X17543992Y-11093222D02*
X17543992Y-11112270D01*
X17543992Y-11112270D02*
X17448753Y-11131317D01*
X17620182Y-11188460D02*
X17639230Y-11197984D01*
X17639230Y-11197984D02*
X17677325Y-11197984D01*
X17677325Y-11197984D02*
X17696373Y-11188460D01*
X17696373Y-11188460D02*
X17705896Y-11169412D01*
X17705896Y-11169412D02*
X17705896Y-11159889D01*
X17705896Y-11159889D02*
X17696373Y-11140841D01*
X17696373Y-11140841D02*
X17677325Y-11131317D01*
X17677325Y-11131317D02*
X17648753Y-11131317D01*
X17648753Y-11131317D02*
X17629706Y-11121793D01*
X17629706Y-11121793D02*
X17620182Y-11102746D01*
X17620182Y-11102746D02*
X17620182Y-11093222D01*
X17620182Y-11093222D02*
X17629706Y-11074174D01*
X17629706Y-11074174D02*
X17648753Y-11064650D01*
X17648753Y-11064650D02*
X17677325Y-11064650D01*
X17677325Y-11064650D02*
X17696373Y-11074174D01*
X17772563Y-11274174D02*
X17782087Y-11264650D01*
X17782087Y-11264650D02*
X17801134Y-11236079D01*
X17801134Y-11236079D02*
X17810658Y-11217031D01*
X17810658Y-11217031D02*
X17820182Y-11188460D01*
X17820182Y-11188460D02*
X17829706Y-11140841D01*
X17829706Y-11140841D02*
X17829706Y-11102746D01*
X17829706Y-11102746D02*
X17820182Y-11055127D01*
X17820182Y-11055127D02*
X17810658Y-11026555D01*
X17810658Y-11026555D02*
X17801134Y-11007508D01*
X17801134Y-11007508D02*
X17782087Y-10978936D01*
X17782087Y-10978936D02*
X17772563Y-10969412D01*
X12897500Y-11270500D02*
X12897500Y-11470500D01*
X12797500Y-11370500D02*
X12997500Y-11370500D01*
X13248753Y-11281031D02*
X13258277Y-11271508D01*
X13258277Y-11271508D02*
X13277324Y-11261984D01*
X13277324Y-11261984D02*
X13324943Y-11261984D01*
X13324943Y-11261984D02*
X13343991Y-11271508D01*
X13343991Y-11271508D02*
X13353515Y-11281031D01*
X13353515Y-11281031D02*
X13363039Y-11300079D01*
X13363039Y-11300079D02*
X13363039Y-11319127D01*
X13363039Y-11319127D02*
X13353515Y-11347698D01*
X13353515Y-11347698D02*
X13239229Y-11461984D01*
X13239229Y-11461984D02*
X13363039Y-11461984D01*
X13448753Y-11442936D02*
X13458277Y-11452460D01*
X13458277Y-11452460D02*
X13448753Y-11461984D01*
X13448753Y-11461984D02*
X13439229Y-11452460D01*
X13439229Y-11452460D02*
X13448753Y-11442936D01*
X13448753Y-11442936D02*
X13448753Y-11461984D01*
X13534467Y-11281031D02*
X13543991Y-11271508D01*
X13543991Y-11271508D02*
X13563039Y-11261984D01*
X13563039Y-11261984D02*
X13610658Y-11261984D01*
X13610658Y-11261984D02*
X13629705Y-11271508D01*
X13629705Y-11271508D02*
X13639229Y-11281031D01*
X13639229Y-11281031D02*
X13648753Y-11300079D01*
X13648753Y-11300079D02*
X13648753Y-11319127D01*
X13648753Y-11319127D02*
X13639229Y-11347698D01*
X13639229Y-11347698D02*
X13524943Y-11461984D01*
X13524943Y-11461984D02*
X13648753Y-11461984D01*
X13772562Y-11261984D02*
X13791610Y-11261984D01*
X13791610Y-11261984D02*
X13810658Y-11271508D01*
X13810658Y-11271508D02*
X13820182Y-11281031D01*
X13820182Y-11281031D02*
X13829705Y-11300079D01*
X13829705Y-11300079D02*
X13839229Y-11338174D01*
X13839229Y-11338174D02*
X13839229Y-11385793D01*
X13839229Y-11385793D02*
X13829705Y-11423888D01*
X13829705Y-11423888D02*
X13820182Y-11442936D01*
X13820182Y-11442936D02*
X13810658Y-11452460D01*
X13810658Y-11452460D02*
X13791610Y-11461984D01*
X13791610Y-11461984D02*
X13772562Y-11461984D01*
X13772562Y-11461984D02*
X13753515Y-11452460D01*
X13753515Y-11452460D02*
X13743991Y-11442936D01*
X13743991Y-11442936D02*
X13734467Y-11423888D01*
X13734467Y-11423888D02*
X13724943Y-11385793D01*
X13724943Y-11385793D02*
X13724943Y-11338174D01*
X13724943Y-11338174D02*
X13734467Y-11300079D01*
X13734467Y-11300079D02*
X13743991Y-11281031D01*
X13743991Y-11281031D02*
X13753515Y-11271508D01*
X13753515Y-11271508D02*
X13772562Y-11261984D01*
X13963039Y-11261984D02*
X13982086Y-11261984D01*
X13982086Y-11261984D02*
X14001134Y-11271508D01*
X14001134Y-11271508D02*
X14010658Y-11281031D01*
X14010658Y-11281031D02*
X14020182Y-11300079D01*
X14020182Y-11300079D02*
X14029705Y-11338174D01*
X14029705Y-11338174D02*
X14029705Y-11385793D01*
X14029705Y-11385793D02*
X14020182Y-11423888D01*
X14020182Y-11423888D02*
X14010658Y-11442936D01*
X14010658Y-11442936D02*
X14001134Y-11452460D01*
X14001134Y-11452460D02*
X13982086Y-11461984D01*
X13982086Y-11461984D02*
X13963039Y-11461984D01*
X13963039Y-11461984D02*
X13943991Y-11452460D01*
X13943991Y-11452460D02*
X13934467Y-11442936D01*
X13934467Y-11442936D02*
X13924943Y-11423888D01*
X13924943Y-11423888D02*
X13915420Y-11385793D01*
X13915420Y-11385793D02*
X13915420Y-11338174D01*
X13915420Y-11338174D02*
X13924943Y-11300079D01*
X13924943Y-11300079D02*
X13934467Y-11281031D01*
X13934467Y-11281031D02*
X13943991Y-11271508D01*
X13943991Y-11271508D02*
X13963039Y-11261984D01*
X14115420Y-11461984D02*
X14115420Y-11328650D01*
X14115420Y-11347698D02*
X14124943Y-11338174D01*
X14124943Y-11338174D02*
X14143991Y-11328650D01*
X14143991Y-11328650D02*
X14172563Y-11328650D01*
X14172563Y-11328650D02*
X14191610Y-11338174D01*
X14191610Y-11338174D02*
X14201134Y-11357222D01*
X14201134Y-11357222D02*
X14201134Y-11461984D01*
X14201134Y-11357222D02*
X14210658Y-11338174D01*
X14210658Y-11338174D02*
X14229705Y-11328650D01*
X14229705Y-11328650D02*
X14258277Y-11328650D01*
X14258277Y-11328650D02*
X14277324Y-11338174D01*
X14277324Y-11338174D02*
X14286848Y-11357222D01*
X14286848Y-11357222D02*
X14286848Y-11461984D01*
X14382086Y-11461984D02*
X14382086Y-11328650D01*
X14382086Y-11347698D02*
X14391610Y-11338174D01*
X14391610Y-11338174D02*
X14410658Y-11328650D01*
X14410658Y-11328650D02*
X14439229Y-11328650D01*
X14439229Y-11328650D02*
X14458277Y-11338174D01*
X14458277Y-11338174D02*
X14467801Y-11357222D01*
X14467801Y-11357222D02*
X14467801Y-11461984D01*
X14467801Y-11357222D02*
X14477324Y-11338174D01*
X14477324Y-11338174D02*
X14496372Y-11328650D01*
X14496372Y-11328650D02*
X14524943Y-11328650D01*
X14524943Y-11328650D02*
X14543991Y-11338174D01*
X14543991Y-11338174D02*
X14553515Y-11357222D01*
X14553515Y-11357222D02*
X14553515Y-11461984D01*
X14943991Y-11252460D02*
X14772563Y-11509603D01*
X15201134Y-11261984D02*
X15220182Y-11261984D01*
X15220182Y-11261984D02*
X15239229Y-11271508D01*
X15239229Y-11271508D02*
X15248753Y-11281031D01*
X15248753Y-11281031D02*
X15258277Y-11300079D01*
X15258277Y-11300079D02*
X15267801Y-11338174D01*
X15267801Y-11338174D02*
X15267801Y-11385793D01*
X15267801Y-11385793D02*
X15258277Y-11423888D01*
X15258277Y-11423888D02*
X15248753Y-11442936D01*
X15248753Y-11442936D02*
X15239229Y-11452460D01*
X15239229Y-11452460D02*
X15220182Y-11461984D01*
X15220182Y-11461984D02*
X15201134Y-11461984D01*
X15201134Y-11461984D02*
X15182086Y-11452460D01*
X15182086Y-11452460D02*
X15172563Y-11442936D01*
X15172563Y-11442936D02*
X15163039Y-11423888D01*
X15163039Y-11423888D02*
X15153515Y-11385793D01*
X15153515Y-11385793D02*
X15153515Y-11338174D01*
X15153515Y-11338174D02*
X15163039Y-11300079D01*
X15163039Y-11300079D02*
X15172563Y-11281031D01*
X15172563Y-11281031D02*
X15182086Y-11271508D01*
X15182086Y-11271508D02*
X15201134Y-11261984D01*
X15353515Y-11442936D02*
X15363039Y-11452460D01*
X15363039Y-11452460D02*
X15353515Y-11461984D01*
X15353515Y-11461984D02*
X15343991Y-11452460D01*
X15343991Y-11452460D02*
X15353515Y-11442936D01*
X15353515Y-11442936D02*
X15353515Y-11461984D01*
X15486848Y-11261984D02*
X15505896Y-11261984D01*
X15505896Y-11261984D02*
X15524944Y-11271508D01*
X15524944Y-11271508D02*
X15534467Y-11281031D01*
X15534467Y-11281031D02*
X15543991Y-11300079D01*
X15543991Y-11300079D02*
X15553515Y-11338174D01*
X15553515Y-11338174D02*
X15553515Y-11385793D01*
X15553515Y-11385793D02*
X15543991Y-11423888D01*
X15543991Y-11423888D02*
X15534467Y-11442936D01*
X15534467Y-11442936D02*
X15524944Y-11452460D01*
X15524944Y-11452460D02*
X15505896Y-11461984D01*
X15505896Y-11461984D02*
X15486848Y-11461984D01*
X15486848Y-11461984D02*
X15467801Y-11452460D01*
X15467801Y-11452460D02*
X15458277Y-11442936D01*
X15458277Y-11442936D02*
X15448753Y-11423888D01*
X15448753Y-11423888D02*
X15439229Y-11385793D01*
X15439229Y-11385793D02*
X15439229Y-11338174D01*
X15439229Y-11338174D02*
X15448753Y-11300079D01*
X15448753Y-11300079D02*
X15458277Y-11281031D01*
X15458277Y-11281031D02*
X15467801Y-11271508D01*
X15467801Y-11271508D02*
X15486848Y-11261984D01*
X15667801Y-11347698D02*
X15648753Y-11338174D01*
X15648753Y-11338174D02*
X15639229Y-11328650D01*
X15639229Y-11328650D02*
X15629706Y-11309603D01*
X15629706Y-11309603D02*
X15629706Y-11300079D01*
X15629706Y-11300079D02*
X15639229Y-11281031D01*
X15639229Y-11281031D02*
X15648753Y-11271508D01*
X15648753Y-11271508D02*
X15667801Y-11261984D01*
X15667801Y-11261984D02*
X15705896Y-11261984D01*
X15705896Y-11261984D02*
X15724944Y-11271508D01*
X15724944Y-11271508D02*
X15734467Y-11281031D01*
X15734467Y-11281031D02*
X15743991Y-11300079D01*
X15743991Y-11300079D02*
X15743991Y-11309603D01*
X15743991Y-11309603D02*
X15734467Y-11328650D01*
X15734467Y-11328650D02*
X15724944Y-11338174D01*
X15724944Y-11338174D02*
X15705896Y-11347698D01*
X15705896Y-11347698D02*
X15667801Y-11347698D01*
X15667801Y-11347698D02*
X15648753Y-11357222D01*
X15648753Y-11357222D02*
X15639229Y-11366746D01*
X15639229Y-11366746D02*
X15629706Y-11385793D01*
X15629706Y-11385793D02*
X15629706Y-11423888D01*
X15629706Y-11423888D02*
X15639229Y-11442936D01*
X15639229Y-11442936D02*
X15648753Y-11452460D01*
X15648753Y-11452460D02*
X15667801Y-11461984D01*
X15667801Y-11461984D02*
X15705896Y-11461984D01*
X15705896Y-11461984D02*
X15724944Y-11452460D01*
X15724944Y-11452460D02*
X15734467Y-11442936D01*
X15734467Y-11442936D02*
X15743991Y-11423888D01*
X15743991Y-11423888D02*
X15743991Y-11385793D01*
X15743991Y-11385793D02*
X15734467Y-11366746D01*
X15734467Y-11366746D02*
X15724944Y-11357222D01*
X15724944Y-11357222D02*
X15705896Y-11347698D01*
X15915420Y-11261984D02*
X15877325Y-11261984D01*
X15877325Y-11261984D02*
X15858277Y-11271508D01*
X15858277Y-11271508D02*
X15848753Y-11281031D01*
X15848753Y-11281031D02*
X15829706Y-11309603D01*
X15829706Y-11309603D02*
X15820182Y-11347698D01*
X15820182Y-11347698D02*
X15820182Y-11423888D01*
X15820182Y-11423888D02*
X15829706Y-11442936D01*
X15829706Y-11442936D02*
X15839229Y-11452460D01*
X15839229Y-11452460D02*
X15858277Y-11461984D01*
X15858277Y-11461984D02*
X15896372Y-11461984D01*
X15896372Y-11461984D02*
X15915420Y-11452460D01*
X15915420Y-11452460D02*
X15924944Y-11442936D01*
X15924944Y-11442936D02*
X15934467Y-11423888D01*
X15934467Y-11423888D02*
X15934467Y-11376269D01*
X15934467Y-11376269D02*
X15924944Y-11357222D01*
X15924944Y-11357222D02*
X15915420Y-11347698D01*
X15915420Y-11347698D02*
X15896372Y-11338174D01*
X15896372Y-11338174D02*
X15858277Y-11338174D01*
X15858277Y-11338174D02*
X15839229Y-11347698D01*
X15839229Y-11347698D02*
X15829706Y-11357222D01*
X15829706Y-11357222D02*
X15820182Y-11376269D01*
X16105896Y-11261984D02*
X16067801Y-11261984D01*
X16067801Y-11261984D02*
X16048753Y-11271508D01*
X16048753Y-11271508D02*
X16039229Y-11281031D01*
X16039229Y-11281031D02*
X16020182Y-11309603D01*
X16020182Y-11309603D02*
X16010658Y-11347698D01*
X16010658Y-11347698D02*
X16010658Y-11423888D01*
X16010658Y-11423888D02*
X16020182Y-11442936D01*
X16020182Y-11442936D02*
X16029706Y-11452460D01*
X16029706Y-11452460D02*
X16048753Y-11461984D01*
X16048753Y-11461984D02*
X16086848Y-11461984D01*
X16086848Y-11461984D02*
X16105896Y-11452460D01*
X16105896Y-11452460D02*
X16115420Y-11442936D01*
X16115420Y-11442936D02*
X16124944Y-11423888D01*
X16124944Y-11423888D02*
X16124944Y-11376269D01*
X16124944Y-11376269D02*
X16115420Y-11357222D01*
X16115420Y-11357222D02*
X16105896Y-11347698D01*
X16105896Y-11347698D02*
X16086848Y-11338174D01*
X16086848Y-11338174D02*
X16048753Y-11338174D01*
X16048753Y-11338174D02*
X16029706Y-11347698D01*
X16029706Y-11347698D02*
X16020182Y-11357222D01*
X16020182Y-11357222D02*
X16010658Y-11376269D01*
X16201134Y-11261984D02*
X16201134Y-11300079D01*
X16277325Y-11261984D02*
X16277325Y-11300079D01*
X16572563Y-11538174D02*
X16563039Y-11528650D01*
X16563039Y-11528650D02*
X16543991Y-11500079D01*
X16543991Y-11500079D02*
X16534468Y-11481031D01*
X16534468Y-11481031D02*
X16524944Y-11452460D01*
X16524944Y-11452460D02*
X16515420Y-11404841D01*
X16515420Y-11404841D02*
X16515420Y-11366746D01*
X16515420Y-11366746D02*
X16524944Y-11319127D01*
X16524944Y-11319127D02*
X16534468Y-11290555D01*
X16534468Y-11290555D02*
X16543991Y-11271508D01*
X16543991Y-11271508D02*
X16563039Y-11242936D01*
X16563039Y-11242936D02*
X16572563Y-11233412D01*
X16734468Y-11328650D02*
X16734468Y-11461984D01*
X16686848Y-11252460D02*
X16639229Y-11395317D01*
X16639229Y-11395317D02*
X16763039Y-11395317D01*
X16991611Y-11461984D02*
X16991611Y-11261984D01*
X17077325Y-11461984D02*
X17077325Y-11357222D01*
X17077325Y-11357222D02*
X17067801Y-11338174D01*
X17067801Y-11338174D02*
X17048753Y-11328650D01*
X17048753Y-11328650D02*
X17020182Y-11328650D01*
X17020182Y-11328650D02*
X17001134Y-11338174D01*
X17001134Y-11338174D02*
X16991611Y-11347698D01*
X17201134Y-11461984D02*
X17182087Y-11452460D01*
X17182087Y-11452460D02*
X17172563Y-11442936D01*
X17172563Y-11442936D02*
X17163039Y-11423888D01*
X17163039Y-11423888D02*
X17163039Y-11366746D01*
X17163039Y-11366746D02*
X17172563Y-11347698D01*
X17172563Y-11347698D02*
X17182087Y-11338174D01*
X17182087Y-11338174D02*
X17201134Y-11328650D01*
X17201134Y-11328650D02*
X17229706Y-11328650D01*
X17229706Y-11328650D02*
X17248753Y-11338174D01*
X17248753Y-11338174D02*
X17258277Y-11347698D01*
X17258277Y-11347698D02*
X17267801Y-11366746D01*
X17267801Y-11366746D02*
X17267801Y-11423888D01*
X17267801Y-11423888D02*
X17258277Y-11442936D01*
X17258277Y-11442936D02*
X17248753Y-11452460D01*
X17248753Y-11452460D02*
X17229706Y-11461984D01*
X17229706Y-11461984D02*
X17201134Y-11461984D01*
X17382087Y-11461984D02*
X17363039Y-11452460D01*
X17363039Y-11452460D02*
X17353515Y-11433412D01*
X17353515Y-11433412D02*
X17353515Y-11261984D01*
X17534468Y-11452460D02*
X17515420Y-11461984D01*
X17515420Y-11461984D02*
X17477325Y-11461984D01*
X17477325Y-11461984D02*
X17458277Y-11452460D01*
X17458277Y-11452460D02*
X17448753Y-11433412D01*
X17448753Y-11433412D02*
X17448753Y-11357222D01*
X17448753Y-11357222D02*
X17458277Y-11338174D01*
X17458277Y-11338174D02*
X17477325Y-11328650D01*
X17477325Y-11328650D02*
X17515420Y-11328650D01*
X17515420Y-11328650D02*
X17534468Y-11338174D01*
X17534468Y-11338174D02*
X17543992Y-11357222D01*
X17543992Y-11357222D02*
X17543992Y-11376269D01*
X17543992Y-11376269D02*
X17448753Y-11395317D01*
X17620182Y-11452460D02*
X17639230Y-11461984D01*
X17639230Y-11461984D02*
X17677325Y-11461984D01*
X17677325Y-11461984D02*
X17696373Y-11452460D01*
X17696373Y-11452460D02*
X17705896Y-11433412D01*
X17705896Y-11433412D02*
X17705896Y-11423888D01*
X17705896Y-11423888D02*
X17696373Y-11404841D01*
X17696373Y-11404841D02*
X17677325Y-11395317D01*
X17677325Y-11395317D02*
X17648753Y-11395317D01*
X17648753Y-11395317D02*
X17629706Y-11385793D01*
X17629706Y-11385793D02*
X17620182Y-11366746D01*
X17620182Y-11366746D02*
X17620182Y-11357222D01*
X17620182Y-11357222D02*
X17629706Y-11338174D01*
X17629706Y-11338174D02*
X17648753Y-11328650D01*
X17648753Y-11328650D02*
X17677325Y-11328650D01*
X17677325Y-11328650D02*
X17696373Y-11338174D01*
X17772563Y-11538174D02*
X17782087Y-11528650D01*
X17782087Y-11528650D02*
X17801134Y-11500079D01*
X17801134Y-11500079D02*
X17810658Y-11481031D01*
X17810658Y-11481031D02*
X17820182Y-11452460D01*
X17820182Y-11452460D02*
X17829706Y-11404841D01*
X17829706Y-11404841D02*
X17829706Y-11366746D01*
X17829706Y-11366746D02*
X17820182Y-11319127D01*
X17820182Y-11319127D02*
X17810658Y-11290555D01*
X17810658Y-11290555D02*
X17801134Y-11271508D01*
X17801134Y-11271508D02*
X17782087Y-11242936D01*
X17782087Y-11242936D02*
X17772563Y-11233412D01*
M02*
